G04 #@! TF.GenerationSoftware,KiCad,Pcbnew,(5.1.0)-1*
G04 #@! TF.CreationDate,2022-02-26T19:57:31-08:00*
G04 #@! TF.ProjectId,BITLINK_12F_R1,4249544c-494e-44b5-9f31-32465f52312e,rev?*
G04 #@! TF.SameCoordinates,PX7755c18PY8cd1ce0*
G04 #@! TF.FileFunction,Paste,Top*
G04 #@! TF.FilePolarity,Positive*
%FSLAX45Y45*%
G04 Gerber Fmt 4.5, Leading zero omitted, Abs format (unit mm)*
G04 Created by KiCad (PCBNEW (5.1.0)-1) date 2022-02-26 19:57:31*
%MOMM*%
%LPD*%
G04 APERTURE LIST*
%ADD10R,3.050000X2.750000*%
%ADD11R,2.200000X1.200000*%
%ADD12R,2.500000X1.000000*%
%ADD13C,0.100000*%
%ADD14C,1.600000*%
%ADD15R,0.900000X0.800000*%
%ADD16C,1.150000*%
%ADD17R,0.450000X1.750000*%
%ADD18C,1.425000*%
%ADD19C,1.500000*%
%ADD20R,2.500000X1.800000*%
G04 APERTURE END LIST*
D10*
X1786980Y2779520D03*
X2121980Y3084520D03*
X1786980Y3084520D03*
X2121980Y2779520D03*
D11*
X1324480Y2704020D03*
X1324480Y3160020D03*
D12*
X1653000Y6116000D03*
X1653000Y5916000D03*
X1653000Y5716000D03*
X1653000Y5516000D03*
X1653000Y5316000D03*
X1653000Y5116000D03*
X1653000Y4916000D03*
X1653000Y4716000D03*
X3173000Y4716000D03*
X3173000Y4916000D03*
X3173000Y5116000D03*
X3173000Y5316000D03*
X3173000Y5516000D03*
X3173000Y5716000D03*
X3173000Y5916000D03*
X3173000Y6116000D03*
D13*
G36*
X879270Y3028880D02*
G01*
X881697Y3028520D01*
X884077Y3027923D01*
X886387Y3027097D01*
X888605Y3026048D01*
X890709Y3024787D01*
X892680Y3023325D01*
X894498Y3021678D01*
X896145Y3019860D01*
X897607Y3017889D01*
X898868Y3015785D01*
X899917Y3013567D01*
X900743Y3011257D01*
X901340Y3008877D01*
X901700Y3006450D01*
X901820Y3004000D01*
X901820Y2704000D01*
X901700Y2701550D01*
X901340Y2699123D01*
X900743Y2696743D01*
X899917Y2694433D01*
X898868Y2692215D01*
X897607Y2690111D01*
X896145Y2688140D01*
X894498Y2686322D01*
X892680Y2684675D01*
X890709Y2683213D01*
X888605Y2681952D01*
X886387Y2680903D01*
X884077Y2680077D01*
X881697Y2679480D01*
X879270Y2679120D01*
X876820Y2679000D01*
X766820Y2679000D01*
X764370Y2679120D01*
X761943Y2679480D01*
X759563Y2680077D01*
X757253Y2680903D01*
X755035Y2681952D01*
X752931Y2683213D01*
X750960Y2684675D01*
X749142Y2686322D01*
X747495Y2688140D01*
X746033Y2690111D01*
X744772Y2692215D01*
X743723Y2694433D01*
X742896Y2696743D01*
X742300Y2699123D01*
X741940Y2701550D01*
X741820Y2704000D01*
X741820Y3004000D01*
X741940Y3006450D01*
X742300Y3008877D01*
X742896Y3011257D01*
X743723Y3013567D01*
X744772Y3015785D01*
X746033Y3017889D01*
X747495Y3019860D01*
X749142Y3021678D01*
X750960Y3023325D01*
X752931Y3024787D01*
X755035Y3026048D01*
X757253Y3027097D01*
X759563Y3027923D01*
X761943Y3028520D01*
X764370Y3028880D01*
X766820Y3029000D01*
X876820Y3029000D01*
X879270Y3028880D01*
X879270Y3028880D01*
G37*
D14*
X821820Y2854000D03*
D13*
G36*
X879270Y2468880D02*
G01*
X881697Y2468520D01*
X884077Y2467924D01*
X886387Y2467097D01*
X888605Y2466048D01*
X890709Y2464787D01*
X892680Y2463325D01*
X894498Y2461678D01*
X896145Y2459860D01*
X897607Y2457889D01*
X898868Y2455785D01*
X899917Y2453567D01*
X900743Y2451257D01*
X901340Y2448877D01*
X901700Y2446450D01*
X901820Y2444000D01*
X901820Y2144000D01*
X901700Y2141550D01*
X901340Y2139123D01*
X900743Y2136743D01*
X899917Y2134433D01*
X898868Y2132215D01*
X897607Y2130111D01*
X896145Y2128140D01*
X894498Y2126322D01*
X892680Y2124675D01*
X890709Y2123213D01*
X888605Y2121952D01*
X886387Y2120903D01*
X884077Y2120077D01*
X881697Y2119480D01*
X879270Y2119120D01*
X876820Y2119000D01*
X766820Y2119000D01*
X764370Y2119120D01*
X761943Y2119480D01*
X759563Y2120077D01*
X757253Y2120903D01*
X755035Y2121952D01*
X752931Y2123213D01*
X750960Y2124675D01*
X749142Y2126322D01*
X747495Y2128140D01*
X746033Y2130111D01*
X744772Y2132215D01*
X743723Y2134433D01*
X742896Y2136743D01*
X742300Y2139123D01*
X741940Y2141550D01*
X741820Y2144000D01*
X741820Y2444000D01*
X741940Y2446450D01*
X742300Y2448877D01*
X742896Y2451257D01*
X743723Y2453567D01*
X744772Y2455785D01*
X746033Y2457889D01*
X747495Y2459860D01*
X749142Y2461678D01*
X750960Y2463325D01*
X752931Y2464787D01*
X755035Y2466048D01*
X757253Y2467097D01*
X759563Y2467924D01*
X761943Y2468520D01*
X764370Y2468880D01*
X766820Y2469000D01*
X876820Y2469000D01*
X879270Y2468880D01*
X879270Y2468880D01*
G37*
D14*
X821820Y2294000D03*
D15*
X4186000Y8066000D03*
X4386000Y8161000D03*
X4386000Y7971000D03*
D13*
G36*
X2887870Y2053330D02*
G01*
X2890297Y2052970D01*
X2892677Y2052373D01*
X2894987Y2051547D01*
X2897205Y2050498D01*
X2899309Y2049237D01*
X2901280Y2047775D01*
X2903098Y2046128D01*
X2904745Y2044310D01*
X2906207Y2042339D01*
X2907468Y2040235D01*
X2908517Y2038017D01*
X2909343Y2035707D01*
X2909940Y2033327D01*
X2910300Y2030900D01*
X2910420Y2028450D01*
X2910420Y1938450D01*
X2910300Y1935999D01*
X2909940Y1933573D01*
X2909343Y1931193D01*
X2908517Y1928883D01*
X2907468Y1926665D01*
X2906207Y1924561D01*
X2904745Y1922590D01*
X2903098Y1920772D01*
X2901280Y1919125D01*
X2899309Y1917663D01*
X2897205Y1916402D01*
X2894987Y1915353D01*
X2892677Y1914526D01*
X2890297Y1913930D01*
X2887870Y1913570D01*
X2885420Y1913450D01*
X2820420Y1913450D01*
X2817969Y1913570D01*
X2815543Y1913930D01*
X2813163Y1914526D01*
X2810853Y1915353D01*
X2808635Y1916402D01*
X2806531Y1917663D01*
X2804560Y1919125D01*
X2802742Y1920772D01*
X2801095Y1922590D01*
X2799633Y1924561D01*
X2798372Y1926665D01*
X2797323Y1928883D01*
X2796496Y1931193D01*
X2795900Y1933573D01*
X2795540Y1935999D01*
X2795420Y1938450D01*
X2795420Y2028450D01*
X2795540Y2030900D01*
X2795900Y2033327D01*
X2796496Y2035707D01*
X2797323Y2038017D01*
X2798372Y2040235D01*
X2799633Y2042339D01*
X2801095Y2044310D01*
X2802742Y2046128D01*
X2804560Y2047775D01*
X2806531Y2049237D01*
X2808635Y2050498D01*
X2810853Y2051547D01*
X2813163Y2052373D01*
X2815543Y2052970D01*
X2817969Y2053330D01*
X2820420Y2053450D01*
X2885420Y2053450D01*
X2887870Y2053330D01*
X2887870Y2053330D01*
G37*
D16*
X2852920Y1983450D03*
D13*
G36*
X3092870Y2053330D02*
G01*
X3095297Y2052970D01*
X3097677Y2052373D01*
X3099987Y2051547D01*
X3102205Y2050498D01*
X3104309Y2049237D01*
X3106280Y2047775D01*
X3108098Y2046128D01*
X3109745Y2044310D01*
X3111207Y2042339D01*
X3112468Y2040235D01*
X3113517Y2038017D01*
X3114343Y2035707D01*
X3114940Y2033327D01*
X3115300Y2030900D01*
X3115420Y2028450D01*
X3115420Y1938450D01*
X3115300Y1935999D01*
X3114940Y1933573D01*
X3114343Y1931193D01*
X3113517Y1928883D01*
X3112468Y1926665D01*
X3111207Y1924561D01*
X3109745Y1922590D01*
X3108098Y1920772D01*
X3106280Y1919125D01*
X3104309Y1917663D01*
X3102205Y1916402D01*
X3099987Y1915353D01*
X3097677Y1914526D01*
X3095297Y1913930D01*
X3092870Y1913570D01*
X3090420Y1913450D01*
X3025420Y1913450D01*
X3022969Y1913570D01*
X3020543Y1913930D01*
X3018163Y1914526D01*
X3015853Y1915353D01*
X3013635Y1916402D01*
X3011531Y1917663D01*
X3009560Y1919125D01*
X3007742Y1920772D01*
X3006095Y1922590D01*
X3004633Y1924561D01*
X3003372Y1926665D01*
X3002323Y1928883D01*
X3001496Y1931193D01*
X3000900Y1933573D01*
X3000540Y1935999D01*
X3000420Y1938450D01*
X3000420Y2028450D01*
X3000540Y2030900D01*
X3000900Y2033327D01*
X3001496Y2035707D01*
X3002323Y2038017D01*
X3003372Y2040235D01*
X3004633Y2042339D01*
X3006095Y2044310D01*
X3007742Y2046128D01*
X3009560Y2047775D01*
X3011531Y2049237D01*
X3013635Y2050498D01*
X3015853Y2051547D01*
X3018163Y2052373D01*
X3020543Y2052970D01*
X3022969Y2053330D01*
X3025420Y2053450D01*
X3090420Y2053450D01*
X3092870Y2053330D01*
X3092870Y2053330D01*
G37*
D16*
X3057920Y1983450D03*
D13*
G36*
X855870Y3355080D02*
G01*
X858297Y3354720D01*
X860677Y3354123D01*
X862987Y3353297D01*
X865205Y3352248D01*
X867309Y3350987D01*
X869280Y3349525D01*
X871098Y3347878D01*
X872745Y3346060D01*
X874207Y3344089D01*
X875468Y3341985D01*
X876517Y3339767D01*
X877343Y3337457D01*
X877940Y3335077D01*
X878300Y3332650D01*
X878420Y3330200D01*
X878420Y3240200D01*
X878300Y3237749D01*
X877940Y3235323D01*
X877343Y3232943D01*
X876517Y3230633D01*
X875468Y3228415D01*
X874207Y3226311D01*
X872745Y3224340D01*
X871098Y3222522D01*
X869280Y3220875D01*
X867309Y3219413D01*
X865205Y3218152D01*
X862987Y3217103D01*
X860677Y3216276D01*
X858297Y3215680D01*
X855870Y3215320D01*
X853420Y3215200D01*
X788420Y3215200D01*
X785969Y3215320D01*
X783543Y3215680D01*
X781163Y3216276D01*
X778853Y3217103D01*
X776635Y3218152D01*
X774531Y3219413D01*
X772560Y3220875D01*
X770742Y3222522D01*
X769095Y3224340D01*
X767633Y3226311D01*
X766372Y3228415D01*
X765323Y3230633D01*
X764496Y3232943D01*
X763900Y3235323D01*
X763540Y3237749D01*
X763420Y3240200D01*
X763420Y3330200D01*
X763540Y3332650D01*
X763900Y3335077D01*
X764496Y3337457D01*
X765323Y3339767D01*
X766372Y3341985D01*
X767633Y3344089D01*
X769095Y3346060D01*
X770742Y3347878D01*
X772560Y3349525D01*
X774531Y3350987D01*
X776635Y3352248D01*
X778853Y3353297D01*
X781163Y3354123D01*
X783543Y3354720D01*
X785969Y3355080D01*
X788420Y3355200D01*
X853420Y3355200D01*
X855870Y3355080D01*
X855870Y3355080D01*
G37*
D16*
X820920Y3285200D03*
D13*
G36*
X1060871Y3355080D02*
G01*
X1063297Y3354720D01*
X1065677Y3354123D01*
X1067987Y3353297D01*
X1070205Y3352248D01*
X1072309Y3350987D01*
X1074280Y3349525D01*
X1076098Y3347878D01*
X1077745Y3346060D01*
X1079207Y3344089D01*
X1080468Y3341985D01*
X1081517Y3339767D01*
X1082344Y3337457D01*
X1082940Y3335077D01*
X1083300Y3332650D01*
X1083420Y3330200D01*
X1083420Y3240200D01*
X1083300Y3237749D01*
X1082940Y3235323D01*
X1082344Y3232943D01*
X1081517Y3230633D01*
X1080468Y3228415D01*
X1079207Y3226311D01*
X1077745Y3224340D01*
X1076098Y3222522D01*
X1074280Y3220875D01*
X1072309Y3219413D01*
X1070205Y3218152D01*
X1067987Y3217103D01*
X1065677Y3216276D01*
X1063297Y3215680D01*
X1060871Y3215320D01*
X1058420Y3215200D01*
X993420Y3215200D01*
X990969Y3215320D01*
X988543Y3215680D01*
X986163Y3216276D01*
X983853Y3217103D01*
X981635Y3218152D01*
X979531Y3219413D01*
X977560Y3220875D01*
X975742Y3222522D01*
X974095Y3224340D01*
X972633Y3226311D01*
X971372Y3228415D01*
X970323Y3230633D01*
X969496Y3232943D01*
X968900Y3235323D01*
X968540Y3237749D01*
X968420Y3240200D01*
X968420Y3330200D01*
X968540Y3332650D01*
X968900Y3335077D01*
X969496Y3337457D01*
X970323Y3339767D01*
X971372Y3341985D01*
X972633Y3344089D01*
X974095Y3346060D01*
X975742Y3347878D01*
X977560Y3349525D01*
X979531Y3350987D01*
X981635Y3352248D01*
X983853Y3353297D01*
X986163Y3354123D01*
X988543Y3354720D01*
X990969Y3355080D01*
X993420Y3355200D01*
X1058420Y3355200D01*
X1060871Y3355080D01*
X1060871Y3355080D01*
G37*
D16*
X1025920Y3285200D03*
D13*
G36*
X3092870Y2459730D02*
G01*
X3095297Y2459370D01*
X3097677Y2458774D01*
X3099987Y2457947D01*
X3102205Y2456898D01*
X3104309Y2455637D01*
X3106280Y2454175D01*
X3108098Y2452528D01*
X3109745Y2450710D01*
X3111207Y2448739D01*
X3112468Y2446635D01*
X3113517Y2444417D01*
X3114343Y2442107D01*
X3114940Y2439727D01*
X3115300Y2437301D01*
X3115420Y2434850D01*
X3115420Y2344850D01*
X3115300Y2342400D01*
X3114940Y2339973D01*
X3114343Y2337593D01*
X3113517Y2335283D01*
X3112468Y2333065D01*
X3111207Y2330961D01*
X3109745Y2328990D01*
X3108098Y2327172D01*
X3106280Y2325525D01*
X3104309Y2324063D01*
X3102205Y2322802D01*
X3099987Y2321753D01*
X3097677Y2320927D01*
X3095297Y2320330D01*
X3092870Y2319970D01*
X3090420Y2319850D01*
X3025420Y2319850D01*
X3022969Y2319970D01*
X3020543Y2320330D01*
X3018163Y2320927D01*
X3015853Y2321753D01*
X3013635Y2322802D01*
X3011531Y2324063D01*
X3009560Y2325525D01*
X3007742Y2327172D01*
X3006095Y2328990D01*
X3004633Y2330961D01*
X3003372Y2333065D01*
X3002323Y2335283D01*
X3001496Y2337593D01*
X3000900Y2339973D01*
X3000540Y2342400D01*
X3000420Y2344850D01*
X3000420Y2434850D01*
X3000540Y2437301D01*
X3000900Y2439727D01*
X3001496Y2442107D01*
X3002323Y2444417D01*
X3003372Y2446635D01*
X3004633Y2448739D01*
X3006095Y2450710D01*
X3007742Y2452528D01*
X3009560Y2454175D01*
X3011531Y2455637D01*
X3013635Y2456898D01*
X3015853Y2457947D01*
X3018163Y2458774D01*
X3020543Y2459370D01*
X3022969Y2459730D01*
X3025420Y2459850D01*
X3090420Y2459850D01*
X3092870Y2459730D01*
X3092870Y2459730D01*
G37*
D16*
X3057920Y2389850D03*
D13*
G36*
X2887870Y2459730D02*
G01*
X2890297Y2459370D01*
X2892677Y2458774D01*
X2894987Y2457947D01*
X2897205Y2456898D01*
X2899309Y2455637D01*
X2901280Y2454175D01*
X2903098Y2452528D01*
X2904745Y2450710D01*
X2906207Y2448739D01*
X2907468Y2446635D01*
X2908517Y2444417D01*
X2909343Y2442107D01*
X2909940Y2439727D01*
X2910300Y2437301D01*
X2910420Y2434850D01*
X2910420Y2344850D01*
X2910300Y2342400D01*
X2909940Y2339973D01*
X2909343Y2337593D01*
X2908517Y2335283D01*
X2907468Y2333065D01*
X2906207Y2330961D01*
X2904745Y2328990D01*
X2903098Y2327172D01*
X2901280Y2325525D01*
X2899309Y2324063D01*
X2897205Y2322802D01*
X2894987Y2321753D01*
X2892677Y2320927D01*
X2890297Y2320330D01*
X2887870Y2319970D01*
X2885420Y2319850D01*
X2820420Y2319850D01*
X2817969Y2319970D01*
X2815543Y2320330D01*
X2813163Y2320927D01*
X2810853Y2321753D01*
X2808635Y2322802D01*
X2806531Y2324063D01*
X2804560Y2325525D01*
X2802742Y2327172D01*
X2801095Y2328990D01*
X2799633Y2330961D01*
X2798372Y2333065D01*
X2797323Y2335283D01*
X2796496Y2337593D01*
X2795900Y2339973D01*
X2795540Y2342400D01*
X2795420Y2344850D01*
X2795420Y2434850D01*
X2795540Y2437301D01*
X2795900Y2439727D01*
X2796496Y2442107D01*
X2797323Y2444417D01*
X2798372Y2446635D01*
X2799633Y2448739D01*
X2801095Y2450710D01*
X2802742Y2452528D01*
X2804560Y2454175D01*
X2806531Y2455637D01*
X2808635Y2456898D01*
X2810853Y2457947D01*
X2813163Y2458774D01*
X2815543Y2459370D01*
X2817969Y2459730D01*
X2820420Y2459850D01*
X2885420Y2459850D01*
X2887870Y2459730D01*
X2887870Y2459730D01*
G37*
D16*
X2852920Y2389850D03*
D13*
G36*
X3092870Y2681030D02*
G01*
X3095297Y2680670D01*
X3097677Y2680074D01*
X3099987Y2679247D01*
X3102205Y2678198D01*
X3104309Y2676937D01*
X3106280Y2675475D01*
X3108098Y2673828D01*
X3109745Y2672010D01*
X3111207Y2670039D01*
X3112468Y2667935D01*
X3113517Y2665717D01*
X3114343Y2663407D01*
X3114940Y2661027D01*
X3115300Y2658601D01*
X3115420Y2656150D01*
X3115420Y2566150D01*
X3115300Y2563700D01*
X3114940Y2561273D01*
X3114343Y2558893D01*
X3113517Y2556583D01*
X3112468Y2554365D01*
X3111207Y2552261D01*
X3109745Y2550290D01*
X3108098Y2548472D01*
X3106280Y2546825D01*
X3104309Y2545363D01*
X3102205Y2544102D01*
X3099987Y2543053D01*
X3097677Y2542227D01*
X3095297Y2541630D01*
X3092870Y2541270D01*
X3090420Y2541150D01*
X3025420Y2541150D01*
X3022969Y2541270D01*
X3020543Y2541630D01*
X3018163Y2542227D01*
X3015853Y2543053D01*
X3013635Y2544102D01*
X3011531Y2545363D01*
X3009560Y2546825D01*
X3007742Y2548472D01*
X3006095Y2550290D01*
X3004633Y2552261D01*
X3003372Y2554365D01*
X3002323Y2556583D01*
X3001496Y2558893D01*
X3000900Y2561273D01*
X3000540Y2563700D01*
X3000420Y2566150D01*
X3000420Y2656150D01*
X3000540Y2658601D01*
X3000900Y2661027D01*
X3001496Y2663407D01*
X3002323Y2665717D01*
X3003372Y2667935D01*
X3004633Y2670039D01*
X3006095Y2672010D01*
X3007742Y2673828D01*
X3009560Y2675475D01*
X3011531Y2676937D01*
X3013635Y2678198D01*
X3015853Y2679247D01*
X3018163Y2680074D01*
X3020543Y2680670D01*
X3022969Y2681030D01*
X3025420Y2681150D01*
X3090420Y2681150D01*
X3092870Y2681030D01*
X3092870Y2681030D01*
G37*
D16*
X3057920Y2611150D03*
D13*
G36*
X2887870Y2681030D02*
G01*
X2890297Y2680670D01*
X2892677Y2680074D01*
X2894987Y2679247D01*
X2897205Y2678198D01*
X2899309Y2676937D01*
X2901280Y2675475D01*
X2903098Y2673828D01*
X2904745Y2672010D01*
X2906207Y2670039D01*
X2907468Y2667935D01*
X2908517Y2665717D01*
X2909343Y2663407D01*
X2909940Y2661027D01*
X2910300Y2658601D01*
X2910420Y2656150D01*
X2910420Y2566150D01*
X2910300Y2563700D01*
X2909940Y2561273D01*
X2909343Y2558893D01*
X2908517Y2556583D01*
X2907468Y2554365D01*
X2906207Y2552261D01*
X2904745Y2550290D01*
X2903098Y2548472D01*
X2901280Y2546825D01*
X2899309Y2545363D01*
X2897205Y2544102D01*
X2894987Y2543053D01*
X2892677Y2542227D01*
X2890297Y2541630D01*
X2887870Y2541270D01*
X2885420Y2541150D01*
X2820420Y2541150D01*
X2817969Y2541270D01*
X2815543Y2541630D01*
X2813163Y2542227D01*
X2810853Y2543053D01*
X2808635Y2544102D01*
X2806531Y2545363D01*
X2804560Y2546825D01*
X2802742Y2548472D01*
X2801095Y2550290D01*
X2799633Y2552261D01*
X2798372Y2554365D01*
X2797323Y2556583D01*
X2796496Y2558893D01*
X2795900Y2561273D01*
X2795540Y2563700D01*
X2795420Y2566150D01*
X2795420Y2656150D01*
X2795540Y2658601D01*
X2795900Y2661027D01*
X2796496Y2663407D01*
X2797323Y2665717D01*
X2798372Y2667935D01*
X2799633Y2670039D01*
X2801095Y2672010D01*
X2802742Y2673828D01*
X2804560Y2675475D01*
X2806531Y2676937D01*
X2808635Y2678198D01*
X2810853Y2679247D01*
X2813163Y2680074D01*
X2815543Y2680670D01*
X2817969Y2681030D01*
X2820420Y2681150D01*
X2885420Y2681150D01*
X2887870Y2681030D01*
X2887870Y2681030D01*
G37*
D16*
X2852920Y2611150D03*
D13*
G36*
X3092870Y2256530D02*
G01*
X3095297Y2256170D01*
X3097677Y2255574D01*
X3099987Y2254747D01*
X3102205Y2253698D01*
X3104309Y2252437D01*
X3106280Y2250975D01*
X3108098Y2249328D01*
X3109745Y2247510D01*
X3111207Y2245539D01*
X3112468Y2243435D01*
X3113517Y2241217D01*
X3114343Y2238907D01*
X3114940Y2236527D01*
X3115300Y2234101D01*
X3115420Y2231650D01*
X3115420Y2141650D01*
X3115300Y2139200D01*
X3114940Y2136773D01*
X3114343Y2134393D01*
X3113517Y2132083D01*
X3112468Y2129865D01*
X3111207Y2127761D01*
X3109745Y2125790D01*
X3108098Y2123972D01*
X3106280Y2122325D01*
X3104309Y2120863D01*
X3102205Y2119602D01*
X3099987Y2118553D01*
X3097677Y2117727D01*
X3095297Y2117130D01*
X3092870Y2116770D01*
X3090420Y2116650D01*
X3025420Y2116650D01*
X3022969Y2116770D01*
X3020543Y2117130D01*
X3018163Y2117727D01*
X3015853Y2118553D01*
X3013635Y2119602D01*
X3011531Y2120863D01*
X3009560Y2122325D01*
X3007742Y2123972D01*
X3006095Y2125790D01*
X3004633Y2127761D01*
X3003372Y2129865D01*
X3002323Y2132083D01*
X3001496Y2134393D01*
X3000900Y2136773D01*
X3000540Y2139200D01*
X3000420Y2141650D01*
X3000420Y2231650D01*
X3000540Y2234101D01*
X3000900Y2236527D01*
X3001496Y2238907D01*
X3002323Y2241217D01*
X3003372Y2243435D01*
X3004633Y2245539D01*
X3006095Y2247510D01*
X3007742Y2249328D01*
X3009560Y2250975D01*
X3011531Y2252437D01*
X3013635Y2253698D01*
X3015853Y2254747D01*
X3018163Y2255574D01*
X3020543Y2256170D01*
X3022969Y2256530D01*
X3025420Y2256650D01*
X3090420Y2256650D01*
X3092870Y2256530D01*
X3092870Y2256530D01*
G37*
D16*
X3057920Y2186650D03*
D13*
G36*
X2887870Y2256530D02*
G01*
X2890297Y2256170D01*
X2892677Y2255574D01*
X2894987Y2254747D01*
X2897205Y2253698D01*
X2899309Y2252437D01*
X2901280Y2250975D01*
X2903098Y2249328D01*
X2904745Y2247510D01*
X2906207Y2245539D01*
X2907468Y2243435D01*
X2908517Y2241217D01*
X2909343Y2238907D01*
X2909940Y2236527D01*
X2910300Y2234101D01*
X2910420Y2231650D01*
X2910420Y2141650D01*
X2910300Y2139200D01*
X2909940Y2136773D01*
X2909343Y2134393D01*
X2908517Y2132083D01*
X2907468Y2129865D01*
X2906207Y2127761D01*
X2904745Y2125790D01*
X2903098Y2123972D01*
X2901280Y2122325D01*
X2899309Y2120863D01*
X2897205Y2119602D01*
X2894987Y2118553D01*
X2892677Y2117727D01*
X2890297Y2117130D01*
X2887870Y2116770D01*
X2885420Y2116650D01*
X2820420Y2116650D01*
X2817969Y2116770D01*
X2815543Y2117130D01*
X2813163Y2117727D01*
X2810853Y2118553D01*
X2808635Y2119602D01*
X2806531Y2120863D01*
X2804560Y2122325D01*
X2802742Y2123972D01*
X2801095Y2125790D01*
X2799633Y2127761D01*
X2798372Y2129865D01*
X2797323Y2132083D01*
X2796496Y2134393D01*
X2795900Y2136773D01*
X2795540Y2139200D01*
X2795420Y2141650D01*
X2795420Y2231650D01*
X2795540Y2234101D01*
X2795900Y2236527D01*
X2796496Y2238907D01*
X2797323Y2241217D01*
X2798372Y2243435D01*
X2799633Y2245539D01*
X2801095Y2247510D01*
X2802742Y2249328D01*
X2804560Y2250975D01*
X2806531Y2252437D01*
X2808635Y2253698D01*
X2810853Y2254747D01*
X2813163Y2255574D01*
X2815543Y2256170D01*
X2817969Y2256530D01*
X2820420Y2256650D01*
X2885420Y2256650D01*
X2887870Y2256530D01*
X2887870Y2256530D01*
G37*
D16*
X2852920Y2186650D03*
D15*
X3586000Y7971000D03*
X3586000Y8161000D03*
X3386000Y8066000D03*
X2586000Y8066000D03*
X2786000Y8161000D03*
X2786000Y7971000D03*
X1786000Y8066000D03*
X1986000Y8161000D03*
X1986000Y7971000D03*
X1186000Y7971000D03*
X1186000Y8161000D03*
X986000Y8066000D03*
X386000Y7971000D03*
X386000Y8161000D03*
X186000Y8066000D03*
D13*
G36*
X1454570Y6185910D02*
G01*
X1456997Y6185550D01*
X1459377Y6184953D01*
X1461687Y6184127D01*
X1463905Y6183078D01*
X1466009Y6181817D01*
X1467980Y6180355D01*
X1469798Y6178708D01*
X1471445Y6176890D01*
X1472907Y6174919D01*
X1474168Y6172815D01*
X1475217Y6170597D01*
X1476043Y6168287D01*
X1476640Y6165907D01*
X1477000Y6163480D01*
X1477120Y6161030D01*
X1477120Y6071030D01*
X1477000Y6068579D01*
X1476640Y6066153D01*
X1476043Y6063773D01*
X1475217Y6061463D01*
X1474168Y6059245D01*
X1472907Y6057141D01*
X1471445Y6055170D01*
X1469798Y6053352D01*
X1467980Y6051705D01*
X1466009Y6050243D01*
X1463905Y6048982D01*
X1461687Y6047933D01*
X1459377Y6047106D01*
X1456997Y6046510D01*
X1454570Y6046150D01*
X1452120Y6046030D01*
X1387120Y6046030D01*
X1384670Y6046150D01*
X1382243Y6046510D01*
X1379863Y6047106D01*
X1377553Y6047933D01*
X1375335Y6048982D01*
X1373231Y6050243D01*
X1371260Y6051705D01*
X1369442Y6053352D01*
X1367795Y6055170D01*
X1366333Y6057141D01*
X1365072Y6059245D01*
X1364023Y6061463D01*
X1363197Y6063773D01*
X1362600Y6066153D01*
X1362240Y6068579D01*
X1362120Y6071030D01*
X1362120Y6161030D01*
X1362240Y6163480D01*
X1362600Y6165907D01*
X1363197Y6168287D01*
X1364023Y6170597D01*
X1365072Y6172815D01*
X1366333Y6174919D01*
X1367795Y6176890D01*
X1369442Y6178708D01*
X1371260Y6180355D01*
X1373231Y6181817D01*
X1375335Y6183078D01*
X1377553Y6184127D01*
X1379863Y6184953D01*
X1382243Y6185550D01*
X1384670Y6185910D01*
X1387120Y6186030D01*
X1452120Y6186030D01*
X1454570Y6185910D01*
X1454570Y6185910D01*
G37*
D16*
X1419620Y6116030D03*
D13*
G36*
X1249571Y6185910D02*
G01*
X1251997Y6185550D01*
X1254377Y6184953D01*
X1256687Y6184127D01*
X1258905Y6183078D01*
X1261009Y6181817D01*
X1262980Y6180355D01*
X1264798Y6178708D01*
X1266445Y6176890D01*
X1267907Y6174919D01*
X1269168Y6172815D01*
X1270217Y6170597D01*
X1271044Y6168287D01*
X1271640Y6165907D01*
X1272000Y6163480D01*
X1272120Y6161030D01*
X1272120Y6071030D01*
X1272000Y6068579D01*
X1271640Y6066153D01*
X1271044Y6063773D01*
X1270217Y6061463D01*
X1269168Y6059245D01*
X1267907Y6057141D01*
X1266445Y6055170D01*
X1264798Y6053352D01*
X1262980Y6051705D01*
X1261009Y6050243D01*
X1258905Y6048982D01*
X1256687Y6047933D01*
X1254377Y6047106D01*
X1251997Y6046510D01*
X1249571Y6046150D01*
X1247120Y6046030D01*
X1182120Y6046030D01*
X1179670Y6046150D01*
X1177243Y6046510D01*
X1174863Y6047106D01*
X1172553Y6047933D01*
X1170335Y6048982D01*
X1168231Y6050243D01*
X1166260Y6051705D01*
X1164442Y6053352D01*
X1162795Y6055170D01*
X1161333Y6057141D01*
X1160072Y6059245D01*
X1159023Y6061463D01*
X1158197Y6063773D01*
X1157600Y6066153D01*
X1157240Y6068579D01*
X1157120Y6071030D01*
X1157120Y6161030D01*
X1157240Y6163480D01*
X1157600Y6165907D01*
X1158197Y6168287D01*
X1159023Y6170597D01*
X1160072Y6172815D01*
X1161333Y6174919D01*
X1162795Y6176890D01*
X1164442Y6178708D01*
X1166260Y6180355D01*
X1168231Y6181817D01*
X1170335Y6183078D01*
X1172553Y6184127D01*
X1174863Y6184953D01*
X1177243Y6185550D01*
X1179670Y6185910D01*
X1182120Y6186030D01*
X1247120Y6186030D01*
X1249571Y6185910D01*
X1249571Y6185910D01*
G37*
D16*
X1214620Y6116030D03*
D13*
G36*
X1249571Y5787130D02*
G01*
X1251997Y5786770D01*
X1254377Y5786173D01*
X1256687Y5785347D01*
X1258905Y5784298D01*
X1261009Y5783037D01*
X1262980Y5781575D01*
X1264798Y5779928D01*
X1266445Y5778110D01*
X1267907Y5776139D01*
X1269168Y5774035D01*
X1270217Y5771817D01*
X1271044Y5769507D01*
X1271640Y5767127D01*
X1272000Y5764700D01*
X1272120Y5762250D01*
X1272120Y5672250D01*
X1272000Y5669799D01*
X1271640Y5667373D01*
X1271044Y5664993D01*
X1270217Y5662683D01*
X1269168Y5660465D01*
X1267907Y5658361D01*
X1266445Y5656390D01*
X1264798Y5654572D01*
X1262980Y5652925D01*
X1261009Y5651463D01*
X1258905Y5650202D01*
X1256687Y5649153D01*
X1254377Y5648326D01*
X1251997Y5647730D01*
X1249571Y5647370D01*
X1247120Y5647250D01*
X1182120Y5647250D01*
X1179670Y5647370D01*
X1177243Y5647730D01*
X1174863Y5648326D01*
X1172553Y5649153D01*
X1170335Y5650202D01*
X1168231Y5651463D01*
X1166260Y5652925D01*
X1164442Y5654572D01*
X1162795Y5656390D01*
X1161333Y5658361D01*
X1160072Y5660465D01*
X1159023Y5662683D01*
X1158197Y5664993D01*
X1157600Y5667373D01*
X1157240Y5669799D01*
X1157120Y5672250D01*
X1157120Y5762250D01*
X1157240Y5764700D01*
X1157600Y5767127D01*
X1158197Y5769507D01*
X1159023Y5771817D01*
X1160072Y5774035D01*
X1161333Y5776139D01*
X1162795Y5778110D01*
X1164442Y5779928D01*
X1166260Y5781575D01*
X1168231Y5783037D01*
X1170335Y5784298D01*
X1172553Y5785347D01*
X1174863Y5786173D01*
X1177243Y5786770D01*
X1179670Y5787130D01*
X1182120Y5787250D01*
X1247120Y5787250D01*
X1249571Y5787130D01*
X1249571Y5787130D01*
G37*
D16*
X1214620Y5717250D03*
D13*
G36*
X1454570Y5787130D02*
G01*
X1456997Y5786770D01*
X1459377Y5786173D01*
X1461687Y5785347D01*
X1463905Y5784298D01*
X1466009Y5783037D01*
X1467980Y5781575D01*
X1469798Y5779928D01*
X1471445Y5778110D01*
X1472907Y5776139D01*
X1474168Y5774035D01*
X1475217Y5771817D01*
X1476043Y5769507D01*
X1476640Y5767127D01*
X1477000Y5764700D01*
X1477120Y5762250D01*
X1477120Y5672250D01*
X1477000Y5669799D01*
X1476640Y5667373D01*
X1476043Y5664993D01*
X1475217Y5662683D01*
X1474168Y5660465D01*
X1472907Y5658361D01*
X1471445Y5656390D01*
X1469798Y5654572D01*
X1467980Y5652925D01*
X1466009Y5651463D01*
X1463905Y5650202D01*
X1461687Y5649153D01*
X1459377Y5648326D01*
X1456997Y5647730D01*
X1454570Y5647370D01*
X1452120Y5647250D01*
X1387120Y5647250D01*
X1384670Y5647370D01*
X1382243Y5647730D01*
X1379863Y5648326D01*
X1377553Y5649153D01*
X1375335Y5650202D01*
X1373231Y5651463D01*
X1371260Y5652925D01*
X1369442Y5654572D01*
X1367795Y5656390D01*
X1366333Y5658361D01*
X1365072Y5660465D01*
X1364023Y5662683D01*
X1363197Y5664993D01*
X1362600Y5667373D01*
X1362240Y5669799D01*
X1362120Y5672250D01*
X1362120Y5762250D01*
X1362240Y5764700D01*
X1362600Y5767127D01*
X1363197Y5769507D01*
X1364023Y5771817D01*
X1365072Y5774035D01*
X1366333Y5776139D01*
X1367795Y5778110D01*
X1369442Y5779928D01*
X1371260Y5781575D01*
X1373231Y5783037D01*
X1375335Y5784298D01*
X1377553Y5785347D01*
X1379863Y5786173D01*
X1382243Y5786770D01*
X1384670Y5787130D01*
X1387120Y5787250D01*
X1452120Y5787250D01*
X1454570Y5787130D01*
X1454570Y5787130D01*
G37*
D16*
X1419620Y5717250D03*
D13*
G36*
X3889270Y5535880D02*
G01*
X3891697Y5535520D01*
X3894077Y5534924D01*
X3896387Y5534097D01*
X3898605Y5533048D01*
X3900709Y5531787D01*
X3902680Y5530325D01*
X3904498Y5528678D01*
X3906145Y5526860D01*
X3907607Y5524889D01*
X3908868Y5522785D01*
X3909917Y5520567D01*
X3910743Y5518257D01*
X3911340Y5515877D01*
X3911700Y5513451D01*
X3911820Y5511000D01*
X3911820Y5421000D01*
X3911700Y5418550D01*
X3911340Y5416123D01*
X3910743Y5413743D01*
X3909917Y5411433D01*
X3908868Y5409215D01*
X3907607Y5407111D01*
X3906145Y5405140D01*
X3904498Y5403322D01*
X3902680Y5401675D01*
X3900709Y5400213D01*
X3898605Y5398952D01*
X3896387Y5397903D01*
X3894077Y5397077D01*
X3891697Y5396480D01*
X3889270Y5396120D01*
X3886820Y5396000D01*
X3821820Y5396000D01*
X3819369Y5396120D01*
X3816943Y5396480D01*
X3814563Y5397077D01*
X3812253Y5397903D01*
X3810035Y5398952D01*
X3807931Y5400213D01*
X3805960Y5401675D01*
X3804142Y5403322D01*
X3802495Y5405140D01*
X3801033Y5407111D01*
X3799772Y5409215D01*
X3798723Y5411433D01*
X3797896Y5413743D01*
X3797300Y5416123D01*
X3796940Y5418550D01*
X3796820Y5421000D01*
X3796820Y5511000D01*
X3796940Y5513451D01*
X3797300Y5515877D01*
X3797896Y5518257D01*
X3798723Y5520567D01*
X3799772Y5522785D01*
X3801033Y5524889D01*
X3802495Y5526860D01*
X3804142Y5528678D01*
X3805960Y5530325D01*
X3807931Y5531787D01*
X3810035Y5533048D01*
X3812253Y5534097D01*
X3814563Y5534924D01*
X3816943Y5535520D01*
X3819369Y5535880D01*
X3821820Y5536000D01*
X3886820Y5536000D01*
X3889270Y5535880D01*
X3889270Y5535880D01*
G37*
D16*
X3854320Y5466000D03*
D13*
G36*
X4094270Y5535880D02*
G01*
X4096697Y5535520D01*
X4099077Y5534924D01*
X4101387Y5534097D01*
X4103605Y5533048D01*
X4105709Y5531787D01*
X4107680Y5530325D01*
X4109498Y5528678D01*
X4111145Y5526860D01*
X4112607Y5524889D01*
X4113868Y5522785D01*
X4114917Y5520567D01*
X4115743Y5518257D01*
X4116340Y5515877D01*
X4116700Y5513451D01*
X4116820Y5511000D01*
X4116820Y5421000D01*
X4116700Y5418550D01*
X4116340Y5416123D01*
X4115743Y5413743D01*
X4114917Y5411433D01*
X4113868Y5409215D01*
X4112607Y5407111D01*
X4111145Y5405140D01*
X4109498Y5403322D01*
X4107680Y5401675D01*
X4105709Y5400213D01*
X4103605Y5398952D01*
X4101387Y5397903D01*
X4099077Y5397077D01*
X4096697Y5396480D01*
X4094270Y5396120D01*
X4091820Y5396000D01*
X4026820Y5396000D01*
X4024369Y5396120D01*
X4021943Y5396480D01*
X4019563Y5397077D01*
X4017253Y5397903D01*
X4015035Y5398952D01*
X4012931Y5400213D01*
X4010960Y5401675D01*
X4009142Y5403322D01*
X4007495Y5405140D01*
X4006033Y5407111D01*
X4004772Y5409215D01*
X4003723Y5411433D01*
X4002896Y5413743D01*
X4002300Y5416123D01*
X4001940Y5418550D01*
X4001820Y5421000D01*
X4001820Y5511000D01*
X4001940Y5513451D01*
X4002300Y5515877D01*
X4002896Y5518257D01*
X4003723Y5520567D01*
X4004772Y5522785D01*
X4006033Y5524889D01*
X4007495Y5526860D01*
X4009142Y5528678D01*
X4010960Y5530325D01*
X4012931Y5531787D01*
X4015035Y5533048D01*
X4017253Y5534097D01*
X4019563Y5534924D01*
X4021943Y5535520D01*
X4024369Y5535880D01*
X4026820Y5536000D01*
X4091820Y5536000D01*
X4094270Y5535880D01*
X4094270Y5535880D01*
G37*
D16*
X4059320Y5466000D03*
D13*
G36*
X3889270Y5335880D02*
G01*
X3891697Y5335520D01*
X3894077Y5334924D01*
X3896387Y5334097D01*
X3898605Y5333048D01*
X3900709Y5331787D01*
X3902680Y5330325D01*
X3904498Y5328678D01*
X3906145Y5326860D01*
X3907607Y5324889D01*
X3908868Y5322785D01*
X3909917Y5320567D01*
X3910743Y5318257D01*
X3911340Y5315877D01*
X3911700Y5313451D01*
X3911820Y5311000D01*
X3911820Y5221000D01*
X3911700Y5218550D01*
X3911340Y5216123D01*
X3910743Y5213743D01*
X3909917Y5211433D01*
X3908868Y5209215D01*
X3907607Y5207111D01*
X3906145Y5205140D01*
X3904498Y5203322D01*
X3902680Y5201675D01*
X3900709Y5200213D01*
X3898605Y5198952D01*
X3896387Y5197903D01*
X3894077Y5197077D01*
X3891697Y5196480D01*
X3889270Y5196120D01*
X3886820Y5196000D01*
X3821820Y5196000D01*
X3819369Y5196120D01*
X3816943Y5196480D01*
X3814563Y5197077D01*
X3812253Y5197903D01*
X3810035Y5198952D01*
X3807931Y5200213D01*
X3805960Y5201675D01*
X3804142Y5203322D01*
X3802495Y5205140D01*
X3801033Y5207111D01*
X3799772Y5209215D01*
X3798723Y5211433D01*
X3797896Y5213743D01*
X3797300Y5216123D01*
X3796940Y5218550D01*
X3796820Y5221000D01*
X3796820Y5311000D01*
X3796940Y5313451D01*
X3797300Y5315877D01*
X3797896Y5318257D01*
X3798723Y5320567D01*
X3799772Y5322785D01*
X3801033Y5324889D01*
X3802495Y5326860D01*
X3804142Y5328678D01*
X3805960Y5330325D01*
X3807931Y5331787D01*
X3810035Y5333048D01*
X3812253Y5334097D01*
X3814563Y5334924D01*
X3816943Y5335520D01*
X3819369Y5335880D01*
X3821820Y5336000D01*
X3886820Y5336000D01*
X3889270Y5335880D01*
X3889270Y5335880D01*
G37*
D16*
X3854320Y5266000D03*
D13*
G36*
X4094270Y5335880D02*
G01*
X4096697Y5335520D01*
X4099077Y5334924D01*
X4101387Y5334097D01*
X4103605Y5333048D01*
X4105709Y5331787D01*
X4107680Y5330325D01*
X4109498Y5328678D01*
X4111145Y5326860D01*
X4112607Y5324889D01*
X4113868Y5322785D01*
X4114917Y5320567D01*
X4115743Y5318257D01*
X4116340Y5315877D01*
X4116700Y5313451D01*
X4116820Y5311000D01*
X4116820Y5221000D01*
X4116700Y5218550D01*
X4116340Y5216123D01*
X4115743Y5213743D01*
X4114917Y5211433D01*
X4113868Y5209215D01*
X4112607Y5207111D01*
X4111145Y5205140D01*
X4109498Y5203322D01*
X4107680Y5201675D01*
X4105709Y5200213D01*
X4103605Y5198952D01*
X4101387Y5197903D01*
X4099077Y5197077D01*
X4096697Y5196480D01*
X4094270Y5196120D01*
X4091820Y5196000D01*
X4026820Y5196000D01*
X4024369Y5196120D01*
X4021943Y5196480D01*
X4019563Y5197077D01*
X4017253Y5197903D01*
X4015035Y5198952D01*
X4012931Y5200213D01*
X4010960Y5201675D01*
X4009142Y5203322D01*
X4007495Y5205140D01*
X4006033Y5207111D01*
X4004772Y5209215D01*
X4003723Y5211433D01*
X4002896Y5213743D01*
X4002300Y5216123D01*
X4001940Y5218550D01*
X4001820Y5221000D01*
X4001820Y5311000D01*
X4001940Y5313451D01*
X4002300Y5315877D01*
X4002896Y5318257D01*
X4003723Y5320567D01*
X4004772Y5322785D01*
X4006033Y5324889D01*
X4007495Y5326860D01*
X4009142Y5328678D01*
X4010960Y5330325D01*
X4012931Y5331787D01*
X4015035Y5333048D01*
X4017253Y5334097D01*
X4019563Y5334924D01*
X4021943Y5335520D01*
X4024369Y5335880D01*
X4026820Y5336000D01*
X4091820Y5336000D01*
X4094270Y5335880D01*
X4094270Y5335880D01*
G37*
D16*
X4059320Y5266000D03*
D13*
G36*
X3889270Y5135880D02*
G01*
X3891697Y5135520D01*
X3894077Y5134924D01*
X3896387Y5134097D01*
X3898605Y5133048D01*
X3900709Y5131787D01*
X3902680Y5130325D01*
X3904498Y5128678D01*
X3906145Y5126860D01*
X3907607Y5124889D01*
X3908868Y5122785D01*
X3909917Y5120567D01*
X3910743Y5118257D01*
X3911340Y5115877D01*
X3911700Y5113451D01*
X3911820Y5111000D01*
X3911820Y5021000D01*
X3911700Y5018550D01*
X3911340Y5016123D01*
X3910743Y5013743D01*
X3909917Y5011433D01*
X3908868Y5009215D01*
X3907607Y5007111D01*
X3906145Y5005140D01*
X3904498Y5003322D01*
X3902680Y5001675D01*
X3900709Y5000213D01*
X3898605Y4998952D01*
X3896387Y4997903D01*
X3894077Y4997077D01*
X3891697Y4996480D01*
X3889270Y4996120D01*
X3886820Y4996000D01*
X3821820Y4996000D01*
X3819369Y4996120D01*
X3816943Y4996480D01*
X3814563Y4997077D01*
X3812253Y4997903D01*
X3810035Y4998952D01*
X3807931Y5000213D01*
X3805960Y5001675D01*
X3804142Y5003322D01*
X3802495Y5005140D01*
X3801033Y5007111D01*
X3799772Y5009215D01*
X3798723Y5011433D01*
X3797896Y5013743D01*
X3797300Y5016123D01*
X3796940Y5018550D01*
X3796820Y5021000D01*
X3796820Y5111000D01*
X3796940Y5113451D01*
X3797300Y5115877D01*
X3797896Y5118257D01*
X3798723Y5120567D01*
X3799772Y5122785D01*
X3801033Y5124889D01*
X3802495Y5126860D01*
X3804142Y5128678D01*
X3805960Y5130325D01*
X3807931Y5131787D01*
X3810035Y5133048D01*
X3812253Y5134097D01*
X3814563Y5134924D01*
X3816943Y5135520D01*
X3819369Y5135880D01*
X3821820Y5136000D01*
X3886820Y5136000D01*
X3889270Y5135880D01*
X3889270Y5135880D01*
G37*
D16*
X3854320Y5066000D03*
D13*
G36*
X4094270Y5135880D02*
G01*
X4096697Y5135520D01*
X4099077Y5134924D01*
X4101387Y5134097D01*
X4103605Y5133048D01*
X4105709Y5131787D01*
X4107680Y5130325D01*
X4109498Y5128678D01*
X4111145Y5126860D01*
X4112607Y5124889D01*
X4113868Y5122785D01*
X4114917Y5120567D01*
X4115743Y5118257D01*
X4116340Y5115877D01*
X4116700Y5113451D01*
X4116820Y5111000D01*
X4116820Y5021000D01*
X4116700Y5018550D01*
X4116340Y5016123D01*
X4115743Y5013743D01*
X4114917Y5011433D01*
X4113868Y5009215D01*
X4112607Y5007111D01*
X4111145Y5005140D01*
X4109498Y5003322D01*
X4107680Y5001675D01*
X4105709Y5000213D01*
X4103605Y4998952D01*
X4101387Y4997903D01*
X4099077Y4997077D01*
X4096697Y4996480D01*
X4094270Y4996120D01*
X4091820Y4996000D01*
X4026820Y4996000D01*
X4024369Y4996120D01*
X4021943Y4996480D01*
X4019563Y4997077D01*
X4017253Y4997903D01*
X4015035Y4998952D01*
X4012931Y5000213D01*
X4010960Y5001675D01*
X4009142Y5003322D01*
X4007495Y5005140D01*
X4006033Y5007111D01*
X4004772Y5009215D01*
X4003723Y5011433D01*
X4002896Y5013743D01*
X4002300Y5016123D01*
X4001940Y5018550D01*
X4001820Y5021000D01*
X4001820Y5111000D01*
X4001940Y5113451D01*
X4002300Y5115877D01*
X4002896Y5118257D01*
X4003723Y5120567D01*
X4004772Y5122785D01*
X4006033Y5124889D01*
X4007495Y5126860D01*
X4009142Y5128678D01*
X4010960Y5130325D01*
X4012931Y5131787D01*
X4015035Y5133048D01*
X4017253Y5134097D01*
X4019563Y5134924D01*
X4021943Y5135520D01*
X4024369Y5135880D01*
X4026820Y5136000D01*
X4091820Y5136000D01*
X4094270Y5135880D01*
X4094270Y5135880D01*
G37*
D16*
X4059320Y5066000D03*
D13*
G36*
X4717931Y8214120D02*
G01*
X4720357Y8213760D01*
X4722737Y8213163D01*
X4725047Y8212337D01*
X4727265Y8211288D01*
X4729369Y8210027D01*
X4731340Y8208565D01*
X4733158Y8206918D01*
X4734805Y8205100D01*
X4736267Y8203129D01*
X4737528Y8201025D01*
X4738577Y8198807D01*
X4739404Y8196497D01*
X4740000Y8194117D01*
X4740360Y8191690D01*
X4740480Y8189240D01*
X4740480Y8124240D01*
X4740360Y8121789D01*
X4740000Y8119363D01*
X4739404Y8116983D01*
X4738577Y8114673D01*
X4737528Y8112455D01*
X4736267Y8110351D01*
X4734805Y8108380D01*
X4733158Y8106562D01*
X4731340Y8104915D01*
X4729369Y8103453D01*
X4727265Y8102192D01*
X4725047Y8101143D01*
X4722737Y8100316D01*
X4720357Y8099720D01*
X4717931Y8099360D01*
X4715480Y8099240D01*
X4625480Y8099240D01*
X4623030Y8099360D01*
X4620603Y8099720D01*
X4618223Y8100316D01*
X4615913Y8101143D01*
X4613695Y8102192D01*
X4611591Y8103453D01*
X4609620Y8104915D01*
X4607802Y8106562D01*
X4606155Y8108380D01*
X4604693Y8110351D01*
X4603432Y8112455D01*
X4602383Y8114673D01*
X4601557Y8116983D01*
X4600960Y8119363D01*
X4600600Y8121789D01*
X4600480Y8124240D01*
X4600480Y8189240D01*
X4600600Y8191690D01*
X4600960Y8194117D01*
X4601557Y8196497D01*
X4602383Y8198807D01*
X4603432Y8201025D01*
X4604693Y8203129D01*
X4606155Y8205100D01*
X4607802Y8206918D01*
X4609620Y8208565D01*
X4611591Y8210027D01*
X4613695Y8211288D01*
X4615913Y8212337D01*
X4618223Y8213163D01*
X4620603Y8213760D01*
X4623030Y8214120D01*
X4625480Y8214240D01*
X4715480Y8214240D01*
X4717931Y8214120D01*
X4717931Y8214120D01*
G37*
D16*
X4670480Y8156740D03*
D13*
G36*
X4717931Y8009120D02*
G01*
X4720357Y8008760D01*
X4722737Y8008163D01*
X4725047Y8007337D01*
X4727265Y8006288D01*
X4729369Y8005027D01*
X4731340Y8003565D01*
X4733158Y8001918D01*
X4734805Y8000100D01*
X4736267Y7998129D01*
X4737528Y7996025D01*
X4738577Y7993807D01*
X4739404Y7991497D01*
X4740000Y7989117D01*
X4740360Y7986690D01*
X4740480Y7984240D01*
X4740480Y7919240D01*
X4740360Y7916789D01*
X4740000Y7914363D01*
X4739404Y7911983D01*
X4738577Y7909673D01*
X4737528Y7907455D01*
X4736267Y7905351D01*
X4734805Y7903380D01*
X4733158Y7901562D01*
X4731340Y7899915D01*
X4729369Y7898453D01*
X4727265Y7897192D01*
X4725047Y7896143D01*
X4722737Y7895316D01*
X4720357Y7894720D01*
X4717931Y7894360D01*
X4715480Y7894240D01*
X4625480Y7894240D01*
X4623030Y7894360D01*
X4620603Y7894720D01*
X4618223Y7895316D01*
X4615913Y7896143D01*
X4613695Y7897192D01*
X4611591Y7898453D01*
X4609620Y7899915D01*
X4607802Y7901562D01*
X4606155Y7903380D01*
X4604693Y7905351D01*
X4603432Y7907455D01*
X4602383Y7909673D01*
X4601557Y7911983D01*
X4600960Y7914363D01*
X4600600Y7916789D01*
X4600480Y7919240D01*
X4600480Y7984240D01*
X4600600Y7986690D01*
X4600960Y7989117D01*
X4601557Y7991497D01*
X4602383Y7993807D01*
X4603432Y7996025D01*
X4604693Y7998129D01*
X4606155Y8000100D01*
X4607802Y8001918D01*
X4609620Y8003565D01*
X4611591Y8005027D01*
X4613695Y8006288D01*
X4615913Y8007337D01*
X4618223Y8008163D01*
X4620603Y8008760D01*
X4623030Y8009120D01*
X4625480Y8009240D01*
X4715480Y8009240D01*
X4717931Y8009120D01*
X4717931Y8009120D01*
G37*
D16*
X4670480Y7951740D03*
D13*
G36*
X3917930Y8009120D02*
G01*
X3920357Y8008760D01*
X3922737Y8008163D01*
X3925047Y8007337D01*
X3927265Y8006288D01*
X3929369Y8005027D01*
X3931340Y8003565D01*
X3933158Y8001918D01*
X3934805Y8000100D01*
X3936267Y7998129D01*
X3937528Y7996025D01*
X3938577Y7993807D01*
X3939403Y7991497D01*
X3940000Y7989117D01*
X3940360Y7986690D01*
X3940480Y7984240D01*
X3940480Y7919240D01*
X3940360Y7916789D01*
X3940000Y7914363D01*
X3939403Y7911983D01*
X3938577Y7909673D01*
X3937528Y7907455D01*
X3936267Y7905351D01*
X3934805Y7903380D01*
X3933158Y7901562D01*
X3931340Y7899915D01*
X3929369Y7898453D01*
X3927265Y7897192D01*
X3925047Y7896143D01*
X3922737Y7895316D01*
X3920357Y7894720D01*
X3917930Y7894360D01*
X3915480Y7894240D01*
X3825480Y7894240D01*
X3823029Y7894360D01*
X3820603Y7894720D01*
X3818223Y7895316D01*
X3815913Y7896143D01*
X3813695Y7897192D01*
X3811591Y7898453D01*
X3809620Y7899915D01*
X3807802Y7901562D01*
X3806155Y7903380D01*
X3804693Y7905351D01*
X3803432Y7907455D01*
X3802383Y7909673D01*
X3801556Y7911983D01*
X3800960Y7914363D01*
X3800600Y7916789D01*
X3800480Y7919240D01*
X3800480Y7984240D01*
X3800600Y7986690D01*
X3800960Y7989117D01*
X3801556Y7991497D01*
X3802383Y7993807D01*
X3803432Y7996025D01*
X3804693Y7998129D01*
X3806155Y8000100D01*
X3807802Y8001918D01*
X3809620Y8003565D01*
X3811591Y8005027D01*
X3813695Y8006288D01*
X3815913Y8007337D01*
X3818223Y8008163D01*
X3820603Y8008760D01*
X3823029Y8009120D01*
X3825480Y8009240D01*
X3915480Y8009240D01*
X3917930Y8009120D01*
X3917930Y8009120D01*
G37*
D16*
X3870480Y7951740D03*
D13*
G36*
X3917930Y8214120D02*
G01*
X3920357Y8213760D01*
X3922737Y8213163D01*
X3925047Y8212337D01*
X3927265Y8211288D01*
X3929369Y8210027D01*
X3931340Y8208565D01*
X3933158Y8206918D01*
X3934805Y8205100D01*
X3936267Y8203129D01*
X3937528Y8201025D01*
X3938577Y8198807D01*
X3939403Y8196497D01*
X3940000Y8194117D01*
X3940360Y8191690D01*
X3940480Y8189240D01*
X3940480Y8124240D01*
X3940360Y8121789D01*
X3940000Y8119363D01*
X3939403Y8116983D01*
X3938577Y8114673D01*
X3937528Y8112455D01*
X3936267Y8110351D01*
X3934805Y8108380D01*
X3933158Y8106562D01*
X3931340Y8104915D01*
X3929369Y8103453D01*
X3927265Y8102192D01*
X3925047Y8101143D01*
X3922737Y8100316D01*
X3920357Y8099720D01*
X3917930Y8099360D01*
X3915480Y8099240D01*
X3825480Y8099240D01*
X3823029Y8099360D01*
X3820603Y8099720D01*
X3818223Y8100316D01*
X3815913Y8101143D01*
X3813695Y8102192D01*
X3811591Y8103453D01*
X3809620Y8104915D01*
X3807802Y8106562D01*
X3806155Y8108380D01*
X3804693Y8110351D01*
X3803432Y8112455D01*
X3802383Y8114673D01*
X3801556Y8116983D01*
X3800960Y8119363D01*
X3800600Y8121789D01*
X3800480Y8124240D01*
X3800480Y8189240D01*
X3800600Y8191690D01*
X3800960Y8194117D01*
X3801556Y8196497D01*
X3802383Y8198807D01*
X3803432Y8201025D01*
X3804693Y8203129D01*
X3806155Y8205100D01*
X3807802Y8206918D01*
X3809620Y8208565D01*
X3811591Y8210027D01*
X3813695Y8211288D01*
X3815913Y8212337D01*
X3818223Y8213163D01*
X3820603Y8213760D01*
X3823029Y8214120D01*
X3825480Y8214240D01*
X3915480Y8214240D01*
X3917930Y8214120D01*
X3917930Y8214120D01*
G37*
D16*
X3870480Y8156740D03*
D13*
G36*
X3117930Y8009120D02*
G01*
X3120357Y8008760D01*
X3122737Y8008163D01*
X3125047Y8007337D01*
X3127265Y8006288D01*
X3129369Y8005027D01*
X3131340Y8003565D01*
X3133158Y8001918D01*
X3134805Y8000100D01*
X3136267Y7998129D01*
X3137528Y7996025D01*
X3138577Y7993807D01*
X3139403Y7991497D01*
X3140000Y7989117D01*
X3140360Y7986690D01*
X3140480Y7984240D01*
X3140480Y7919240D01*
X3140360Y7916789D01*
X3140000Y7914363D01*
X3139403Y7911983D01*
X3138577Y7909673D01*
X3137528Y7907455D01*
X3136267Y7905351D01*
X3134805Y7903380D01*
X3133158Y7901562D01*
X3131340Y7899915D01*
X3129369Y7898453D01*
X3127265Y7897192D01*
X3125047Y7896143D01*
X3122737Y7895316D01*
X3120357Y7894720D01*
X3117930Y7894360D01*
X3115480Y7894240D01*
X3025480Y7894240D01*
X3023029Y7894360D01*
X3020603Y7894720D01*
X3018223Y7895316D01*
X3015913Y7896143D01*
X3013695Y7897192D01*
X3011591Y7898453D01*
X3009620Y7899915D01*
X3007802Y7901562D01*
X3006155Y7903380D01*
X3004693Y7905351D01*
X3003432Y7907455D01*
X3002383Y7909673D01*
X3001556Y7911983D01*
X3000960Y7914363D01*
X3000600Y7916789D01*
X3000480Y7919240D01*
X3000480Y7984240D01*
X3000600Y7986690D01*
X3000960Y7989117D01*
X3001556Y7991497D01*
X3002383Y7993807D01*
X3003432Y7996025D01*
X3004693Y7998129D01*
X3006155Y8000100D01*
X3007802Y8001918D01*
X3009620Y8003565D01*
X3011591Y8005027D01*
X3013695Y8006288D01*
X3015913Y8007337D01*
X3018223Y8008163D01*
X3020603Y8008760D01*
X3023029Y8009120D01*
X3025480Y8009240D01*
X3115480Y8009240D01*
X3117930Y8009120D01*
X3117930Y8009120D01*
G37*
D16*
X3070480Y7951740D03*
D13*
G36*
X3117930Y8214120D02*
G01*
X3120357Y8213760D01*
X3122737Y8213163D01*
X3125047Y8212337D01*
X3127265Y8211288D01*
X3129369Y8210027D01*
X3131340Y8208565D01*
X3133158Y8206918D01*
X3134805Y8205100D01*
X3136267Y8203129D01*
X3137528Y8201025D01*
X3138577Y8198807D01*
X3139403Y8196497D01*
X3140000Y8194117D01*
X3140360Y8191690D01*
X3140480Y8189240D01*
X3140480Y8124240D01*
X3140360Y8121789D01*
X3140000Y8119363D01*
X3139403Y8116983D01*
X3138577Y8114673D01*
X3137528Y8112455D01*
X3136267Y8110351D01*
X3134805Y8108380D01*
X3133158Y8106562D01*
X3131340Y8104915D01*
X3129369Y8103453D01*
X3127265Y8102192D01*
X3125047Y8101143D01*
X3122737Y8100316D01*
X3120357Y8099720D01*
X3117930Y8099360D01*
X3115480Y8099240D01*
X3025480Y8099240D01*
X3023029Y8099360D01*
X3020603Y8099720D01*
X3018223Y8100316D01*
X3015913Y8101143D01*
X3013695Y8102192D01*
X3011591Y8103453D01*
X3009620Y8104915D01*
X3007802Y8106562D01*
X3006155Y8108380D01*
X3004693Y8110351D01*
X3003432Y8112455D01*
X3002383Y8114673D01*
X3001556Y8116983D01*
X3000960Y8119363D01*
X3000600Y8121789D01*
X3000480Y8124240D01*
X3000480Y8189240D01*
X3000600Y8191690D01*
X3000960Y8194117D01*
X3001556Y8196497D01*
X3002383Y8198807D01*
X3003432Y8201025D01*
X3004693Y8203129D01*
X3006155Y8205100D01*
X3007802Y8206918D01*
X3009620Y8208565D01*
X3011591Y8210027D01*
X3013695Y8211288D01*
X3015913Y8212337D01*
X3018223Y8213163D01*
X3020603Y8213760D01*
X3023029Y8214120D01*
X3025480Y8214240D01*
X3115480Y8214240D01*
X3117930Y8214120D01*
X3117930Y8214120D01*
G37*
D16*
X3070480Y8156740D03*
D13*
G36*
X2317931Y8214120D02*
G01*
X2320357Y8213760D01*
X2322737Y8213163D01*
X2325047Y8212337D01*
X2327265Y8211288D01*
X2329369Y8210027D01*
X2331340Y8208565D01*
X2333158Y8206918D01*
X2334805Y8205100D01*
X2336267Y8203129D01*
X2337528Y8201025D01*
X2338577Y8198807D01*
X2339404Y8196497D01*
X2340000Y8194117D01*
X2340360Y8191690D01*
X2340480Y8189240D01*
X2340480Y8124240D01*
X2340360Y8121789D01*
X2340000Y8119363D01*
X2339404Y8116983D01*
X2338577Y8114673D01*
X2337528Y8112455D01*
X2336267Y8110351D01*
X2334805Y8108380D01*
X2333158Y8106562D01*
X2331340Y8104915D01*
X2329369Y8103453D01*
X2327265Y8102192D01*
X2325047Y8101143D01*
X2322737Y8100316D01*
X2320357Y8099720D01*
X2317931Y8099360D01*
X2315480Y8099240D01*
X2225480Y8099240D01*
X2223030Y8099360D01*
X2220603Y8099720D01*
X2218223Y8100316D01*
X2215913Y8101143D01*
X2213695Y8102192D01*
X2211591Y8103453D01*
X2209620Y8104915D01*
X2207802Y8106562D01*
X2206155Y8108380D01*
X2204693Y8110351D01*
X2203432Y8112455D01*
X2202383Y8114673D01*
X2201557Y8116983D01*
X2200960Y8119363D01*
X2200600Y8121789D01*
X2200480Y8124240D01*
X2200480Y8189240D01*
X2200600Y8191690D01*
X2200960Y8194117D01*
X2201557Y8196497D01*
X2202383Y8198807D01*
X2203432Y8201025D01*
X2204693Y8203129D01*
X2206155Y8205100D01*
X2207802Y8206918D01*
X2209620Y8208565D01*
X2211591Y8210027D01*
X2213695Y8211288D01*
X2215913Y8212337D01*
X2218223Y8213163D01*
X2220603Y8213760D01*
X2223030Y8214120D01*
X2225480Y8214240D01*
X2315480Y8214240D01*
X2317931Y8214120D01*
X2317931Y8214120D01*
G37*
D16*
X2270480Y8156740D03*
D13*
G36*
X2317931Y8009120D02*
G01*
X2320357Y8008760D01*
X2322737Y8008163D01*
X2325047Y8007337D01*
X2327265Y8006288D01*
X2329369Y8005027D01*
X2331340Y8003565D01*
X2333158Y8001918D01*
X2334805Y8000100D01*
X2336267Y7998129D01*
X2337528Y7996025D01*
X2338577Y7993807D01*
X2339404Y7991497D01*
X2340000Y7989117D01*
X2340360Y7986690D01*
X2340480Y7984240D01*
X2340480Y7919240D01*
X2340360Y7916789D01*
X2340000Y7914363D01*
X2339404Y7911983D01*
X2338577Y7909673D01*
X2337528Y7907455D01*
X2336267Y7905351D01*
X2334805Y7903380D01*
X2333158Y7901562D01*
X2331340Y7899915D01*
X2329369Y7898453D01*
X2327265Y7897192D01*
X2325047Y7896143D01*
X2322737Y7895316D01*
X2320357Y7894720D01*
X2317931Y7894360D01*
X2315480Y7894240D01*
X2225480Y7894240D01*
X2223030Y7894360D01*
X2220603Y7894720D01*
X2218223Y7895316D01*
X2215913Y7896143D01*
X2213695Y7897192D01*
X2211591Y7898453D01*
X2209620Y7899915D01*
X2207802Y7901562D01*
X2206155Y7903380D01*
X2204693Y7905351D01*
X2203432Y7907455D01*
X2202383Y7909673D01*
X2201557Y7911983D01*
X2200960Y7914363D01*
X2200600Y7916789D01*
X2200480Y7919240D01*
X2200480Y7984240D01*
X2200600Y7986690D01*
X2200960Y7989117D01*
X2201557Y7991497D01*
X2202383Y7993807D01*
X2203432Y7996025D01*
X2204693Y7998129D01*
X2206155Y8000100D01*
X2207802Y8001918D01*
X2209620Y8003565D01*
X2211591Y8005027D01*
X2213695Y8006288D01*
X2215913Y8007337D01*
X2218223Y8008163D01*
X2220603Y8008760D01*
X2223030Y8009120D01*
X2225480Y8009240D01*
X2315480Y8009240D01*
X2317931Y8009120D01*
X2317931Y8009120D01*
G37*
D16*
X2270480Y7951740D03*
D13*
G36*
X1517930Y8214120D02*
G01*
X1520357Y8213760D01*
X1522737Y8213163D01*
X1525047Y8212337D01*
X1527265Y8211288D01*
X1529369Y8210027D01*
X1531340Y8208565D01*
X1533158Y8206918D01*
X1534805Y8205100D01*
X1536267Y8203129D01*
X1537528Y8201025D01*
X1538577Y8198807D01*
X1539403Y8196497D01*
X1540000Y8194117D01*
X1540360Y8191690D01*
X1540480Y8189240D01*
X1540480Y8124240D01*
X1540360Y8121789D01*
X1540000Y8119363D01*
X1539403Y8116983D01*
X1538577Y8114673D01*
X1537528Y8112455D01*
X1536267Y8110351D01*
X1534805Y8108380D01*
X1533158Y8106562D01*
X1531340Y8104915D01*
X1529369Y8103453D01*
X1527265Y8102192D01*
X1525047Y8101143D01*
X1522737Y8100316D01*
X1520357Y8099720D01*
X1517930Y8099360D01*
X1515480Y8099240D01*
X1425480Y8099240D01*
X1423029Y8099360D01*
X1420603Y8099720D01*
X1418223Y8100316D01*
X1415913Y8101143D01*
X1413695Y8102192D01*
X1411591Y8103453D01*
X1409620Y8104915D01*
X1407802Y8106562D01*
X1406155Y8108380D01*
X1404693Y8110351D01*
X1403432Y8112455D01*
X1402383Y8114673D01*
X1401556Y8116983D01*
X1400960Y8119363D01*
X1400600Y8121789D01*
X1400480Y8124240D01*
X1400480Y8189240D01*
X1400600Y8191690D01*
X1400960Y8194117D01*
X1401556Y8196497D01*
X1402383Y8198807D01*
X1403432Y8201025D01*
X1404693Y8203129D01*
X1406155Y8205100D01*
X1407802Y8206918D01*
X1409620Y8208565D01*
X1411591Y8210027D01*
X1413695Y8211288D01*
X1415913Y8212337D01*
X1418223Y8213163D01*
X1420603Y8213760D01*
X1423029Y8214120D01*
X1425480Y8214240D01*
X1515480Y8214240D01*
X1517930Y8214120D01*
X1517930Y8214120D01*
G37*
D16*
X1470480Y8156740D03*
D13*
G36*
X1517930Y8009120D02*
G01*
X1520357Y8008760D01*
X1522737Y8008163D01*
X1525047Y8007337D01*
X1527265Y8006288D01*
X1529369Y8005027D01*
X1531340Y8003565D01*
X1533158Y8001918D01*
X1534805Y8000100D01*
X1536267Y7998129D01*
X1537528Y7996025D01*
X1538577Y7993807D01*
X1539403Y7991497D01*
X1540000Y7989117D01*
X1540360Y7986690D01*
X1540480Y7984240D01*
X1540480Y7919240D01*
X1540360Y7916789D01*
X1540000Y7914363D01*
X1539403Y7911983D01*
X1538577Y7909673D01*
X1537528Y7907455D01*
X1536267Y7905351D01*
X1534805Y7903380D01*
X1533158Y7901562D01*
X1531340Y7899915D01*
X1529369Y7898453D01*
X1527265Y7897192D01*
X1525047Y7896143D01*
X1522737Y7895316D01*
X1520357Y7894720D01*
X1517930Y7894360D01*
X1515480Y7894240D01*
X1425480Y7894240D01*
X1423029Y7894360D01*
X1420603Y7894720D01*
X1418223Y7895316D01*
X1415913Y7896143D01*
X1413695Y7897192D01*
X1411591Y7898453D01*
X1409620Y7899915D01*
X1407802Y7901562D01*
X1406155Y7903380D01*
X1404693Y7905351D01*
X1403432Y7907455D01*
X1402383Y7909673D01*
X1401556Y7911983D01*
X1400960Y7914363D01*
X1400600Y7916789D01*
X1400480Y7919240D01*
X1400480Y7984240D01*
X1400600Y7986690D01*
X1400960Y7989117D01*
X1401556Y7991497D01*
X1402383Y7993807D01*
X1403432Y7996025D01*
X1404693Y7998129D01*
X1406155Y8000100D01*
X1407802Y8001918D01*
X1409620Y8003565D01*
X1411591Y8005027D01*
X1413695Y8006288D01*
X1415913Y8007337D01*
X1418223Y8008163D01*
X1420603Y8008760D01*
X1423029Y8009120D01*
X1425480Y8009240D01*
X1515480Y8009240D01*
X1517930Y8009120D01*
X1517930Y8009120D01*
G37*
D16*
X1470480Y7951740D03*
D13*
G36*
X717930Y8009120D02*
G01*
X720357Y8008760D01*
X722737Y8008163D01*
X725047Y8007337D01*
X727265Y8006288D01*
X729369Y8005027D01*
X731340Y8003565D01*
X733158Y8001918D01*
X734805Y8000100D01*
X736267Y7998129D01*
X737528Y7996025D01*
X738577Y7993807D01*
X739403Y7991497D01*
X740000Y7989117D01*
X740360Y7986690D01*
X740480Y7984240D01*
X740480Y7919240D01*
X740360Y7916789D01*
X740000Y7914363D01*
X739403Y7911983D01*
X738577Y7909673D01*
X737528Y7907455D01*
X736267Y7905351D01*
X734805Y7903380D01*
X733158Y7901562D01*
X731340Y7899915D01*
X729369Y7898453D01*
X727265Y7897192D01*
X725047Y7896143D01*
X722737Y7895316D01*
X720357Y7894720D01*
X717930Y7894360D01*
X715480Y7894240D01*
X625480Y7894240D01*
X623030Y7894360D01*
X620603Y7894720D01*
X618223Y7895316D01*
X615913Y7896143D01*
X613695Y7897192D01*
X611591Y7898453D01*
X609620Y7899915D01*
X607802Y7901562D01*
X606155Y7903380D01*
X604693Y7905351D01*
X603432Y7907455D01*
X602383Y7909673D01*
X601557Y7911983D01*
X600960Y7914363D01*
X600600Y7916789D01*
X600480Y7919240D01*
X600480Y7984240D01*
X600600Y7986690D01*
X600960Y7989117D01*
X601557Y7991497D01*
X602383Y7993807D01*
X603432Y7996025D01*
X604693Y7998129D01*
X606155Y8000100D01*
X607802Y8001918D01*
X609620Y8003565D01*
X611591Y8005027D01*
X613695Y8006288D01*
X615913Y8007337D01*
X618223Y8008163D01*
X620603Y8008760D01*
X623030Y8009120D01*
X625480Y8009240D01*
X715480Y8009240D01*
X717930Y8009120D01*
X717930Y8009120D01*
G37*
D16*
X670480Y7951740D03*
D13*
G36*
X717930Y8214120D02*
G01*
X720357Y8213760D01*
X722737Y8213163D01*
X725047Y8212337D01*
X727265Y8211288D01*
X729369Y8210027D01*
X731340Y8208565D01*
X733158Y8206918D01*
X734805Y8205100D01*
X736267Y8203129D01*
X737528Y8201025D01*
X738577Y8198807D01*
X739403Y8196497D01*
X740000Y8194117D01*
X740360Y8191690D01*
X740480Y8189240D01*
X740480Y8124240D01*
X740360Y8121789D01*
X740000Y8119363D01*
X739403Y8116983D01*
X738577Y8114673D01*
X737528Y8112455D01*
X736267Y8110351D01*
X734805Y8108380D01*
X733158Y8106562D01*
X731340Y8104915D01*
X729369Y8103453D01*
X727265Y8102192D01*
X725047Y8101143D01*
X722737Y8100316D01*
X720357Y8099720D01*
X717930Y8099360D01*
X715480Y8099240D01*
X625480Y8099240D01*
X623030Y8099360D01*
X620603Y8099720D01*
X618223Y8100316D01*
X615913Y8101143D01*
X613695Y8102192D01*
X611591Y8103453D01*
X609620Y8104915D01*
X607802Y8106562D01*
X606155Y8108380D01*
X604693Y8110351D01*
X603432Y8112455D01*
X602383Y8114673D01*
X601557Y8116983D01*
X600960Y8119363D01*
X600600Y8121789D01*
X600480Y8124240D01*
X600480Y8189240D01*
X600600Y8191690D01*
X600960Y8194117D01*
X601557Y8196497D01*
X602383Y8198807D01*
X603432Y8201025D01*
X604693Y8203129D01*
X606155Y8205100D01*
X607802Y8206918D01*
X609620Y8208565D01*
X611591Y8210027D01*
X613695Y8211288D01*
X615913Y8212337D01*
X618223Y8213163D01*
X620603Y8213760D01*
X623030Y8214120D01*
X625480Y8214240D01*
X715480Y8214240D01*
X717930Y8214120D01*
X717930Y8214120D01*
G37*
D16*
X670480Y8156740D03*
D17*
X3333020Y1865500D03*
X3398020Y1865500D03*
X3463020Y1865500D03*
X3528020Y1865500D03*
X3593020Y1865500D03*
X3658020Y1865500D03*
X3723020Y1865500D03*
X3788020Y1865500D03*
X3853020Y1865500D03*
X3918020Y1865500D03*
X3983020Y1865500D03*
X4048020Y1865500D03*
X4113020Y1865500D03*
X4178020Y1865500D03*
X4178020Y2585500D03*
X4113020Y2585500D03*
X4048020Y2585500D03*
X3983020Y2585500D03*
X3918020Y2585500D03*
X3853020Y2585500D03*
X3788020Y2585500D03*
X3723020Y2585500D03*
X3658020Y2585500D03*
X3593020Y2585500D03*
X3528020Y2585500D03*
X3463020Y2585500D03*
X3398020Y2585500D03*
X3333020Y2585500D03*
D13*
G36*
X1449700Y609770D02*
G01*
X1452127Y609410D01*
X1454507Y608814D01*
X1456817Y607987D01*
X1459035Y606938D01*
X1461139Y605677D01*
X1463110Y604215D01*
X1464928Y602568D01*
X1466575Y600750D01*
X1468037Y598779D01*
X1469298Y596675D01*
X1470347Y594457D01*
X1471173Y592147D01*
X1471770Y589767D01*
X1472130Y587340D01*
X1472250Y584890D01*
X1472250Y492390D01*
X1472130Y489940D01*
X1471770Y487513D01*
X1471173Y485133D01*
X1470347Y482823D01*
X1469298Y480605D01*
X1468037Y478501D01*
X1466575Y476530D01*
X1464928Y474712D01*
X1463110Y473065D01*
X1461139Y471603D01*
X1459035Y470342D01*
X1456817Y469293D01*
X1454507Y468466D01*
X1452127Y467870D01*
X1449700Y467510D01*
X1447250Y467390D01*
X1322250Y467390D01*
X1319800Y467510D01*
X1317373Y467870D01*
X1314993Y468466D01*
X1312683Y469293D01*
X1310465Y470342D01*
X1308361Y471603D01*
X1306390Y473065D01*
X1304572Y474712D01*
X1302925Y476530D01*
X1301463Y478501D01*
X1300202Y480605D01*
X1299153Y482823D01*
X1298327Y485133D01*
X1297730Y487513D01*
X1297370Y489940D01*
X1297250Y492390D01*
X1297250Y584890D01*
X1297370Y587340D01*
X1297730Y589767D01*
X1298327Y592147D01*
X1299153Y594457D01*
X1300202Y596675D01*
X1301463Y598779D01*
X1302925Y600750D01*
X1304572Y602568D01*
X1306390Y604215D01*
X1308361Y605677D01*
X1310465Y606938D01*
X1312683Y607987D01*
X1314993Y608814D01*
X1317373Y609410D01*
X1319800Y609770D01*
X1322250Y609890D01*
X1447250Y609890D01*
X1449700Y609770D01*
X1449700Y609770D01*
G37*
D18*
X1384750Y538640D03*
D13*
G36*
X1449700Y907270D02*
G01*
X1452127Y906910D01*
X1454507Y906313D01*
X1456817Y905487D01*
X1459035Y904438D01*
X1461139Y903177D01*
X1463110Y901715D01*
X1464928Y900068D01*
X1466575Y898250D01*
X1468037Y896279D01*
X1469298Y894175D01*
X1470347Y891957D01*
X1471173Y889647D01*
X1471770Y887267D01*
X1472130Y884840D01*
X1472250Y882390D01*
X1472250Y789890D01*
X1472130Y787440D01*
X1471770Y785013D01*
X1471173Y782633D01*
X1470347Y780323D01*
X1469298Y778105D01*
X1468037Y776001D01*
X1466575Y774030D01*
X1464928Y772212D01*
X1463110Y770565D01*
X1461139Y769103D01*
X1459035Y767842D01*
X1456817Y766793D01*
X1454507Y765966D01*
X1452127Y765370D01*
X1449700Y765010D01*
X1447250Y764890D01*
X1322250Y764890D01*
X1319800Y765010D01*
X1317373Y765370D01*
X1314993Y765966D01*
X1312683Y766793D01*
X1310465Y767842D01*
X1308361Y769103D01*
X1306390Y770565D01*
X1304572Y772212D01*
X1302925Y774030D01*
X1301463Y776001D01*
X1300202Y778105D01*
X1299153Y780323D01*
X1298327Y782633D01*
X1297730Y785013D01*
X1297370Y787440D01*
X1297250Y789890D01*
X1297250Y882390D01*
X1297370Y884840D01*
X1297730Y887267D01*
X1298327Y889647D01*
X1299153Y891957D01*
X1300202Y894175D01*
X1301463Y896279D01*
X1302925Y898250D01*
X1304572Y900068D01*
X1306390Y901715D01*
X1308361Y903177D01*
X1310465Y904438D01*
X1312683Y905487D01*
X1314993Y906313D01*
X1317373Y906910D01*
X1319800Y907270D01*
X1322250Y907390D01*
X1447250Y907390D01*
X1449700Y907270D01*
X1449700Y907270D01*
G37*
D18*
X1384750Y836140D03*
D13*
G36*
X3394114Y2949442D02*
G01*
X3396541Y2949082D01*
X3398921Y2948485D01*
X3401231Y2947659D01*
X3403449Y2946610D01*
X3405553Y2945349D01*
X3407524Y2943887D01*
X3409342Y2942240D01*
X3410989Y2940422D01*
X3412451Y2938451D01*
X3413712Y2936347D01*
X3414761Y2934129D01*
X3415587Y2931819D01*
X3416184Y2929439D01*
X3416544Y2927012D01*
X3416664Y2924562D01*
X3416664Y2834562D01*
X3416544Y2832111D01*
X3416184Y2829685D01*
X3415587Y2827305D01*
X3414761Y2824995D01*
X3413712Y2822777D01*
X3412451Y2820673D01*
X3410989Y2818702D01*
X3409342Y2816884D01*
X3407524Y2815237D01*
X3405553Y2813775D01*
X3403449Y2812514D01*
X3401231Y2811465D01*
X3398921Y2810638D01*
X3396541Y2810042D01*
X3394114Y2809682D01*
X3391664Y2809562D01*
X3326664Y2809562D01*
X3324213Y2809682D01*
X3321787Y2810042D01*
X3319407Y2810638D01*
X3317097Y2811465D01*
X3314879Y2812514D01*
X3312775Y2813775D01*
X3310804Y2815237D01*
X3308986Y2816884D01*
X3307339Y2818702D01*
X3305877Y2820673D01*
X3304616Y2822777D01*
X3303567Y2824995D01*
X3302740Y2827305D01*
X3302144Y2829685D01*
X3301784Y2832111D01*
X3301664Y2834562D01*
X3301664Y2924562D01*
X3301784Y2927012D01*
X3302144Y2929439D01*
X3302740Y2931819D01*
X3303567Y2934129D01*
X3304616Y2936347D01*
X3305877Y2938451D01*
X3307339Y2940422D01*
X3308986Y2942240D01*
X3310804Y2943887D01*
X3312775Y2945349D01*
X3314879Y2946610D01*
X3317097Y2947659D01*
X3319407Y2948485D01*
X3321787Y2949082D01*
X3324213Y2949442D01*
X3326664Y2949562D01*
X3391664Y2949562D01*
X3394114Y2949442D01*
X3394114Y2949442D01*
G37*
D16*
X3359164Y2879562D03*
D13*
G36*
X3189114Y2949442D02*
G01*
X3191541Y2949082D01*
X3193921Y2948485D01*
X3196231Y2947659D01*
X3198449Y2946610D01*
X3200553Y2945349D01*
X3202524Y2943887D01*
X3204342Y2942240D01*
X3205989Y2940422D01*
X3207451Y2938451D01*
X3208712Y2936347D01*
X3209761Y2934129D01*
X3210587Y2931819D01*
X3211184Y2929439D01*
X3211544Y2927012D01*
X3211664Y2924562D01*
X3211664Y2834562D01*
X3211544Y2832111D01*
X3211184Y2829685D01*
X3210587Y2827305D01*
X3209761Y2824995D01*
X3208712Y2822777D01*
X3207451Y2820673D01*
X3205989Y2818702D01*
X3204342Y2816884D01*
X3202524Y2815237D01*
X3200553Y2813775D01*
X3198449Y2812514D01*
X3196231Y2811465D01*
X3193921Y2810638D01*
X3191541Y2810042D01*
X3189114Y2809682D01*
X3186664Y2809562D01*
X3121664Y2809562D01*
X3119213Y2809682D01*
X3116787Y2810042D01*
X3114407Y2810638D01*
X3112097Y2811465D01*
X3109879Y2812514D01*
X3107775Y2813775D01*
X3105804Y2815237D01*
X3103986Y2816884D01*
X3102339Y2818702D01*
X3100877Y2820673D01*
X3099616Y2822777D01*
X3098567Y2824995D01*
X3097740Y2827305D01*
X3097144Y2829685D01*
X3096784Y2832111D01*
X3096664Y2834562D01*
X3096664Y2924562D01*
X3096784Y2927012D01*
X3097144Y2929439D01*
X3097740Y2931819D01*
X3098567Y2934129D01*
X3099616Y2936347D01*
X3100877Y2938451D01*
X3102339Y2940422D01*
X3103986Y2942240D01*
X3105804Y2943887D01*
X3107775Y2945349D01*
X3109879Y2946610D01*
X3112097Y2947659D01*
X3114407Y2948485D01*
X3116787Y2949082D01*
X3119213Y2949442D01*
X3121664Y2949562D01*
X3186664Y2949562D01*
X3189114Y2949442D01*
X3189114Y2949442D01*
G37*
D16*
X3154164Y2879562D03*
D13*
G36*
X2170626Y3790692D02*
G01*
X2173053Y3790332D01*
X2175433Y3789735D01*
X2177743Y3788909D01*
X2179961Y3787860D01*
X2182065Y3786599D01*
X2184036Y3785137D01*
X2185854Y3783490D01*
X2187501Y3781672D01*
X2188963Y3779701D01*
X2190224Y3777597D01*
X2191273Y3775379D01*
X2192100Y3773069D01*
X2192696Y3770689D01*
X2193056Y3768262D01*
X2193176Y3765812D01*
X2193176Y3580812D01*
X2193056Y3578362D01*
X2192696Y3575935D01*
X2192100Y3573555D01*
X2191273Y3571245D01*
X2190224Y3569027D01*
X2188963Y3566923D01*
X2187501Y3564952D01*
X2185854Y3563134D01*
X2184036Y3561487D01*
X2182065Y3560025D01*
X2179961Y3558764D01*
X2177743Y3557715D01*
X2175433Y3556888D01*
X2173053Y3556292D01*
X2170626Y3555932D01*
X2168176Y3555812D01*
X2068176Y3555812D01*
X2065726Y3555932D01*
X2063299Y3556292D01*
X2060919Y3556888D01*
X2058609Y3557715D01*
X2056391Y3558764D01*
X2054287Y3560025D01*
X2052316Y3561487D01*
X2050498Y3563134D01*
X2048851Y3564952D01*
X2047389Y3566923D01*
X2046128Y3569027D01*
X2045079Y3571245D01*
X2044252Y3573555D01*
X2043656Y3575935D01*
X2043296Y3578362D01*
X2043176Y3580812D01*
X2043176Y3765812D01*
X2043296Y3768262D01*
X2043656Y3770689D01*
X2044252Y3773069D01*
X2045079Y3775379D01*
X2046128Y3777597D01*
X2047389Y3779701D01*
X2048851Y3781672D01*
X2050498Y3783490D01*
X2052316Y3785137D01*
X2054287Y3786599D01*
X2056391Y3787860D01*
X2058609Y3788909D01*
X2060919Y3789735D01*
X2063299Y3790332D01*
X2065726Y3790692D01*
X2068176Y3790812D01*
X2168176Y3790812D01*
X2170626Y3790692D01*
X2170626Y3790692D01*
G37*
D19*
X2118176Y3673312D03*
D13*
G36*
X1845626Y3790692D02*
G01*
X1848053Y3790332D01*
X1850433Y3789735D01*
X1852743Y3788909D01*
X1854961Y3787860D01*
X1857065Y3786599D01*
X1859036Y3785137D01*
X1860854Y3783490D01*
X1862501Y3781672D01*
X1863963Y3779701D01*
X1865224Y3777597D01*
X1866273Y3775379D01*
X1867099Y3773069D01*
X1867696Y3770689D01*
X1868056Y3768262D01*
X1868176Y3765812D01*
X1868176Y3580812D01*
X1868056Y3578362D01*
X1867696Y3575935D01*
X1867099Y3573555D01*
X1866273Y3571245D01*
X1865224Y3569027D01*
X1863963Y3566923D01*
X1862501Y3564952D01*
X1860854Y3563134D01*
X1859036Y3561487D01*
X1857065Y3560025D01*
X1854961Y3558764D01*
X1852743Y3557715D01*
X1850433Y3556888D01*
X1848053Y3556292D01*
X1845626Y3555932D01*
X1843176Y3555812D01*
X1743176Y3555812D01*
X1740726Y3555932D01*
X1738299Y3556292D01*
X1735919Y3556888D01*
X1733609Y3557715D01*
X1731391Y3558764D01*
X1729287Y3560025D01*
X1727316Y3561487D01*
X1725498Y3563134D01*
X1723851Y3564952D01*
X1722389Y3566923D01*
X1721128Y3569027D01*
X1720079Y3571245D01*
X1719252Y3573555D01*
X1718656Y3575935D01*
X1718296Y3578362D01*
X1718176Y3580812D01*
X1718176Y3765812D01*
X1718296Y3768262D01*
X1718656Y3770689D01*
X1719252Y3773069D01*
X1720079Y3775379D01*
X1721128Y3777597D01*
X1722389Y3779701D01*
X1723851Y3781672D01*
X1725498Y3783490D01*
X1727316Y3785137D01*
X1729287Y3786599D01*
X1731391Y3787860D01*
X1733609Y3788909D01*
X1735919Y3789735D01*
X1738299Y3790332D01*
X1740726Y3790692D01*
X1743176Y3790812D01*
X1843176Y3790812D01*
X1845626Y3790692D01*
X1845626Y3790692D01*
G37*
D19*
X1793176Y3673312D03*
D13*
G36*
X1453470Y4774240D02*
G01*
X1455897Y4773880D01*
X1458277Y4773284D01*
X1460587Y4772457D01*
X1462805Y4771408D01*
X1464909Y4770147D01*
X1466880Y4768685D01*
X1468698Y4767038D01*
X1470345Y4765220D01*
X1471807Y4763249D01*
X1473068Y4761145D01*
X1474117Y4758927D01*
X1474943Y4756617D01*
X1475540Y4754237D01*
X1475900Y4751811D01*
X1476020Y4749360D01*
X1476020Y4684360D01*
X1475900Y4681910D01*
X1475540Y4679483D01*
X1474943Y4677103D01*
X1474117Y4674793D01*
X1473068Y4672575D01*
X1471807Y4670471D01*
X1470345Y4668500D01*
X1468698Y4666682D01*
X1466880Y4665035D01*
X1464909Y4663573D01*
X1462805Y4662312D01*
X1460587Y4661263D01*
X1458277Y4660437D01*
X1455897Y4659840D01*
X1453470Y4659480D01*
X1451020Y4659360D01*
X1361020Y4659360D01*
X1358570Y4659480D01*
X1356143Y4659840D01*
X1353763Y4660437D01*
X1351453Y4661263D01*
X1349235Y4662312D01*
X1347131Y4663573D01*
X1345160Y4665035D01*
X1343342Y4666682D01*
X1341695Y4668500D01*
X1340233Y4670471D01*
X1338972Y4672575D01*
X1337923Y4674793D01*
X1337097Y4677103D01*
X1336500Y4679483D01*
X1336140Y4681910D01*
X1336020Y4684360D01*
X1336020Y4749360D01*
X1336140Y4751811D01*
X1336500Y4754237D01*
X1337097Y4756617D01*
X1337923Y4758927D01*
X1338972Y4761145D01*
X1340233Y4763249D01*
X1341695Y4765220D01*
X1343342Y4767038D01*
X1345160Y4768685D01*
X1347131Y4770147D01*
X1349235Y4771408D01*
X1351453Y4772457D01*
X1353763Y4773284D01*
X1356143Y4773880D01*
X1358570Y4774240D01*
X1361020Y4774360D01*
X1451020Y4774360D01*
X1453470Y4774240D01*
X1453470Y4774240D01*
G37*
D16*
X1406020Y4716860D03*
D13*
G36*
X1453470Y4979240D02*
G01*
X1455897Y4978880D01*
X1458277Y4978284D01*
X1460587Y4977457D01*
X1462805Y4976408D01*
X1464909Y4975147D01*
X1466880Y4973685D01*
X1468698Y4972038D01*
X1470345Y4970220D01*
X1471807Y4968249D01*
X1473068Y4966145D01*
X1474117Y4963927D01*
X1474943Y4961617D01*
X1475540Y4959237D01*
X1475900Y4956811D01*
X1476020Y4954360D01*
X1476020Y4889360D01*
X1475900Y4886910D01*
X1475540Y4884483D01*
X1474943Y4882103D01*
X1474117Y4879793D01*
X1473068Y4877575D01*
X1471807Y4875471D01*
X1470345Y4873500D01*
X1468698Y4871682D01*
X1466880Y4870035D01*
X1464909Y4868573D01*
X1462805Y4867312D01*
X1460587Y4866263D01*
X1458277Y4865437D01*
X1455897Y4864840D01*
X1453470Y4864480D01*
X1451020Y4864360D01*
X1361020Y4864360D01*
X1358570Y4864480D01*
X1356143Y4864840D01*
X1353763Y4865437D01*
X1351453Y4866263D01*
X1349235Y4867312D01*
X1347131Y4868573D01*
X1345160Y4870035D01*
X1343342Y4871682D01*
X1341695Y4873500D01*
X1340233Y4875471D01*
X1338972Y4877575D01*
X1337923Y4879793D01*
X1337097Y4882103D01*
X1336500Y4884483D01*
X1336140Y4886910D01*
X1336020Y4889360D01*
X1336020Y4954360D01*
X1336140Y4956811D01*
X1336500Y4959237D01*
X1337097Y4961617D01*
X1337923Y4963927D01*
X1338972Y4966145D01*
X1340233Y4968249D01*
X1341695Y4970220D01*
X1343342Y4972038D01*
X1345160Y4973685D01*
X1347131Y4975147D01*
X1349235Y4976408D01*
X1351453Y4977457D01*
X1353763Y4978284D01*
X1356143Y4978880D01*
X1358570Y4979240D01*
X1361020Y4979360D01*
X1451020Y4979360D01*
X1453470Y4979240D01*
X1453470Y4979240D01*
G37*
D16*
X1406020Y4921860D03*
D20*
X691620Y3894800D03*
X291620Y3894800D03*
D13*
G36*
X1232237Y3985338D02*
G01*
X1234663Y3984978D01*
X1237043Y3984381D01*
X1239353Y3983555D01*
X1241571Y3982506D01*
X1243675Y3981245D01*
X1245646Y3979783D01*
X1247464Y3978136D01*
X1249111Y3976318D01*
X1250573Y3974347D01*
X1251834Y3972243D01*
X1252883Y3970025D01*
X1253710Y3967715D01*
X1254306Y3965335D01*
X1254666Y3962908D01*
X1254786Y3960458D01*
X1254786Y3895458D01*
X1254666Y3893007D01*
X1254306Y3890581D01*
X1253710Y3888201D01*
X1252883Y3885891D01*
X1251834Y3883673D01*
X1250573Y3881569D01*
X1249111Y3879598D01*
X1247464Y3877780D01*
X1245646Y3876133D01*
X1243675Y3874671D01*
X1241571Y3873410D01*
X1239353Y3872361D01*
X1237043Y3871534D01*
X1234663Y3870938D01*
X1232237Y3870578D01*
X1229786Y3870458D01*
X1139786Y3870458D01*
X1137336Y3870578D01*
X1134909Y3870938D01*
X1132529Y3871534D01*
X1130219Y3872361D01*
X1128001Y3873410D01*
X1125897Y3874671D01*
X1123926Y3876133D01*
X1122108Y3877780D01*
X1120461Y3879598D01*
X1118999Y3881569D01*
X1117738Y3883673D01*
X1116689Y3885891D01*
X1115863Y3888201D01*
X1115266Y3890581D01*
X1114906Y3893007D01*
X1114786Y3895458D01*
X1114786Y3960458D01*
X1114906Y3962908D01*
X1115266Y3965335D01*
X1115863Y3967715D01*
X1116689Y3970025D01*
X1117738Y3972243D01*
X1118999Y3974347D01*
X1120461Y3976318D01*
X1122108Y3978136D01*
X1123926Y3979783D01*
X1125897Y3981245D01*
X1128001Y3982506D01*
X1130219Y3983555D01*
X1132529Y3984381D01*
X1134909Y3984978D01*
X1137336Y3985338D01*
X1139786Y3985458D01*
X1229786Y3985458D01*
X1232237Y3985338D01*
X1232237Y3985338D01*
G37*
D16*
X1184786Y3927958D03*
D13*
G36*
X1232237Y3780338D02*
G01*
X1234663Y3779978D01*
X1237043Y3779381D01*
X1239353Y3778555D01*
X1241571Y3777506D01*
X1243675Y3776245D01*
X1245646Y3774783D01*
X1247464Y3773136D01*
X1249111Y3771318D01*
X1250573Y3769347D01*
X1251834Y3767243D01*
X1252883Y3765025D01*
X1253710Y3762715D01*
X1254306Y3760335D01*
X1254666Y3757908D01*
X1254786Y3755458D01*
X1254786Y3690458D01*
X1254666Y3688007D01*
X1254306Y3685581D01*
X1253710Y3683201D01*
X1252883Y3680891D01*
X1251834Y3678673D01*
X1250573Y3676569D01*
X1249111Y3674598D01*
X1247464Y3672780D01*
X1245646Y3671133D01*
X1243675Y3669671D01*
X1241571Y3668410D01*
X1239353Y3667361D01*
X1237043Y3666534D01*
X1234663Y3665938D01*
X1232237Y3665578D01*
X1229786Y3665458D01*
X1139786Y3665458D01*
X1137336Y3665578D01*
X1134909Y3665938D01*
X1132529Y3666534D01*
X1130219Y3667361D01*
X1128001Y3668410D01*
X1125897Y3669671D01*
X1123926Y3671133D01*
X1122108Y3672780D01*
X1120461Y3674598D01*
X1118999Y3676569D01*
X1117738Y3678673D01*
X1116689Y3680891D01*
X1115863Y3683201D01*
X1115266Y3685581D01*
X1114906Y3688007D01*
X1114786Y3690458D01*
X1114786Y3755458D01*
X1114906Y3757908D01*
X1115266Y3760335D01*
X1115863Y3762715D01*
X1116689Y3765025D01*
X1117738Y3767243D01*
X1118999Y3769347D01*
X1120461Y3771318D01*
X1122108Y3773136D01*
X1123926Y3774783D01*
X1125897Y3776245D01*
X1128001Y3777506D01*
X1130219Y3778555D01*
X1132529Y3779381D01*
X1134909Y3779978D01*
X1137336Y3780338D01*
X1139786Y3780458D01*
X1229786Y3780458D01*
X1232237Y3780338D01*
X1232237Y3780338D01*
G37*
D16*
X1184786Y3722958D03*
D13*
G36*
X1003636Y3780338D02*
G01*
X1006063Y3779978D01*
X1008443Y3779381D01*
X1010753Y3778555D01*
X1012971Y3777506D01*
X1015075Y3776245D01*
X1017046Y3774783D01*
X1018864Y3773136D01*
X1020511Y3771318D01*
X1021973Y3769347D01*
X1023234Y3767243D01*
X1024283Y3765025D01*
X1025109Y3762715D01*
X1025706Y3760335D01*
X1026066Y3757908D01*
X1026186Y3755458D01*
X1026186Y3690458D01*
X1026066Y3688007D01*
X1025706Y3685581D01*
X1025109Y3683201D01*
X1024283Y3680891D01*
X1023234Y3678673D01*
X1021973Y3676569D01*
X1020511Y3674598D01*
X1018864Y3672780D01*
X1017046Y3671133D01*
X1015075Y3669671D01*
X1012971Y3668410D01*
X1010753Y3667361D01*
X1008443Y3666534D01*
X1006063Y3665938D01*
X1003636Y3665578D01*
X1001186Y3665458D01*
X911186Y3665458D01*
X908735Y3665578D01*
X906309Y3665938D01*
X903929Y3666534D01*
X901619Y3667361D01*
X899401Y3668410D01*
X897297Y3669671D01*
X895326Y3671133D01*
X893508Y3672780D01*
X891861Y3674598D01*
X890399Y3676569D01*
X889138Y3678673D01*
X888089Y3680891D01*
X887262Y3683201D01*
X886666Y3685581D01*
X886306Y3688007D01*
X886186Y3690458D01*
X886186Y3755458D01*
X886306Y3757908D01*
X886666Y3760335D01*
X887262Y3762715D01*
X888089Y3765025D01*
X889138Y3767243D01*
X890399Y3769347D01*
X891861Y3771318D01*
X893508Y3773136D01*
X895326Y3774783D01*
X897297Y3776245D01*
X899401Y3777506D01*
X901619Y3778555D01*
X903929Y3779381D01*
X906309Y3779978D01*
X908735Y3780338D01*
X911186Y3780458D01*
X1001186Y3780458D01*
X1003636Y3780338D01*
X1003636Y3780338D01*
G37*
D16*
X956186Y3722958D03*
D13*
G36*
X1003636Y3985338D02*
G01*
X1006063Y3984978D01*
X1008443Y3984381D01*
X1010753Y3983555D01*
X1012971Y3982506D01*
X1015075Y3981245D01*
X1017046Y3979783D01*
X1018864Y3978136D01*
X1020511Y3976318D01*
X1021973Y3974347D01*
X1023234Y3972243D01*
X1024283Y3970025D01*
X1025109Y3967715D01*
X1025706Y3965335D01*
X1026066Y3962908D01*
X1026186Y3960458D01*
X1026186Y3895458D01*
X1026066Y3893007D01*
X1025706Y3890581D01*
X1025109Y3888201D01*
X1024283Y3885891D01*
X1023234Y3883673D01*
X1021973Y3881569D01*
X1020511Y3879598D01*
X1018864Y3877780D01*
X1017046Y3876133D01*
X1015075Y3874671D01*
X1012971Y3873410D01*
X1010753Y3872361D01*
X1008443Y3871534D01*
X1006063Y3870938D01*
X1003636Y3870578D01*
X1001186Y3870458D01*
X911186Y3870458D01*
X908735Y3870578D01*
X906309Y3870938D01*
X903929Y3871534D01*
X901619Y3872361D01*
X899401Y3873410D01*
X897297Y3874671D01*
X895326Y3876133D01*
X893508Y3877780D01*
X891861Y3879598D01*
X890399Y3881569D01*
X889138Y3883673D01*
X888089Y3885891D01*
X887262Y3888201D01*
X886666Y3890581D01*
X886306Y3893007D01*
X886186Y3895458D01*
X886186Y3960458D01*
X886306Y3962908D01*
X886666Y3965335D01*
X887262Y3967715D01*
X888089Y3970025D01*
X889138Y3972243D01*
X890399Y3974347D01*
X891861Y3976318D01*
X893508Y3978136D01*
X895326Y3979783D01*
X897297Y3981245D01*
X899401Y3982506D01*
X901619Y3983555D01*
X903929Y3984381D01*
X906309Y3984978D01*
X908735Y3985338D01*
X911186Y3985458D01*
X1001186Y3985458D01*
X1003636Y3985338D01*
X1003636Y3985338D01*
G37*
D16*
X956186Y3927958D03*
M02*
