G04 #@! TF.GenerationSoftware,KiCad,Pcbnew,(5.1.0)-1*
G04 #@! TF.CreationDate,2022-02-26T19:57:31-08:00*
G04 #@! TF.ProjectId,BITLINK_12F_R1,4249544c-494e-44b5-9f31-32465f52312e,rev?*
G04 #@! TF.SameCoordinates,PX7755c18PY8cd1ce0*
G04 #@! TF.FileFunction,Copper,L2,Bot*
G04 #@! TF.FilePolarity,Positive*
%FSLAX45Y45*%
G04 Gerber Fmt 4.5, Leading zero omitted, Abs format (unit mm)*
G04 Created by KiCad (PCBNEW (5.1.0)-1) date 2022-02-26 19:57:31*
%MOMM*%
%LPD*%
G04 APERTURE LIST*
%ADD10C,0.100000*%
%ADD11R,3.500000X3.500000*%
%ADD12C,3.000000*%
%ADD13C,3.500000*%
%ADD14C,1.800000*%
%ADD15R,1.800000X1.800000*%
%ADD16C,1.700000*%
%ADD17O,1.700000X2.000000*%
%ADD18R,1.700000X1.700000*%
%ADD19O,1.700000X1.700000*%
%ADD20C,2.000000*%
%ADD21R,1.600000X1.600000*%
%ADD22C,1.600000*%
%ADD23C,4.000000*%
%ADD24C,0.800000*%
%ADD25C,1.000000*%
%ADD26C,0.500000*%
%ADD27C,0.250000*%
%ADD28C,0.350000*%
%ADD29C,1.000000*%
%ADD30C,0.150000*%
%ADD31C,0.254000*%
G04 APERTURE END LIST*
D10*
G36*
X2305820Y2429100D02*
G01*
X1602240Y2429100D01*
X1602240Y3434940D01*
X2305820Y3434940D01*
X2305820Y2429100D01*
G37*
X2305820Y2429100D02*
X1602240Y2429100D01*
X1602240Y3434940D01*
X2305820Y3434940D01*
X2305820Y2429100D01*
D11*
X536820Y1135520D03*
D10*
G36*
X644171Y685159D02*
G01*
X651452Y684079D01*
X658591Y682291D01*
X665521Y679811D01*
X672175Y676664D01*
X678488Y672880D01*
X684400Y668496D01*
X689853Y663553D01*
X694796Y658100D01*
X699180Y652188D01*
X702964Y645875D01*
X706111Y639221D01*
X708590Y632291D01*
X710379Y625152D01*
X711459Y617871D01*
X711820Y610520D01*
X711820Y460520D01*
X711459Y453169D01*
X710379Y445888D01*
X708590Y438749D01*
X706111Y431819D01*
X702964Y425165D01*
X699180Y418852D01*
X694796Y412940D01*
X689853Y407487D01*
X684400Y402544D01*
X678488Y398160D01*
X672175Y394376D01*
X665521Y391229D01*
X658591Y388749D01*
X651452Y386961D01*
X644171Y385881D01*
X636820Y385520D01*
X436820Y385520D01*
X429469Y385881D01*
X422188Y386961D01*
X415049Y388749D01*
X408119Y391229D01*
X401465Y394376D01*
X395152Y398160D01*
X389240Y402544D01*
X383787Y407487D01*
X378844Y412940D01*
X374460Y418852D01*
X370676Y425165D01*
X367529Y431819D01*
X365049Y438749D01*
X363261Y445888D01*
X362181Y453169D01*
X361820Y460520D01*
X361820Y610520D01*
X362181Y617871D01*
X363261Y625152D01*
X365049Y632291D01*
X367529Y639221D01*
X370676Y645875D01*
X374460Y652188D01*
X378844Y658100D01*
X383787Y663553D01*
X389240Y668496D01*
X395152Y672880D01*
X401465Y676664D01*
X408119Y679811D01*
X415049Y682291D01*
X422188Y684079D01*
X429469Y685159D01*
X436820Y685520D01*
X636820Y685520D01*
X644171Y685159D01*
X644171Y685159D01*
G37*
D12*
X536820Y535520D03*
D10*
G36*
X1102897Y1010099D02*
G01*
X1111390Y1008839D01*
X1119720Y1006752D01*
X1127805Y1003859D01*
X1135567Y1000188D01*
X1142932Y995774D01*
X1149829Y990658D01*
X1156192Y984892D01*
X1161958Y978529D01*
X1167074Y971632D01*
X1171488Y964267D01*
X1175160Y956505D01*
X1178052Y948420D01*
X1180139Y940090D01*
X1181399Y931596D01*
X1181820Y923020D01*
X1181820Y748020D01*
X1181399Y739443D01*
X1180139Y730950D01*
X1178052Y722620D01*
X1175160Y714535D01*
X1171488Y706773D01*
X1167074Y699408D01*
X1161958Y692511D01*
X1156192Y686148D01*
X1149829Y680382D01*
X1142932Y675266D01*
X1135567Y670852D01*
X1127805Y667181D01*
X1119720Y664288D01*
X1111390Y662201D01*
X1102897Y660941D01*
X1094320Y660520D01*
X919320Y660520D01*
X910743Y660941D01*
X902250Y662201D01*
X893920Y664288D01*
X885835Y667181D01*
X878073Y670852D01*
X870708Y675266D01*
X863811Y680382D01*
X857448Y686148D01*
X851682Y692511D01*
X846566Y699408D01*
X842152Y706773D01*
X838480Y714535D01*
X835588Y722620D01*
X833501Y730950D01*
X832241Y739443D01*
X831820Y748020D01*
X831820Y923020D01*
X832241Y931596D01*
X833501Y940090D01*
X835588Y948420D01*
X838480Y956505D01*
X842152Y964267D01*
X846566Y971632D01*
X851682Y978529D01*
X857448Y984892D01*
X863811Y990658D01*
X870708Y995774D01*
X878073Y1000188D01*
X885835Y1003859D01*
X893920Y1006752D01*
X902250Y1008839D01*
X910743Y1010099D01*
X919320Y1010520D01*
X1094320Y1010520D01*
X1102897Y1010099D01*
X1102897Y1010099D01*
G37*
D13*
X1006820Y835520D03*
D14*
X4540000Y8808400D03*
D15*
X4286000Y8808400D03*
X3486000Y8808400D03*
D14*
X3740000Y8808400D03*
X2940000Y8808400D03*
D15*
X2686000Y8808400D03*
D14*
X2140000Y8808400D03*
D15*
X1886000Y8808400D03*
X1086000Y8808400D03*
D14*
X1340000Y8808400D03*
D15*
X286000Y8808400D03*
D14*
X540000Y8808400D03*
D10*
G36*
X849790Y1794240D02*
G01*
X852217Y1793880D01*
X854597Y1793283D01*
X856907Y1792457D01*
X859125Y1791408D01*
X861229Y1790147D01*
X863200Y1788685D01*
X865018Y1787038D01*
X866665Y1785220D01*
X868127Y1783249D01*
X869388Y1781145D01*
X870437Y1778927D01*
X871263Y1776617D01*
X871860Y1774237D01*
X872220Y1771810D01*
X872340Y1769360D01*
X872340Y1619360D01*
X872220Y1616910D01*
X871860Y1614483D01*
X871263Y1612103D01*
X870437Y1609793D01*
X869388Y1607575D01*
X868127Y1605471D01*
X866665Y1603500D01*
X865018Y1601682D01*
X863200Y1600035D01*
X861229Y1598573D01*
X859125Y1597312D01*
X856907Y1596263D01*
X854597Y1595436D01*
X852217Y1594840D01*
X849790Y1594480D01*
X847340Y1594360D01*
X727340Y1594360D01*
X724890Y1594480D01*
X722463Y1594840D01*
X720083Y1595436D01*
X717773Y1596263D01*
X715555Y1597312D01*
X713451Y1598573D01*
X711480Y1600035D01*
X709662Y1601682D01*
X708015Y1603500D01*
X706553Y1605471D01*
X705292Y1607575D01*
X704243Y1609793D01*
X703416Y1612103D01*
X702820Y1614483D01*
X702460Y1616910D01*
X702340Y1619360D01*
X702340Y1769360D01*
X702460Y1771810D01*
X702820Y1774237D01*
X703416Y1776617D01*
X704243Y1778927D01*
X705292Y1781145D01*
X706553Y1783249D01*
X708015Y1785220D01*
X709662Y1787038D01*
X711480Y1788685D01*
X713451Y1790147D01*
X715555Y1791408D01*
X717773Y1792457D01*
X720083Y1793283D01*
X722463Y1793880D01*
X724890Y1794240D01*
X727340Y1794360D01*
X847340Y1794360D01*
X849790Y1794240D01*
X849790Y1794240D01*
G37*
D16*
X787340Y1694360D03*
D17*
X537340Y1694360D03*
D18*
X4521200Y4566000D03*
D19*
X4521200Y4820000D03*
D18*
X4521200Y5368000D03*
D19*
X4521200Y5622000D03*
X4521200Y5876000D03*
D20*
X761820Y5529200D03*
X761820Y4329200D03*
X161820Y4329200D03*
X161820Y5529200D03*
D16*
X586820Y5329200D03*
X586820Y4929200D03*
X586820Y4529200D03*
D20*
X1344132Y2131532D03*
X1794132Y2131532D03*
X1344132Y1481532D03*
X1794132Y1481532D03*
D21*
X3724820Y996620D03*
D22*
X3447820Y996620D03*
X3170820Y996620D03*
X2893820Y996620D03*
X2616820Y996620D03*
X3586320Y712620D03*
X3309320Y712620D03*
X3032320Y712620D03*
X2755320Y712620D03*
D23*
X1920820Y966620D03*
X4420820Y966620D03*
D24*
X4726000Y666000D03*
X100000Y666000D03*
X4726000Y4066000D03*
X4726000Y2591000D03*
X4726000Y1616000D03*
X100000Y1616000D03*
X100000Y2591000D03*
X100000Y4066000D03*
X4726000Y6066000D03*
X4726000Y5114000D03*
X4726000Y100000D03*
X3126000Y100000D03*
X1626000Y100000D03*
X100000Y100000D03*
X100000Y6066000D03*
X100000Y5041000D03*
X948820Y5283164D03*
X3663820Y2059000D03*
X3957820Y2059000D03*
X3812820Y2368000D03*
X2047370Y4183100D03*
X942470Y6142700D03*
X4403220Y6130600D03*
X1541148Y3673312D03*
X2467820Y3062950D03*
X1444120Y2440650D03*
X2338200Y1443700D03*
X2549020Y2534630D03*
X2549020Y1921220D03*
X1441580Y4435820D03*
X2244728Y3932392D03*
X2908430Y1659600D03*
X2834770Y2904200D03*
X3057020Y3399500D03*
X2226440Y2156170D03*
X1386820Y1116000D03*
X2841120Y3849080D03*
X4170810Y2368000D03*
X4212720Y3539200D03*
X1324740Y3316950D03*
X555120Y5831550D03*
X4041270Y505170D03*
X2126110Y505170D03*
X1205868Y3559000D03*
X1396368Y3926804D03*
X2467820Y3592000D03*
X2757300Y3236940D03*
X1709804Y4183100D03*
X3153540Y3056000D03*
X964060Y2571460D03*
X1205868Y1778980D03*
X1205868Y2932020D03*
X4455290Y2380960D03*
X4382900Y1513550D03*
X964060Y3559000D03*
X1143130Y387060D03*
X4081148Y8065988D03*
X3281048Y8065988D03*
X2480948Y8065988D03*
X1680848Y8065988D03*
X880748Y8065988D03*
X186000Y7940200D03*
X948820Y4666960D03*
X362080Y3628100D03*
X232540Y2185380D03*
X3298320Y1659600D03*
X796420Y1405600D03*
D25*
X2018780Y3112820D03*
X1898780Y3112820D03*
X2138780Y3112820D03*
X1778780Y3112820D03*
X2018780Y2872820D03*
X1898780Y2872820D03*
X2138780Y2872820D03*
X1778780Y2872820D03*
X1778780Y2752820D03*
X1778780Y2992820D03*
X2018780Y2752820D03*
X1898780Y2752820D03*
X1898780Y2992820D03*
X2227880Y3383020D03*
X2117880Y3383020D03*
X2007880Y3383020D03*
X1787880Y3383020D03*
X1677880Y3383020D03*
X2138780Y2992820D03*
X2138780Y2752820D03*
X1897880Y3383020D03*
X2018780Y2992820D03*
X1897880Y2483020D03*
X1677880Y2483020D03*
X1787880Y2483020D03*
X2007880Y2483020D03*
X2117880Y2483020D03*
X2227880Y2483020D03*
D24*
X4117820Y2124000D03*
X3340820Y2408000D03*
D25*
X1279800Y4716000D03*
X1279800Y4606000D03*
X3236090Y3703030D03*
X3359164Y3206000D03*
D24*
X4033650Y7882600D03*
X1638430Y7882600D03*
X2437260Y7882600D03*
D25*
X4257170Y5466000D03*
D24*
X4495930Y7766000D03*
D25*
X1279800Y5453580D03*
X4352420Y3772880D03*
D24*
X3239900Y7882600D03*
X843410Y7882600D03*
X3641620Y5419790D03*
X3745820Y4762670D03*
X3976500Y5622000D03*
X3813650Y3136000D03*
X2917320Y7766000D03*
X3813650Y3915846D03*
X4161920Y3998940D03*
X4057780Y5876000D03*
X3562480Y3056000D03*
X3562480Y3827744D03*
X3749170Y7766000D03*
X4239263Y3868557D03*
X3447820Y1466500D03*
X3672970Y1528790D03*
X3297050Y1466500D03*
X3956180Y1381470D03*
X3672970Y1381470D03*
X1419736Y5990300D03*
X3641620Y4604730D03*
X4079450Y3056000D03*
X4248520Y7766000D03*
X4144140Y4604730D03*
X3641620Y5216000D03*
X1736820Y5116000D03*
X3733930Y3056000D03*
X2114870Y7766000D03*
X3317878Y4211030D03*
X3875535Y4304715D03*
X3983020Y3136000D03*
X1306770Y7766000D03*
X3539620Y5717250D03*
X3486280Y3136000D03*
X508320Y7766000D03*
X3157858Y4084538D03*
X3438020Y5516590D03*
X3697100Y4136100D03*
X1736820Y5316000D03*
X3893950Y3056000D03*
X1736820Y4916000D03*
X3650110Y3136000D03*
X1326772Y5890224D03*
X1185548Y4043644D03*
D26*
X4467820Y6066000D02*
X4726000Y6066000D01*
X4403220Y6130600D02*
X4467820Y6066000D01*
X470480Y7940200D02*
X186000Y7940200D01*
X596268Y8065988D02*
X470480Y7940200D01*
X4403220Y6130600D02*
X4403220Y6250650D01*
X4522092Y8065988D02*
X596268Y8065988D01*
X4257170Y6396700D02*
X4257170Y7215850D01*
X4403220Y6250650D02*
X4257170Y6396700D01*
X4257170Y7215850D02*
X4650870Y7609550D01*
X4650870Y7609550D02*
X4650870Y7937210D01*
X4650870Y7937210D02*
X4522092Y8065988D01*
D27*
X4030820Y2211000D02*
X4117820Y2124000D01*
X3340820Y2408000D02*
X3537820Y2211000D01*
X3537820Y2211000D02*
X4030820Y2211000D01*
D28*
X4442590Y7882600D02*
X4495930Y7829260D01*
D26*
X4257170Y4279610D02*
X4352420Y4184360D01*
D28*
X4495930Y7660350D02*
X4174620Y7339040D01*
X4174620Y7339040D02*
X4174620Y6320500D01*
D26*
X4352420Y3772880D02*
X4352420Y4184360D01*
D28*
X4495930Y7660350D02*
X4495930Y7829260D01*
X843410Y7882600D02*
X4442590Y7882600D01*
D29*
X1677880Y3915040D02*
X1677880Y3383020D01*
X1279800Y4313120D02*
X1677880Y3915040D01*
X1279800Y4313120D02*
X1279800Y5453580D01*
D26*
X4257170Y4279610D02*
X4257170Y5466000D01*
D28*
X4257170Y6237950D02*
X4174620Y6320500D01*
X4257170Y5466000D02*
X4257170Y6237950D01*
D26*
X2870098Y4068790D02*
X3359164Y3579724D01*
X2438530Y4068790D02*
X2870098Y4068790D01*
X1291720Y4550120D02*
X1957200Y4550120D01*
X1957200Y4550120D02*
X2438530Y4068790D01*
X3359164Y3579724D02*
X3359164Y3206000D01*
D29*
X1006820Y835520D02*
X1006820Y1474880D01*
X1006820Y1474880D02*
X787340Y1694360D01*
D27*
X3745820Y5315590D02*
X3641620Y5419790D01*
X3745820Y4762670D02*
X3745820Y5315590D01*
X3613040Y7766000D02*
X2917320Y7766000D01*
X3946655Y7432385D02*
X3613040Y7766000D01*
X3946655Y5790275D02*
X3946655Y7432385D01*
X3976500Y5760430D02*
X3946655Y5790275D01*
X4161920Y4093900D02*
X3976500Y4279320D01*
X4161920Y3998940D02*
X4161920Y4093900D01*
X3976500Y4279320D02*
X3976500Y5760430D01*
X3813650Y3136000D02*
X3813650Y3915846D01*
X4015870Y7501600D02*
X3751470Y7766000D01*
X4015870Y6093170D02*
X4015870Y7501600D01*
X4057780Y6051260D02*
X4015870Y6093170D01*
X4057780Y4318980D02*
X4057780Y6051260D01*
X4239263Y4137497D02*
X4057780Y4318980D01*
X4239263Y3868557D02*
X4239263Y4137497D01*
X3562480Y3056000D02*
X3562480Y3827744D01*
X3447820Y996620D02*
X3447820Y1466500D01*
X3556130Y1411950D02*
X3672970Y1528790D01*
X3556130Y1284950D02*
X3556130Y1411950D01*
X3586320Y1254760D02*
X3556130Y1284950D01*
X3586320Y712620D02*
X3586320Y1254760D01*
X3032320Y1201770D02*
X3297050Y1466500D01*
X3032320Y712620D02*
X3032320Y1201770D01*
X3672970Y1381470D02*
X3956180Y1381470D01*
X1344132Y1481532D02*
X1344132Y2131532D01*
X1083948Y2391716D02*
X1344132Y2131532D01*
X1419736Y5990300D02*
X1183516Y5990300D01*
X1183516Y5990300D02*
X1083948Y5890732D01*
X1083948Y2391716D02*
X1083948Y5890732D01*
X4098420Y6240490D02*
X4144140Y6194770D01*
X4098420Y6240490D02*
X4098420Y7615900D01*
X4144140Y6194770D02*
X4144140Y4604730D01*
X4098420Y7615900D02*
X4248520Y7766000D01*
X4079450Y3984970D02*
X4079450Y3056000D01*
X3641620Y4422800D02*
X4079450Y3984970D01*
X3641620Y4422800D02*
X3641620Y5216000D01*
X2627520Y7766000D02*
X2701420Y7692100D01*
X2114870Y7766000D02*
X2627520Y7766000D01*
X3563750Y7692100D02*
X2701420Y7692100D01*
X3875535Y7380315D02*
X3563750Y7692100D01*
X2612520Y4730460D02*
X2226980Y5116000D01*
X2612520Y4374352D02*
X2612520Y4730460D01*
X2670432Y4316440D02*
X2612520Y4374352D01*
X3212468Y4316440D02*
X2670432Y4316440D01*
X3633092Y3997416D02*
X3531492Y3997416D01*
X3733930Y3896578D02*
X3633092Y3997416D01*
X3875535Y7380315D02*
X3875535Y4304715D01*
X3212468Y4316440D02*
X3531492Y3997416D01*
X2226980Y5116000D02*
X1736820Y5116000D01*
X3733930Y3056000D02*
X3733930Y3896578D01*
X3983020Y3984800D02*
X3539620Y4428200D01*
X1903620Y7766000D02*
X1306770Y7766000D01*
X3539620Y5830280D02*
X3793620Y6084280D01*
X3793620Y6084280D02*
X3793620Y7336500D01*
X3793620Y7336500D02*
X3520570Y7609550D01*
X3520570Y7609550D02*
X2060070Y7609550D01*
X2060070Y7609550D02*
X1903620Y7766000D01*
X3539620Y5830280D02*
X3539620Y4428200D01*
X3983020Y3136000D02*
X3983020Y3984800D01*
X3724405Y7278715D02*
X3477390Y7525730D01*
X3724405Y6172545D02*
X3438020Y5886160D01*
X3724405Y7278715D02*
X3724405Y6172545D01*
X1087010Y7766000D02*
X508320Y7766000D01*
X1327280Y7525730D02*
X1087010Y7766000D01*
X3438020Y4395180D02*
X3697100Y4136100D01*
X3438020Y5886160D02*
X3438020Y4395180D01*
X3157858Y4084538D02*
X3486280Y3756116D01*
X1327280Y7525730D02*
X3477390Y7525730D01*
X3486280Y3136000D02*
X3486280Y3756116D01*
X3801748Y4057868D02*
X3893950Y3965666D01*
X3645792Y4057868D02*
X3801748Y4057868D01*
X2811148Y4826472D02*
X2811148Y4481032D01*
X2811148Y4481032D02*
X2888364Y4403816D01*
X2888364Y4403816D02*
X3299844Y4403816D01*
X3299844Y4403816D02*
X3645792Y4057868D01*
X2321620Y5316000D02*
X2811148Y4826472D01*
X2321620Y5316000D02*
X1736820Y5316000D01*
X3893950Y3056000D02*
X3893950Y3965666D01*
X2416940Y4697440D02*
X2198380Y4916000D01*
X3650110Y3867622D02*
X3582800Y3934932D01*
X3582800Y3934932D02*
X3441068Y3934932D01*
X3441068Y3934932D02*
X3155572Y4220428D01*
X3155572Y4220428D02*
X2490600Y4220428D01*
X2416940Y4294088D02*
X2416940Y4697440D01*
X2490600Y4220428D02*
X2416940Y4294088D01*
X2198380Y4916000D02*
X1736820Y4916000D01*
X3650110Y3136000D02*
X3650110Y3867622D01*
D30*
X1189612Y5890224D02*
X1326772Y5890224D01*
X1156940Y5857552D02*
X1189612Y5890224D01*
X1156940Y4192140D02*
X1156940Y5857552D01*
X1185548Y4043644D02*
X1185548Y4163532D01*
X1185548Y4163532D02*
X1156940Y4192140D01*
D29*
X536820Y2527760D02*
X679580Y2670520D01*
X536820Y1135520D02*
X536820Y2527760D01*
X679580Y2670520D02*
X679580Y3541740D01*
X679580Y3541740D02*
X402720Y3818600D01*
X402720Y4745100D02*
X586820Y4929200D01*
X402720Y3818600D02*
X402720Y4745100D01*
D31*
G36*
X1139320Y6044843D02*
G01*
X1136315Y6042377D01*
X1133637Y6040179D01*
X1131439Y6037501D01*
X1036747Y5942809D01*
X1034069Y5940611D01*
X1031871Y5937933D01*
X1031871Y5937933D01*
X1025296Y5929922D01*
X1022735Y5925130D01*
X1018778Y5917726D01*
X1014764Y5904494D01*
X1013962Y5896355D01*
X1013408Y5890732D01*
X1013748Y5887284D01*
X1013748Y2395163D01*
X1013408Y2391716D01*
X1013748Y2388269D01*
X1013748Y2388268D01*
X1014764Y2377955D01*
X1018778Y2364722D01*
X1025296Y2352526D01*
X1031871Y2344515D01*
X1031871Y2344515D01*
X1034069Y2341837D01*
X1036747Y2339639D01*
X1194356Y2182030D01*
X1192492Y2177531D01*
X1186432Y2147064D01*
X1186432Y2116000D01*
X1192492Y2085533D01*
X1204380Y2056833D01*
X1221638Y2031004D01*
X1243604Y2009038D01*
X1269433Y1991780D01*
X1273932Y1989917D01*
X1273932Y1623147D01*
X1269433Y1621284D01*
X1243604Y1604026D01*
X1221638Y1582060D01*
X1204380Y1556231D01*
X1192492Y1527531D01*
X1186432Y1497064D01*
X1186432Y1466000D01*
X1192492Y1435533D01*
X1204380Y1406833D01*
X1221638Y1381004D01*
X1243604Y1359038D01*
X1269433Y1341780D01*
X1298133Y1329892D01*
X1328600Y1323832D01*
X1359664Y1323832D01*
X1390131Y1329892D01*
X1418831Y1341780D01*
X1444660Y1359038D01*
X1453612Y1367991D01*
X1698551Y1367991D01*
X1708128Y1341551D01*
X1737089Y1327462D01*
X1768243Y1319294D01*
X1800391Y1317360D01*
X1832299Y1321736D01*
X1862741Y1332253D01*
X1880136Y1341551D01*
X1889713Y1367991D01*
X1794132Y1463571D01*
X1698551Y1367991D01*
X1453612Y1367991D01*
X1466626Y1381004D01*
X1483884Y1406833D01*
X1495772Y1435533D01*
X1501832Y1466000D01*
X1501832Y1475272D01*
X1629960Y1475272D01*
X1634336Y1443364D01*
X1644852Y1412923D01*
X1654151Y1395528D01*
X1680591Y1385951D01*
X1776171Y1481532D01*
X1812092Y1481532D01*
X1907673Y1385951D01*
X1934113Y1395528D01*
X1948202Y1424489D01*
X1956370Y1455643D01*
X1958304Y1487791D01*
X1953928Y1519699D01*
X1943411Y1550141D01*
X1934113Y1567536D01*
X1907673Y1577113D01*
X1812092Y1481532D01*
X1776171Y1481532D01*
X1680591Y1577113D01*
X1654151Y1567536D01*
X1640062Y1538575D01*
X1631894Y1507421D01*
X1629960Y1475272D01*
X1501832Y1475272D01*
X1501832Y1497064D01*
X1495772Y1527531D01*
X1483884Y1556231D01*
X1466626Y1582060D01*
X1453612Y1595073D01*
X1698551Y1595073D01*
X1794132Y1499492D01*
X1889713Y1595073D01*
X1880136Y1621513D01*
X1851175Y1635602D01*
X1820021Y1643770D01*
X1787872Y1645704D01*
X1755964Y1641328D01*
X1725523Y1630811D01*
X1708128Y1621513D01*
X1698551Y1595073D01*
X1453612Y1595073D01*
X1444660Y1604026D01*
X1418831Y1621284D01*
X1414332Y1623147D01*
X1414332Y1989917D01*
X1418831Y1991780D01*
X1444660Y2009038D01*
X1453612Y2017991D01*
X1698551Y2017991D01*
X1708128Y1991551D01*
X1737089Y1977462D01*
X1768243Y1969294D01*
X1800391Y1967360D01*
X1832299Y1971736D01*
X1862741Y1982252D01*
X1880136Y1991551D01*
X1889713Y2017991D01*
X1794132Y2113572D01*
X1698551Y2017991D01*
X1453612Y2017991D01*
X1466626Y2031004D01*
X1483884Y2056833D01*
X1495772Y2085533D01*
X1501832Y2116000D01*
X1501832Y2125273D01*
X1629960Y2125273D01*
X1634336Y2093364D01*
X1644852Y2062923D01*
X1654151Y2045528D01*
X1680591Y2035951D01*
X1776171Y2131532D01*
X1812092Y2131532D01*
X1907673Y2035951D01*
X1934113Y2045528D01*
X1948202Y2074489D01*
X1956370Y2105643D01*
X1958304Y2137792D01*
X1953928Y2169700D01*
X1943411Y2200141D01*
X1934113Y2217536D01*
X1907673Y2227113D01*
X1812092Y2131532D01*
X1776171Y2131532D01*
X1680591Y2227113D01*
X1654151Y2217536D01*
X1640062Y2188575D01*
X1631894Y2157421D01*
X1629960Y2125273D01*
X1501832Y2125273D01*
X1501832Y2147064D01*
X1495772Y2177531D01*
X1483884Y2206231D01*
X1466626Y2232060D01*
X1453612Y2245073D01*
X1698551Y2245073D01*
X1794132Y2149493D01*
X1889713Y2245073D01*
X1880136Y2271513D01*
X1851175Y2285602D01*
X1820021Y2293770D01*
X1787872Y2295704D01*
X1755964Y2291328D01*
X1725523Y2280812D01*
X1708128Y2271513D01*
X1698551Y2245073D01*
X1453612Y2245073D01*
X1444660Y2254026D01*
X1418831Y2271284D01*
X1390131Y2283172D01*
X1359664Y2289232D01*
X1328600Y2289232D01*
X1298133Y2283172D01*
X1293634Y2281308D01*
X1154148Y2420794D01*
X1154148Y3950901D01*
X1157050Y3949699D01*
X1175925Y3945944D01*
X1195171Y3945944D01*
X1214046Y3949699D01*
X1231826Y3957063D01*
X1247828Y3967755D01*
X1261437Y3981364D01*
X1272129Y3997366D01*
X1279493Y4015146D01*
X1283248Y4034021D01*
X1283248Y4053267D01*
X1279493Y4072142D01*
X1272129Y4089922D01*
X1261437Y4105924D01*
X1250748Y4116613D01*
X1250748Y4160330D01*
X1251063Y4163532D01*
X1249805Y4176313D01*
X1246076Y4188604D01*
X1243495Y4193434D01*
X1240022Y4199930D01*
X1237016Y4203593D01*
X1570180Y3870429D01*
X1570180Y3488593D01*
X1567908Y3487405D01*
X1567737Y3487268D01*
X1567542Y3487164D01*
X1562962Y3483428D01*
X1558371Y3479737D01*
X1558230Y3479569D01*
X1558059Y3479430D01*
X1554292Y3474877D01*
X1550505Y3470363D01*
X1550400Y3470171D01*
X1550259Y3470001D01*
X1547453Y3464810D01*
X1544610Y3459640D01*
X1544544Y3459430D01*
X1544439Y3459237D01*
X1542696Y3453606D01*
X1540910Y3447976D01*
X1540886Y3447757D01*
X1540821Y3447548D01*
X1540204Y3441679D01*
X1539546Y3435815D01*
X1539543Y3435393D01*
X1539541Y3435378D01*
X1539543Y3435362D01*
X1539540Y3434940D01*
X1539540Y2429100D01*
X1540116Y2423228D01*
X1540651Y2417351D01*
X1540713Y2417140D01*
X1540734Y2416922D01*
X1542440Y2411271D01*
X1544106Y2405612D01*
X1544207Y2405417D01*
X1544271Y2405207D01*
X1547044Y2399992D01*
X1549775Y2394768D01*
X1549912Y2394597D01*
X1550016Y2394402D01*
X1553752Y2389822D01*
X1557443Y2385231D01*
X1557611Y2385090D01*
X1557750Y2384919D01*
X1562303Y2381153D01*
X1566817Y2377365D01*
X1567009Y2377260D01*
X1567179Y2377119D01*
X1572370Y2374313D01*
X1577540Y2371470D01*
X1577750Y2371404D01*
X1577943Y2371299D01*
X1583574Y2369556D01*
X1589204Y2367770D01*
X1589422Y2367746D01*
X1589632Y2367681D01*
X1595501Y2367064D01*
X1601365Y2366406D01*
X1601786Y2366403D01*
X1601802Y2366402D01*
X1601818Y2366403D01*
X1602240Y2366400D01*
X2305820Y2366400D01*
X2311692Y2366976D01*
X2317569Y2367511D01*
X2317780Y2367573D01*
X2317999Y2367594D01*
X2323649Y2369300D01*
X2329308Y2370966D01*
X2329503Y2371068D01*
X2329713Y2371131D01*
X2334928Y2373904D01*
X2340152Y2376635D01*
X2340323Y2376772D01*
X2340518Y2376876D01*
X2345098Y2380612D01*
X2349689Y2384303D01*
X2349830Y2384471D01*
X2350001Y2384610D01*
X2353768Y2389163D01*
X2357555Y2393677D01*
X2357660Y2393869D01*
X2357801Y2394039D01*
X2360607Y2399230D01*
X2363450Y2404400D01*
X2363516Y2404610D01*
X2363621Y2404803D01*
X2365364Y2410434D01*
X2367150Y2416064D01*
X2367174Y2416283D01*
X2367239Y2416492D01*
X2367358Y2417623D01*
X3243120Y2417623D01*
X3243120Y2398377D01*
X3246875Y2379502D01*
X3254239Y2361722D01*
X3264931Y2345720D01*
X3278540Y2332112D01*
X3294542Y2321419D01*
X3312322Y2314055D01*
X3331197Y2310300D01*
X3339242Y2310300D01*
X3485743Y2163799D01*
X3487941Y2161121D01*
X3490619Y2158923D01*
X3490619Y2158923D01*
X3491102Y2158526D01*
X3498630Y2152349D01*
X3510826Y2145830D01*
X3524058Y2141816D01*
X3534372Y2140800D01*
X3534373Y2140800D01*
X3537820Y2140461D01*
X3541267Y2140800D01*
X4001742Y2140800D01*
X4020120Y2122422D01*
X4020120Y2114377D01*
X4023875Y2095502D01*
X4031239Y2077722D01*
X4041931Y2061720D01*
X4055540Y2048111D01*
X4071542Y2037419D01*
X4089322Y2030055D01*
X4108197Y2026300D01*
X4127443Y2026300D01*
X4146318Y2030055D01*
X4164098Y2037419D01*
X4180100Y2048111D01*
X4193708Y2061720D01*
X4204401Y2077722D01*
X4211765Y2095502D01*
X4215520Y2114377D01*
X4215520Y2133623D01*
X4211765Y2152498D01*
X4204401Y2170278D01*
X4193708Y2186280D01*
X4180100Y2199889D01*
X4164098Y2210581D01*
X4146318Y2217945D01*
X4127443Y2221700D01*
X4119398Y2221700D01*
X4082897Y2258201D01*
X4080699Y2260879D01*
X4070010Y2269652D01*
X4057814Y2276170D01*
X4044582Y2280184D01*
X4034268Y2281200D01*
X4034267Y2281200D01*
X4030820Y2281540D01*
X4027373Y2281200D01*
X3566898Y2281200D01*
X3438520Y2409578D01*
X3438520Y2417623D01*
X3434765Y2436498D01*
X3427401Y2454278D01*
X3416708Y2470280D01*
X3403100Y2483889D01*
X3387098Y2494581D01*
X3369318Y2501945D01*
X3350443Y2505700D01*
X3331197Y2505700D01*
X3312322Y2501945D01*
X3294542Y2494581D01*
X3278540Y2483889D01*
X3264931Y2470280D01*
X3254239Y2454278D01*
X3246875Y2436498D01*
X3243120Y2417623D01*
X2367358Y2417623D01*
X2367856Y2422361D01*
X2368514Y2428225D01*
X2368517Y2428647D01*
X2368519Y2428662D01*
X2368517Y2428678D01*
X2368520Y2429100D01*
X2368520Y3434940D01*
X2367944Y3440812D01*
X2367409Y3446689D01*
X2367347Y3446900D01*
X2367326Y3447118D01*
X2365620Y3452769D01*
X2363954Y3458428D01*
X2363853Y3458623D01*
X2363789Y3458833D01*
X2361016Y3464048D01*
X2358285Y3469272D01*
X2358148Y3469443D01*
X2358044Y3469638D01*
X2354308Y3474218D01*
X2350617Y3478809D01*
X2350449Y3478950D01*
X2350310Y3479121D01*
X2345757Y3482887D01*
X2341243Y3486675D01*
X2341051Y3486780D01*
X2340881Y3486921D01*
X2335690Y3489727D01*
X2330520Y3492570D01*
X2330310Y3492636D01*
X2330117Y3492741D01*
X2324486Y3494484D01*
X2318856Y3496270D01*
X2318638Y3496294D01*
X2318428Y3496359D01*
X2312559Y3496976D01*
X2306695Y3497634D01*
X2306274Y3497637D01*
X2306258Y3497638D01*
X2306242Y3497637D01*
X2305820Y3497640D01*
X1785580Y3497640D01*
X1785580Y3909749D01*
X1786101Y3915040D01*
X1785312Y3923051D01*
X1784022Y3936153D01*
X1777863Y3956454D01*
X1767863Y3975164D01*
X1754404Y3991564D01*
X1750294Y3994937D01*
X1387500Y4357731D01*
X1387500Y4467420D01*
X1496120Y4467420D01*
X1496120Y4456000D01*
X1496364Y4453522D01*
X1497087Y4451140D01*
X1498260Y4448944D01*
X1499840Y4447020D01*
X1501764Y4445440D01*
X1503960Y4444267D01*
X1506342Y4443544D01*
X1508820Y4443300D01*
X1947065Y4443300D01*
X2377180Y4013185D01*
X2379769Y4010029D01*
X2382925Y4007440D01*
X2382925Y4007440D01*
X2392362Y3999695D01*
X2402371Y3994345D01*
X2406729Y3992015D01*
X2422318Y3987287D01*
X2434468Y3986090D01*
X2434469Y3986090D01*
X2438530Y3985690D01*
X2442591Y3986090D01*
X2835843Y3986090D01*
X3128390Y3693543D01*
X3128390Y3692422D01*
X3132529Y3671615D01*
X3140647Y3652015D01*
X3152434Y3634375D01*
X3167435Y3619374D01*
X3185075Y3607587D01*
X3204675Y3599469D01*
X3225482Y3595330D01*
X3226602Y3595330D01*
X3276464Y3545468D01*
X3276464Y3275611D01*
X3275508Y3274655D01*
X3263721Y3257015D01*
X3255603Y3237415D01*
X3251464Y3216607D01*
X3251464Y3195392D01*
X3255603Y3174585D01*
X3263721Y3154985D01*
X3275508Y3137345D01*
X3290509Y3122344D01*
X3308149Y3110557D01*
X3327749Y3102439D01*
X3348556Y3098300D01*
X3369771Y3098300D01*
X3390579Y3102439D01*
X3393868Y3103801D01*
X3399699Y3089722D01*
X3410391Y3073720D01*
X3424000Y3060111D01*
X3440002Y3049419D01*
X3457782Y3042055D01*
X3465964Y3040427D01*
X3468535Y3027502D01*
X3475899Y3009722D01*
X3486591Y2993720D01*
X3500200Y2980111D01*
X3516202Y2969419D01*
X3533982Y2962055D01*
X3552857Y2958300D01*
X3572103Y2958300D01*
X3590978Y2962055D01*
X3608758Y2969419D01*
X3624760Y2980111D01*
X3638368Y2993720D01*
X3648205Y3008441D01*
X3658041Y2993720D01*
X3671650Y2980111D01*
X3687652Y2969419D01*
X3705432Y2962055D01*
X3724307Y2958300D01*
X3743553Y2958300D01*
X3762428Y2962055D01*
X3780208Y2969419D01*
X3796210Y2980111D01*
X3809818Y2993720D01*
X3813940Y2999888D01*
X3818061Y2993720D01*
X3831670Y2980111D01*
X3847672Y2969419D01*
X3865452Y2962055D01*
X3884327Y2958300D01*
X3903573Y2958300D01*
X3922448Y2962055D01*
X3940228Y2969419D01*
X3956230Y2980111D01*
X3969838Y2993720D01*
X3980531Y3009722D01*
X3986700Y3024616D01*
X3992869Y3009722D01*
X4003561Y2993720D01*
X4017170Y2980111D01*
X4033172Y2969419D01*
X4050952Y2962055D01*
X4069827Y2958300D01*
X4089073Y2958300D01*
X4107948Y2962055D01*
X4125728Y2969419D01*
X4141730Y2980111D01*
X4155338Y2993720D01*
X4166031Y3009722D01*
X4173395Y3027502D01*
X4177150Y3046377D01*
X4177150Y3065623D01*
X4173395Y3084498D01*
X4166031Y3102278D01*
X4155338Y3118280D01*
X4149650Y3123969D01*
X4149650Y3236142D01*
X4303500Y3236142D01*
X4303500Y3193258D01*
X4311866Y3151199D01*
X4328277Y3111580D01*
X4352101Y3075924D01*
X4382424Y3045601D01*
X4418080Y3021777D01*
X4457699Y3005366D01*
X4499758Y2997000D01*
X4542642Y2997000D01*
X4584701Y3005366D01*
X4624320Y3021777D01*
X4659976Y3045601D01*
X4690299Y3075924D01*
X4714123Y3111580D01*
X4730534Y3151199D01*
X4738900Y3193258D01*
X4738900Y3236142D01*
X4730534Y3278201D01*
X4714123Y3317820D01*
X4690299Y3353476D01*
X4659976Y3383799D01*
X4624320Y3407623D01*
X4584701Y3424034D01*
X4542642Y3432400D01*
X4499758Y3432400D01*
X4457699Y3424034D01*
X4418080Y3407623D01*
X4382424Y3383799D01*
X4352101Y3353476D01*
X4328277Y3317820D01*
X4311866Y3278201D01*
X4303500Y3236142D01*
X4149650Y3236142D01*
X4149650Y3829600D01*
X4152682Y3822279D01*
X4163374Y3806277D01*
X4176983Y3792668D01*
X4192985Y3781976D01*
X4210765Y3774612D01*
X4229640Y3770857D01*
X4244720Y3770857D01*
X4244720Y3762272D01*
X4248859Y3741465D01*
X4256978Y3721865D01*
X4268764Y3704225D01*
X4283765Y3689224D01*
X4301405Y3677437D01*
X4321005Y3669319D01*
X4341813Y3665180D01*
X4363028Y3665180D01*
X4383835Y3669319D01*
X4403435Y3677437D01*
X4421075Y3689224D01*
X4436076Y3704225D01*
X4447863Y3721865D01*
X4455981Y3741465D01*
X4460120Y3762272D01*
X4460120Y3783487D01*
X4455981Y3804295D01*
X4447863Y3823895D01*
X4436076Y3841535D01*
X4435120Y3842491D01*
X4435120Y4180299D01*
X4435520Y4184360D01*
X4435120Y4188421D01*
X4435120Y4188422D01*
X4433923Y4200572D01*
X4429195Y4216161D01*
X4421515Y4230528D01*
X4421515Y4230528D01*
X4413770Y4239965D01*
X4413770Y4239966D01*
X4411181Y4243121D01*
X4408026Y4245710D01*
X4339870Y4313865D01*
X4339870Y4481000D01*
X4372393Y4481000D01*
X4373619Y4468552D01*
X4377250Y4456582D01*
X4383146Y4445551D01*
X4391082Y4435882D01*
X4400751Y4427946D01*
X4411782Y4422050D01*
X4423752Y4418419D01*
X4436200Y4417193D01*
X4492625Y4417500D01*
X4508500Y4433375D01*
X4508500Y4553300D01*
X4533900Y4553300D01*
X4533900Y4433375D01*
X4549775Y4417500D01*
X4606200Y4417193D01*
X4618648Y4418419D01*
X4630618Y4422050D01*
X4641649Y4427946D01*
X4651319Y4435882D01*
X4659254Y4445551D01*
X4665150Y4456582D01*
X4668781Y4468552D01*
X4670007Y4481000D01*
X4669700Y4537425D01*
X4653825Y4553300D01*
X4533900Y4553300D01*
X4508500Y4553300D01*
X4388575Y4553300D01*
X4372700Y4537425D01*
X4372393Y4481000D01*
X4339870Y4481000D01*
X4339870Y4651000D01*
X4372393Y4651000D01*
X4372700Y4594575D01*
X4388575Y4578700D01*
X4508500Y4578700D01*
X4508500Y4580700D01*
X4533900Y4580700D01*
X4533900Y4578700D01*
X4653825Y4578700D01*
X4669700Y4594575D01*
X4670007Y4651000D01*
X4668781Y4663448D01*
X4665150Y4675418D01*
X4659254Y4686449D01*
X4651319Y4696119D01*
X4641649Y4704054D01*
X4630618Y4709950D01*
X4618648Y4713581D01*
X4616701Y4713773D01*
X4622592Y4718608D01*
X4640425Y4740337D01*
X4653676Y4765127D01*
X4661835Y4792026D01*
X4664590Y4820000D01*
X4661835Y4847974D01*
X4653676Y4874873D01*
X4640425Y4899663D01*
X4622592Y4921392D01*
X4600863Y4939225D01*
X4576073Y4952476D01*
X4549174Y4960635D01*
X4528210Y4962700D01*
X4514190Y4962700D01*
X4493226Y4960635D01*
X4466327Y4952476D01*
X4441537Y4939225D01*
X4419808Y4921392D01*
X4401975Y4899663D01*
X4388725Y4874873D01*
X4380565Y4847974D01*
X4377810Y4820000D01*
X4380565Y4792026D01*
X4388725Y4765127D01*
X4401975Y4740337D01*
X4419808Y4718608D01*
X4425699Y4713773D01*
X4423752Y4713581D01*
X4411782Y4709950D01*
X4400751Y4704054D01*
X4391082Y4696119D01*
X4383146Y4686449D01*
X4377250Y4675418D01*
X4373619Y4663448D01*
X4372393Y4651000D01*
X4339870Y4651000D01*
X4339870Y5283000D01*
X4372393Y5283000D01*
X4373619Y5270552D01*
X4377250Y5258582D01*
X4383146Y5247551D01*
X4391082Y5237882D01*
X4400751Y5229946D01*
X4411782Y5224050D01*
X4423752Y5220419D01*
X4436200Y5219193D01*
X4492625Y5219500D01*
X4508500Y5235375D01*
X4508500Y5355300D01*
X4533900Y5355300D01*
X4533900Y5235375D01*
X4549775Y5219500D01*
X4606200Y5219193D01*
X4618648Y5220419D01*
X4630618Y5224050D01*
X4641649Y5229946D01*
X4651319Y5237882D01*
X4659254Y5247551D01*
X4665150Y5258582D01*
X4668781Y5270552D01*
X4670007Y5283000D01*
X4669700Y5339425D01*
X4653825Y5355300D01*
X4533900Y5355300D01*
X4508500Y5355300D01*
X4388575Y5355300D01*
X4372700Y5339425D01*
X4372393Y5283000D01*
X4339870Y5283000D01*
X4339870Y5396389D01*
X4340826Y5397345D01*
X4352613Y5414985D01*
X4360731Y5434585D01*
X4364394Y5453000D01*
X4372393Y5453000D01*
X4372700Y5396575D01*
X4388575Y5380700D01*
X4508500Y5380700D01*
X4508500Y5382700D01*
X4533900Y5382700D01*
X4533900Y5380700D01*
X4653825Y5380700D01*
X4669700Y5396575D01*
X4670007Y5453000D01*
X4668781Y5465448D01*
X4665150Y5477418D01*
X4659254Y5488449D01*
X4651319Y5498119D01*
X4641649Y5506054D01*
X4630618Y5511950D01*
X4618648Y5515581D01*
X4616701Y5515773D01*
X4622592Y5520608D01*
X4640425Y5542337D01*
X4653676Y5567127D01*
X4661835Y5594026D01*
X4664590Y5622000D01*
X4661835Y5649974D01*
X4653676Y5676873D01*
X4640425Y5701663D01*
X4622592Y5723392D01*
X4600863Y5741225D01*
X4586317Y5749000D01*
X4600863Y5756775D01*
X4622592Y5774608D01*
X4640425Y5796337D01*
X4653676Y5821127D01*
X4661835Y5848026D01*
X4664590Y5876000D01*
X4661835Y5903974D01*
X4653676Y5930873D01*
X4640425Y5955663D01*
X4622592Y5977392D01*
X4600863Y5995225D01*
X4576073Y6008475D01*
X4549174Y6016635D01*
X4528210Y6018700D01*
X4514190Y6018700D01*
X4493226Y6016635D01*
X4466327Y6008475D01*
X4441537Y5995225D01*
X4419808Y5977392D01*
X4401975Y5955663D01*
X4388725Y5930873D01*
X4380565Y5903974D01*
X4377810Y5876000D01*
X4380565Y5848026D01*
X4388725Y5821127D01*
X4401975Y5796337D01*
X4419808Y5774608D01*
X4441537Y5756775D01*
X4456083Y5749000D01*
X4441537Y5741225D01*
X4419808Y5723392D01*
X4401975Y5701663D01*
X4388725Y5676873D01*
X4380565Y5649974D01*
X4377810Y5622000D01*
X4380565Y5594026D01*
X4388725Y5567127D01*
X4401975Y5542337D01*
X4419808Y5520608D01*
X4425699Y5515773D01*
X4423752Y5515581D01*
X4411782Y5511950D01*
X4400751Y5506054D01*
X4391082Y5498119D01*
X4383146Y5488449D01*
X4377250Y5477418D01*
X4373619Y5465448D01*
X4372393Y5453000D01*
X4364394Y5453000D01*
X4364870Y5455393D01*
X4364870Y5476608D01*
X4360731Y5497415D01*
X4352613Y5517015D01*
X4340826Y5534655D01*
X4332370Y5543111D01*
X4332370Y6172300D01*
X4763300Y6172300D01*
X4763300Y62700D01*
X62700Y62700D01*
X62700Y385520D01*
X298013Y385520D01*
X299239Y373072D01*
X302870Y361102D01*
X308766Y350071D01*
X316702Y340402D01*
X326371Y332466D01*
X337402Y326570D01*
X349372Y322939D01*
X361820Y321713D01*
X483645Y322020D01*
X499520Y337895D01*
X499520Y498220D01*
X574120Y498220D01*
X574120Y337895D01*
X589995Y322020D01*
X711820Y321713D01*
X724268Y322939D01*
X736238Y326570D01*
X747269Y332466D01*
X756938Y340402D01*
X764874Y350071D01*
X770770Y361102D01*
X774401Y373072D01*
X775627Y385520D01*
X775320Y482345D01*
X759445Y498220D01*
X574120Y498220D01*
X499520Y498220D01*
X314195Y498220D01*
X298320Y482345D01*
X298013Y385520D01*
X62700Y385520D01*
X62700Y685520D01*
X298013Y685520D01*
X298320Y588695D01*
X314195Y572820D01*
X499520Y572820D01*
X499520Y733145D01*
X574120Y733145D01*
X574120Y572820D01*
X759445Y572820D01*
X775320Y588695D01*
X775627Y685520D01*
X774401Y697968D01*
X770770Y709938D01*
X764874Y720969D01*
X756938Y730638D01*
X747269Y738574D01*
X736238Y744470D01*
X724268Y748101D01*
X711820Y749327D01*
X589995Y749020D01*
X574120Y733145D01*
X499520Y733145D01*
X483645Y749020D01*
X361820Y749327D01*
X349372Y748101D01*
X337402Y744470D01*
X326371Y738574D01*
X316702Y730638D01*
X308766Y720969D01*
X302870Y709938D01*
X299239Y697968D01*
X298013Y685520D01*
X62700Y685520D01*
X62700Y3236142D01*
X87100Y3236142D01*
X87100Y3193258D01*
X95466Y3151199D01*
X111877Y3111580D01*
X135701Y3075924D01*
X166024Y3045601D01*
X201680Y3021777D01*
X241299Y3005366D01*
X283358Y2997000D01*
X326242Y2997000D01*
X368301Y3005366D01*
X407920Y3021777D01*
X443576Y3045601D01*
X473899Y3075924D01*
X497723Y3111580D01*
X514134Y3151199D01*
X522500Y3193258D01*
X522500Y3236142D01*
X514134Y3278201D01*
X497723Y3317820D01*
X473899Y3353476D01*
X443576Y3383799D01*
X407920Y3407623D01*
X368301Y3424034D01*
X326242Y3432400D01*
X283358Y3432400D01*
X241299Y3424034D01*
X201680Y3407623D01*
X166024Y3383799D01*
X135701Y3353476D01*
X111877Y3317820D01*
X95466Y3278201D01*
X87100Y3236142D01*
X62700Y3236142D01*
X62700Y4205766D01*
X87121Y4189448D01*
X115821Y4177560D01*
X146288Y4171500D01*
X177352Y4171500D01*
X207819Y4177560D01*
X236519Y4189448D01*
X262348Y4206706D01*
X284314Y4228672D01*
X295020Y4244696D01*
X295020Y3823891D01*
X294499Y3818600D01*
X295020Y3813309D01*
X295020Y3813309D01*
X296578Y3797487D01*
X302737Y3777186D01*
X312737Y3758476D01*
X326196Y3742076D01*
X330307Y3738703D01*
X571880Y3497129D01*
X571880Y2715131D01*
X464406Y2607657D01*
X460296Y2604284D01*
X456923Y2600174D01*
X446837Y2587884D01*
X436837Y2569174D01*
X430678Y2548873D01*
X428599Y2527760D01*
X429120Y2522468D01*
X429120Y1802433D01*
X418115Y1789023D01*
X404864Y1764233D01*
X396705Y1737334D01*
X394640Y1716370D01*
X394640Y1672350D01*
X396705Y1651386D01*
X404864Y1624487D01*
X418115Y1599697D01*
X429120Y1586287D01*
X429120Y1368499D01*
X361820Y1368499D01*
X350509Y1367385D01*
X339632Y1364086D01*
X329609Y1358728D01*
X320823Y1351517D01*
X313612Y1342732D01*
X308254Y1332708D01*
X304955Y1321831D01*
X303841Y1310520D01*
X303841Y960520D01*
X304955Y949209D01*
X308254Y938332D01*
X313612Y928308D01*
X320823Y919523D01*
X329609Y912312D01*
X339632Y906954D01*
X350509Y903655D01*
X361820Y902541D01*
X711820Y902541D01*
X723131Y903655D01*
X734008Y906954D01*
X744031Y912312D01*
X752817Y919523D01*
X760028Y928308D01*
X765386Y938332D01*
X768685Y949209D01*
X769799Y960520D01*
X769799Y1310520D01*
X768685Y1321831D01*
X765386Y1332708D01*
X760028Y1342732D01*
X752817Y1351517D01*
X744031Y1358728D01*
X734008Y1364086D01*
X723131Y1367385D01*
X711820Y1368499D01*
X644520Y1368499D01*
X644520Y1585020D01*
X649588Y1591196D01*
X650677Y1587605D01*
X658345Y1573259D01*
X668665Y1560685D01*
X681239Y1550365D01*
X695585Y1542697D01*
X711152Y1537975D01*
X727340Y1536381D01*
X793008Y1536381D01*
X899120Y1430269D01*
X899120Y1066510D01*
X890938Y1065704D01*
X863648Y1057425D01*
X838496Y1043981D01*
X816451Y1025889D01*
X798358Y1003844D01*
X784915Y978692D01*
X776636Y951402D01*
X773841Y923020D01*
X773841Y748020D01*
X776636Y719638D01*
X784915Y692348D01*
X798358Y667196D01*
X816451Y645151D01*
X838496Y627059D01*
X863648Y613615D01*
X890938Y605336D01*
X919320Y602541D01*
X1094320Y602541D01*
X1122702Y605336D01*
X1149992Y613615D01*
X1175144Y627059D01*
X1197189Y645151D01*
X1215282Y667196D01*
X1228725Y692348D01*
X1237004Y719638D01*
X1239799Y748020D01*
X1239799Y923020D01*
X1237004Y951402D01*
X1228725Y978692D01*
X1221348Y992494D01*
X1658120Y992494D01*
X1658120Y940746D01*
X1668215Y889993D01*
X1688018Y842185D01*
X1716768Y799158D01*
X1753358Y762568D01*
X1796385Y733818D01*
X1844193Y714015D01*
X1894946Y703920D01*
X1946694Y703920D01*
X1997447Y714015D01*
X2026820Y726182D01*
X2617620Y726182D01*
X2617620Y699058D01*
X2622912Y672454D01*
X2633292Y647395D01*
X2648361Y624841D01*
X2667541Y605661D01*
X2690095Y590592D01*
X2715154Y580212D01*
X2741758Y574920D01*
X2768882Y574920D01*
X2795486Y580212D01*
X2820545Y590592D01*
X2843099Y605661D01*
X2862279Y624841D01*
X2877348Y647395D01*
X2887728Y672454D01*
X2893020Y699058D01*
X2893020Y726182D01*
X2887728Y752786D01*
X2877348Y777845D01*
X2862279Y800399D01*
X2843099Y819579D01*
X2820545Y834648D01*
X2795486Y845028D01*
X2768882Y850320D01*
X2741758Y850320D01*
X2715154Y845028D01*
X2690095Y834648D01*
X2667541Y819579D01*
X2648361Y800399D01*
X2633292Y777845D01*
X2622912Y752786D01*
X2617620Y726182D01*
X2026820Y726182D01*
X2045255Y733818D01*
X2088281Y762568D01*
X2124872Y799158D01*
X2153622Y842185D01*
X2173425Y889993D01*
X2174888Y897350D01*
X2535510Y897350D01*
X2542669Y872953D01*
X2568220Y860863D01*
X2595638Y853990D01*
X2623871Y852598D01*
X2651833Y856741D01*
X2678449Y866260D01*
X2690971Y872953D01*
X2698130Y897350D01*
X2616820Y978659D01*
X2535510Y897350D01*
X2174888Y897350D01*
X2183520Y940746D01*
X2183520Y989569D01*
X2472798Y989569D01*
X2476941Y961607D01*
X2486460Y934991D01*
X2493153Y922469D01*
X2517550Y915310D01*
X2598860Y996620D01*
X2634781Y996620D01*
X2716090Y915310D01*
X2740487Y922469D01*
X2752577Y948020D01*
X2758438Y971402D01*
X2761412Y956454D01*
X2771792Y931395D01*
X2786861Y908841D01*
X2806041Y889661D01*
X2828595Y874592D01*
X2853654Y864212D01*
X2880258Y858920D01*
X2907382Y858920D01*
X2933986Y864212D01*
X2959045Y874592D01*
X2962120Y876646D01*
X2962120Y831324D01*
X2944541Y819579D01*
X2925361Y800399D01*
X2910292Y777845D01*
X2899912Y752786D01*
X2894620Y726182D01*
X2894620Y699058D01*
X2899912Y672454D01*
X2910292Y647395D01*
X2925361Y624841D01*
X2944541Y605661D01*
X2967095Y590592D01*
X2992154Y580212D01*
X3018758Y574920D01*
X3045882Y574920D01*
X3072486Y580212D01*
X3097545Y590592D01*
X3120099Y605661D01*
X3139279Y624841D01*
X3154348Y647395D01*
X3164728Y672454D01*
X3170020Y699058D01*
X3170020Y726182D01*
X3171620Y726182D01*
X3171620Y699058D01*
X3176912Y672454D01*
X3187292Y647395D01*
X3202361Y624841D01*
X3221541Y605661D01*
X3244095Y590592D01*
X3269154Y580212D01*
X3295758Y574920D01*
X3322882Y574920D01*
X3349486Y580212D01*
X3374545Y590592D01*
X3397099Y605661D01*
X3416279Y624841D01*
X3431348Y647395D01*
X3441728Y672454D01*
X3447020Y699058D01*
X3447020Y726182D01*
X3441728Y752786D01*
X3431348Y777845D01*
X3416279Y800399D01*
X3397099Y819579D01*
X3374545Y834648D01*
X3349486Y845028D01*
X3322882Y850320D01*
X3295758Y850320D01*
X3269154Y845028D01*
X3244095Y834648D01*
X3221541Y819579D01*
X3202361Y800399D01*
X3187292Y777845D01*
X3176912Y752786D01*
X3171620Y726182D01*
X3170020Y726182D01*
X3164728Y752786D01*
X3154348Y777845D01*
X3139279Y800399D01*
X3120099Y819579D01*
X3102520Y831324D01*
X3102520Y876646D01*
X3105595Y874592D01*
X3130654Y864212D01*
X3157258Y858920D01*
X3184382Y858920D01*
X3210986Y864212D01*
X3236045Y874592D01*
X3258599Y889661D01*
X3277779Y908841D01*
X3292848Y931395D01*
X3303228Y956454D01*
X3306678Y973800D01*
X3311961Y973800D01*
X3315412Y956454D01*
X3325792Y931395D01*
X3340861Y908841D01*
X3360041Y889661D01*
X3382595Y874592D01*
X3407654Y864212D01*
X3434258Y858920D01*
X3461382Y858920D01*
X3487986Y864212D01*
X3513045Y874592D01*
X3516120Y876646D01*
X3516120Y831324D01*
X3498541Y819579D01*
X3479361Y800399D01*
X3464292Y777845D01*
X3453912Y752786D01*
X3448620Y726182D01*
X3448620Y699058D01*
X3453912Y672454D01*
X3464292Y647395D01*
X3479361Y624841D01*
X3498541Y605661D01*
X3521095Y590592D01*
X3546154Y580212D01*
X3572758Y574920D01*
X3599882Y574920D01*
X3626486Y580212D01*
X3651545Y590592D01*
X3674099Y605661D01*
X3693279Y624841D01*
X3708348Y647395D01*
X3718728Y672454D01*
X3724020Y699058D01*
X3724020Y726182D01*
X3718728Y752786D01*
X3708348Y777845D01*
X3693279Y800399D01*
X3674099Y819579D01*
X3656520Y831324D01*
X3656520Y858641D01*
X3804820Y858641D01*
X3816131Y859755D01*
X3827008Y863054D01*
X3837031Y868412D01*
X3845817Y875623D01*
X3853028Y884408D01*
X3858386Y894432D01*
X3861685Y905309D01*
X3862799Y916620D01*
X3862799Y992494D01*
X4158120Y992494D01*
X4158120Y940746D01*
X4168215Y889993D01*
X4188018Y842185D01*
X4216768Y799158D01*
X4253359Y762568D01*
X4296385Y733818D01*
X4344193Y714015D01*
X4394946Y703920D01*
X4446694Y703920D01*
X4497447Y714015D01*
X4545255Y733818D01*
X4588282Y762568D01*
X4624872Y799158D01*
X4653622Y842185D01*
X4673425Y889993D01*
X4683520Y940746D01*
X4683520Y992494D01*
X4673425Y1043247D01*
X4653622Y1091055D01*
X4624872Y1134082D01*
X4588282Y1170672D01*
X4545255Y1199422D01*
X4497447Y1219225D01*
X4446694Y1229320D01*
X4394946Y1229320D01*
X4344193Y1219225D01*
X4296385Y1199422D01*
X4253359Y1170672D01*
X4216768Y1134082D01*
X4188018Y1091055D01*
X4168215Y1043247D01*
X4158120Y992494D01*
X3862799Y992494D01*
X3862799Y1076620D01*
X3861685Y1087931D01*
X3858386Y1098808D01*
X3853028Y1108832D01*
X3845817Y1117617D01*
X3837031Y1124828D01*
X3827008Y1130186D01*
X3816131Y1133485D01*
X3804820Y1134599D01*
X3656520Y1134599D01*
X3656520Y1251313D01*
X3656859Y1254760D01*
X3656520Y1258207D01*
X3656520Y1258208D01*
X3655504Y1268522D01*
X3651490Y1281754D01*
X3648874Y1286649D01*
X3663347Y1283770D01*
X3682593Y1283770D01*
X3701468Y1287525D01*
X3719248Y1294889D01*
X3735250Y1305582D01*
X3740939Y1311270D01*
X3888211Y1311270D01*
X3893900Y1305582D01*
X3909902Y1294889D01*
X3927682Y1287525D01*
X3946557Y1283770D01*
X3965803Y1283770D01*
X3984678Y1287525D01*
X4002458Y1294889D01*
X4018460Y1305582D01*
X4032068Y1319190D01*
X4042761Y1335192D01*
X4050125Y1352972D01*
X4053880Y1371847D01*
X4053880Y1391093D01*
X4050125Y1409968D01*
X4042761Y1427748D01*
X4032068Y1443750D01*
X4018460Y1457358D01*
X4002458Y1468051D01*
X3984678Y1475415D01*
X3965803Y1479170D01*
X3946557Y1479170D01*
X3927682Y1475415D01*
X3909902Y1468051D01*
X3893900Y1457358D01*
X3888211Y1451670D01*
X3740939Y1451670D01*
X3737479Y1455130D01*
X3748858Y1466510D01*
X3759551Y1482512D01*
X3766915Y1500292D01*
X3770670Y1519167D01*
X3770670Y1538413D01*
X3766915Y1557288D01*
X3759551Y1575068D01*
X3748858Y1591070D01*
X3735250Y1604678D01*
X3719248Y1615371D01*
X3701468Y1622735D01*
X3682593Y1626490D01*
X3663347Y1626490D01*
X3644472Y1622735D01*
X3626692Y1615371D01*
X3610690Y1604678D01*
X3597081Y1591070D01*
X3586389Y1575068D01*
X3579025Y1557288D01*
X3575270Y1538413D01*
X3575270Y1530368D01*
X3541219Y1496317D01*
X3534401Y1512778D01*
X3523708Y1528780D01*
X3510100Y1542388D01*
X3494098Y1553081D01*
X3476318Y1560445D01*
X3457443Y1564200D01*
X3438197Y1564200D01*
X3419322Y1560445D01*
X3401542Y1553081D01*
X3385540Y1542388D01*
X3372435Y1529284D01*
X3359330Y1542388D01*
X3343328Y1553081D01*
X3325548Y1560445D01*
X3306673Y1564200D01*
X3287427Y1564200D01*
X3268552Y1560445D01*
X3250772Y1553081D01*
X3234770Y1542388D01*
X3221161Y1528780D01*
X3210469Y1512778D01*
X3203105Y1494998D01*
X3199350Y1476123D01*
X3199350Y1468078D01*
X2985119Y1253847D01*
X2982441Y1251649D01*
X2980243Y1248971D01*
X2980243Y1248971D01*
X2973668Y1240960D01*
X2970521Y1235071D01*
X2967150Y1228764D01*
X2963207Y1215766D01*
X2963136Y1215532D01*
X2961780Y1201770D01*
X2962120Y1198322D01*
X2962120Y1116594D01*
X2959045Y1118648D01*
X2933986Y1129028D01*
X2907382Y1134320D01*
X2880258Y1134320D01*
X2853654Y1129028D01*
X2828595Y1118648D01*
X2806041Y1103579D01*
X2786861Y1084399D01*
X2771792Y1061845D01*
X2761412Y1036786D01*
X2758273Y1021007D01*
X2756699Y1031633D01*
X2747180Y1058249D01*
X2740487Y1070771D01*
X2716090Y1077930D01*
X2634781Y996620D01*
X2598860Y996620D01*
X2517550Y1077930D01*
X2493153Y1070771D01*
X2481063Y1045220D01*
X2474190Y1017802D01*
X2472798Y989569D01*
X2183520Y989569D01*
X2183520Y992494D01*
X2173425Y1043247D01*
X2153622Y1091055D01*
X2150391Y1095890D01*
X2535510Y1095890D01*
X2616820Y1014580D01*
X2698130Y1095890D01*
X2690971Y1120287D01*
X2665420Y1132377D01*
X2638002Y1139250D01*
X2609769Y1140642D01*
X2581807Y1136499D01*
X2555191Y1126980D01*
X2542669Y1120287D01*
X2535510Y1095890D01*
X2150391Y1095890D01*
X2124872Y1134082D01*
X2088281Y1170672D01*
X2045255Y1199422D01*
X1997447Y1219225D01*
X1946694Y1229320D01*
X1894946Y1229320D01*
X1844193Y1219225D01*
X1796385Y1199422D01*
X1753358Y1170672D01*
X1716768Y1134082D01*
X1688018Y1091055D01*
X1668215Y1043247D01*
X1658120Y992494D01*
X1221348Y992494D01*
X1215282Y1003844D01*
X1197189Y1025889D01*
X1175144Y1043981D01*
X1149992Y1057425D01*
X1122702Y1065704D01*
X1114520Y1066510D01*
X1114520Y1469589D01*
X1115041Y1474880D01*
X1114520Y1480171D01*
X1112962Y1495993D01*
X1106803Y1516294D01*
X1096803Y1535004D01*
X1083344Y1551404D01*
X1079234Y1554777D01*
X930319Y1703692D01*
X930319Y1769360D01*
X928725Y1785548D01*
X924003Y1801115D01*
X916335Y1815461D01*
X906015Y1828035D01*
X893441Y1838355D01*
X879095Y1846023D01*
X863528Y1850745D01*
X847340Y1852339D01*
X727340Y1852339D01*
X711152Y1850745D01*
X695585Y1846023D01*
X681239Y1838355D01*
X668665Y1828035D01*
X658345Y1815461D01*
X650677Y1801115D01*
X649588Y1797524D01*
X644520Y1803700D01*
X644520Y2483149D01*
X751994Y2590623D01*
X756104Y2593996D01*
X769563Y2610396D01*
X779563Y2629106D01*
X785722Y2649407D01*
X787280Y2665229D01*
X787280Y2665229D01*
X787801Y2670520D01*
X787280Y2675811D01*
X787280Y3536449D01*
X787801Y3541740D01*
X785722Y3562853D01*
X783853Y3569011D01*
X779563Y3583154D01*
X773055Y3595330D01*
X769563Y3601864D01*
X759477Y3614154D01*
X756104Y3618264D01*
X751994Y3621637D01*
X510420Y3863211D01*
X510420Y4408625D01*
X519226Y4402741D01*
X545196Y4391984D01*
X572765Y4386500D01*
X600875Y4386500D01*
X616117Y4389532D01*
X610180Y4375199D01*
X604120Y4344732D01*
X604120Y4313668D01*
X610180Y4283201D01*
X622068Y4254501D01*
X639326Y4228672D01*
X661292Y4206706D01*
X687121Y4189448D01*
X715821Y4177560D01*
X746288Y4171500D01*
X777352Y4171500D01*
X807819Y4177560D01*
X836519Y4189448D01*
X862348Y4206706D01*
X884314Y4228672D01*
X901572Y4254501D01*
X913460Y4283201D01*
X919520Y4313668D01*
X919520Y4344732D01*
X913460Y4375199D01*
X901572Y4403899D01*
X884314Y4429728D01*
X862348Y4451694D01*
X836519Y4468952D01*
X807819Y4480840D01*
X777352Y4486900D01*
X746288Y4486900D01*
X721733Y4482016D01*
X724036Y4487576D01*
X729520Y4515145D01*
X729520Y4543255D01*
X724036Y4570824D01*
X713279Y4596794D01*
X697662Y4620166D01*
X677786Y4640042D01*
X654414Y4655659D01*
X628444Y4666416D01*
X600875Y4671900D01*
X572765Y4671900D01*
X545196Y4666416D01*
X519226Y4655659D01*
X510420Y4649775D01*
X510420Y4700489D01*
X596431Y4786500D01*
X600875Y4786500D01*
X628444Y4791984D01*
X654414Y4802741D01*
X677786Y4818358D01*
X697662Y4838234D01*
X713279Y4861606D01*
X724036Y4887576D01*
X729520Y4915145D01*
X729520Y4943255D01*
X724036Y4970824D01*
X713279Y4996794D01*
X697662Y5020166D01*
X677786Y5040042D01*
X654414Y5055659D01*
X628444Y5066416D01*
X600875Y5071900D01*
X572765Y5071900D01*
X545196Y5066416D01*
X519226Y5055659D01*
X495854Y5040042D01*
X475978Y5020166D01*
X460361Y4996794D01*
X449604Y4970824D01*
X444120Y4943255D01*
X444120Y4938811D01*
X330306Y4824997D01*
X326196Y4821624D01*
X322823Y4817514D01*
X312738Y4805224D01*
X302737Y4786514D01*
X296578Y4766213D01*
X294499Y4745100D01*
X295020Y4739808D01*
X295020Y4413705D01*
X284314Y4429728D01*
X262348Y4451694D01*
X236519Y4468952D01*
X207819Y4480840D01*
X177352Y4486900D01*
X146288Y4486900D01*
X115821Y4480840D01*
X87121Y4468952D01*
X62700Y4452634D01*
X62700Y5343255D01*
X444120Y5343255D01*
X444120Y5315145D01*
X449604Y5287576D01*
X460361Y5261606D01*
X475978Y5238234D01*
X495854Y5218358D01*
X519226Y5202741D01*
X545196Y5191984D01*
X572765Y5186500D01*
X600875Y5186500D01*
X628444Y5191984D01*
X654414Y5202741D01*
X677786Y5218358D01*
X697662Y5238234D01*
X713279Y5261606D01*
X724036Y5287576D01*
X729520Y5315145D01*
X729520Y5343255D01*
X724036Y5370824D01*
X721733Y5376384D01*
X746288Y5371500D01*
X777352Y5371500D01*
X807819Y5377560D01*
X836519Y5389448D01*
X862348Y5406706D01*
X884314Y5428672D01*
X901572Y5454501D01*
X913460Y5483201D01*
X919520Y5513668D01*
X919520Y5544732D01*
X913460Y5575199D01*
X901572Y5603899D01*
X884314Y5629728D01*
X862348Y5651694D01*
X836519Y5668952D01*
X807819Y5680840D01*
X777352Y5686900D01*
X746288Y5686900D01*
X715821Y5680840D01*
X687121Y5668952D01*
X661292Y5651694D01*
X639326Y5629728D01*
X622068Y5603899D01*
X610180Y5575199D01*
X604120Y5544732D01*
X604120Y5513668D01*
X610180Y5483201D01*
X616117Y5468868D01*
X600875Y5471900D01*
X572765Y5471900D01*
X545196Y5466416D01*
X519226Y5455659D01*
X495854Y5440042D01*
X475978Y5420166D01*
X460361Y5396794D01*
X449604Y5370824D01*
X444120Y5343255D01*
X62700Y5343255D01*
X62700Y5405766D01*
X87121Y5389448D01*
X115821Y5377560D01*
X146288Y5371500D01*
X177352Y5371500D01*
X207819Y5377560D01*
X236519Y5389448D01*
X262348Y5406706D01*
X284314Y5428672D01*
X301572Y5454501D01*
X313460Y5483201D01*
X319520Y5513668D01*
X319520Y5544732D01*
X313460Y5575199D01*
X301572Y5603899D01*
X284314Y5629728D01*
X262348Y5651694D01*
X236519Y5668952D01*
X207819Y5680840D01*
X177352Y5686900D01*
X146288Y5686900D01*
X115821Y5680840D01*
X87121Y5668952D01*
X62700Y5652634D01*
X62700Y6172300D01*
X1139320Y6172300D01*
X1139320Y6044843D01*
X1139320Y6044843D01*
G37*
X1139320Y6044843D02*
X1136315Y6042377D01*
X1133637Y6040179D01*
X1131439Y6037501D01*
X1036747Y5942809D01*
X1034069Y5940611D01*
X1031871Y5937933D01*
X1031871Y5937933D01*
X1025296Y5929922D01*
X1022735Y5925130D01*
X1018778Y5917726D01*
X1014764Y5904494D01*
X1013962Y5896355D01*
X1013408Y5890732D01*
X1013748Y5887284D01*
X1013748Y2395163D01*
X1013408Y2391716D01*
X1013748Y2388269D01*
X1013748Y2388268D01*
X1014764Y2377955D01*
X1018778Y2364722D01*
X1025296Y2352526D01*
X1031871Y2344515D01*
X1031871Y2344515D01*
X1034069Y2341837D01*
X1036747Y2339639D01*
X1194356Y2182030D01*
X1192492Y2177531D01*
X1186432Y2147064D01*
X1186432Y2116000D01*
X1192492Y2085533D01*
X1204380Y2056833D01*
X1221638Y2031004D01*
X1243604Y2009038D01*
X1269433Y1991780D01*
X1273932Y1989917D01*
X1273932Y1623147D01*
X1269433Y1621284D01*
X1243604Y1604026D01*
X1221638Y1582060D01*
X1204380Y1556231D01*
X1192492Y1527531D01*
X1186432Y1497064D01*
X1186432Y1466000D01*
X1192492Y1435533D01*
X1204380Y1406833D01*
X1221638Y1381004D01*
X1243604Y1359038D01*
X1269433Y1341780D01*
X1298133Y1329892D01*
X1328600Y1323832D01*
X1359664Y1323832D01*
X1390131Y1329892D01*
X1418831Y1341780D01*
X1444660Y1359038D01*
X1453612Y1367991D01*
X1698551Y1367991D01*
X1708128Y1341551D01*
X1737089Y1327462D01*
X1768243Y1319294D01*
X1800391Y1317360D01*
X1832299Y1321736D01*
X1862741Y1332253D01*
X1880136Y1341551D01*
X1889713Y1367991D01*
X1794132Y1463571D01*
X1698551Y1367991D01*
X1453612Y1367991D01*
X1466626Y1381004D01*
X1483884Y1406833D01*
X1495772Y1435533D01*
X1501832Y1466000D01*
X1501832Y1475272D01*
X1629960Y1475272D01*
X1634336Y1443364D01*
X1644852Y1412923D01*
X1654151Y1395528D01*
X1680591Y1385951D01*
X1776171Y1481532D01*
X1812092Y1481532D01*
X1907673Y1385951D01*
X1934113Y1395528D01*
X1948202Y1424489D01*
X1956370Y1455643D01*
X1958304Y1487791D01*
X1953928Y1519699D01*
X1943411Y1550141D01*
X1934113Y1567536D01*
X1907673Y1577113D01*
X1812092Y1481532D01*
X1776171Y1481532D01*
X1680591Y1577113D01*
X1654151Y1567536D01*
X1640062Y1538575D01*
X1631894Y1507421D01*
X1629960Y1475272D01*
X1501832Y1475272D01*
X1501832Y1497064D01*
X1495772Y1527531D01*
X1483884Y1556231D01*
X1466626Y1582060D01*
X1453612Y1595073D01*
X1698551Y1595073D01*
X1794132Y1499492D01*
X1889713Y1595073D01*
X1880136Y1621513D01*
X1851175Y1635602D01*
X1820021Y1643770D01*
X1787872Y1645704D01*
X1755964Y1641328D01*
X1725523Y1630811D01*
X1708128Y1621513D01*
X1698551Y1595073D01*
X1453612Y1595073D01*
X1444660Y1604026D01*
X1418831Y1621284D01*
X1414332Y1623147D01*
X1414332Y1989917D01*
X1418831Y1991780D01*
X1444660Y2009038D01*
X1453612Y2017991D01*
X1698551Y2017991D01*
X1708128Y1991551D01*
X1737089Y1977462D01*
X1768243Y1969294D01*
X1800391Y1967360D01*
X1832299Y1971736D01*
X1862741Y1982252D01*
X1880136Y1991551D01*
X1889713Y2017991D01*
X1794132Y2113572D01*
X1698551Y2017991D01*
X1453612Y2017991D01*
X1466626Y2031004D01*
X1483884Y2056833D01*
X1495772Y2085533D01*
X1501832Y2116000D01*
X1501832Y2125273D01*
X1629960Y2125273D01*
X1634336Y2093364D01*
X1644852Y2062923D01*
X1654151Y2045528D01*
X1680591Y2035951D01*
X1776171Y2131532D01*
X1812092Y2131532D01*
X1907673Y2035951D01*
X1934113Y2045528D01*
X1948202Y2074489D01*
X1956370Y2105643D01*
X1958304Y2137792D01*
X1953928Y2169700D01*
X1943411Y2200141D01*
X1934113Y2217536D01*
X1907673Y2227113D01*
X1812092Y2131532D01*
X1776171Y2131532D01*
X1680591Y2227113D01*
X1654151Y2217536D01*
X1640062Y2188575D01*
X1631894Y2157421D01*
X1629960Y2125273D01*
X1501832Y2125273D01*
X1501832Y2147064D01*
X1495772Y2177531D01*
X1483884Y2206231D01*
X1466626Y2232060D01*
X1453612Y2245073D01*
X1698551Y2245073D01*
X1794132Y2149493D01*
X1889713Y2245073D01*
X1880136Y2271513D01*
X1851175Y2285602D01*
X1820021Y2293770D01*
X1787872Y2295704D01*
X1755964Y2291328D01*
X1725523Y2280812D01*
X1708128Y2271513D01*
X1698551Y2245073D01*
X1453612Y2245073D01*
X1444660Y2254026D01*
X1418831Y2271284D01*
X1390131Y2283172D01*
X1359664Y2289232D01*
X1328600Y2289232D01*
X1298133Y2283172D01*
X1293634Y2281308D01*
X1154148Y2420794D01*
X1154148Y3950901D01*
X1157050Y3949699D01*
X1175925Y3945944D01*
X1195171Y3945944D01*
X1214046Y3949699D01*
X1231826Y3957063D01*
X1247828Y3967755D01*
X1261437Y3981364D01*
X1272129Y3997366D01*
X1279493Y4015146D01*
X1283248Y4034021D01*
X1283248Y4053267D01*
X1279493Y4072142D01*
X1272129Y4089922D01*
X1261437Y4105924D01*
X1250748Y4116613D01*
X1250748Y4160330D01*
X1251063Y4163532D01*
X1249805Y4176313D01*
X1246076Y4188604D01*
X1243495Y4193434D01*
X1240022Y4199930D01*
X1237016Y4203593D01*
X1570180Y3870429D01*
X1570180Y3488593D01*
X1567908Y3487405D01*
X1567737Y3487268D01*
X1567542Y3487164D01*
X1562962Y3483428D01*
X1558371Y3479737D01*
X1558230Y3479569D01*
X1558059Y3479430D01*
X1554292Y3474877D01*
X1550505Y3470363D01*
X1550400Y3470171D01*
X1550259Y3470001D01*
X1547453Y3464810D01*
X1544610Y3459640D01*
X1544544Y3459430D01*
X1544439Y3459237D01*
X1542696Y3453606D01*
X1540910Y3447976D01*
X1540886Y3447757D01*
X1540821Y3447548D01*
X1540204Y3441679D01*
X1539546Y3435815D01*
X1539543Y3435393D01*
X1539541Y3435378D01*
X1539543Y3435362D01*
X1539540Y3434940D01*
X1539540Y2429100D01*
X1540116Y2423228D01*
X1540651Y2417351D01*
X1540713Y2417140D01*
X1540734Y2416922D01*
X1542440Y2411271D01*
X1544106Y2405612D01*
X1544207Y2405417D01*
X1544271Y2405207D01*
X1547044Y2399992D01*
X1549775Y2394768D01*
X1549912Y2394597D01*
X1550016Y2394402D01*
X1553752Y2389822D01*
X1557443Y2385231D01*
X1557611Y2385090D01*
X1557750Y2384919D01*
X1562303Y2381153D01*
X1566817Y2377365D01*
X1567009Y2377260D01*
X1567179Y2377119D01*
X1572370Y2374313D01*
X1577540Y2371470D01*
X1577750Y2371404D01*
X1577943Y2371299D01*
X1583574Y2369556D01*
X1589204Y2367770D01*
X1589422Y2367746D01*
X1589632Y2367681D01*
X1595501Y2367064D01*
X1601365Y2366406D01*
X1601786Y2366403D01*
X1601802Y2366402D01*
X1601818Y2366403D01*
X1602240Y2366400D01*
X2305820Y2366400D01*
X2311692Y2366976D01*
X2317569Y2367511D01*
X2317780Y2367573D01*
X2317999Y2367594D01*
X2323649Y2369300D01*
X2329308Y2370966D01*
X2329503Y2371068D01*
X2329713Y2371131D01*
X2334928Y2373904D01*
X2340152Y2376635D01*
X2340323Y2376772D01*
X2340518Y2376876D01*
X2345098Y2380612D01*
X2349689Y2384303D01*
X2349830Y2384471D01*
X2350001Y2384610D01*
X2353768Y2389163D01*
X2357555Y2393677D01*
X2357660Y2393869D01*
X2357801Y2394039D01*
X2360607Y2399230D01*
X2363450Y2404400D01*
X2363516Y2404610D01*
X2363621Y2404803D01*
X2365364Y2410434D01*
X2367150Y2416064D01*
X2367174Y2416283D01*
X2367239Y2416492D01*
X2367358Y2417623D01*
X3243120Y2417623D01*
X3243120Y2398377D01*
X3246875Y2379502D01*
X3254239Y2361722D01*
X3264931Y2345720D01*
X3278540Y2332112D01*
X3294542Y2321419D01*
X3312322Y2314055D01*
X3331197Y2310300D01*
X3339242Y2310300D01*
X3485743Y2163799D01*
X3487941Y2161121D01*
X3490619Y2158923D01*
X3490619Y2158923D01*
X3491102Y2158526D01*
X3498630Y2152349D01*
X3510826Y2145830D01*
X3524058Y2141816D01*
X3534372Y2140800D01*
X3534373Y2140800D01*
X3537820Y2140461D01*
X3541267Y2140800D01*
X4001742Y2140800D01*
X4020120Y2122422D01*
X4020120Y2114377D01*
X4023875Y2095502D01*
X4031239Y2077722D01*
X4041931Y2061720D01*
X4055540Y2048111D01*
X4071542Y2037419D01*
X4089322Y2030055D01*
X4108197Y2026300D01*
X4127443Y2026300D01*
X4146318Y2030055D01*
X4164098Y2037419D01*
X4180100Y2048111D01*
X4193708Y2061720D01*
X4204401Y2077722D01*
X4211765Y2095502D01*
X4215520Y2114377D01*
X4215520Y2133623D01*
X4211765Y2152498D01*
X4204401Y2170278D01*
X4193708Y2186280D01*
X4180100Y2199889D01*
X4164098Y2210581D01*
X4146318Y2217945D01*
X4127443Y2221700D01*
X4119398Y2221700D01*
X4082897Y2258201D01*
X4080699Y2260879D01*
X4070010Y2269652D01*
X4057814Y2276170D01*
X4044582Y2280184D01*
X4034268Y2281200D01*
X4034267Y2281200D01*
X4030820Y2281540D01*
X4027373Y2281200D01*
X3566898Y2281200D01*
X3438520Y2409578D01*
X3438520Y2417623D01*
X3434765Y2436498D01*
X3427401Y2454278D01*
X3416708Y2470280D01*
X3403100Y2483889D01*
X3387098Y2494581D01*
X3369318Y2501945D01*
X3350443Y2505700D01*
X3331197Y2505700D01*
X3312322Y2501945D01*
X3294542Y2494581D01*
X3278540Y2483889D01*
X3264931Y2470280D01*
X3254239Y2454278D01*
X3246875Y2436498D01*
X3243120Y2417623D01*
X2367358Y2417623D01*
X2367856Y2422361D01*
X2368514Y2428225D01*
X2368517Y2428647D01*
X2368519Y2428662D01*
X2368517Y2428678D01*
X2368520Y2429100D01*
X2368520Y3434940D01*
X2367944Y3440812D01*
X2367409Y3446689D01*
X2367347Y3446900D01*
X2367326Y3447118D01*
X2365620Y3452769D01*
X2363954Y3458428D01*
X2363853Y3458623D01*
X2363789Y3458833D01*
X2361016Y3464048D01*
X2358285Y3469272D01*
X2358148Y3469443D01*
X2358044Y3469638D01*
X2354308Y3474218D01*
X2350617Y3478809D01*
X2350449Y3478950D01*
X2350310Y3479121D01*
X2345757Y3482887D01*
X2341243Y3486675D01*
X2341051Y3486780D01*
X2340881Y3486921D01*
X2335690Y3489727D01*
X2330520Y3492570D01*
X2330310Y3492636D01*
X2330117Y3492741D01*
X2324486Y3494484D01*
X2318856Y3496270D01*
X2318638Y3496294D01*
X2318428Y3496359D01*
X2312559Y3496976D01*
X2306695Y3497634D01*
X2306274Y3497637D01*
X2306258Y3497638D01*
X2306242Y3497637D01*
X2305820Y3497640D01*
X1785580Y3497640D01*
X1785580Y3909749D01*
X1786101Y3915040D01*
X1785312Y3923051D01*
X1784022Y3936153D01*
X1777863Y3956454D01*
X1767863Y3975164D01*
X1754404Y3991564D01*
X1750294Y3994937D01*
X1387500Y4357731D01*
X1387500Y4467420D01*
X1496120Y4467420D01*
X1496120Y4456000D01*
X1496364Y4453522D01*
X1497087Y4451140D01*
X1498260Y4448944D01*
X1499840Y4447020D01*
X1501764Y4445440D01*
X1503960Y4444267D01*
X1506342Y4443544D01*
X1508820Y4443300D01*
X1947065Y4443300D01*
X2377180Y4013185D01*
X2379769Y4010029D01*
X2382925Y4007440D01*
X2382925Y4007440D01*
X2392362Y3999695D01*
X2402371Y3994345D01*
X2406729Y3992015D01*
X2422318Y3987287D01*
X2434468Y3986090D01*
X2434469Y3986090D01*
X2438530Y3985690D01*
X2442591Y3986090D01*
X2835843Y3986090D01*
X3128390Y3693543D01*
X3128390Y3692422D01*
X3132529Y3671615D01*
X3140647Y3652015D01*
X3152434Y3634375D01*
X3167435Y3619374D01*
X3185075Y3607587D01*
X3204675Y3599469D01*
X3225482Y3595330D01*
X3226602Y3595330D01*
X3276464Y3545468D01*
X3276464Y3275611D01*
X3275508Y3274655D01*
X3263721Y3257015D01*
X3255603Y3237415D01*
X3251464Y3216607D01*
X3251464Y3195392D01*
X3255603Y3174585D01*
X3263721Y3154985D01*
X3275508Y3137345D01*
X3290509Y3122344D01*
X3308149Y3110557D01*
X3327749Y3102439D01*
X3348556Y3098300D01*
X3369771Y3098300D01*
X3390579Y3102439D01*
X3393868Y3103801D01*
X3399699Y3089722D01*
X3410391Y3073720D01*
X3424000Y3060111D01*
X3440002Y3049419D01*
X3457782Y3042055D01*
X3465964Y3040427D01*
X3468535Y3027502D01*
X3475899Y3009722D01*
X3486591Y2993720D01*
X3500200Y2980111D01*
X3516202Y2969419D01*
X3533982Y2962055D01*
X3552857Y2958300D01*
X3572103Y2958300D01*
X3590978Y2962055D01*
X3608758Y2969419D01*
X3624760Y2980111D01*
X3638368Y2993720D01*
X3648205Y3008441D01*
X3658041Y2993720D01*
X3671650Y2980111D01*
X3687652Y2969419D01*
X3705432Y2962055D01*
X3724307Y2958300D01*
X3743553Y2958300D01*
X3762428Y2962055D01*
X3780208Y2969419D01*
X3796210Y2980111D01*
X3809818Y2993720D01*
X3813940Y2999888D01*
X3818061Y2993720D01*
X3831670Y2980111D01*
X3847672Y2969419D01*
X3865452Y2962055D01*
X3884327Y2958300D01*
X3903573Y2958300D01*
X3922448Y2962055D01*
X3940228Y2969419D01*
X3956230Y2980111D01*
X3969838Y2993720D01*
X3980531Y3009722D01*
X3986700Y3024616D01*
X3992869Y3009722D01*
X4003561Y2993720D01*
X4017170Y2980111D01*
X4033172Y2969419D01*
X4050952Y2962055D01*
X4069827Y2958300D01*
X4089073Y2958300D01*
X4107948Y2962055D01*
X4125728Y2969419D01*
X4141730Y2980111D01*
X4155338Y2993720D01*
X4166031Y3009722D01*
X4173395Y3027502D01*
X4177150Y3046377D01*
X4177150Y3065623D01*
X4173395Y3084498D01*
X4166031Y3102278D01*
X4155338Y3118280D01*
X4149650Y3123969D01*
X4149650Y3236142D01*
X4303500Y3236142D01*
X4303500Y3193258D01*
X4311866Y3151199D01*
X4328277Y3111580D01*
X4352101Y3075924D01*
X4382424Y3045601D01*
X4418080Y3021777D01*
X4457699Y3005366D01*
X4499758Y2997000D01*
X4542642Y2997000D01*
X4584701Y3005366D01*
X4624320Y3021777D01*
X4659976Y3045601D01*
X4690299Y3075924D01*
X4714123Y3111580D01*
X4730534Y3151199D01*
X4738900Y3193258D01*
X4738900Y3236142D01*
X4730534Y3278201D01*
X4714123Y3317820D01*
X4690299Y3353476D01*
X4659976Y3383799D01*
X4624320Y3407623D01*
X4584701Y3424034D01*
X4542642Y3432400D01*
X4499758Y3432400D01*
X4457699Y3424034D01*
X4418080Y3407623D01*
X4382424Y3383799D01*
X4352101Y3353476D01*
X4328277Y3317820D01*
X4311866Y3278201D01*
X4303500Y3236142D01*
X4149650Y3236142D01*
X4149650Y3829600D01*
X4152682Y3822279D01*
X4163374Y3806277D01*
X4176983Y3792668D01*
X4192985Y3781976D01*
X4210765Y3774612D01*
X4229640Y3770857D01*
X4244720Y3770857D01*
X4244720Y3762272D01*
X4248859Y3741465D01*
X4256978Y3721865D01*
X4268764Y3704225D01*
X4283765Y3689224D01*
X4301405Y3677437D01*
X4321005Y3669319D01*
X4341813Y3665180D01*
X4363028Y3665180D01*
X4383835Y3669319D01*
X4403435Y3677437D01*
X4421075Y3689224D01*
X4436076Y3704225D01*
X4447863Y3721865D01*
X4455981Y3741465D01*
X4460120Y3762272D01*
X4460120Y3783487D01*
X4455981Y3804295D01*
X4447863Y3823895D01*
X4436076Y3841535D01*
X4435120Y3842491D01*
X4435120Y4180299D01*
X4435520Y4184360D01*
X4435120Y4188421D01*
X4435120Y4188422D01*
X4433923Y4200572D01*
X4429195Y4216161D01*
X4421515Y4230528D01*
X4421515Y4230528D01*
X4413770Y4239965D01*
X4413770Y4239966D01*
X4411181Y4243121D01*
X4408026Y4245710D01*
X4339870Y4313865D01*
X4339870Y4481000D01*
X4372393Y4481000D01*
X4373619Y4468552D01*
X4377250Y4456582D01*
X4383146Y4445551D01*
X4391082Y4435882D01*
X4400751Y4427946D01*
X4411782Y4422050D01*
X4423752Y4418419D01*
X4436200Y4417193D01*
X4492625Y4417500D01*
X4508500Y4433375D01*
X4508500Y4553300D01*
X4533900Y4553300D01*
X4533900Y4433375D01*
X4549775Y4417500D01*
X4606200Y4417193D01*
X4618648Y4418419D01*
X4630618Y4422050D01*
X4641649Y4427946D01*
X4651319Y4435882D01*
X4659254Y4445551D01*
X4665150Y4456582D01*
X4668781Y4468552D01*
X4670007Y4481000D01*
X4669700Y4537425D01*
X4653825Y4553300D01*
X4533900Y4553300D01*
X4508500Y4553300D01*
X4388575Y4553300D01*
X4372700Y4537425D01*
X4372393Y4481000D01*
X4339870Y4481000D01*
X4339870Y4651000D01*
X4372393Y4651000D01*
X4372700Y4594575D01*
X4388575Y4578700D01*
X4508500Y4578700D01*
X4508500Y4580700D01*
X4533900Y4580700D01*
X4533900Y4578700D01*
X4653825Y4578700D01*
X4669700Y4594575D01*
X4670007Y4651000D01*
X4668781Y4663448D01*
X4665150Y4675418D01*
X4659254Y4686449D01*
X4651319Y4696119D01*
X4641649Y4704054D01*
X4630618Y4709950D01*
X4618648Y4713581D01*
X4616701Y4713773D01*
X4622592Y4718608D01*
X4640425Y4740337D01*
X4653676Y4765127D01*
X4661835Y4792026D01*
X4664590Y4820000D01*
X4661835Y4847974D01*
X4653676Y4874873D01*
X4640425Y4899663D01*
X4622592Y4921392D01*
X4600863Y4939225D01*
X4576073Y4952476D01*
X4549174Y4960635D01*
X4528210Y4962700D01*
X4514190Y4962700D01*
X4493226Y4960635D01*
X4466327Y4952476D01*
X4441537Y4939225D01*
X4419808Y4921392D01*
X4401975Y4899663D01*
X4388725Y4874873D01*
X4380565Y4847974D01*
X4377810Y4820000D01*
X4380565Y4792026D01*
X4388725Y4765127D01*
X4401975Y4740337D01*
X4419808Y4718608D01*
X4425699Y4713773D01*
X4423752Y4713581D01*
X4411782Y4709950D01*
X4400751Y4704054D01*
X4391082Y4696119D01*
X4383146Y4686449D01*
X4377250Y4675418D01*
X4373619Y4663448D01*
X4372393Y4651000D01*
X4339870Y4651000D01*
X4339870Y5283000D01*
X4372393Y5283000D01*
X4373619Y5270552D01*
X4377250Y5258582D01*
X4383146Y5247551D01*
X4391082Y5237882D01*
X4400751Y5229946D01*
X4411782Y5224050D01*
X4423752Y5220419D01*
X4436200Y5219193D01*
X4492625Y5219500D01*
X4508500Y5235375D01*
X4508500Y5355300D01*
X4533900Y5355300D01*
X4533900Y5235375D01*
X4549775Y5219500D01*
X4606200Y5219193D01*
X4618648Y5220419D01*
X4630618Y5224050D01*
X4641649Y5229946D01*
X4651319Y5237882D01*
X4659254Y5247551D01*
X4665150Y5258582D01*
X4668781Y5270552D01*
X4670007Y5283000D01*
X4669700Y5339425D01*
X4653825Y5355300D01*
X4533900Y5355300D01*
X4508500Y5355300D01*
X4388575Y5355300D01*
X4372700Y5339425D01*
X4372393Y5283000D01*
X4339870Y5283000D01*
X4339870Y5396389D01*
X4340826Y5397345D01*
X4352613Y5414985D01*
X4360731Y5434585D01*
X4364394Y5453000D01*
X4372393Y5453000D01*
X4372700Y5396575D01*
X4388575Y5380700D01*
X4508500Y5380700D01*
X4508500Y5382700D01*
X4533900Y5382700D01*
X4533900Y5380700D01*
X4653825Y5380700D01*
X4669700Y5396575D01*
X4670007Y5453000D01*
X4668781Y5465448D01*
X4665150Y5477418D01*
X4659254Y5488449D01*
X4651319Y5498119D01*
X4641649Y5506054D01*
X4630618Y5511950D01*
X4618648Y5515581D01*
X4616701Y5515773D01*
X4622592Y5520608D01*
X4640425Y5542337D01*
X4653676Y5567127D01*
X4661835Y5594026D01*
X4664590Y5622000D01*
X4661835Y5649974D01*
X4653676Y5676873D01*
X4640425Y5701663D01*
X4622592Y5723392D01*
X4600863Y5741225D01*
X4586317Y5749000D01*
X4600863Y5756775D01*
X4622592Y5774608D01*
X4640425Y5796337D01*
X4653676Y5821127D01*
X4661835Y5848026D01*
X4664590Y5876000D01*
X4661835Y5903974D01*
X4653676Y5930873D01*
X4640425Y5955663D01*
X4622592Y5977392D01*
X4600863Y5995225D01*
X4576073Y6008475D01*
X4549174Y6016635D01*
X4528210Y6018700D01*
X4514190Y6018700D01*
X4493226Y6016635D01*
X4466327Y6008475D01*
X4441537Y5995225D01*
X4419808Y5977392D01*
X4401975Y5955663D01*
X4388725Y5930873D01*
X4380565Y5903974D01*
X4377810Y5876000D01*
X4380565Y5848026D01*
X4388725Y5821127D01*
X4401975Y5796337D01*
X4419808Y5774608D01*
X4441537Y5756775D01*
X4456083Y5749000D01*
X4441537Y5741225D01*
X4419808Y5723392D01*
X4401975Y5701663D01*
X4388725Y5676873D01*
X4380565Y5649974D01*
X4377810Y5622000D01*
X4380565Y5594026D01*
X4388725Y5567127D01*
X4401975Y5542337D01*
X4419808Y5520608D01*
X4425699Y5515773D01*
X4423752Y5515581D01*
X4411782Y5511950D01*
X4400751Y5506054D01*
X4391082Y5498119D01*
X4383146Y5488449D01*
X4377250Y5477418D01*
X4373619Y5465448D01*
X4372393Y5453000D01*
X4364394Y5453000D01*
X4364870Y5455393D01*
X4364870Y5476608D01*
X4360731Y5497415D01*
X4352613Y5517015D01*
X4340826Y5534655D01*
X4332370Y5543111D01*
X4332370Y6172300D01*
X4763300Y6172300D01*
X4763300Y62700D01*
X62700Y62700D01*
X62700Y385520D01*
X298013Y385520D01*
X299239Y373072D01*
X302870Y361102D01*
X308766Y350071D01*
X316702Y340402D01*
X326371Y332466D01*
X337402Y326570D01*
X349372Y322939D01*
X361820Y321713D01*
X483645Y322020D01*
X499520Y337895D01*
X499520Y498220D01*
X574120Y498220D01*
X574120Y337895D01*
X589995Y322020D01*
X711820Y321713D01*
X724268Y322939D01*
X736238Y326570D01*
X747269Y332466D01*
X756938Y340402D01*
X764874Y350071D01*
X770770Y361102D01*
X774401Y373072D01*
X775627Y385520D01*
X775320Y482345D01*
X759445Y498220D01*
X574120Y498220D01*
X499520Y498220D01*
X314195Y498220D01*
X298320Y482345D01*
X298013Y385520D01*
X62700Y385520D01*
X62700Y685520D01*
X298013Y685520D01*
X298320Y588695D01*
X314195Y572820D01*
X499520Y572820D01*
X499520Y733145D01*
X574120Y733145D01*
X574120Y572820D01*
X759445Y572820D01*
X775320Y588695D01*
X775627Y685520D01*
X774401Y697968D01*
X770770Y709938D01*
X764874Y720969D01*
X756938Y730638D01*
X747269Y738574D01*
X736238Y744470D01*
X724268Y748101D01*
X711820Y749327D01*
X589995Y749020D01*
X574120Y733145D01*
X499520Y733145D01*
X483645Y749020D01*
X361820Y749327D01*
X349372Y748101D01*
X337402Y744470D01*
X326371Y738574D01*
X316702Y730638D01*
X308766Y720969D01*
X302870Y709938D01*
X299239Y697968D01*
X298013Y685520D01*
X62700Y685520D01*
X62700Y3236142D01*
X87100Y3236142D01*
X87100Y3193258D01*
X95466Y3151199D01*
X111877Y3111580D01*
X135701Y3075924D01*
X166024Y3045601D01*
X201680Y3021777D01*
X241299Y3005366D01*
X283358Y2997000D01*
X326242Y2997000D01*
X368301Y3005366D01*
X407920Y3021777D01*
X443576Y3045601D01*
X473899Y3075924D01*
X497723Y3111580D01*
X514134Y3151199D01*
X522500Y3193258D01*
X522500Y3236142D01*
X514134Y3278201D01*
X497723Y3317820D01*
X473899Y3353476D01*
X443576Y3383799D01*
X407920Y3407623D01*
X368301Y3424034D01*
X326242Y3432400D01*
X283358Y3432400D01*
X241299Y3424034D01*
X201680Y3407623D01*
X166024Y3383799D01*
X135701Y3353476D01*
X111877Y3317820D01*
X95466Y3278201D01*
X87100Y3236142D01*
X62700Y3236142D01*
X62700Y4205766D01*
X87121Y4189448D01*
X115821Y4177560D01*
X146288Y4171500D01*
X177352Y4171500D01*
X207819Y4177560D01*
X236519Y4189448D01*
X262348Y4206706D01*
X284314Y4228672D01*
X295020Y4244696D01*
X295020Y3823891D01*
X294499Y3818600D01*
X295020Y3813309D01*
X295020Y3813309D01*
X296578Y3797487D01*
X302737Y3777186D01*
X312737Y3758476D01*
X326196Y3742076D01*
X330307Y3738703D01*
X571880Y3497129D01*
X571880Y2715131D01*
X464406Y2607657D01*
X460296Y2604284D01*
X456923Y2600174D01*
X446837Y2587884D01*
X436837Y2569174D01*
X430678Y2548873D01*
X428599Y2527760D01*
X429120Y2522468D01*
X429120Y1802433D01*
X418115Y1789023D01*
X404864Y1764233D01*
X396705Y1737334D01*
X394640Y1716370D01*
X394640Y1672350D01*
X396705Y1651386D01*
X404864Y1624487D01*
X418115Y1599697D01*
X429120Y1586287D01*
X429120Y1368499D01*
X361820Y1368499D01*
X350509Y1367385D01*
X339632Y1364086D01*
X329609Y1358728D01*
X320823Y1351517D01*
X313612Y1342732D01*
X308254Y1332708D01*
X304955Y1321831D01*
X303841Y1310520D01*
X303841Y960520D01*
X304955Y949209D01*
X308254Y938332D01*
X313612Y928308D01*
X320823Y919523D01*
X329609Y912312D01*
X339632Y906954D01*
X350509Y903655D01*
X361820Y902541D01*
X711820Y902541D01*
X723131Y903655D01*
X734008Y906954D01*
X744031Y912312D01*
X752817Y919523D01*
X760028Y928308D01*
X765386Y938332D01*
X768685Y949209D01*
X769799Y960520D01*
X769799Y1310520D01*
X768685Y1321831D01*
X765386Y1332708D01*
X760028Y1342732D01*
X752817Y1351517D01*
X744031Y1358728D01*
X734008Y1364086D01*
X723131Y1367385D01*
X711820Y1368499D01*
X644520Y1368499D01*
X644520Y1585020D01*
X649588Y1591196D01*
X650677Y1587605D01*
X658345Y1573259D01*
X668665Y1560685D01*
X681239Y1550365D01*
X695585Y1542697D01*
X711152Y1537975D01*
X727340Y1536381D01*
X793008Y1536381D01*
X899120Y1430269D01*
X899120Y1066510D01*
X890938Y1065704D01*
X863648Y1057425D01*
X838496Y1043981D01*
X816451Y1025889D01*
X798358Y1003844D01*
X784915Y978692D01*
X776636Y951402D01*
X773841Y923020D01*
X773841Y748020D01*
X776636Y719638D01*
X784915Y692348D01*
X798358Y667196D01*
X816451Y645151D01*
X838496Y627059D01*
X863648Y613615D01*
X890938Y605336D01*
X919320Y602541D01*
X1094320Y602541D01*
X1122702Y605336D01*
X1149992Y613615D01*
X1175144Y627059D01*
X1197189Y645151D01*
X1215282Y667196D01*
X1228725Y692348D01*
X1237004Y719638D01*
X1239799Y748020D01*
X1239799Y923020D01*
X1237004Y951402D01*
X1228725Y978692D01*
X1221348Y992494D01*
X1658120Y992494D01*
X1658120Y940746D01*
X1668215Y889993D01*
X1688018Y842185D01*
X1716768Y799158D01*
X1753358Y762568D01*
X1796385Y733818D01*
X1844193Y714015D01*
X1894946Y703920D01*
X1946694Y703920D01*
X1997447Y714015D01*
X2026820Y726182D01*
X2617620Y726182D01*
X2617620Y699058D01*
X2622912Y672454D01*
X2633292Y647395D01*
X2648361Y624841D01*
X2667541Y605661D01*
X2690095Y590592D01*
X2715154Y580212D01*
X2741758Y574920D01*
X2768882Y574920D01*
X2795486Y580212D01*
X2820545Y590592D01*
X2843099Y605661D01*
X2862279Y624841D01*
X2877348Y647395D01*
X2887728Y672454D01*
X2893020Y699058D01*
X2893020Y726182D01*
X2887728Y752786D01*
X2877348Y777845D01*
X2862279Y800399D01*
X2843099Y819579D01*
X2820545Y834648D01*
X2795486Y845028D01*
X2768882Y850320D01*
X2741758Y850320D01*
X2715154Y845028D01*
X2690095Y834648D01*
X2667541Y819579D01*
X2648361Y800399D01*
X2633292Y777845D01*
X2622912Y752786D01*
X2617620Y726182D01*
X2026820Y726182D01*
X2045255Y733818D01*
X2088281Y762568D01*
X2124872Y799158D01*
X2153622Y842185D01*
X2173425Y889993D01*
X2174888Y897350D01*
X2535510Y897350D01*
X2542669Y872953D01*
X2568220Y860863D01*
X2595638Y853990D01*
X2623871Y852598D01*
X2651833Y856741D01*
X2678449Y866260D01*
X2690971Y872953D01*
X2698130Y897350D01*
X2616820Y978659D01*
X2535510Y897350D01*
X2174888Y897350D01*
X2183520Y940746D01*
X2183520Y989569D01*
X2472798Y989569D01*
X2476941Y961607D01*
X2486460Y934991D01*
X2493153Y922469D01*
X2517550Y915310D01*
X2598860Y996620D01*
X2634781Y996620D01*
X2716090Y915310D01*
X2740487Y922469D01*
X2752577Y948020D01*
X2758438Y971402D01*
X2761412Y956454D01*
X2771792Y931395D01*
X2786861Y908841D01*
X2806041Y889661D01*
X2828595Y874592D01*
X2853654Y864212D01*
X2880258Y858920D01*
X2907382Y858920D01*
X2933986Y864212D01*
X2959045Y874592D01*
X2962120Y876646D01*
X2962120Y831324D01*
X2944541Y819579D01*
X2925361Y800399D01*
X2910292Y777845D01*
X2899912Y752786D01*
X2894620Y726182D01*
X2894620Y699058D01*
X2899912Y672454D01*
X2910292Y647395D01*
X2925361Y624841D01*
X2944541Y605661D01*
X2967095Y590592D01*
X2992154Y580212D01*
X3018758Y574920D01*
X3045882Y574920D01*
X3072486Y580212D01*
X3097545Y590592D01*
X3120099Y605661D01*
X3139279Y624841D01*
X3154348Y647395D01*
X3164728Y672454D01*
X3170020Y699058D01*
X3170020Y726182D01*
X3171620Y726182D01*
X3171620Y699058D01*
X3176912Y672454D01*
X3187292Y647395D01*
X3202361Y624841D01*
X3221541Y605661D01*
X3244095Y590592D01*
X3269154Y580212D01*
X3295758Y574920D01*
X3322882Y574920D01*
X3349486Y580212D01*
X3374545Y590592D01*
X3397099Y605661D01*
X3416279Y624841D01*
X3431348Y647395D01*
X3441728Y672454D01*
X3447020Y699058D01*
X3447020Y726182D01*
X3441728Y752786D01*
X3431348Y777845D01*
X3416279Y800399D01*
X3397099Y819579D01*
X3374545Y834648D01*
X3349486Y845028D01*
X3322882Y850320D01*
X3295758Y850320D01*
X3269154Y845028D01*
X3244095Y834648D01*
X3221541Y819579D01*
X3202361Y800399D01*
X3187292Y777845D01*
X3176912Y752786D01*
X3171620Y726182D01*
X3170020Y726182D01*
X3164728Y752786D01*
X3154348Y777845D01*
X3139279Y800399D01*
X3120099Y819579D01*
X3102520Y831324D01*
X3102520Y876646D01*
X3105595Y874592D01*
X3130654Y864212D01*
X3157258Y858920D01*
X3184382Y858920D01*
X3210986Y864212D01*
X3236045Y874592D01*
X3258599Y889661D01*
X3277779Y908841D01*
X3292848Y931395D01*
X3303228Y956454D01*
X3306678Y973800D01*
X3311961Y973800D01*
X3315412Y956454D01*
X3325792Y931395D01*
X3340861Y908841D01*
X3360041Y889661D01*
X3382595Y874592D01*
X3407654Y864212D01*
X3434258Y858920D01*
X3461382Y858920D01*
X3487986Y864212D01*
X3513045Y874592D01*
X3516120Y876646D01*
X3516120Y831324D01*
X3498541Y819579D01*
X3479361Y800399D01*
X3464292Y777845D01*
X3453912Y752786D01*
X3448620Y726182D01*
X3448620Y699058D01*
X3453912Y672454D01*
X3464292Y647395D01*
X3479361Y624841D01*
X3498541Y605661D01*
X3521095Y590592D01*
X3546154Y580212D01*
X3572758Y574920D01*
X3599882Y574920D01*
X3626486Y580212D01*
X3651545Y590592D01*
X3674099Y605661D01*
X3693279Y624841D01*
X3708348Y647395D01*
X3718728Y672454D01*
X3724020Y699058D01*
X3724020Y726182D01*
X3718728Y752786D01*
X3708348Y777845D01*
X3693279Y800399D01*
X3674099Y819579D01*
X3656520Y831324D01*
X3656520Y858641D01*
X3804820Y858641D01*
X3816131Y859755D01*
X3827008Y863054D01*
X3837031Y868412D01*
X3845817Y875623D01*
X3853028Y884408D01*
X3858386Y894432D01*
X3861685Y905309D01*
X3862799Y916620D01*
X3862799Y992494D01*
X4158120Y992494D01*
X4158120Y940746D01*
X4168215Y889993D01*
X4188018Y842185D01*
X4216768Y799158D01*
X4253359Y762568D01*
X4296385Y733818D01*
X4344193Y714015D01*
X4394946Y703920D01*
X4446694Y703920D01*
X4497447Y714015D01*
X4545255Y733818D01*
X4588282Y762568D01*
X4624872Y799158D01*
X4653622Y842185D01*
X4673425Y889993D01*
X4683520Y940746D01*
X4683520Y992494D01*
X4673425Y1043247D01*
X4653622Y1091055D01*
X4624872Y1134082D01*
X4588282Y1170672D01*
X4545255Y1199422D01*
X4497447Y1219225D01*
X4446694Y1229320D01*
X4394946Y1229320D01*
X4344193Y1219225D01*
X4296385Y1199422D01*
X4253359Y1170672D01*
X4216768Y1134082D01*
X4188018Y1091055D01*
X4168215Y1043247D01*
X4158120Y992494D01*
X3862799Y992494D01*
X3862799Y1076620D01*
X3861685Y1087931D01*
X3858386Y1098808D01*
X3853028Y1108832D01*
X3845817Y1117617D01*
X3837031Y1124828D01*
X3827008Y1130186D01*
X3816131Y1133485D01*
X3804820Y1134599D01*
X3656520Y1134599D01*
X3656520Y1251313D01*
X3656859Y1254760D01*
X3656520Y1258207D01*
X3656520Y1258208D01*
X3655504Y1268522D01*
X3651490Y1281754D01*
X3648874Y1286649D01*
X3663347Y1283770D01*
X3682593Y1283770D01*
X3701468Y1287525D01*
X3719248Y1294889D01*
X3735250Y1305582D01*
X3740939Y1311270D01*
X3888211Y1311270D01*
X3893900Y1305582D01*
X3909902Y1294889D01*
X3927682Y1287525D01*
X3946557Y1283770D01*
X3965803Y1283770D01*
X3984678Y1287525D01*
X4002458Y1294889D01*
X4018460Y1305582D01*
X4032068Y1319190D01*
X4042761Y1335192D01*
X4050125Y1352972D01*
X4053880Y1371847D01*
X4053880Y1391093D01*
X4050125Y1409968D01*
X4042761Y1427748D01*
X4032068Y1443750D01*
X4018460Y1457358D01*
X4002458Y1468051D01*
X3984678Y1475415D01*
X3965803Y1479170D01*
X3946557Y1479170D01*
X3927682Y1475415D01*
X3909902Y1468051D01*
X3893900Y1457358D01*
X3888211Y1451670D01*
X3740939Y1451670D01*
X3737479Y1455130D01*
X3748858Y1466510D01*
X3759551Y1482512D01*
X3766915Y1500292D01*
X3770670Y1519167D01*
X3770670Y1538413D01*
X3766915Y1557288D01*
X3759551Y1575068D01*
X3748858Y1591070D01*
X3735250Y1604678D01*
X3719248Y1615371D01*
X3701468Y1622735D01*
X3682593Y1626490D01*
X3663347Y1626490D01*
X3644472Y1622735D01*
X3626692Y1615371D01*
X3610690Y1604678D01*
X3597081Y1591070D01*
X3586389Y1575068D01*
X3579025Y1557288D01*
X3575270Y1538413D01*
X3575270Y1530368D01*
X3541219Y1496317D01*
X3534401Y1512778D01*
X3523708Y1528780D01*
X3510100Y1542388D01*
X3494098Y1553081D01*
X3476318Y1560445D01*
X3457443Y1564200D01*
X3438197Y1564200D01*
X3419322Y1560445D01*
X3401542Y1553081D01*
X3385540Y1542388D01*
X3372435Y1529284D01*
X3359330Y1542388D01*
X3343328Y1553081D01*
X3325548Y1560445D01*
X3306673Y1564200D01*
X3287427Y1564200D01*
X3268552Y1560445D01*
X3250772Y1553081D01*
X3234770Y1542388D01*
X3221161Y1528780D01*
X3210469Y1512778D01*
X3203105Y1494998D01*
X3199350Y1476123D01*
X3199350Y1468078D01*
X2985119Y1253847D01*
X2982441Y1251649D01*
X2980243Y1248971D01*
X2980243Y1248971D01*
X2973668Y1240960D01*
X2970521Y1235071D01*
X2967150Y1228764D01*
X2963207Y1215766D01*
X2963136Y1215532D01*
X2961780Y1201770D01*
X2962120Y1198322D01*
X2962120Y1116594D01*
X2959045Y1118648D01*
X2933986Y1129028D01*
X2907382Y1134320D01*
X2880258Y1134320D01*
X2853654Y1129028D01*
X2828595Y1118648D01*
X2806041Y1103579D01*
X2786861Y1084399D01*
X2771792Y1061845D01*
X2761412Y1036786D01*
X2758273Y1021007D01*
X2756699Y1031633D01*
X2747180Y1058249D01*
X2740487Y1070771D01*
X2716090Y1077930D01*
X2634781Y996620D01*
X2598860Y996620D01*
X2517550Y1077930D01*
X2493153Y1070771D01*
X2481063Y1045220D01*
X2474190Y1017802D01*
X2472798Y989569D01*
X2183520Y989569D01*
X2183520Y992494D01*
X2173425Y1043247D01*
X2153622Y1091055D01*
X2150391Y1095890D01*
X2535510Y1095890D01*
X2616820Y1014580D01*
X2698130Y1095890D01*
X2690971Y1120287D01*
X2665420Y1132377D01*
X2638002Y1139250D01*
X2609769Y1140642D01*
X2581807Y1136499D01*
X2555191Y1126980D01*
X2542669Y1120287D01*
X2535510Y1095890D01*
X2150391Y1095890D01*
X2124872Y1134082D01*
X2088281Y1170672D01*
X2045255Y1199422D01*
X1997447Y1219225D01*
X1946694Y1229320D01*
X1894946Y1229320D01*
X1844193Y1219225D01*
X1796385Y1199422D01*
X1753358Y1170672D01*
X1716768Y1134082D01*
X1688018Y1091055D01*
X1668215Y1043247D01*
X1658120Y992494D01*
X1221348Y992494D01*
X1215282Y1003844D01*
X1197189Y1025889D01*
X1175144Y1043981D01*
X1149992Y1057425D01*
X1122702Y1065704D01*
X1114520Y1066510D01*
X1114520Y1469589D01*
X1115041Y1474880D01*
X1114520Y1480171D01*
X1112962Y1495993D01*
X1106803Y1516294D01*
X1096803Y1535004D01*
X1083344Y1551404D01*
X1079234Y1554777D01*
X930319Y1703692D01*
X930319Y1769360D01*
X928725Y1785548D01*
X924003Y1801115D01*
X916335Y1815461D01*
X906015Y1828035D01*
X893441Y1838355D01*
X879095Y1846023D01*
X863528Y1850745D01*
X847340Y1852339D01*
X727340Y1852339D01*
X711152Y1850745D01*
X695585Y1846023D01*
X681239Y1838355D01*
X668665Y1828035D01*
X658345Y1815461D01*
X650677Y1801115D01*
X649588Y1797524D01*
X644520Y1803700D01*
X644520Y2483149D01*
X751994Y2590623D01*
X756104Y2593996D01*
X769563Y2610396D01*
X779563Y2629106D01*
X785722Y2649407D01*
X787280Y2665229D01*
X787280Y2665229D01*
X787801Y2670520D01*
X787280Y2675811D01*
X787280Y3536449D01*
X787801Y3541740D01*
X785722Y3562853D01*
X783853Y3569011D01*
X779563Y3583154D01*
X773055Y3595330D01*
X769563Y3601864D01*
X759477Y3614154D01*
X756104Y3618264D01*
X751994Y3621637D01*
X510420Y3863211D01*
X510420Y4408625D01*
X519226Y4402741D01*
X545196Y4391984D01*
X572765Y4386500D01*
X600875Y4386500D01*
X616117Y4389532D01*
X610180Y4375199D01*
X604120Y4344732D01*
X604120Y4313668D01*
X610180Y4283201D01*
X622068Y4254501D01*
X639326Y4228672D01*
X661292Y4206706D01*
X687121Y4189448D01*
X715821Y4177560D01*
X746288Y4171500D01*
X777352Y4171500D01*
X807819Y4177560D01*
X836519Y4189448D01*
X862348Y4206706D01*
X884314Y4228672D01*
X901572Y4254501D01*
X913460Y4283201D01*
X919520Y4313668D01*
X919520Y4344732D01*
X913460Y4375199D01*
X901572Y4403899D01*
X884314Y4429728D01*
X862348Y4451694D01*
X836519Y4468952D01*
X807819Y4480840D01*
X777352Y4486900D01*
X746288Y4486900D01*
X721733Y4482016D01*
X724036Y4487576D01*
X729520Y4515145D01*
X729520Y4543255D01*
X724036Y4570824D01*
X713279Y4596794D01*
X697662Y4620166D01*
X677786Y4640042D01*
X654414Y4655659D01*
X628444Y4666416D01*
X600875Y4671900D01*
X572765Y4671900D01*
X545196Y4666416D01*
X519226Y4655659D01*
X510420Y4649775D01*
X510420Y4700489D01*
X596431Y4786500D01*
X600875Y4786500D01*
X628444Y4791984D01*
X654414Y4802741D01*
X677786Y4818358D01*
X697662Y4838234D01*
X713279Y4861606D01*
X724036Y4887576D01*
X729520Y4915145D01*
X729520Y4943255D01*
X724036Y4970824D01*
X713279Y4996794D01*
X697662Y5020166D01*
X677786Y5040042D01*
X654414Y5055659D01*
X628444Y5066416D01*
X600875Y5071900D01*
X572765Y5071900D01*
X545196Y5066416D01*
X519226Y5055659D01*
X495854Y5040042D01*
X475978Y5020166D01*
X460361Y4996794D01*
X449604Y4970824D01*
X444120Y4943255D01*
X444120Y4938811D01*
X330306Y4824997D01*
X326196Y4821624D01*
X322823Y4817514D01*
X312738Y4805224D01*
X302737Y4786514D01*
X296578Y4766213D01*
X294499Y4745100D01*
X295020Y4739808D01*
X295020Y4413705D01*
X284314Y4429728D01*
X262348Y4451694D01*
X236519Y4468952D01*
X207819Y4480840D01*
X177352Y4486900D01*
X146288Y4486900D01*
X115821Y4480840D01*
X87121Y4468952D01*
X62700Y4452634D01*
X62700Y5343255D01*
X444120Y5343255D01*
X444120Y5315145D01*
X449604Y5287576D01*
X460361Y5261606D01*
X475978Y5238234D01*
X495854Y5218358D01*
X519226Y5202741D01*
X545196Y5191984D01*
X572765Y5186500D01*
X600875Y5186500D01*
X628444Y5191984D01*
X654414Y5202741D01*
X677786Y5218358D01*
X697662Y5238234D01*
X713279Y5261606D01*
X724036Y5287576D01*
X729520Y5315145D01*
X729520Y5343255D01*
X724036Y5370824D01*
X721733Y5376384D01*
X746288Y5371500D01*
X777352Y5371500D01*
X807819Y5377560D01*
X836519Y5389448D01*
X862348Y5406706D01*
X884314Y5428672D01*
X901572Y5454501D01*
X913460Y5483201D01*
X919520Y5513668D01*
X919520Y5544732D01*
X913460Y5575199D01*
X901572Y5603899D01*
X884314Y5629728D01*
X862348Y5651694D01*
X836519Y5668952D01*
X807819Y5680840D01*
X777352Y5686900D01*
X746288Y5686900D01*
X715821Y5680840D01*
X687121Y5668952D01*
X661292Y5651694D01*
X639326Y5629728D01*
X622068Y5603899D01*
X610180Y5575199D01*
X604120Y5544732D01*
X604120Y5513668D01*
X610180Y5483201D01*
X616117Y5468868D01*
X600875Y5471900D01*
X572765Y5471900D01*
X545196Y5466416D01*
X519226Y5455659D01*
X495854Y5440042D01*
X475978Y5420166D01*
X460361Y5396794D01*
X449604Y5370824D01*
X444120Y5343255D01*
X62700Y5343255D01*
X62700Y5405766D01*
X87121Y5389448D01*
X115821Y5377560D01*
X146288Y5371500D01*
X177352Y5371500D01*
X207819Y5377560D01*
X236519Y5389448D01*
X262348Y5406706D01*
X284314Y5428672D01*
X301572Y5454501D01*
X313460Y5483201D01*
X319520Y5513668D01*
X319520Y5544732D01*
X313460Y5575199D01*
X301572Y5603899D01*
X284314Y5629728D01*
X262348Y5651694D01*
X236519Y5668952D01*
X207819Y5680840D01*
X177352Y5686900D01*
X146288Y5686900D01*
X115821Y5680840D01*
X87121Y5668952D01*
X62700Y5652634D01*
X62700Y6172300D01*
X1139320Y6172300D01*
X1139320Y6044843D01*
M02*
