G04 #@! TF.GenerationSoftware,KiCad,Pcbnew,(5.1.0)-1*
G04 #@! TF.CreationDate,2022-02-26T19:57:31-08:00*
G04 #@! TF.ProjectId,BITLINK_12F_R1,4249544c-494e-44b5-9f31-32465f52312e,rev?*
G04 #@! TF.SameCoordinates,PX7755c18PY8cd1ce0*
G04 #@! TF.FileFunction,Legend,Top*
G04 #@! TF.FilePolarity,Positive*
%FSLAX45Y45*%
G04 Gerber Fmt 4.5, Leading zero omitted, Abs format (unit mm)*
G04 Created by KiCad (PCBNEW (5.1.0)-1) date 2022-02-26 19:57:31*
%MOMM*%
%LPD*%
G04 APERTURE LIST*
%ADD10C,0.150000*%
%ADD11C,0.300000*%
%ADD12C,0.500000*%
%ADD13C,0.200000*%
%ADD14C,0.120000*%
%ADD15R,7.242000X10.262000*%
%ADD16R,2.302000X1.302000*%
%ADD17R,2.602000X1.102000*%
%ADD18C,0.100000*%
%ADD19C,1.702000*%
%ADD20R,3.602000X3.602000*%
%ADD21C,3.102000*%
%ADD22C,3.602000*%
%ADD23R,1.002000X0.902000*%
%ADD24C,1.252000*%
%ADD25C,1.902000*%
%ADD26R,1.902000X1.902000*%
%ADD27C,1.802000*%
%ADD28O,1.802000X2.102000*%
%ADD29R,1.802000X1.802000*%
%ADD30O,1.802000X1.802000*%
%ADD31C,2.102000*%
%ADD32R,0.552000X1.852000*%
%ADD33C,1.527000*%
%ADD34C,1.602000*%
%ADD35R,1.702000X1.702000*%
%ADD36C,4.102000*%
%ADD37R,2.602000X1.902000*%
%ADD38R,2.102000X2.102000*%
%ADD39C,3.302000*%
G04 APERTURE END LIST*
D10*
X1821137Y6413053D02*
X1868756Y6413053D01*
X1811613Y6384482D02*
X1844946Y6484482D01*
X1878280Y6384482D01*
X1911613Y6384482D02*
X1911613Y6484482D01*
X1968756Y6384482D01*
X1968756Y6484482D01*
X2002089Y6484482D02*
X2059232Y6484482D01*
X2030660Y6384482D02*
X2030660Y6484482D01*
X2092565Y6394006D02*
X2097327Y6389244D01*
X2092565Y6384482D01*
X2087803Y6389244D01*
X2092565Y6394006D01*
X2092565Y6384482D01*
D11*
X2732140Y3595943D02*
X2767854Y3445943D01*
X2796426Y3553086D01*
X2824997Y3445943D01*
X2860711Y3595943D01*
X2917854Y3445943D02*
X2917854Y3595943D01*
X3039283Y3524514D02*
X2989283Y3524514D01*
X2989283Y3445943D02*
X2989283Y3595943D01*
X3060711Y3595943D01*
X3117854Y3445943D02*
X3117854Y3595943D01*
X3303568Y3445943D02*
X3303568Y3595943D01*
X3353568Y3488800D01*
X3403568Y3595943D01*
X3403568Y3445943D01*
X3503568Y3595943D02*
X3532140Y3595943D01*
X3546426Y3588800D01*
X3560711Y3574514D01*
X3567854Y3545943D01*
X3567854Y3495943D01*
X3560711Y3467371D01*
X3546426Y3453086D01*
X3532140Y3445943D01*
X3503568Y3445943D01*
X3489283Y3453086D01*
X3474997Y3467371D01*
X3467854Y3495943D01*
X3467854Y3545943D01*
X3474997Y3574514D01*
X3489283Y3588800D01*
X3503568Y3595943D01*
X3632140Y3445943D02*
X3632140Y3595943D01*
X3667854Y3595943D01*
X3689283Y3588800D01*
X3703568Y3574514D01*
X3710711Y3560229D01*
X3717854Y3531657D01*
X3717854Y3510229D01*
X3710711Y3481657D01*
X3703568Y3467371D01*
X3689283Y3453086D01*
X3667854Y3445943D01*
X3632140Y3445943D01*
X3782140Y3524514D02*
X3832140Y3524514D01*
X3853568Y3445943D02*
X3782140Y3445943D01*
X3782140Y3595943D01*
X3853568Y3595943D01*
X3917854Y3445943D02*
X3917854Y3595943D01*
X3967854Y3488800D01*
X4017854Y3595943D01*
X4017854Y3445943D01*
D12*
X2717270Y3837489D02*
X2758341Y3823203D01*
X2770841Y3808917D01*
X2781555Y3780346D01*
X2776198Y3737489D01*
X2758341Y3708917D01*
X2742270Y3694631D01*
X2711913Y3680346D01*
X2597627Y3680346D01*
X2635127Y3980346D01*
X2735127Y3980346D01*
X2761913Y3966060D01*
X2774413Y3951774D01*
X2785127Y3923203D01*
X2781555Y3894631D01*
X2763698Y3866060D01*
X2747627Y3851774D01*
X2717270Y3837489D01*
X2617270Y3837489D01*
X2897627Y3680346D02*
X2935127Y3980346D01*
X3035127Y3980346D02*
X3206555Y3980346D01*
X3083341Y3680346D02*
X3120841Y3980346D01*
X3411912Y3680346D02*
X3269055Y3680346D01*
X3306555Y3980346D01*
X3511912Y3680346D02*
X3549412Y3980346D01*
X3654770Y3680346D02*
X3692270Y3980346D01*
X3826198Y3680346D01*
X3863698Y3980346D01*
X3969055Y3680346D02*
X4006555Y3980346D01*
X4140484Y3680346D02*
X4033341Y3851774D01*
X4177984Y3980346D02*
X3985127Y3808917D01*
D10*
X2018841Y5399273D02*
X2052175Y5399273D01*
X2066460Y5346892D02*
X2018841Y5346892D01*
X2018841Y5446892D01*
X2066460Y5446892D01*
X2104556Y5351654D02*
X2118841Y5346892D01*
X2142651Y5346892D01*
X2152175Y5351654D01*
X2156937Y5356416D01*
X2161699Y5365940D01*
X2161699Y5375463D01*
X2156937Y5384987D01*
X2152175Y5389749D01*
X2142651Y5394511D01*
X2123603Y5399273D01*
X2114080Y5404035D01*
X2109318Y5408797D01*
X2104556Y5418321D01*
X2104556Y5427844D01*
X2109318Y5437368D01*
X2114080Y5442130D01*
X2123603Y5446892D01*
X2147413Y5446892D01*
X2161699Y5442130D01*
X2204556Y5346892D02*
X2204556Y5446892D01*
X2242651Y5446892D01*
X2252175Y5442130D01*
X2256937Y5437368D01*
X2261699Y5427844D01*
X2261699Y5413559D01*
X2256937Y5404035D01*
X2252175Y5399273D01*
X2242651Y5394511D01*
X2204556Y5394511D01*
X2304556Y5384987D02*
X2380746Y5384987D01*
X2442651Y5404035D02*
X2433127Y5408797D01*
X2428365Y5413559D01*
X2423603Y5423082D01*
X2423603Y5427844D01*
X2428365Y5437368D01*
X2433127Y5442130D01*
X2442651Y5446892D01*
X2461699Y5446892D01*
X2471222Y5442130D01*
X2475984Y5437368D01*
X2480746Y5427844D01*
X2480746Y5423082D01*
X2475984Y5413559D01*
X2471222Y5408797D01*
X2461699Y5404035D01*
X2442651Y5404035D01*
X2433127Y5399273D01*
X2428365Y5394511D01*
X2423603Y5384987D01*
X2423603Y5365940D01*
X2428365Y5356416D01*
X2433127Y5351654D01*
X2442651Y5346892D01*
X2461699Y5346892D01*
X2471222Y5351654D01*
X2475984Y5356416D01*
X2480746Y5365940D01*
X2480746Y5384987D01*
X2475984Y5394511D01*
X2471222Y5399273D01*
X2461699Y5404035D01*
X2518841Y5437368D02*
X2523603Y5442130D01*
X2533127Y5446892D01*
X2556937Y5446892D01*
X2566460Y5442130D01*
X2571222Y5437368D01*
X2575984Y5427844D01*
X2575984Y5418321D01*
X2571222Y5404035D01*
X2514080Y5346892D01*
X2575984Y5346892D01*
X2661699Y5446892D02*
X2642651Y5446892D01*
X2633127Y5442130D01*
X2628365Y5437368D01*
X2618841Y5423082D01*
X2614080Y5404035D01*
X2614080Y5365940D01*
X2618841Y5356416D01*
X2623603Y5351654D01*
X2633127Y5346892D01*
X2652175Y5346892D01*
X2661699Y5351654D01*
X2666460Y5356416D01*
X2671222Y5365940D01*
X2671222Y5389749D01*
X2666460Y5399273D01*
X2661699Y5404035D01*
X2652175Y5408797D01*
X2633127Y5408797D01*
X2623603Y5404035D01*
X2618841Y5399273D01*
X2614080Y5389749D01*
X2756937Y5446892D02*
X2737889Y5446892D01*
X2728365Y5442130D01*
X2723603Y5437368D01*
X2714080Y5423082D01*
X2709318Y5404035D01*
X2709318Y5365940D01*
X2714080Y5356416D01*
X2718841Y5351654D01*
X2728365Y5346892D01*
X2747413Y5346892D01*
X2756937Y5351654D01*
X2761699Y5356416D01*
X2766460Y5365940D01*
X2766460Y5389749D01*
X2761699Y5399273D01*
X2756937Y5404035D01*
X2747413Y5408797D01*
X2728365Y5408797D01*
X2718841Y5404035D01*
X2714080Y5399273D01*
X2709318Y5389749D01*
X1438074Y2268666D02*
X1404740Y2316285D01*
X1380931Y2268666D02*
X1380931Y2368666D01*
X1419026Y2368666D01*
X1428550Y2363904D01*
X1433312Y2359142D01*
X1438074Y2349618D01*
X1438074Y2335333D01*
X1433312Y2325809D01*
X1428550Y2321047D01*
X1419026Y2316285D01*
X1380931Y2316285D01*
X1480931Y2321047D02*
X1514264Y2321047D01*
X1528550Y2268666D02*
X1480931Y2268666D01*
X1480931Y2368666D01*
X1528550Y2368666D01*
X1566645Y2273428D02*
X1580931Y2268666D01*
X1604740Y2268666D01*
X1614264Y2273428D01*
X1619026Y2278190D01*
X1623788Y2287714D01*
X1623788Y2297237D01*
X1619026Y2306761D01*
X1614264Y2311523D01*
X1604740Y2316285D01*
X1585693Y2321047D01*
X1576169Y2325809D01*
X1571407Y2330571D01*
X1566645Y2340095D01*
X1566645Y2349618D01*
X1571407Y2359142D01*
X1576169Y2363904D01*
X1585693Y2368666D01*
X1609502Y2368666D01*
X1623788Y2363904D01*
X1666645Y2321047D02*
X1699979Y2321047D01*
X1714264Y2268666D02*
X1666645Y2268666D01*
X1666645Y2368666D01*
X1714264Y2368666D01*
X1742836Y2368666D02*
X1799979Y2368666D01*
X1771407Y2268666D02*
X1771407Y2368666D01*
D13*
X223243Y5935837D02*
X223243Y5907266D01*
X216100Y5892980D01*
X201814Y5878694D01*
X173243Y5871551D01*
X123243Y5871551D01*
X94671Y5878694D01*
X80386Y5892980D01*
X73243Y5907266D01*
X73243Y5935837D01*
X80386Y5950123D01*
X94671Y5964409D01*
X123243Y5971551D01*
X173243Y5971551D01*
X201814Y5964409D01*
X216100Y5950123D01*
X223243Y5935837D01*
X73243Y5807266D02*
X223243Y5807266D01*
X73243Y5721551D01*
X223243Y5721551D01*
D10*
X285752Y2010597D02*
X361942Y2010597D01*
X323847Y1972502D02*
X323847Y2048692D01*
X519085Y2024883D02*
X533371Y2020121D01*
X538133Y2015359D01*
X542895Y2005835D01*
X542895Y1991550D01*
X538133Y1982026D01*
X533371Y1977264D01*
X523847Y1972502D01*
X485752Y1972502D01*
X485752Y2072502D01*
X519085Y2072502D01*
X528609Y2067740D01*
X533371Y2062978D01*
X538133Y2053454D01*
X538133Y2043930D01*
X533371Y2034407D01*
X528609Y2029645D01*
X519085Y2024883D01*
X485752Y2024883D01*
X580990Y2001073D02*
X628609Y2001073D01*
X571466Y1972502D02*
X604800Y2072502D01*
X638133Y1972502D01*
X657180Y2072502D02*
X714323Y2072502D01*
X685752Y1972502D02*
X685752Y2072502D01*
X733371Y2072502D02*
X790514Y2072502D01*
X761942Y1972502D02*
X761942Y2072502D01*
X4335430Y5418000D02*
X4325907Y5422762D01*
X4311621Y5422762D01*
X4297335Y5418000D01*
X4287811Y5408476D01*
X4283050Y5398952D01*
X4278288Y5379905D01*
X4278288Y5365619D01*
X4283050Y5346572D01*
X4287811Y5337048D01*
X4297335Y5327524D01*
X4311621Y5322762D01*
X4321145Y5322762D01*
X4335430Y5327524D01*
X4340192Y5332286D01*
X4340192Y5365619D01*
X4321145Y5365619D01*
X4225430Y5930762D02*
X4282572Y5930762D01*
X4254001Y5830762D02*
X4254001Y5930762D01*
X4306382Y5930762D02*
X4373049Y5830762D01*
X4373049Y5930762D02*
X4306382Y5830762D01*
X4272253Y5576762D02*
X4238920Y5624381D01*
X4215110Y5576762D02*
X4215110Y5676762D01*
X4253206Y5676762D01*
X4262730Y5672000D01*
X4267491Y5667238D01*
X4272253Y5657714D01*
X4272253Y5643429D01*
X4267491Y5633905D01*
X4262730Y5629143D01*
X4253206Y5624381D01*
X4215110Y5624381D01*
X4305587Y5676762D02*
X4372253Y5576762D01*
X4372253Y5676762D02*
X4305587Y5576762D01*
X4788182Y5918684D02*
X4707230Y5918684D01*
X4697706Y5913922D01*
X4692944Y5909160D01*
X4688182Y5899636D01*
X4688182Y5880589D01*
X4692944Y5871065D01*
X4697706Y5866303D01*
X4707230Y5861541D01*
X4788182Y5861541D01*
X4716753Y5818684D02*
X4716753Y5771065D01*
X4688182Y5828208D02*
X4788182Y5794874D01*
X4688182Y5761541D01*
X4688182Y5671065D02*
X4735801Y5704398D01*
X4688182Y5728208D02*
X4788182Y5728208D01*
X4788182Y5690112D01*
X4783420Y5680589D01*
X4778658Y5675827D01*
X4769134Y5671065D01*
X4754849Y5671065D01*
X4745325Y5675827D01*
X4740563Y5680589D01*
X4735801Y5690112D01*
X4735801Y5728208D01*
X4788182Y5642493D02*
X4788182Y5585351D01*
X4688182Y5613922D02*
X4788182Y5613922D01*
X4740563Y4876648D02*
X4740563Y4909981D01*
X4688182Y4909981D02*
X4788182Y4909981D01*
X4788182Y4862362D01*
X4688182Y4776648D02*
X4688182Y4824267D01*
X4788182Y4824267D01*
X4716753Y4748076D02*
X4716753Y4700457D01*
X4688182Y4757600D02*
X4788182Y4724267D01*
X4688182Y4690933D01*
X4692944Y4662362D02*
X4688182Y4648076D01*
X4688182Y4624267D01*
X4692944Y4614743D01*
X4697706Y4609981D01*
X4707230Y4605219D01*
X4716753Y4605219D01*
X4726277Y4609981D01*
X4731039Y4614743D01*
X4735801Y4624267D01*
X4740563Y4643314D01*
X4745325Y4652838D01*
X4750087Y4657600D01*
X4759610Y4662362D01*
X4769134Y4662362D01*
X4778658Y4657600D01*
X4783420Y4652838D01*
X4788182Y4643314D01*
X4788182Y4619505D01*
X4783420Y4605219D01*
X4688182Y4562362D02*
X4788182Y4562362D01*
X4740563Y4562362D02*
X4740563Y4505219D01*
X4688182Y4505219D02*
X4788182Y4505219D01*
D13*
X440420Y8420372D02*
X447563Y8427514D01*
X468991Y8434657D01*
X483277Y8434657D01*
X504706Y8427514D01*
X518991Y8413229D01*
X526134Y8398943D01*
X533277Y8370371D01*
X533277Y8348943D01*
X526134Y8320371D01*
X518991Y8306086D01*
X504706Y8291800D01*
X483277Y8284657D01*
X468991Y8284657D01*
X447563Y8291800D01*
X440420Y8298943D01*
X383277Y8427514D02*
X361848Y8434657D01*
X326134Y8434657D01*
X311849Y8427514D01*
X304706Y8420372D01*
X297563Y8406086D01*
X297563Y8391800D01*
X304706Y8377514D01*
X311849Y8370371D01*
X326134Y8363229D01*
X354706Y8356086D01*
X368991Y8348943D01*
X376134Y8341800D01*
X383277Y8327514D01*
X383277Y8313229D01*
X376134Y8298943D01*
X368991Y8291800D01*
X354706Y8284657D01*
X318991Y8284657D01*
X297563Y8291800D01*
X1227820Y8434657D02*
X1277820Y8363229D01*
X1313534Y8434657D02*
X1313534Y8284657D01*
X1256391Y8284657D01*
X1242106Y8291800D01*
X1234963Y8298943D01*
X1227820Y8313229D01*
X1227820Y8334657D01*
X1234963Y8348943D01*
X1242106Y8356086D01*
X1256391Y8363229D01*
X1313534Y8363229D01*
X1170677Y8427514D02*
X1149249Y8434657D01*
X1113534Y8434657D01*
X1099249Y8427514D01*
X1092106Y8420372D01*
X1084963Y8406086D01*
X1084963Y8391800D01*
X1092106Y8377514D01*
X1099249Y8370371D01*
X1113534Y8363229D01*
X1142106Y8356086D01*
X1156391Y8348943D01*
X1163534Y8341800D01*
X1170677Y8327514D01*
X1170677Y8313229D01*
X1163534Y8298943D01*
X1156391Y8291800D01*
X1142106Y8284657D01*
X1106391Y8284657D01*
X1084963Y8291800D01*
X2133477Y8284657D02*
X2047763Y8284657D01*
X2090620Y8434657D02*
X2090620Y8284657D01*
X1912048Y8434657D02*
X1962048Y8363229D01*
X1997763Y8434657D02*
X1997763Y8284657D01*
X1940620Y8284657D01*
X1926334Y8291800D01*
X1919191Y8298943D01*
X1912048Y8313229D01*
X1912048Y8334657D01*
X1919191Y8348943D01*
X1926334Y8356086D01*
X1940620Y8363229D01*
X1997763Y8363229D01*
X3644391Y8434657D02*
X3694391Y8363229D01*
X3730106Y8434657D02*
X3730106Y8284657D01*
X3672963Y8284657D01*
X3658677Y8291800D01*
X3651534Y8298943D01*
X3644391Y8313229D01*
X3644391Y8334657D01*
X3651534Y8348943D01*
X3658677Y8356086D01*
X3672963Y8363229D01*
X3730106Y8363229D01*
X3580106Y8434657D02*
X3580106Y8284657D01*
X3544391Y8284657D01*
X3522963Y8291800D01*
X3508677Y8306086D01*
X3501534Y8320371D01*
X3494391Y8348943D01*
X3494391Y8370371D01*
X3501534Y8398943D01*
X3508677Y8413229D01*
X3522963Y8427514D01*
X3544391Y8434657D01*
X3580106Y8434657D01*
X2941959Y8427514D02*
X2920530Y8434657D01*
X2884816Y8434657D01*
X2870530Y8427514D01*
X2863388Y8420372D01*
X2856245Y8406086D01*
X2856245Y8391800D01*
X2863388Y8377514D01*
X2870530Y8370371D01*
X2884816Y8363229D01*
X2913388Y8356086D01*
X2927673Y8348943D01*
X2934816Y8341800D01*
X2941959Y8327514D01*
X2941959Y8313229D01*
X2934816Y8298943D01*
X2927673Y8291800D01*
X2913388Y8284657D01*
X2877673Y8284657D01*
X2856245Y8291800D01*
X2791959Y8434657D02*
X2791959Y8284657D01*
X2756245Y8284657D01*
X2734816Y8291800D01*
X2720531Y8306086D01*
X2713388Y8320371D01*
X2706245Y8348943D01*
X2706245Y8370371D01*
X2713388Y8398943D01*
X2720531Y8413229D01*
X2734816Y8427514D01*
X2756245Y8434657D01*
X2791959Y8434657D01*
X4437887Y8420372D02*
X4445030Y8427514D01*
X4466459Y8434657D01*
X4480745Y8434657D01*
X4502173Y8427514D01*
X4516459Y8413229D01*
X4523602Y8398943D01*
X4530745Y8370371D01*
X4530745Y8348943D01*
X4523602Y8320371D01*
X4516459Y8306086D01*
X4502173Y8291800D01*
X4480745Y8284657D01*
X4466459Y8284657D01*
X4445030Y8291800D01*
X4437887Y8298943D01*
X4373602Y8434657D02*
X4373602Y8284657D01*
X4337887Y8284657D01*
X4316459Y8291800D01*
X4302173Y8306086D01*
X4295030Y8320371D01*
X4287887Y8348943D01*
X4287887Y8370371D01*
X4295030Y8398943D01*
X4302173Y8413229D01*
X4316459Y8427514D01*
X4337887Y8434657D01*
X4373602Y8434657D01*
D14*
X1497480Y2614020D02*
X1387480Y2614020D01*
X1497480Y2587020D02*
X1497480Y2614020D01*
X1647480Y2587020D02*
X1497480Y2587020D01*
X1497480Y3250020D02*
X1214480Y3250020D01*
X1497480Y3277020D02*
X1497480Y3250020D01*
X1647480Y3277020D02*
X1497480Y3277020D01*
X1601000Y6978000D02*
X3225000Y6978000D01*
X3225000Y6978000D02*
X3225000Y6216000D01*
X3225000Y4616000D02*
X3225000Y4554000D01*
X3225000Y4554000D02*
X3013000Y4554000D01*
X1813000Y4554000D02*
X1601000Y4554000D01*
X1601000Y4554000D02*
X1601000Y4616000D01*
X1601000Y6216000D02*
X1601000Y6978000D01*
X1601000Y6216000D02*
X1540000Y6216000D01*
X480820Y2233000D02*
X715820Y2233000D01*
X1162820Y2233000D02*
X927820Y2233000D01*
X1162820Y2808556D02*
X1162820Y2233000D01*
X480820Y2808556D02*
X480820Y2233000D01*
X587264Y2915000D02*
X715820Y2915000D01*
X1056376Y2915000D02*
X927820Y2915000D01*
X1056376Y2915000D02*
X1162820Y2808556D01*
X587264Y2915000D02*
X480820Y2808556D01*
X1006570Y3017750D02*
X1006570Y2939000D01*
X1045945Y2978375D02*
X967195Y2978375D01*
X161820Y1245520D02*
X56820Y1245520D01*
X56820Y1140520D02*
X56820Y1245520D01*
X4210000Y8224000D02*
X4356000Y8224000D01*
X4210000Y7908000D02*
X4426000Y7908000D01*
X4210000Y7908000D02*
X4210000Y8001000D01*
X4210000Y8224000D02*
X4210000Y8131000D01*
X2929295Y2054450D02*
X2981545Y2054450D01*
X2929295Y1912450D02*
X2981545Y1912450D01*
X897295Y3356200D02*
X949545Y3356200D01*
X897295Y3214200D02*
X949545Y3214200D01*
X2929295Y2318850D02*
X2981545Y2318850D01*
X2929295Y2460850D02*
X2981545Y2460850D01*
X2929295Y2540150D02*
X2981545Y2540150D01*
X2929295Y2682150D02*
X2981545Y2682150D01*
X2981545Y2115650D02*
X2929295Y2115650D01*
X2981545Y2257650D02*
X2929295Y2257650D01*
X4157000Y8962900D02*
X4157000Y8653900D01*
X4663000Y8808400D02*
G75*
G03X4663000Y8808400I-250000J0D01*
G01*
X4712000Y8808446D02*
G75*
G02X4157000Y8653917I-299000J-46D01*
G01*
X4712000Y8808354D02*
G75*
G03X4157000Y8962883I-299000J46D01*
G01*
X3912000Y8808354D02*
G75*
G03X3357000Y8962883I-299000J46D01*
G01*
X3912000Y8808446D02*
G75*
G02X3357000Y8653917I-299000J-46D01*
G01*
X3863000Y8808400D02*
G75*
G03X3863000Y8808400I-250000J0D01*
G01*
X3357000Y8962900D02*
X3357000Y8653900D01*
X2557000Y8962900D02*
X2557000Y8653900D01*
X3063000Y8808400D02*
G75*
G03X3063000Y8808400I-250000J0D01*
G01*
X3112000Y8808446D02*
G75*
G02X2557000Y8653917I-299000J-46D01*
G01*
X3112000Y8808354D02*
G75*
G03X2557000Y8962883I-299000J46D01*
G01*
X1757000Y8962900D02*
X1757000Y8653900D01*
X2263000Y8808400D02*
G75*
G03X2263000Y8808400I-250000J0D01*
G01*
X2312000Y8808446D02*
G75*
G02X1757000Y8653917I-299000J-46D01*
G01*
X2312000Y8808354D02*
G75*
G03X1757000Y8962883I-299000J46D01*
G01*
X1512000Y8808354D02*
G75*
G03X957000Y8962883I-299000J46D01*
G01*
X1512000Y8808446D02*
G75*
G02X957000Y8653917I-299000J-46D01*
G01*
X1463000Y8808400D02*
G75*
G03X1463000Y8808400I-250000J0D01*
G01*
X957000Y8962900D02*
X957000Y8653900D01*
X712000Y8808354D02*
G75*
G03X157000Y8962883I-299000J46D01*
G01*
X712000Y8808446D02*
G75*
G02X157000Y8653917I-299000J-46D01*
G01*
X663000Y8808400D02*
G75*
G03X663000Y8808400I-250000J0D01*
G01*
X157000Y8962900D02*
X157000Y8653900D01*
X1048340Y1523360D02*
X1048340Y1925360D01*
X1048340Y1925360D02*
X276340Y1925360D01*
X276340Y1925360D02*
X276340Y1523360D01*
X276340Y1523360D02*
X1048340Y1523360D01*
X1048340Y1694360D02*
X998340Y1694360D01*
X998340Y1694360D02*
X998340Y1573360D01*
X998340Y1573360D02*
X326340Y1573360D01*
X326340Y1573360D02*
X326340Y1694360D01*
X326340Y1694360D02*
X276340Y1694360D01*
X1048340Y1775360D02*
X948340Y1775360D01*
X948340Y1775360D02*
X948340Y1925360D01*
X276340Y1775360D02*
X376340Y1775360D01*
X376340Y1775360D02*
X376340Y1925360D01*
X1078340Y1705360D02*
X1078340Y1955360D01*
X1078340Y1955360D02*
X828340Y1955360D01*
X4654200Y4953000D02*
X4388200Y4953000D01*
X4654200Y4693000D02*
X4654200Y4953000D01*
X4388200Y4693000D02*
X4388200Y4953000D01*
X4654200Y4693000D02*
X4388200Y4693000D01*
X4654200Y4566000D02*
X4654200Y4433000D01*
X4654200Y4433000D02*
X4521200Y4433000D01*
X4654200Y6009000D02*
X4388200Y6009000D01*
X4654200Y5495000D02*
X4654200Y6009000D01*
X4388200Y5495000D02*
X4388200Y6009000D01*
X4654200Y5495000D02*
X4388200Y5495000D01*
X4654200Y5368000D02*
X4654200Y5235000D01*
X4654200Y5235000D02*
X4521200Y5235000D01*
X3410000Y8224000D02*
X3410000Y8131000D01*
X3410000Y7908000D02*
X3410000Y8001000D01*
X3410000Y7908000D02*
X3626000Y7908000D01*
X3410000Y8224000D02*
X3556000Y8224000D01*
X2610000Y8224000D02*
X2756000Y8224000D01*
X2610000Y7908000D02*
X2826000Y7908000D01*
X2610000Y7908000D02*
X2610000Y8001000D01*
X2610000Y8224000D02*
X2610000Y8131000D01*
X1810000Y8224000D02*
X1956000Y8224000D01*
X1810000Y7908000D02*
X2026000Y7908000D01*
X1810000Y7908000D02*
X1810000Y8001000D01*
X1810000Y8224000D02*
X1810000Y8131000D01*
X1010000Y8224000D02*
X1010000Y8131000D01*
X1010000Y7908000D02*
X1010000Y8001000D01*
X1010000Y7908000D02*
X1226000Y7908000D01*
X1010000Y8224000D02*
X1156000Y8224000D01*
X210000Y8224000D02*
X210000Y8131000D01*
X210000Y7908000D02*
X210000Y8001000D01*
X210000Y7908000D02*
X426000Y7908000D01*
X210000Y8224000D02*
X356000Y8224000D01*
X1343245Y6045030D02*
X1290995Y6045030D01*
X1343245Y6187030D02*
X1290995Y6187030D01*
X1290995Y5788250D02*
X1343245Y5788250D01*
X1290995Y5646250D02*
X1343245Y5646250D01*
X3930695Y5537000D02*
X3982945Y5537000D01*
X3930695Y5395000D02*
X3982945Y5395000D01*
X3930695Y5337000D02*
X3982945Y5337000D01*
X3930695Y5195000D02*
X3982945Y5195000D01*
X3982945Y5137000D02*
X3930695Y5137000D01*
X3982945Y4995000D02*
X3930695Y4995000D01*
X4741480Y8028115D02*
X4741480Y8080365D01*
X4599480Y8028115D02*
X4599480Y8080365D01*
X3799480Y8028115D02*
X3799480Y8080365D01*
X3941480Y8028115D02*
X3941480Y8080365D01*
X2999480Y8028115D02*
X2999480Y8080365D01*
X3141480Y8028115D02*
X3141480Y8080365D01*
X2341480Y8028115D02*
X2341480Y8080365D01*
X2199480Y8028115D02*
X2199480Y8080365D01*
X1541480Y8028115D02*
X1541480Y8080365D01*
X1399480Y8028115D02*
X1399480Y8080365D01*
X599480Y8028115D02*
X599480Y8080365D01*
X741480Y8028115D02*
X741480Y8080365D01*
X891820Y5659200D02*
X891820Y5529200D01*
X761820Y5659200D02*
X891820Y5659200D01*
X126820Y4434200D02*
X126820Y5424200D01*
X796820Y5424200D02*
X796820Y4434200D01*
X201820Y5629200D02*
X721820Y5629200D01*
X721820Y4229200D02*
X201820Y4229200D01*
X1244132Y2031532D02*
X1244132Y1581532D01*
X1644132Y2156532D02*
X1494132Y2156532D01*
X1894132Y1581532D02*
X1894132Y2031532D01*
X1494132Y1456532D02*
X1644132Y1456532D01*
D10*
X3223020Y1938000D02*
X3280520Y1938000D01*
X3223020Y2513000D02*
X3288020Y2513000D01*
X4288020Y2513000D02*
X4223020Y2513000D01*
X4288020Y1938000D02*
X4223020Y1938000D01*
X3223020Y1938000D02*
X3223020Y2513000D01*
X4288020Y1938000D02*
X4288020Y2513000D01*
X3280520Y1938000D02*
X3280520Y1778000D01*
D14*
X1293750Y627184D02*
X1293750Y747596D01*
X1475750Y627184D02*
X1475750Y747596D01*
X3282789Y2808562D02*
X3230539Y2808562D01*
X3282789Y2950562D02*
X3230539Y2950562D01*
X1780676Y3522312D02*
X2219176Y3522312D01*
X2219176Y3522312D02*
X2219176Y3824312D01*
X2219176Y3824312D02*
X1780676Y3824312D01*
X1335020Y4793235D02*
X1335020Y4845485D01*
X1477020Y4793235D02*
X1477020Y4845485D01*
X1622320Y224620D02*
X1622320Y1272620D01*
X1622320Y1272620D02*
X4719320Y1272620D01*
X4719320Y1272620D02*
X4719320Y224620D01*
X3699820Y1362054D02*
X3749820Y1362054D01*
X3749820Y1362054D02*
X3724820Y1318753D01*
X3724820Y1318753D02*
X3699820Y1362054D01*
X831620Y3729800D02*
X831620Y4059800D01*
X831620Y4059800D02*
X291620Y4059800D01*
X831620Y3729800D02*
X291620Y3729800D01*
X4420888Y2040966D02*
X4660888Y2040966D01*
X4660888Y2040966D02*
X4660888Y1800966D01*
X4660888Y1800966D02*
X4420888Y1800966D01*
X4420888Y1800966D02*
X4420888Y2040966D01*
X1255786Y3851583D02*
X1255786Y3799333D01*
X1113786Y3851583D02*
X1113786Y3799333D01*
X885186Y3851583D02*
X885186Y3799333D01*
X1027186Y3851583D02*
X1027186Y3799333D01*
D10*
X1404129Y3433822D02*
X1404129Y3352870D01*
X1408891Y3343346D01*
X1413653Y3338584D01*
X1423177Y3333822D01*
X1442225Y3333822D01*
X1451748Y3338584D01*
X1456510Y3343346D01*
X1461272Y3352870D01*
X1461272Y3433822D01*
X1561272Y3333822D02*
X1504129Y3333822D01*
X1532701Y3333822D02*
X1532701Y3433822D01*
X1523177Y3419536D01*
X1513653Y3410012D01*
X1504129Y3405250D01*
X3253629Y6926762D02*
X3253629Y6845810D01*
X3258391Y6836286D01*
X3263153Y6831524D01*
X3272677Y6826762D01*
X3291725Y6826762D01*
X3301248Y6831524D01*
X3306010Y6836286D01*
X3310772Y6845810D01*
X3310772Y6926762D01*
X3348868Y6926762D02*
X3410772Y6926762D01*
X3377439Y6888667D01*
X3391725Y6888667D01*
X3401248Y6883905D01*
X3406010Y6879143D01*
X3410772Y6869619D01*
X3410772Y6845810D01*
X3406010Y6836286D01*
X3401248Y6831524D01*
X3391725Y6826762D01*
X3363153Y6826762D01*
X3353629Y6831524D01*
X3348868Y6836286D01*
X601445Y2952306D02*
X596683Y2947544D01*
X582398Y2942782D01*
X572874Y2942782D01*
X558588Y2947544D01*
X549064Y2957068D01*
X544302Y2966591D01*
X539541Y2985639D01*
X539541Y2999925D01*
X544302Y3018972D01*
X549064Y3028496D01*
X558588Y3038020D01*
X572874Y3042782D01*
X582398Y3042782D01*
X596683Y3038020D01*
X601445Y3033258D01*
X696683Y2942782D02*
X639541Y2942782D01*
X668112Y2942782D02*
X668112Y3042782D01*
X658588Y3028496D01*
X649064Y3018972D01*
X639541Y3014210D01*
X995658Y1133787D02*
X1067087Y1133787D01*
X1081372Y1129025D01*
X1090896Y1119501D01*
X1095658Y1105215D01*
X1095658Y1095692D01*
X1095658Y1233787D02*
X1095658Y1176644D01*
X1095658Y1205215D02*
X995658Y1205215D01*
X1009944Y1195692D01*
X1019468Y1186168D01*
X1024229Y1176644D01*
X4279396Y7777038D02*
X4269872Y7781800D01*
X4260349Y7791324D01*
X4246063Y7805610D01*
X4236539Y7810371D01*
X4227015Y7810371D01*
X4231777Y7786562D02*
X4222253Y7791324D01*
X4212730Y7800848D01*
X4207968Y7819895D01*
X4207968Y7853229D01*
X4212730Y7872276D01*
X4222253Y7881800D01*
X4231777Y7886562D01*
X4250825Y7886562D01*
X4260349Y7881800D01*
X4269872Y7872276D01*
X4274634Y7853229D01*
X4274634Y7819895D01*
X4269872Y7800848D01*
X4260349Y7791324D01*
X4250825Y7786562D01*
X4231777Y7786562D01*
X4369872Y7786562D02*
X4312730Y7786562D01*
X4341301Y7786562D02*
X4341301Y7886562D01*
X4331777Y7872276D01*
X4322253Y7862752D01*
X4312730Y7857990D01*
X2659353Y1947736D02*
X2654591Y1942974D01*
X2640306Y1938212D01*
X2630782Y1938212D01*
X2616496Y1942974D01*
X2606972Y1952498D01*
X2602210Y1962021D01*
X2597449Y1981069D01*
X2597449Y1995355D01*
X2602210Y2014402D01*
X2606972Y2023926D01*
X2616496Y2033450D01*
X2630782Y2038212D01*
X2640306Y2038212D01*
X2654591Y2033450D01*
X2659353Y2028688D01*
X2745068Y2004879D02*
X2745068Y1938212D01*
X2721258Y2042974D02*
X2697449Y1971545D01*
X2759353Y1971545D01*
X906753Y3399346D02*
X901991Y3394584D01*
X887706Y3389822D01*
X878182Y3389822D01*
X863896Y3394584D01*
X854372Y3404108D01*
X849610Y3413631D01*
X844848Y3432679D01*
X844848Y3446965D01*
X849610Y3466012D01*
X854372Y3475536D01*
X863896Y3485060D01*
X878182Y3489822D01*
X887706Y3489822D01*
X901991Y3485060D01*
X906753Y3480298D01*
X940087Y3489822D02*
X1001991Y3489822D01*
X968658Y3451727D01*
X982944Y3451727D01*
X992468Y3446965D01*
X997229Y3442203D01*
X1001991Y3432679D01*
X1001991Y3408870D01*
X997229Y3399346D01*
X992468Y3394584D01*
X982944Y3389822D01*
X954372Y3389822D01*
X944848Y3394584D01*
X940087Y3399346D01*
X2659353Y2354136D02*
X2654591Y2349374D01*
X2640306Y2344612D01*
X2630782Y2344612D01*
X2616496Y2349374D01*
X2606972Y2358898D01*
X2602210Y2368422D01*
X2597449Y2387469D01*
X2597449Y2401755D01*
X2602210Y2420802D01*
X2606972Y2430326D01*
X2616496Y2439850D01*
X2630782Y2444612D01*
X2640306Y2444612D01*
X2654591Y2439850D01*
X2659353Y2435088D01*
X2745068Y2444612D02*
X2726020Y2444612D01*
X2716496Y2439850D01*
X2711734Y2435088D01*
X2702210Y2420802D01*
X2697449Y2401755D01*
X2697449Y2363660D01*
X2702210Y2354136D01*
X2706972Y2349374D01*
X2716496Y2344612D01*
X2735544Y2344612D01*
X2745068Y2349374D01*
X2749830Y2354136D01*
X2754591Y2363660D01*
X2754591Y2387469D01*
X2749830Y2396993D01*
X2745068Y2401755D01*
X2735544Y2406517D01*
X2716496Y2406517D01*
X2706972Y2401755D01*
X2702210Y2396993D01*
X2697449Y2387469D01*
X2653003Y2570036D02*
X2648241Y2565274D01*
X2633956Y2560512D01*
X2624432Y2560512D01*
X2610146Y2565274D01*
X2600622Y2574798D01*
X2595860Y2584322D01*
X2591099Y2603369D01*
X2591099Y2617655D01*
X2595860Y2636702D01*
X2600622Y2646226D01*
X2610146Y2655750D01*
X2624432Y2660512D01*
X2633956Y2660512D01*
X2648241Y2655750D01*
X2653003Y2650988D01*
X2686337Y2660512D02*
X2753003Y2660512D01*
X2710146Y2560512D01*
X2659353Y2150936D02*
X2654591Y2146174D01*
X2640306Y2141412D01*
X2630782Y2141412D01*
X2616496Y2146174D01*
X2606972Y2155698D01*
X2602210Y2165222D01*
X2597449Y2184269D01*
X2597449Y2198555D01*
X2602210Y2217602D01*
X2606972Y2227126D01*
X2616496Y2236650D01*
X2630782Y2241412D01*
X2640306Y2241412D01*
X2654591Y2236650D01*
X2659353Y2231888D01*
X2749830Y2241412D02*
X2702210Y2241412D01*
X2697449Y2193793D01*
X2702210Y2198555D01*
X2711734Y2203317D01*
X2735544Y2203317D01*
X2745068Y2198555D01*
X2749830Y2193793D01*
X2754591Y2184269D01*
X2754591Y2160460D01*
X2749830Y2150936D01*
X2745068Y2146174D01*
X2735544Y2141412D01*
X2711734Y2141412D01*
X2702210Y2146174D01*
X2697449Y2150936D01*
X4166518Y8462371D02*
X4066518Y8462371D01*
X4066518Y8486180D01*
X4071280Y8500466D01*
X4080804Y8509990D01*
X4090328Y8514752D01*
X4109375Y8519513D01*
X4123661Y8519513D01*
X4142708Y8514752D01*
X4152232Y8509990D01*
X4161756Y8500466D01*
X4166518Y8486180D01*
X4166518Y8462371D01*
X4076042Y8557609D02*
X4071280Y8562371D01*
X4066518Y8571894D01*
X4066518Y8595704D01*
X4071280Y8605228D01*
X4076042Y8609990D01*
X4085566Y8614752D01*
X4095089Y8614752D01*
X4109375Y8609990D01*
X4166518Y8552847D01*
X4166518Y8614752D01*
X3366418Y8462371D02*
X3266418Y8462371D01*
X3266418Y8486180D01*
X3271180Y8500466D01*
X3280704Y8509990D01*
X3290228Y8514752D01*
X3309275Y8519513D01*
X3323561Y8519513D01*
X3342608Y8514752D01*
X3352132Y8509990D01*
X3361656Y8500466D01*
X3366418Y8486180D01*
X3366418Y8462371D01*
X3266418Y8552847D02*
X3266418Y8614752D01*
X3304513Y8581418D01*
X3304513Y8595704D01*
X3309275Y8605228D01*
X3314037Y8609990D01*
X3323561Y8614752D01*
X3347370Y8614752D01*
X3356894Y8609990D01*
X3361656Y8605228D01*
X3366418Y8595704D01*
X3366418Y8567132D01*
X3361656Y8557609D01*
X3356894Y8552847D01*
X2563778Y8459831D02*
X2463778Y8459831D01*
X2463778Y8483640D01*
X2468540Y8497926D01*
X2478064Y8507450D01*
X2487588Y8512212D01*
X2506635Y8516973D01*
X2520921Y8516973D01*
X2539969Y8512212D01*
X2549492Y8507450D01*
X2559016Y8497926D01*
X2563778Y8483640D01*
X2563778Y8459831D01*
X2497111Y8602688D02*
X2563778Y8602688D01*
X2459016Y8578878D02*
X2530445Y8555069D01*
X2530445Y8616973D01*
X1758598Y8449671D02*
X1658598Y8449671D01*
X1658598Y8473480D01*
X1663360Y8487766D01*
X1672884Y8497290D01*
X1682408Y8502052D01*
X1701455Y8506813D01*
X1715741Y8506813D01*
X1734788Y8502052D01*
X1744312Y8497290D01*
X1753836Y8487766D01*
X1758598Y8473480D01*
X1758598Y8449671D01*
X1658598Y8597290D02*
X1658598Y8549671D01*
X1706217Y8544909D01*
X1701455Y8549671D01*
X1696693Y8559194D01*
X1696693Y8583004D01*
X1701455Y8592528D01*
X1706217Y8597290D01*
X1715741Y8602052D01*
X1739550Y8602052D01*
X1749074Y8597290D01*
X1753836Y8592528D01*
X1758598Y8583004D01*
X1758598Y8559194D01*
X1753836Y8549671D01*
X1749074Y8544909D01*
X961038Y8459831D02*
X861038Y8459831D01*
X861038Y8483640D01*
X865800Y8497926D01*
X875324Y8507450D01*
X884848Y8512212D01*
X903895Y8516973D01*
X918181Y8516973D01*
X937228Y8512212D01*
X946752Y8507450D01*
X956276Y8497926D01*
X961038Y8483640D01*
X961038Y8459831D01*
X861038Y8602688D02*
X861038Y8583640D01*
X865800Y8574116D01*
X870562Y8569354D01*
X884848Y8559831D01*
X903895Y8555069D01*
X941990Y8555069D01*
X951514Y8559831D01*
X956276Y8564592D01*
X961038Y8574116D01*
X961038Y8593164D01*
X956276Y8602688D01*
X951514Y8607450D01*
X941990Y8612212D01*
X918181Y8612212D01*
X908657Y8607450D01*
X903895Y8602688D01*
X899133Y8593164D01*
X899133Y8574116D01*
X903895Y8564592D01*
X908657Y8559831D01*
X918181Y8555069D01*
X158398Y8462371D02*
X58398Y8462371D01*
X58398Y8486180D01*
X63160Y8500466D01*
X72684Y8509990D01*
X82208Y8514752D01*
X101255Y8519513D01*
X115541Y8519513D01*
X134589Y8514752D01*
X144112Y8509990D01*
X153636Y8500466D01*
X158398Y8486180D01*
X158398Y8462371D01*
X58398Y8552847D02*
X58398Y8619513D01*
X158398Y8576656D01*
X152027Y1906602D02*
X152027Y1835173D01*
X147265Y1820888D01*
X137741Y1811364D01*
X123455Y1806602D01*
X113931Y1806602D01*
X194884Y1897078D02*
X199646Y1901840D01*
X209169Y1906602D01*
X232979Y1906602D01*
X242503Y1901840D01*
X247265Y1897078D01*
X252027Y1887554D01*
X252027Y1878030D01*
X247265Y1863745D01*
X190122Y1806602D01*
X252027Y1806602D01*
X4485487Y5092762D02*
X4485487Y5021333D01*
X4480725Y5007048D01*
X4471201Y4997524D01*
X4456915Y4992762D01*
X4447391Y4992762D01*
X4523582Y5092762D02*
X4585487Y5092762D01*
X4552153Y5054667D01*
X4566439Y5054667D01*
X4575963Y5049905D01*
X4580725Y5045143D01*
X4585487Y5035619D01*
X4585487Y5011810D01*
X4580725Y5002286D01*
X4575963Y4997524D01*
X4566439Y4992762D01*
X4537868Y4992762D01*
X4528344Y4997524D01*
X4523582Y5002286D01*
X4487867Y6134362D02*
X4487867Y6062933D01*
X4483105Y6048648D01*
X4473581Y6039124D01*
X4459295Y6034362D01*
X4449771Y6034362D01*
X4578343Y6101029D02*
X4578343Y6034362D01*
X4554533Y6139124D02*
X4530724Y6067695D01*
X4592629Y6067695D01*
X3479296Y7777038D02*
X3469772Y7781800D01*
X3460248Y7791324D01*
X3445963Y7805610D01*
X3436439Y7810371D01*
X3426915Y7810371D01*
X3431677Y7786562D02*
X3422153Y7791324D01*
X3412629Y7800848D01*
X3407868Y7819895D01*
X3407868Y7853229D01*
X3412629Y7872276D01*
X3422153Y7881800D01*
X3431677Y7886562D01*
X3450725Y7886562D01*
X3460248Y7881800D01*
X3469772Y7872276D01*
X3474534Y7853229D01*
X3474534Y7819895D01*
X3469772Y7800848D01*
X3460248Y7791324D01*
X3450725Y7786562D01*
X3431677Y7786562D01*
X3512629Y7877038D02*
X3517391Y7881800D01*
X3526915Y7886562D01*
X3550725Y7886562D01*
X3560248Y7881800D01*
X3565010Y7877038D01*
X3569772Y7867514D01*
X3569772Y7857990D01*
X3565010Y7843705D01*
X3507868Y7786562D01*
X3569772Y7786562D01*
X2672846Y7777038D02*
X2663322Y7781800D01*
X2653799Y7791324D01*
X2639513Y7805610D01*
X2629989Y7810371D01*
X2620465Y7810371D01*
X2625227Y7786562D02*
X2615703Y7791324D01*
X2606180Y7800848D01*
X2601418Y7819895D01*
X2601418Y7853229D01*
X2606180Y7872276D01*
X2615703Y7881800D01*
X2625227Y7886562D01*
X2644275Y7886562D01*
X2653799Y7881800D01*
X2663322Y7872276D01*
X2668084Y7853229D01*
X2668084Y7819895D01*
X2663322Y7800848D01*
X2653799Y7791324D01*
X2644275Y7786562D01*
X2625227Y7786562D01*
X2701418Y7886562D02*
X2763322Y7886562D01*
X2729989Y7848467D01*
X2744275Y7848467D01*
X2753799Y7843705D01*
X2758560Y7838943D01*
X2763322Y7829419D01*
X2763322Y7805610D01*
X2758560Y7796086D01*
X2753799Y7791324D01*
X2744275Y7786562D01*
X2715703Y7786562D01*
X2706180Y7791324D01*
X2701418Y7796086D01*
X1879096Y7777038D02*
X1869572Y7781800D01*
X1860048Y7791324D01*
X1845763Y7805610D01*
X1836239Y7810371D01*
X1826715Y7810371D01*
X1831477Y7786562D02*
X1821953Y7791324D01*
X1812429Y7800848D01*
X1807668Y7819895D01*
X1807668Y7853229D01*
X1812429Y7872276D01*
X1821953Y7881800D01*
X1831477Y7886562D01*
X1850525Y7886562D01*
X1860048Y7881800D01*
X1869572Y7872276D01*
X1874334Y7853229D01*
X1874334Y7819895D01*
X1869572Y7800848D01*
X1860048Y7791324D01*
X1850525Y7786562D01*
X1831477Y7786562D01*
X1960048Y7853229D02*
X1960048Y7786562D01*
X1936239Y7891324D02*
X1912429Y7819895D01*
X1974334Y7819895D01*
X1078996Y7777038D02*
X1069472Y7781800D01*
X1059949Y7791324D01*
X1045663Y7805610D01*
X1036139Y7810371D01*
X1026615Y7810371D01*
X1031377Y7786562D02*
X1021853Y7791324D01*
X1012329Y7800848D01*
X1007568Y7819895D01*
X1007568Y7853229D01*
X1012329Y7872276D01*
X1021853Y7881800D01*
X1031377Y7886562D01*
X1050425Y7886562D01*
X1059949Y7881800D01*
X1069472Y7872276D01*
X1074234Y7853229D01*
X1074234Y7819895D01*
X1069472Y7800848D01*
X1059949Y7791324D01*
X1050425Y7786562D01*
X1031377Y7786562D01*
X1164710Y7886562D02*
X1117091Y7886562D01*
X1112330Y7838943D01*
X1117091Y7843705D01*
X1126615Y7848467D01*
X1150425Y7848467D01*
X1159949Y7843705D01*
X1164710Y7838943D01*
X1169472Y7829419D01*
X1169472Y7805610D01*
X1164710Y7796086D01*
X1159949Y7791324D01*
X1150425Y7786562D01*
X1126615Y7786562D01*
X1117091Y7791324D01*
X1112330Y7796086D01*
X278896Y7777038D02*
X269372Y7781800D01*
X259848Y7791324D01*
X245563Y7805610D01*
X236039Y7810371D01*
X226515Y7810371D01*
X231277Y7786562D02*
X221753Y7791324D01*
X212229Y7800848D01*
X207468Y7819895D01*
X207468Y7853229D01*
X212229Y7872276D01*
X221753Y7881800D01*
X231277Y7886562D01*
X250325Y7886562D01*
X259848Y7881800D01*
X269372Y7872276D01*
X274134Y7853229D01*
X274134Y7819895D01*
X269372Y7800848D01*
X259848Y7791324D01*
X250325Y7786562D01*
X231277Y7786562D01*
X359848Y7886562D02*
X340801Y7886562D01*
X331277Y7881800D01*
X326515Y7877038D01*
X316991Y7862752D01*
X312230Y7843705D01*
X312230Y7805610D01*
X316991Y7796086D01*
X321753Y7791324D01*
X331277Y7786562D01*
X350325Y7786562D01*
X359848Y7791324D01*
X364610Y7796086D01*
X369372Y7805610D01*
X369372Y7829419D01*
X364610Y7838943D01*
X359848Y7843705D01*
X350325Y7848467D01*
X331277Y7848467D01*
X321753Y7843705D01*
X316991Y7838943D01*
X312230Y7829419D01*
X1033043Y6074602D02*
X999710Y6122221D01*
X975900Y6074602D02*
X975900Y6174602D01*
X1013996Y6174602D01*
X1023519Y6169840D01*
X1028281Y6165078D01*
X1033043Y6155554D01*
X1033043Y6141269D01*
X1028281Y6131745D01*
X1023519Y6126983D01*
X1013996Y6122221D01*
X975900Y6122221D01*
X1128281Y6074602D02*
X1071139Y6074602D01*
X1099710Y6074602D02*
X1099710Y6174602D01*
X1090186Y6160316D01*
X1080662Y6150792D01*
X1071139Y6146030D01*
X1030503Y5684712D02*
X997170Y5732331D01*
X973360Y5684712D02*
X973360Y5784712D01*
X1011456Y5784712D01*
X1020979Y5779950D01*
X1025741Y5775188D01*
X1030503Y5765664D01*
X1030503Y5751379D01*
X1025741Y5741855D01*
X1020979Y5737093D01*
X1011456Y5732331D01*
X973360Y5732331D01*
X1068599Y5775188D02*
X1073360Y5779950D01*
X1082884Y5784712D01*
X1106694Y5784712D01*
X1116218Y5779950D01*
X1120980Y5775188D01*
X1125741Y5765664D01*
X1125741Y5756140D01*
X1120980Y5741855D01*
X1063837Y5684712D01*
X1125741Y5684712D01*
X3665953Y5421962D02*
X3632620Y5469581D01*
X3608810Y5421962D02*
X3608810Y5521962D01*
X3646906Y5521962D01*
X3656429Y5517200D01*
X3661191Y5512438D01*
X3665953Y5502914D01*
X3665953Y5488629D01*
X3661191Y5479105D01*
X3656429Y5474343D01*
X3646906Y5469581D01*
X3608810Y5469581D01*
X3699287Y5521962D02*
X3761191Y5521962D01*
X3727858Y5483867D01*
X3742144Y5483867D01*
X3751668Y5479105D01*
X3756429Y5474343D01*
X3761191Y5464819D01*
X3761191Y5441010D01*
X3756429Y5431486D01*
X3751668Y5426724D01*
X3742144Y5421962D01*
X3713572Y5421962D01*
X3704048Y5426724D01*
X3699287Y5431486D01*
X3665953Y5218762D02*
X3632620Y5266381D01*
X3608810Y5218762D02*
X3608810Y5318762D01*
X3646906Y5318762D01*
X3656429Y5314000D01*
X3661191Y5309238D01*
X3665953Y5299714D01*
X3665953Y5285429D01*
X3661191Y5275905D01*
X3656429Y5271143D01*
X3646906Y5266381D01*
X3608810Y5266381D01*
X3751668Y5285429D02*
X3751668Y5218762D01*
X3727858Y5323524D02*
X3704048Y5252095D01*
X3765953Y5252095D01*
X3665953Y5015562D02*
X3632620Y5063181D01*
X3608810Y5015562D02*
X3608810Y5115562D01*
X3646906Y5115562D01*
X3656429Y5110800D01*
X3661191Y5106038D01*
X3665953Y5096514D01*
X3665953Y5082229D01*
X3661191Y5072705D01*
X3656429Y5067943D01*
X3646906Y5063181D01*
X3608810Y5063181D01*
X3756429Y5115562D02*
X3708810Y5115562D01*
X3704048Y5067943D01*
X3708810Y5072705D01*
X3718334Y5077467D01*
X3742144Y5077467D01*
X3751668Y5072705D01*
X3756429Y5067943D01*
X3761191Y5058419D01*
X3761191Y5034610D01*
X3756429Y5025086D01*
X3751668Y5020324D01*
X3742144Y5015562D01*
X3718334Y5015562D01*
X3708810Y5020324D01*
X3704048Y5025086D01*
X4640553Y7761162D02*
X4607220Y7808781D01*
X4583410Y7761162D02*
X4583410Y7861162D01*
X4621506Y7861162D01*
X4631030Y7856400D01*
X4635791Y7851638D01*
X4640553Y7842114D01*
X4640553Y7827829D01*
X4635791Y7818305D01*
X4631030Y7813543D01*
X4621506Y7808781D01*
X4583410Y7808781D01*
X4726268Y7861162D02*
X4707220Y7861162D01*
X4697696Y7856400D01*
X4692934Y7851638D01*
X4683410Y7837352D01*
X4678649Y7818305D01*
X4678649Y7780210D01*
X4683410Y7770686D01*
X4688172Y7765924D01*
X4697696Y7761162D01*
X4716744Y7761162D01*
X4726268Y7765924D01*
X4731030Y7770686D01*
X4735791Y7780210D01*
X4735791Y7804019D01*
X4731030Y7813543D01*
X4726268Y7818305D01*
X4716744Y7823067D01*
X4697696Y7823067D01*
X4688172Y7818305D01*
X4683410Y7813543D01*
X4678649Y7804019D01*
X3851717Y7761162D02*
X3818384Y7808781D01*
X3794574Y7761162D02*
X3794574Y7861162D01*
X3832670Y7861162D01*
X3842193Y7856400D01*
X3846955Y7851638D01*
X3851717Y7842114D01*
X3851717Y7827829D01*
X3846955Y7818305D01*
X3842193Y7813543D01*
X3832670Y7808781D01*
X3794574Y7808781D01*
X3885051Y7861162D02*
X3951717Y7861162D01*
X3908860Y7761162D01*
X3053749Y7761162D02*
X3020416Y7808781D01*
X2996606Y7761162D02*
X2996606Y7861162D01*
X3034702Y7861162D01*
X3044225Y7856400D01*
X3048987Y7851638D01*
X3053749Y7842114D01*
X3053749Y7827829D01*
X3048987Y7818305D01*
X3044225Y7813543D01*
X3034702Y7808781D01*
X2996606Y7808781D01*
X3110892Y7818305D02*
X3101368Y7823067D01*
X3096606Y7827829D01*
X3091844Y7837352D01*
X3091844Y7842114D01*
X3096606Y7851638D01*
X3101368Y7856400D01*
X3110892Y7861162D01*
X3129940Y7861162D01*
X3139464Y7856400D01*
X3144225Y7851638D01*
X3148987Y7842114D01*
X3148987Y7837352D01*
X3144225Y7827829D01*
X3139464Y7823067D01*
X3129940Y7818305D01*
X3110892Y7818305D01*
X3101368Y7813543D01*
X3096606Y7808781D01*
X3091844Y7799257D01*
X3091844Y7780210D01*
X3096606Y7770686D01*
X3101368Y7765924D01*
X3110892Y7761162D01*
X3129940Y7761162D01*
X3139464Y7765924D01*
X3144225Y7770686D01*
X3148987Y7780210D01*
X3148987Y7799257D01*
X3144225Y7808781D01*
X3139464Y7813543D01*
X3129940Y7818305D01*
X2252953Y7761162D02*
X2219620Y7808781D01*
X2195810Y7761162D02*
X2195810Y7861162D01*
X2233906Y7861162D01*
X2243430Y7856400D01*
X2248191Y7851638D01*
X2252953Y7842114D01*
X2252953Y7827829D01*
X2248191Y7818305D01*
X2243430Y7813543D01*
X2233906Y7808781D01*
X2195810Y7808781D01*
X2300572Y7761162D02*
X2319620Y7761162D01*
X2329144Y7765924D01*
X2333906Y7770686D01*
X2343430Y7784971D01*
X2348191Y7804019D01*
X2348191Y7842114D01*
X2343430Y7851638D01*
X2338668Y7856400D01*
X2329144Y7861162D01*
X2310096Y7861162D01*
X2300572Y7856400D01*
X2295810Y7851638D01*
X2291049Y7842114D01*
X2291049Y7818305D01*
X2295810Y7808781D01*
X2300572Y7804019D01*
X2310096Y7799257D01*
X2329144Y7799257D01*
X2338668Y7804019D01*
X2343430Y7808781D01*
X2348191Y7818305D01*
X1408162Y7761162D02*
X1374829Y7808781D01*
X1351019Y7761162D02*
X1351019Y7861162D01*
X1389115Y7861162D01*
X1398638Y7856400D01*
X1403400Y7851638D01*
X1408162Y7842114D01*
X1408162Y7827829D01*
X1403400Y7818305D01*
X1398638Y7813543D01*
X1389115Y7808781D01*
X1351019Y7808781D01*
X1503400Y7761162D02*
X1446257Y7761162D01*
X1474829Y7761162D02*
X1474829Y7861162D01*
X1465305Y7846876D01*
X1455781Y7837352D01*
X1446257Y7832590D01*
X1565305Y7861162D02*
X1574829Y7861162D01*
X1584353Y7856400D01*
X1589115Y7851638D01*
X1593876Y7842114D01*
X1598638Y7823067D01*
X1598638Y7799257D01*
X1593876Y7780210D01*
X1589115Y7770686D01*
X1584353Y7765924D01*
X1574829Y7761162D01*
X1565305Y7761162D01*
X1555781Y7765924D01*
X1551019Y7770686D01*
X1546257Y7780210D01*
X1541496Y7799257D01*
X1541496Y7823067D01*
X1546257Y7842114D01*
X1551019Y7851638D01*
X1555781Y7856400D01*
X1565305Y7861162D01*
X609940Y7761162D02*
X576607Y7808781D01*
X552797Y7761162D02*
X552797Y7861162D01*
X590893Y7861162D01*
X600416Y7856400D01*
X605178Y7851638D01*
X609940Y7842114D01*
X609940Y7827829D01*
X605178Y7818305D01*
X600416Y7813543D01*
X590893Y7808781D01*
X552797Y7808781D01*
X705178Y7761162D02*
X648036Y7761162D01*
X676607Y7761162D02*
X676607Y7861162D01*
X667083Y7846876D01*
X657559Y7837352D01*
X648036Y7832590D01*
X800416Y7761162D02*
X743274Y7761162D01*
X771845Y7761162D02*
X771845Y7861162D01*
X762321Y7846876D01*
X752797Y7837352D01*
X743274Y7832590D01*
X323816Y4792707D02*
X328578Y4806992D01*
X328578Y4830802D01*
X323816Y4840326D01*
X319054Y4845088D01*
X309530Y4849850D01*
X300007Y4849850D01*
X290483Y4845088D01*
X285721Y4840326D01*
X280959Y4830802D01*
X276197Y4811754D01*
X271435Y4802231D01*
X266673Y4797469D01*
X257149Y4792707D01*
X247626Y4792707D01*
X238102Y4797469D01*
X233340Y4802231D01*
X228578Y4811754D01*
X228578Y4835564D01*
X233340Y4849850D01*
X228578Y4883183D02*
X328578Y4906992D01*
X257149Y4926040D01*
X328578Y4945088D01*
X228578Y4968897D01*
X328578Y5059373D02*
X328578Y5002231D01*
X328578Y5030802D02*
X228578Y5030802D01*
X242864Y5021278D01*
X252388Y5011754D01*
X257149Y5002231D01*
X1419499Y1766056D02*
X1433784Y1761294D01*
X1457594Y1761294D01*
X1467118Y1766056D01*
X1471880Y1770818D01*
X1476641Y1780342D01*
X1476641Y1789865D01*
X1471880Y1799389D01*
X1467118Y1804151D01*
X1457594Y1808913D01*
X1438546Y1813675D01*
X1429022Y1818437D01*
X1424260Y1823199D01*
X1419499Y1832722D01*
X1419499Y1842246D01*
X1424260Y1851770D01*
X1429022Y1856532D01*
X1438546Y1861294D01*
X1462356Y1861294D01*
X1476641Y1856532D01*
X1509975Y1861294D02*
X1533784Y1761294D01*
X1552832Y1832722D01*
X1571880Y1761294D01*
X1595689Y1861294D01*
X1629022Y1851770D02*
X1633784Y1856532D01*
X1643308Y1861294D01*
X1667118Y1861294D01*
X1676641Y1856532D01*
X1681403Y1851770D01*
X1686165Y1842246D01*
X1686165Y1832722D01*
X1681403Y1818437D01*
X1624260Y1761294D01*
X1686165Y1761294D01*
X3154658Y1761210D02*
X3235610Y1761210D01*
X3245134Y1765971D01*
X3249896Y1770733D01*
X3254658Y1780257D01*
X3254658Y1799305D01*
X3249896Y1808829D01*
X3245134Y1813590D01*
X3235610Y1818352D01*
X3154658Y1818352D01*
X3164182Y1861210D02*
X3159420Y1865971D01*
X3154658Y1875495D01*
X3154658Y1899305D01*
X3159420Y1908829D01*
X3164182Y1913590D01*
X3173706Y1918352D01*
X3183229Y1918352D01*
X3197515Y1913590D01*
X3254658Y1856448D01*
X3254658Y1918352D01*
X1320464Y311952D02*
X1287131Y359571D01*
X1263321Y311952D02*
X1263321Y411952D01*
X1301417Y411952D01*
X1310940Y407190D01*
X1315702Y402428D01*
X1320464Y392904D01*
X1320464Y378619D01*
X1315702Y369095D01*
X1310940Y364333D01*
X1301417Y359571D01*
X1263321Y359571D01*
X1415702Y311952D02*
X1358560Y311952D01*
X1387131Y311952D02*
X1387131Y411952D01*
X1377607Y397666D01*
X1368083Y388142D01*
X1358560Y383380D01*
X1453798Y402428D02*
X1458559Y407190D01*
X1468083Y411952D01*
X1491893Y411952D01*
X1501417Y407190D01*
X1506178Y402428D01*
X1510940Y392904D01*
X1510940Y383380D01*
X1506178Y369095D01*
X1449036Y311952D01*
X1510940Y311952D01*
X2960597Y2843848D02*
X2955835Y2839086D01*
X2941550Y2834324D01*
X2932026Y2834324D01*
X2917740Y2839086D01*
X2908216Y2848610D01*
X2903454Y2858133D01*
X2898692Y2877181D01*
X2898692Y2891467D01*
X2903454Y2910514D01*
X2908216Y2920038D01*
X2917740Y2929562D01*
X2932026Y2934324D01*
X2941550Y2934324D01*
X2955835Y2929562D01*
X2960597Y2924800D01*
X3017740Y2891467D02*
X3008216Y2896229D01*
X3003454Y2900991D01*
X2998692Y2910514D01*
X2998692Y2915276D01*
X3003454Y2924800D01*
X3008216Y2929562D01*
X3017740Y2934324D01*
X3036788Y2934324D01*
X3046312Y2929562D01*
X3051073Y2924800D01*
X3055835Y2915276D01*
X3055835Y2910514D01*
X3051073Y2900991D01*
X3046312Y2896229D01*
X3036788Y2891467D01*
X3017740Y2891467D01*
X3008216Y2886705D01*
X3003454Y2881943D01*
X2998692Y2872419D01*
X2998692Y2853372D01*
X3003454Y2843848D01*
X3008216Y2839086D01*
X3017740Y2834324D01*
X3036788Y2834324D01*
X3046312Y2839086D01*
X3051073Y2843848D01*
X3055835Y2853372D01*
X3055835Y2872419D01*
X3051073Y2881943D01*
X3046312Y2886705D01*
X3036788Y2891467D01*
X1945359Y3872548D02*
X1940597Y3867786D01*
X1926312Y3863024D01*
X1916788Y3863024D01*
X1902502Y3867786D01*
X1892978Y3877310D01*
X1888216Y3886833D01*
X1883454Y3905881D01*
X1883454Y3920167D01*
X1888216Y3939214D01*
X1892978Y3948738D01*
X1902502Y3958262D01*
X1916788Y3963024D01*
X1926312Y3963024D01*
X1940597Y3958262D01*
X1945359Y3953500D01*
X1983454Y3953500D02*
X1988216Y3958262D01*
X1997740Y3963024D01*
X2021550Y3963024D01*
X2031074Y3958262D01*
X2035835Y3953500D01*
X2040597Y3943976D01*
X2040597Y3934452D01*
X2035835Y3920167D01*
X1978693Y3863024D01*
X2040597Y3863024D01*
X1186153Y4783646D02*
X1181391Y4778884D01*
X1167106Y4774122D01*
X1157582Y4774122D01*
X1143296Y4778884D01*
X1133772Y4788408D01*
X1129010Y4797932D01*
X1124249Y4816979D01*
X1124249Y4831265D01*
X1129010Y4850312D01*
X1133772Y4859836D01*
X1143296Y4869360D01*
X1157582Y4874122D01*
X1167106Y4874122D01*
X1181391Y4869360D01*
X1186153Y4864598D01*
X1233772Y4774122D02*
X1252820Y4774122D01*
X1262344Y4778884D01*
X1267106Y4783646D01*
X1276630Y4797932D01*
X1281391Y4816979D01*
X1281391Y4855074D01*
X1276630Y4864598D01*
X1271868Y4869360D01*
X1262344Y4874122D01*
X1243296Y4874122D01*
X1233772Y4869360D01*
X1229010Y4864598D01*
X1224249Y4855074D01*
X1224249Y4831265D01*
X1229010Y4821741D01*
X1233772Y4816979D01*
X1243296Y4812217D01*
X1262344Y4812217D01*
X1271868Y4816979D01*
X1276630Y4821741D01*
X1281391Y4831265D01*
X3137487Y1421382D02*
X3137487Y1349953D01*
X3132725Y1335668D01*
X3123201Y1326144D01*
X3108915Y1321382D01*
X3099391Y1321382D01*
X3232725Y1421382D02*
X3185106Y1421382D01*
X3180344Y1373763D01*
X3185106Y1378525D01*
X3194629Y1383287D01*
X3218439Y1383287D01*
X3227963Y1378525D01*
X3232725Y1373763D01*
X3237487Y1364239D01*
X3237487Y1340430D01*
X3232725Y1330906D01*
X3227963Y1326144D01*
X3218439Y1321382D01*
X3194629Y1321382D01*
X3185106Y1326144D01*
X3180344Y1330906D01*
X417810Y3599562D02*
X417810Y3699562D01*
X441620Y3699562D01*
X455906Y3694800D01*
X465429Y3685276D01*
X470191Y3675752D01*
X474953Y3656705D01*
X474953Y3642419D01*
X470191Y3623371D01*
X465429Y3613848D01*
X455906Y3604324D01*
X441620Y3599562D01*
X417810Y3599562D01*
X570191Y3599562D02*
X513048Y3599562D01*
X541620Y3599562D02*
X541620Y3699562D01*
X532096Y3685276D01*
X522572Y3675752D01*
X513048Y3670990D01*
X1231802Y4079434D02*
X1184183Y4046101D01*
X1231802Y4022291D02*
X1131802Y4022291D01*
X1131802Y4060387D01*
X1136564Y4069910D01*
X1141326Y4074672D01*
X1150850Y4079434D01*
X1165135Y4079434D01*
X1174659Y4074672D01*
X1179421Y4069910D01*
X1184183Y4060387D01*
X1184183Y4022291D01*
X1231802Y4174672D02*
X1231802Y4117530D01*
X1231802Y4146101D02*
X1131802Y4146101D01*
X1146088Y4136577D01*
X1155612Y4127053D01*
X1160374Y4117530D01*
X1131802Y4208006D02*
X1131802Y4269911D01*
X1169897Y4236577D01*
X1169897Y4250863D01*
X1174659Y4260387D01*
X1179421Y4265149D01*
X1188945Y4269911D01*
X1212754Y4269911D01*
X1222278Y4265149D01*
X1227040Y4260387D01*
X1231802Y4250863D01*
X1231802Y4222292D01*
X1227040Y4212768D01*
X1222278Y4208006D01*
X1001170Y4079434D02*
X953551Y4046101D01*
X1001170Y4022291D02*
X901170Y4022291D01*
X901170Y4060387D01*
X905932Y4069910D01*
X910694Y4074672D01*
X920218Y4079434D01*
X934503Y4079434D01*
X944027Y4074672D01*
X948789Y4069910D01*
X953551Y4060387D01*
X953551Y4022291D01*
X1001170Y4174672D02*
X1001170Y4117530D01*
X1001170Y4146101D02*
X901170Y4146101D01*
X915456Y4136577D01*
X924980Y4127053D01*
X929741Y4117530D01*
X934503Y4260387D02*
X1001170Y4260387D01*
X896408Y4236577D02*
X967837Y4212768D01*
X967837Y4274672D01*
%LPC*%
D15*
X1954480Y2932020D03*
D16*
X1324480Y2704020D03*
X1324480Y3160020D03*
D17*
X1653000Y6116000D03*
X1653000Y5916000D03*
X1653000Y5716000D03*
X1653000Y5516000D03*
X1653000Y5316000D03*
X1653000Y5116000D03*
X1653000Y4916000D03*
X1653000Y4716000D03*
X3173000Y4716000D03*
X3173000Y4916000D03*
X3173000Y5116000D03*
X3173000Y5316000D03*
X3173000Y5516000D03*
X3173000Y5716000D03*
X3173000Y5916000D03*
X3173000Y6116000D03*
D18*
G36*
X882933Y3033972D02*
G01*
X885514Y3033589D01*
X888046Y3032955D01*
X890503Y3032076D01*
X892862Y3030960D01*
X895101Y3029618D01*
X897197Y3028063D01*
X899131Y3026311D01*
X900883Y3024377D01*
X902438Y3022281D01*
X903780Y3020042D01*
X904896Y3017683D01*
X905775Y3015226D01*
X906409Y3012694D01*
X906792Y3010113D01*
X906920Y3007506D01*
X906920Y2700494D01*
X906792Y2697887D01*
X906409Y2695306D01*
X905775Y2692774D01*
X904896Y2690317D01*
X903780Y2687958D01*
X902438Y2685719D01*
X900883Y2683623D01*
X899131Y2681689D01*
X897197Y2679937D01*
X895101Y2678382D01*
X892862Y2677040D01*
X890503Y2675924D01*
X888046Y2675045D01*
X885514Y2674411D01*
X882933Y2674028D01*
X880326Y2673900D01*
X763314Y2673900D01*
X760707Y2674028D01*
X758125Y2674411D01*
X755594Y2675045D01*
X753137Y2675924D01*
X750777Y2677040D01*
X748539Y2678382D01*
X746443Y2679937D01*
X744509Y2681689D01*
X742756Y2683623D01*
X741202Y2685719D01*
X739860Y2687958D01*
X738744Y2690317D01*
X737865Y2692774D01*
X737231Y2695306D01*
X736848Y2697887D01*
X736720Y2700494D01*
X736720Y3007506D01*
X736848Y3010113D01*
X737231Y3012694D01*
X737865Y3015226D01*
X738744Y3017683D01*
X739860Y3020042D01*
X741202Y3022281D01*
X742756Y3024377D01*
X744509Y3026311D01*
X746443Y3028063D01*
X748539Y3029618D01*
X750777Y3030960D01*
X753137Y3032076D01*
X755594Y3032955D01*
X758125Y3033589D01*
X760707Y3033972D01*
X763314Y3034100D01*
X880326Y3034100D01*
X882933Y3033972D01*
X882933Y3033972D01*
G37*
D19*
X821820Y2854000D03*
D18*
G36*
X882933Y2473972D02*
G01*
X885514Y2473589D01*
X888046Y2472955D01*
X890503Y2472076D01*
X892862Y2470960D01*
X895101Y2469618D01*
X897197Y2468064D01*
X899131Y2466311D01*
X900883Y2464377D01*
X902438Y2462281D01*
X903780Y2460043D01*
X904896Y2457683D01*
X905775Y2455226D01*
X906409Y2452695D01*
X906792Y2450113D01*
X906920Y2447506D01*
X906920Y2140494D01*
X906792Y2137887D01*
X906409Y2135306D01*
X905775Y2132774D01*
X904896Y2130317D01*
X903780Y2127958D01*
X902438Y2125719D01*
X900883Y2123623D01*
X899131Y2121689D01*
X897197Y2119937D01*
X895101Y2118382D01*
X892862Y2117040D01*
X890503Y2115924D01*
X888046Y2115045D01*
X885514Y2114411D01*
X882933Y2114028D01*
X880326Y2113900D01*
X763314Y2113900D01*
X760707Y2114028D01*
X758125Y2114411D01*
X755594Y2115045D01*
X753137Y2115924D01*
X750777Y2117040D01*
X748539Y2118382D01*
X746443Y2119937D01*
X744509Y2121689D01*
X742756Y2123623D01*
X741202Y2125719D01*
X739860Y2127958D01*
X738744Y2130317D01*
X737865Y2132774D01*
X737231Y2135306D01*
X736848Y2137887D01*
X736720Y2140494D01*
X736720Y2447506D01*
X736848Y2450113D01*
X737231Y2452695D01*
X737865Y2455226D01*
X738744Y2457683D01*
X739860Y2460043D01*
X741202Y2462281D01*
X742756Y2464377D01*
X744509Y2466311D01*
X746443Y2468064D01*
X748539Y2469618D01*
X750777Y2470960D01*
X753137Y2472076D01*
X755594Y2472955D01*
X758125Y2473589D01*
X760707Y2473972D01*
X763314Y2474100D01*
X880326Y2474100D01*
X882933Y2473972D01*
X882933Y2473972D01*
G37*
D19*
X821820Y2294000D03*
D20*
X536820Y1135520D03*
D18*
G36*
X646971Y690247D02*
G01*
X654499Y689130D01*
X661882Y687281D01*
X669047Y684717D01*
X675927Y681463D01*
X682455Y677551D01*
X688567Y673017D01*
X694206Y667906D01*
X699317Y662267D01*
X703850Y656155D01*
X707763Y649627D01*
X711017Y642747D01*
X713581Y635582D01*
X715430Y628199D01*
X716547Y620671D01*
X716920Y613070D01*
X716920Y457970D01*
X716547Y450369D01*
X715430Y442841D01*
X713581Y435458D01*
X711017Y428293D01*
X707763Y421413D01*
X703850Y414885D01*
X699317Y408773D01*
X694206Y403134D01*
X688567Y398023D01*
X682455Y393489D01*
X675927Y389577D01*
X669047Y386323D01*
X661882Y383759D01*
X654499Y381910D01*
X646971Y380793D01*
X639370Y380420D01*
X434270Y380420D01*
X426669Y380793D01*
X419141Y381910D01*
X411758Y383759D01*
X404593Y386323D01*
X397713Y389577D01*
X391185Y393489D01*
X385073Y398023D01*
X379434Y403134D01*
X374323Y408773D01*
X369789Y414885D01*
X365877Y421413D01*
X362623Y428293D01*
X360059Y435458D01*
X358210Y442841D01*
X357093Y450369D01*
X356720Y457970D01*
X356720Y613070D01*
X357093Y620671D01*
X358210Y628199D01*
X360059Y635582D01*
X362623Y642747D01*
X365877Y649627D01*
X369789Y656155D01*
X374323Y662267D01*
X379434Y667906D01*
X385073Y673017D01*
X391185Y677551D01*
X397713Y681463D01*
X404593Y684717D01*
X411758Y687281D01*
X419141Y689130D01*
X426669Y690247D01*
X434270Y690620D01*
X639370Y690620D01*
X646971Y690247D01*
X646971Y690247D01*
G37*
D21*
X536820Y535520D03*
D18*
G36*
X1105696Y1015186D02*
G01*
X1114438Y1013890D01*
X1123010Y1011742D01*
X1131331Y1008765D01*
X1139319Y1004987D01*
X1146899Y1000444D01*
X1153997Y995180D01*
X1160545Y989245D01*
X1166480Y982697D01*
X1171744Y975599D01*
X1176287Y968019D01*
X1180065Y960031D01*
X1183043Y951710D01*
X1185190Y943138D01*
X1186486Y934396D01*
X1186920Y925570D01*
X1186920Y745470D01*
X1186486Y736644D01*
X1185190Y727902D01*
X1183043Y719330D01*
X1180065Y711009D01*
X1176287Y703021D01*
X1171744Y695441D01*
X1166480Y688343D01*
X1160545Y681795D01*
X1153997Y675860D01*
X1146899Y670596D01*
X1139319Y666053D01*
X1131331Y662275D01*
X1123010Y659298D01*
X1114438Y657150D01*
X1105696Y655854D01*
X1096870Y655420D01*
X916770Y655420D01*
X907944Y655854D01*
X899202Y657150D01*
X890630Y659298D01*
X882309Y662275D01*
X874321Y666053D01*
X866741Y670596D01*
X859643Y675860D01*
X853095Y681795D01*
X847160Y688343D01*
X841896Y695441D01*
X837353Y703021D01*
X833575Y711009D01*
X830597Y719330D01*
X828450Y727902D01*
X827154Y736644D01*
X826720Y745470D01*
X826720Y925570D01*
X827154Y934396D01*
X828450Y943138D01*
X830597Y951710D01*
X833575Y960031D01*
X837353Y968019D01*
X841896Y975599D01*
X847160Y982697D01*
X853095Y989245D01*
X859643Y995180D01*
X866741Y1000444D01*
X874321Y1004987D01*
X882309Y1008765D01*
X890630Y1011742D01*
X899202Y1013890D01*
X907944Y1015186D01*
X916770Y1015620D01*
X1096870Y1015620D01*
X1105696Y1015186D01*
X1105696Y1015186D01*
G37*
D22*
X1006820Y835520D03*
D23*
X4186000Y8066000D03*
X4386000Y8161000D03*
X4386000Y7971000D03*
D18*
G36*
X2890970Y2058419D02*
G01*
X2893612Y2058027D01*
X2896203Y2057378D01*
X2898718Y2056478D01*
X2901133Y2055336D01*
X2903424Y2053963D01*
X2905569Y2052372D01*
X2907548Y2050578D01*
X2909342Y2048599D01*
X2910933Y2046454D01*
X2912306Y2044163D01*
X2913448Y2041748D01*
X2914348Y2039233D01*
X2914997Y2036642D01*
X2915389Y2034000D01*
X2915520Y2031333D01*
X2915520Y1935567D01*
X2915389Y1932899D01*
X2914997Y1930257D01*
X2914348Y1927666D01*
X2913448Y1925152D01*
X2912306Y1922737D01*
X2910933Y1920446D01*
X2909342Y1918301D01*
X2907548Y1916322D01*
X2905569Y1914528D01*
X2903424Y1912937D01*
X2901133Y1911564D01*
X2898718Y1910422D01*
X2896203Y1909522D01*
X2893612Y1908873D01*
X2890970Y1908481D01*
X2888303Y1908350D01*
X2817537Y1908350D01*
X2814869Y1908481D01*
X2812227Y1908873D01*
X2809636Y1909522D01*
X2807122Y1910422D01*
X2804707Y1911564D01*
X2802416Y1912937D01*
X2800271Y1914528D01*
X2798292Y1916322D01*
X2796498Y1918301D01*
X2794907Y1920446D01*
X2793534Y1922737D01*
X2792392Y1925152D01*
X2791492Y1927666D01*
X2790843Y1930257D01*
X2790451Y1932899D01*
X2790320Y1935567D01*
X2790320Y2031333D01*
X2790451Y2034000D01*
X2790843Y2036642D01*
X2791492Y2039233D01*
X2792392Y2041748D01*
X2793534Y2044163D01*
X2794907Y2046454D01*
X2796498Y2048599D01*
X2798292Y2050578D01*
X2800271Y2052372D01*
X2802416Y2053963D01*
X2804707Y2055336D01*
X2807122Y2056478D01*
X2809636Y2057378D01*
X2812227Y2058027D01*
X2814869Y2058419D01*
X2817537Y2058550D01*
X2888303Y2058550D01*
X2890970Y2058419D01*
X2890970Y2058419D01*
G37*
D24*
X2852920Y1983450D03*
D18*
G36*
X3095970Y2058419D02*
G01*
X3098612Y2058027D01*
X3101203Y2057378D01*
X3103718Y2056478D01*
X3106133Y2055336D01*
X3108424Y2053963D01*
X3110569Y2052372D01*
X3112548Y2050578D01*
X3114342Y2048599D01*
X3115933Y2046454D01*
X3117306Y2044163D01*
X3118448Y2041748D01*
X3119348Y2039233D01*
X3119997Y2036642D01*
X3120389Y2034000D01*
X3120520Y2031333D01*
X3120520Y1935567D01*
X3120389Y1932899D01*
X3119997Y1930257D01*
X3119348Y1927666D01*
X3118448Y1925152D01*
X3117306Y1922737D01*
X3115933Y1920446D01*
X3114342Y1918301D01*
X3112548Y1916322D01*
X3110569Y1914528D01*
X3108424Y1912937D01*
X3106133Y1911564D01*
X3103718Y1910422D01*
X3101203Y1909522D01*
X3098612Y1908873D01*
X3095970Y1908481D01*
X3093303Y1908350D01*
X3022537Y1908350D01*
X3019869Y1908481D01*
X3017227Y1908873D01*
X3014636Y1909522D01*
X3012122Y1910422D01*
X3009707Y1911564D01*
X3007416Y1912937D01*
X3005271Y1914528D01*
X3003292Y1916322D01*
X3001498Y1918301D01*
X2999907Y1920446D01*
X2998534Y1922737D01*
X2997392Y1925152D01*
X2996492Y1927666D01*
X2995843Y1930257D01*
X2995451Y1932899D01*
X2995320Y1935567D01*
X2995320Y2031333D01*
X2995451Y2034000D01*
X2995843Y2036642D01*
X2996492Y2039233D01*
X2997392Y2041748D01*
X2998534Y2044163D01*
X2999907Y2046454D01*
X3001498Y2048599D01*
X3003292Y2050578D01*
X3005271Y2052372D01*
X3007416Y2053963D01*
X3009707Y2055336D01*
X3012122Y2056478D01*
X3014636Y2057378D01*
X3017227Y2058027D01*
X3019869Y2058419D01*
X3022537Y2058550D01*
X3093303Y2058550D01*
X3095970Y2058419D01*
X3095970Y2058419D01*
G37*
D24*
X3057920Y1983450D03*
D18*
G36*
X858970Y3360169D02*
G01*
X861612Y3359777D01*
X864203Y3359128D01*
X866718Y3358228D01*
X869133Y3357086D01*
X871424Y3355713D01*
X873569Y3354122D01*
X875548Y3352328D01*
X877342Y3350349D01*
X878933Y3348204D01*
X880306Y3345913D01*
X881448Y3343498D01*
X882348Y3340983D01*
X882997Y3338392D01*
X883389Y3335750D01*
X883520Y3333083D01*
X883520Y3237317D01*
X883389Y3234649D01*
X882997Y3232007D01*
X882348Y3229416D01*
X881448Y3226902D01*
X880306Y3224487D01*
X878933Y3222196D01*
X877342Y3220051D01*
X875548Y3218072D01*
X873569Y3216278D01*
X871424Y3214687D01*
X869133Y3213314D01*
X866718Y3212172D01*
X864203Y3211272D01*
X861612Y3210623D01*
X858970Y3210231D01*
X856303Y3210100D01*
X785537Y3210100D01*
X782869Y3210231D01*
X780227Y3210623D01*
X777636Y3211272D01*
X775122Y3212172D01*
X772707Y3213314D01*
X770416Y3214687D01*
X768271Y3216278D01*
X766292Y3218072D01*
X764498Y3220051D01*
X762907Y3222196D01*
X761534Y3224487D01*
X760392Y3226902D01*
X759492Y3229416D01*
X758843Y3232007D01*
X758451Y3234649D01*
X758320Y3237317D01*
X758320Y3333083D01*
X758451Y3335750D01*
X758843Y3338392D01*
X759492Y3340983D01*
X760392Y3343498D01*
X761534Y3345913D01*
X762907Y3348204D01*
X764498Y3350349D01*
X766292Y3352328D01*
X768271Y3354122D01*
X770416Y3355713D01*
X772707Y3357086D01*
X775122Y3358228D01*
X777636Y3359128D01*
X780227Y3359777D01*
X782869Y3360169D01*
X785537Y3360300D01*
X856303Y3360300D01*
X858970Y3360169D01*
X858970Y3360169D01*
G37*
D24*
X820920Y3285200D03*
D18*
G36*
X1063971Y3360169D02*
G01*
X1066613Y3359777D01*
X1069204Y3359128D01*
X1071718Y3358228D01*
X1074133Y3357086D01*
X1076424Y3355713D01*
X1078569Y3354122D01*
X1080548Y3352328D01*
X1082342Y3350349D01*
X1083933Y3348204D01*
X1085306Y3345913D01*
X1086448Y3343498D01*
X1087348Y3340983D01*
X1087997Y3338392D01*
X1088389Y3335750D01*
X1088520Y3333083D01*
X1088520Y3237317D01*
X1088389Y3234649D01*
X1087997Y3232007D01*
X1087348Y3229416D01*
X1086448Y3226902D01*
X1085306Y3224487D01*
X1083933Y3222196D01*
X1082342Y3220051D01*
X1080548Y3218072D01*
X1078569Y3216278D01*
X1076424Y3214687D01*
X1074133Y3213314D01*
X1071718Y3212172D01*
X1069204Y3211272D01*
X1066613Y3210623D01*
X1063971Y3210231D01*
X1061303Y3210100D01*
X990537Y3210100D01*
X987869Y3210231D01*
X985227Y3210623D01*
X982636Y3211272D01*
X980122Y3212172D01*
X977707Y3213314D01*
X975416Y3214687D01*
X973271Y3216278D01*
X971292Y3218072D01*
X969498Y3220051D01*
X967907Y3222196D01*
X966534Y3224487D01*
X965392Y3226902D01*
X964492Y3229416D01*
X963843Y3232007D01*
X963451Y3234649D01*
X963320Y3237317D01*
X963320Y3333083D01*
X963451Y3335750D01*
X963843Y3338392D01*
X964492Y3340983D01*
X965392Y3343498D01*
X966534Y3345913D01*
X967907Y3348204D01*
X969498Y3350349D01*
X971292Y3352328D01*
X973271Y3354122D01*
X975416Y3355713D01*
X977707Y3357086D01*
X980122Y3358228D01*
X982636Y3359128D01*
X985227Y3359777D01*
X987869Y3360169D01*
X990537Y3360300D01*
X1061303Y3360300D01*
X1063971Y3360169D01*
X1063971Y3360169D01*
G37*
D24*
X1025920Y3285200D03*
D18*
G36*
X3095970Y2464819D02*
G01*
X3098612Y2464427D01*
X3101203Y2463778D01*
X3103718Y2462878D01*
X3106133Y2461736D01*
X3108424Y2460363D01*
X3110569Y2458772D01*
X3112548Y2456978D01*
X3114342Y2454999D01*
X3115933Y2452854D01*
X3117306Y2450563D01*
X3118448Y2448148D01*
X3119348Y2445634D01*
X3119997Y2443043D01*
X3120389Y2440401D01*
X3120520Y2437733D01*
X3120520Y2341967D01*
X3120389Y2339300D01*
X3119997Y2336658D01*
X3119348Y2334067D01*
X3118448Y2331552D01*
X3117306Y2329137D01*
X3115933Y2326846D01*
X3114342Y2324701D01*
X3112548Y2322722D01*
X3110569Y2320928D01*
X3108424Y2319337D01*
X3106133Y2317964D01*
X3103718Y2316822D01*
X3101203Y2315922D01*
X3098612Y2315273D01*
X3095970Y2314881D01*
X3093303Y2314750D01*
X3022537Y2314750D01*
X3019869Y2314881D01*
X3017227Y2315273D01*
X3014636Y2315922D01*
X3012122Y2316822D01*
X3009707Y2317964D01*
X3007416Y2319337D01*
X3005271Y2320928D01*
X3003292Y2322722D01*
X3001498Y2324701D01*
X2999907Y2326846D01*
X2998534Y2329137D01*
X2997392Y2331552D01*
X2996492Y2334067D01*
X2995843Y2336658D01*
X2995451Y2339300D01*
X2995320Y2341967D01*
X2995320Y2437733D01*
X2995451Y2440401D01*
X2995843Y2443043D01*
X2996492Y2445634D01*
X2997392Y2448148D01*
X2998534Y2450563D01*
X2999907Y2452854D01*
X3001498Y2454999D01*
X3003292Y2456978D01*
X3005271Y2458772D01*
X3007416Y2460363D01*
X3009707Y2461736D01*
X3012122Y2462878D01*
X3014636Y2463778D01*
X3017227Y2464427D01*
X3019869Y2464819D01*
X3022537Y2464950D01*
X3093303Y2464950D01*
X3095970Y2464819D01*
X3095970Y2464819D01*
G37*
D24*
X3057920Y2389850D03*
D18*
G36*
X2890970Y2464819D02*
G01*
X2893612Y2464427D01*
X2896203Y2463778D01*
X2898718Y2462878D01*
X2901133Y2461736D01*
X2903424Y2460363D01*
X2905569Y2458772D01*
X2907548Y2456978D01*
X2909342Y2454999D01*
X2910933Y2452854D01*
X2912306Y2450563D01*
X2913448Y2448148D01*
X2914348Y2445634D01*
X2914997Y2443043D01*
X2915389Y2440401D01*
X2915520Y2437733D01*
X2915520Y2341967D01*
X2915389Y2339300D01*
X2914997Y2336658D01*
X2914348Y2334067D01*
X2913448Y2331552D01*
X2912306Y2329137D01*
X2910933Y2326846D01*
X2909342Y2324701D01*
X2907548Y2322722D01*
X2905569Y2320928D01*
X2903424Y2319337D01*
X2901133Y2317964D01*
X2898718Y2316822D01*
X2896203Y2315922D01*
X2893612Y2315273D01*
X2890970Y2314881D01*
X2888303Y2314750D01*
X2817537Y2314750D01*
X2814869Y2314881D01*
X2812227Y2315273D01*
X2809636Y2315922D01*
X2807122Y2316822D01*
X2804707Y2317964D01*
X2802416Y2319337D01*
X2800271Y2320928D01*
X2798292Y2322722D01*
X2796498Y2324701D01*
X2794907Y2326846D01*
X2793534Y2329137D01*
X2792392Y2331552D01*
X2791492Y2334067D01*
X2790843Y2336658D01*
X2790451Y2339300D01*
X2790320Y2341967D01*
X2790320Y2437733D01*
X2790451Y2440401D01*
X2790843Y2443043D01*
X2791492Y2445634D01*
X2792392Y2448148D01*
X2793534Y2450563D01*
X2794907Y2452854D01*
X2796498Y2454999D01*
X2798292Y2456978D01*
X2800271Y2458772D01*
X2802416Y2460363D01*
X2804707Y2461736D01*
X2807122Y2462878D01*
X2809636Y2463778D01*
X2812227Y2464427D01*
X2814869Y2464819D01*
X2817537Y2464950D01*
X2888303Y2464950D01*
X2890970Y2464819D01*
X2890970Y2464819D01*
G37*
D24*
X2852920Y2389850D03*
D18*
G36*
X3095970Y2686119D02*
G01*
X3098612Y2685727D01*
X3101203Y2685078D01*
X3103718Y2684178D01*
X3106133Y2683036D01*
X3108424Y2681663D01*
X3110569Y2680072D01*
X3112548Y2678278D01*
X3114342Y2676299D01*
X3115933Y2674154D01*
X3117306Y2671863D01*
X3118448Y2669448D01*
X3119348Y2666934D01*
X3119997Y2664343D01*
X3120389Y2661701D01*
X3120520Y2659033D01*
X3120520Y2563267D01*
X3120389Y2560600D01*
X3119997Y2557958D01*
X3119348Y2555367D01*
X3118448Y2552852D01*
X3117306Y2550437D01*
X3115933Y2548146D01*
X3114342Y2546001D01*
X3112548Y2544022D01*
X3110569Y2542228D01*
X3108424Y2540637D01*
X3106133Y2539264D01*
X3103718Y2538122D01*
X3101203Y2537222D01*
X3098612Y2536573D01*
X3095970Y2536181D01*
X3093303Y2536050D01*
X3022537Y2536050D01*
X3019869Y2536181D01*
X3017227Y2536573D01*
X3014636Y2537222D01*
X3012122Y2538122D01*
X3009707Y2539264D01*
X3007416Y2540637D01*
X3005271Y2542228D01*
X3003292Y2544022D01*
X3001498Y2546001D01*
X2999907Y2548146D01*
X2998534Y2550437D01*
X2997392Y2552852D01*
X2996492Y2555367D01*
X2995843Y2557958D01*
X2995451Y2560600D01*
X2995320Y2563267D01*
X2995320Y2659033D01*
X2995451Y2661701D01*
X2995843Y2664343D01*
X2996492Y2666934D01*
X2997392Y2669448D01*
X2998534Y2671863D01*
X2999907Y2674154D01*
X3001498Y2676299D01*
X3003292Y2678278D01*
X3005271Y2680072D01*
X3007416Y2681663D01*
X3009707Y2683036D01*
X3012122Y2684178D01*
X3014636Y2685078D01*
X3017227Y2685727D01*
X3019869Y2686119D01*
X3022537Y2686250D01*
X3093303Y2686250D01*
X3095970Y2686119D01*
X3095970Y2686119D01*
G37*
D24*
X3057920Y2611150D03*
D18*
G36*
X2890970Y2686119D02*
G01*
X2893612Y2685727D01*
X2896203Y2685078D01*
X2898718Y2684178D01*
X2901133Y2683036D01*
X2903424Y2681663D01*
X2905569Y2680072D01*
X2907548Y2678278D01*
X2909342Y2676299D01*
X2910933Y2674154D01*
X2912306Y2671863D01*
X2913448Y2669448D01*
X2914348Y2666934D01*
X2914997Y2664343D01*
X2915389Y2661701D01*
X2915520Y2659033D01*
X2915520Y2563267D01*
X2915389Y2560600D01*
X2914997Y2557958D01*
X2914348Y2555367D01*
X2913448Y2552852D01*
X2912306Y2550437D01*
X2910933Y2548146D01*
X2909342Y2546001D01*
X2907548Y2544022D01*
X2905569Y2542228D01*
X2903424Y2540637D01*
X2901133Y2539264D01*
X2898718Y2538122D01*
X2896203Y2537222D01*
X2893612Y2536573D01*
X2890970Y2536181D01*
X2888303Y2536050D01*
X2817537Y2536050D01*
X2814869Y2536181D01*
X2812227Y2536573D01*
X2809636Y2537222D01*
X2807122Y2538122D01*
X2804707Y2539264D01*
X2802416Y2540637D01*
X2800271Y2542228D01*
X2798292Y2544022D01*
X2796498Y2546001D01*
X2794907Y2548146D01*
X2793534Y2550437D01*
X2792392Y2552852D01*
X2791492Y2555367D01*
X2790843Y2557958D01*
X2790451Y2560600D01*
X2790320Y2563267D01*
X2790320Y2659033D01*
X2790451Y2661701D01*
X2790843Y2664343D01*
X2791492Y2666934D01*
X2792392Y2669448D01*
X2793534Y2671863D01*
X2794907Y2674154D01*
X2796498Y2676299D01*
X2798292Y2678278D01*
X2800271Y2680072D01*
X2802416Y2681663D01*
X2804707Y2683036D01*
X2807122Y2684178D01*
X2809636Y2685078D01*
X2812227Y2685727D01*
X2814869Y2686119D01*
X2817537Y2686250D01*
X2888303Y2686250D01*
X2890970Y2686119D01*
X2890970Y2686119D01*
G37*
D24*
X2852920Y2611150D03*
D18*
G36*
X3095970Y2261619D02*
G01*
X3098612Y2261227D01*
X3101203Y2260578D01*
X3103718Y2259678D01*
X3106133Y2258536D01*
X3108424Y2257163D01*
X3110569Y2255572D01*
X3112548Y2253778D01*
X3114342Y2251799D01*
X3115933Y2249654D01*
X3117306Y2247363D01*
X3118448Y2244948D01*
X3119348Y2242434D01*
X3119997Y2239843D01*
X3120389Y2237201D01*
X3120520Y2234533D01*
X3120520Y2138767D01*
X3120389Y2136100D01*
X3119997Y2133458D01*
X3119348Y2130867D01*
X3118448Y2128352D01*
X3117306Y2125937D01*
X3115933Y2123646D01*
X3114342Y2121501D01*
X3112548Y2119522D01*
X3110569Y2117728D01*
X3108424Y2116137D01*
X3106133Y2114764D01*
X3103718Y2113622D01*
X3101203Y2112722D01*
X3098612Y2112073D01*
X3095970Y2111681D01*
X3093303Y2111550D01*
X3022537Y2111550D01*
X3019869Y2111681D01*
X3017227Y2112073D01*
X3014636Y2112722D01*
X3012122Y2113622D01*
X3009707Y2114764D01*
X3007416Y2116137D01*
X3005271Y2117728D01*
X3003292Y2119522D01*
X3001498Y2121501D01*
X2999907Y2123646D01*
X2998534Y2125937D01*
X2997392Y2128352D01*
X2996492Y2130867D01*
X2995843Y2133458D01*
X2995451Y2136100D01*
X2995320Y2138767D01*
X2995320Y2234533D01*
X2995451Y2237201D01*
X2995843Y2239843D01*
X2996492Y2242434D01*
X2997392Y2244948D01*
X2998534Y2247363D01*
X2999907Y2249654D01*
X3001498Y2251799D01*
X3003292Y2253778D01*
X3005271Y2255572D01*
X3007416Y2257163D01*
X3009707Y2258536D01*
X3012122Y2259678D01*
X3014636Y2260578D01*
X3017227Y2261227D01*
X3019869Y2261619D01*
X3022537Y2261750D01*
X3093303Y2261750D01*
X3095970Y2261619D01*
X3095970Y2261619D01*
G37*
D24*
X3057920Y2186650D03*
D18*
G36*
X2890970Y2261619D02*
G01*
X2893612Y2261227D01*
X2896203Y2260578D01*
X2898718Y2259678D01*
X2901133Y2258536D01*
X2903424Y2257163D01*
X2905569Y2255572D01*
X2907548Y2253778D01*
X2909342Y2251799D01*
X2910933Y2249654D01*
X2912306Y2247363D01*
X2913448Y2244948D01*
X2914348Y2242434D01*
X2914997Y2239843D01*
X2915389Y2237201D01*
X2915520Y2234533D01*
X2915520Y2138767D01*
X2915389Y2136100D01*
X2914997Y2133458D01*
X2914348Y2130867D01*
X2913448Y2128352D01*
X2912306Y2125937D01*
X2910933Y2123646D01*
X2909342Y2121501D01*
X2907548Y2119522D01*
X2905569Y2117728D01*
X2903424Y2116137D01*
X2901133Y2114764D01*
X2898718Y2113622D01*
X2896203Y2112722D01*
X2893612Y2112073D01*
X2890970Y2111681D01*
X2888303Y2111550D01*
X2817537Y2111550D01*
X2814869Y2111681D01*
X2812227Y2112073D01*
X2809636Y2112722D01*
X2807122Y2113622D01*
X2804707Y2114764D01*
X2802416Y2116137D01*
X2800271Y2117728D01*
X2798292Y2119522D01*
X2796498Y2121501D01*
X2794907Y2123646D01*
X2793534Y2125937D01*
X2792392Y2128352D01*
X2791492Y2130867D01*
X2790843Y2133458D01*
X2790451Y2136100D01*
X2790320Y2138767D01*
X2790320Y2234533D01*
X2790451Y2237201D01*
X2790843Y2239843D01*
X2791492Y2242434D01*
X2792392Y2244948D01*
X2793534Y2247363D01*
X2794907Y2249654D01*
X2796498Y2251799D01*
X2798292Y2253778D01*
X2800271Y2255572D01*
X2802416Y2257163D01*
X2804707Y2258536D01*
X2807122Y2259678D01*
X2809636Y2260578D01*
X2812227Y2261227D01*
X2814869Y2261619D01*
X2817537Y2261750D01*
X2888303Y2261750D01*
X2890970Y2261619D01*
X2890970Y2261619D01*
G37*
D24*
X2852920Y2186650D03*
D25*
X4540000Y8808400D03*
D26*
X4286000Y8808400D03*
X3486000Y8808400D03*
D25*
X3740000Y8808400D03*
X2940000Y8808400D03*
D26*
X2686000Y8808400D03*
D25*
X2140000Y8808400D03*
D26*
X1886000Y8808400D03*
X1086000Y8808400D03*
D25*
X1340000Y8808400D03*
D26*
X286000Y8808400D03*
D25*
X540000Y8808400D03*
D18*
G36*
X853537Y1799332D02*
G01*
X856110Y1798951D01*
X858632Y1798319D01*
X861081Y1797443D01*
X863432Y1796331D01*
X865663Y1794994D01*
X867751Y1793445D01*
X869678Y1791698D01*
X871425Y1789771D01*
X872974Y1787683D01*
X874311Y1785452D01*
X875423Y1783101D01*
X876299Y1780652D01*
X876931Y1778130D01*
X877312Y1775557D01*
X877440Y1772960D01*
X877440Y1615760D01*
X877312Y1613162D01*
X876931Y1610590D01*
X876299Y1608067D01*
X875423Y1605619D01*
X874311Y1603268D01*
X872974Y1601037D01*
X871425Y1598949D01*
X869678Y1597022D01*
X867751Y1595275D01*
X865663Y1593726D01*
X863432Y1592389D01*
X861081Y1591277D01*
X858632Y1590401D01*
X856110Y1589769D01*
X853537Y1589388D01*
X850940Y1589260D01*
X723740Y1589260D01*
X721142Y1589388D01*
X718570Y1589769D01*
X716047Y1590401D01*
X713599Y1591277D01*
X711248Y1592389D01*
X709017Y1593726D01*
X706929Y1595275D01*
X705002Y1597022D01*
X703255Y1598949D01*
X701706Y1601037D01*
X700369Y1603268D01*
X699257Y1605619D01*
X698381Y1608067D01*
X697749Y1610590D01*
X697368Y1613162D01*
X697240Y1615760D01*
X697240Y1772960D01*
X697368Y1775557D01*
X697749Y1778130D01*
X698381Y1780652D01*
X699257Y1783101D01*
X700369Y1785452D01*
X701706Y1787683D01*
X703255Y1789771D01*
X705002Y1791698D01*
X706929Y1793445D01*
X709017Y1794994D01*
X711248Y1796331D01*
X713599Y1797443D01*
X716047Y1798319D01*
X718570Y1798951D01*
X721142Y1799332D01*
X723740Y1799460D01*
X850940Y1799460D01*
X853537Y1799332D01*
X853537Y1799332D01*
G37*
D27*
X787340Y1694360D03*
D28*
X537340Y1694360D03*
D29*
X4521200Y4566000D03*
D30*
X4521200Y4820000D03*
D29*
X4521200Y5368000D03*
D30*
X4521200Y5622000D03*
X4521200Y5876000D03*
D23*
X3586000Y7971000D03*
X3586000Y8161000D03*
X3386000Y8066000D03*
X2586000Y8066000D03*
X2786000Y8161000D03*
X2786000Y7971000D03*
X1786000Y8066000D03*
X1986000Y8161000D03*
X1986000Y7971000D03*
X1186000Y7971000D03*
X1186000Y8161000D03*
X986000Y8066000D03*
X386000Y7971000D03*
X386000Y8161000D03*
X186000Y8066000D03*
D18*
G36*
X1457670Y6190999D02*
G01*
X1460312Y6190607D01*
X1462903Y6189958D01*
X1465418Y6189058D01*
X1467833Y6187916D01*
X1470124Y6186543D01*
X1472269Y6184952D01*
X1474248Y6183158D01*
X1476042Y6181179D01*
X1477633Y6179034D01*
X1479006Y6176743D01*
X1480148Y6174328D01*
X1481048Y6171813D01*
X1481697Y6169222D01*
X1482089Y6166580D01*
X1482220Y6163913D01*
X1482220Y6068147D01*
X1482089Y6065479D01*
X1481697Y6062837D01*
X1481048Y6060246D01*
X1480148Y6057732D01*
X1479006Y6055317D01*
X1477633Y6053026D01*
X1476042Y6050881D01*
X1474248Y6048902D01*
X1472269Y6047108D01*
X1470124Y6045517D01*
X1467833Y6044144D01*
X1465418Y6043002D01*
X1462903Y6042102D01*
X1460312Y6041453D01*
X1457670Y6041061D01*
X1455003Y6040930D01*
X1384237Y6040930D01*
X1381570Y6041061D01*
X1378928Y6041453D01*
X1376337Y6042102D01*
X1373822Y6043002D01*
X1371407Y6044144D01*
X1369116Y6045517D01*
X1366971Y6047108D01*
X1364992Y6048902D01*
X1363198Y6050881D01*
X1361607Y6053026D01*
X1360234Y6055317D01*
X1359092Y6057732D01*
X1358192Y6060246D01*
X1357543Y6062837D01*
X1357151Y6065479D01*
X1357020Y6068147D01*
X1357020Y6163913D01*
X1357151Y6166580D01*
X1357543Y6169222D01*
X1358192Y6171813D01*
X1359092Y6174328D01*
X1360234Y6176743D01*
X1361607Y6179034D01*
X1363198Y6181179D01*
X1364992Y6183158D01*
X1366971Y6184952D01*
X1369116Y6186543D01*
X1371407Y6187916D01*
X1373822Y6189058D01*
X1376337Y6189958D01*
X1378928Y6190607D01*
X1381570Y6190999D01*
X1384237Y6191130D01*
X1455003Y6191130D01*
X1457670Y6190999D01*
X1457670Y6190999D01*
G37*
D24*
X1419620Y6116030D03*
D18*
G36*
X1252671Y6190999D02*
G01*
X1255313Y6190607D01*
X1257904Y6189958D01*
X1260418Y6189058D01*
X1262833Y6187916D01*
X1265124Y6186543D01*
X1267269Y6184952D01*
X1269248Y6183158D01*
X1271042Y6181179D01*
X1272633Y6179034D01*
X1274006Y6176743D01*
X1275148Y6174328D01*
X1276048Y6171813D01*
X1276697Y6169222D01*
X1277089Y6166580D01*
X1277220Y6163913D01*
X1277220Y6068147D01*
X1277089Y6065479D01*
X1276697Y6062837D01*
X1276048Y6060246D01*
X1275148Y6057732D01*
X1274006Y6055317D01*
X1272633Y6053026D01*
X1271042Y6050881D01*
X1269248Y6048902D01*
X1267269Y6047108D01*
X1265124Y6045517D01*
X1262833Y6044144D01*
X1260418Y6043002D01*
X1257904Y6042102D01*
X1255313Y6041453D01*
X1252671Y6041061D01*
X1250003Y6040930D01*
X1179237Y6040930D01*
X1176570Y6041061D01*
X1173928Y6041453D01*
X1171337Y6042102D01*
X1168822Y6043002D01*
X1166407Y6044144D01*
X1164116Y6045517D01*
X1161971Y6047108D01*
X1159992Y6048902D01*
X1158198Y6050881D01*
X1156607Y6053026D01*
X1155234Y6055317D01*
X1154092Y6057732D01*
X1153192Y6060246D01*
X1152543Y6062837D01*
X1152151Y6065479D01*
X1152020Y6068147D01*
X1152020Y6163913D01*
X1152151Y6166580D01*
X1152543Y6169222D01*
X1153192Y6171813D01*
X1154092Y6174328D01*
X1155234Y6176743D01*
X1156607Y6179034D01*
X1158198Y6181179D01*
X1159992Y6183158D01*
X1161971Y6184952D01*
X1164116Y6186543D01*
X1166407Y6187916D01*
X1168822Y6189058D01*
X1171337Y6189958D01*
X1173928Y6190607D01*
X1176570Y6190999D01*
X1179237Y6191130D01*
X1250003Y6191130D01*
X1252671Y6190999D01*
X1252671Y6190999D01*
G37*
D24*
X1214620Y6116030D03*
D18*
G36*
X1252671Y5792219D02*
G01*
X1255313Y5791827D01*
X1257904Y5791178D01*
X1260418Y5790278D01*
X1262833Y5789136D01*
X1265124Y5787763D01*
X1267269Y5786172D01*
X1269248Y5784378D01*
X1271042Y5782399D01*
X1272633Y5780254D01*
X1274006Y5777963D01*
X1275148Y5775548D01*
X1276048Y5773033D01*
X1276697Y5770442D01*
X1277089Y5767800D01*
X1277220Y5765133D01*
X1277220Y5669367D01*
X1277089Y5666699D01*
X1276697Y5664057D01*
X1276048Y5661466D01*
X1275148Y5658952D01*
X1274006Y5656537D01*
X1272633Y5654246D01*
X1271042Y5652101D01*
X1269248Y5650122D01*
X1267269Y5648328D01*
X1265124Y5646737D01*
X1262833Y5645364D01*
X1260418Y5644222D01*
X1257904Y5643322D01*
X1255313Y5642673D01*
X1252671Y5642281D01*
X1250003Y5642150D01*
X1179237Y5642150D01*
X1176570Y5642281D01*
X1173928Y5642673D01*
X1171337Y5643322D01*
X1168822Y5644222D01*
X1166407Y5645364D01*
X1164116Y5646737D01*
X1161971Y5648328D01*
X1159992Y5650122D01*
X1158198Y5652101D01*
X1156607Y5654246D01*
X1155234Y5656537D01*
X1154092Y5658952D01*
X1153192Y5661466D01*
X1152543Y5664057D01*
X1152151Y5666699D01*
X1152020Y5669367D01*
X1152020Y5765133D01*
X1152151Y5767800D01*
X1152543Y5770442D01*
X1153192Y5773033D01*
X1154092Y5775548D01*
X1155234Y5777963D01*
X1156607Y5780254D01*
X1158198Y5782399D01*
X1159992Y5784378D01*
X1161971Y5786172D01*
X1164116Y5787763D01*
X1166407Y5789136D01*
X1168822Y5790278D01*
X1171337Y5791178D01*
X1173928Y5791827D01*
X1176570Y5792219D01*
X1179237Y5792350D01*
X1250003Y5792350D01*
X1252671Y5792219D01*
X1252671Y5792219D01*
G37*
D24*
X1214620Y5717250D03*
D18*
G36*
X1457670Y5792219D02*
G01*
X1460312Y5791827D01*
X1462903Y5791178D01*
X1465418Y5790278D01*
X1467833Y5789136D01*
X1470124Y5787763D01*
X1472269Y5786172D01*
X1474248Y5784378D01*
X1476042Y5782399D01*
X1477633Y5780254D01*
X1479006Y5777963D01*
X1480148Y5775548D01*
X1481048Y5773033D01*
X1481697Y5770442D01*
X1482089Y5767800D01*
X1482220Y5765133D01*
X1482220Y5669367D01*
X1482089Y5666699D01*
X1481697Y5664057D01*
X1481048Y5661466D01*
X1480148Y5658952D01*
X1479006Y5656537D01*
X1477633Y5654246D01*
X1476042Y5652101D01*
X1474248Y5650122D01*
X1472269Y5648328D01*
X1470124Y5646737D01*
X1467833Y5645364D01*
X1465418Y5644222D01*
X1462903Y5643322D01*
X1460312Y5642673D01*
X1457670Y5642281D01*
X1455003Y5642150D01*
X1384237Y5642150D01*
X1381570Y5642281D01*
X1378928Y5642673D01*
X1376337Y5643322D01*
X1373822Y5644222D01*
X1371407Y5645364D01*
X1369116Y5646737D01*
X1366971Y5648328D01*
X1364992Y5650122D01*
X1363198Y5652101D01*
X1361607Y5654246D01*
X1360234Y5656537D01*
X1359092Y5658952D01*
X1358192Y5661466D01*
X1357543Y5664057D01*
X1357151Y5666699D01*
X1357020Y5669367D01*
X1357020Y5765133D01*
X1357151Y5767800D01*
X1357543Y5770442D01*
X1358192Y5773033D01*
X1359092Y5775548D01*
X1360234Y5777963D01*
X1361607Y5780254D01*
X1363198Y5782399D01*
X1364992Y5784378D01*
X1366971Y5786172D01*
X1369116Y5787763D01*
X1371407Y5789136D01*
X1373822Y5790278D01*
X1376337Y5791178D01*
X1378928Y5791827D01*
X1381570Y5792219D01*
X1384237Y5792350D01*
X1455003Y5792350D01*
X1457670Y5792219D01*
X1457670Y5792219D01*
G37*
D24*
X1419620Y5717250D03*
D18*
G36*
X3892370Y5540969D02*
G01*
X3895012Y5540577D01*
X3897603Y5539928D01*
X3900118Y5539028D01*
X3902533Y5537886D01*
X3904824Y5536513D01*
X3906969Y5534922D01*
X3908948Y5533128D01*
X3910742Y5531149D01*
X3912333Y5529004D01*
X3913706Y5526713D01*
X3914848Y5524298D01*
X3915748Y5521784D01*
X3916397Y5519193D01*
X3916789Y5516551D01*
X3916920Y5513883D01*
X3916920Y5418117D01*
X3916789Y5415450D01*
X3916397Y5412808D01*
X3915748Y5410217D01*
X3914848Y5407702D01*
X3913706Y5405287D01*
X3912333Y5402996D01*
X3910742Y5400851D01*
X3908948Y5398872D01*
X3906969Y5397078D01*
X3904824Y5395487D01*
X3902533Y5394114D01*
X3900118Y5392972D01*
X3897603Y5392072D01*
X3895012Y5391423D01*
X3892370Y5391031D01*
X3889703Y5390900D01*
X3818937Y5390900D01*
X3816269Y5391031D01*
X3813627Y5391423D01*
X3811036Y5392072D01*
X3808522Y5392972D01*
X3806107Y5394114D01*
X3803816Y5395487D01*
X3801671Y5397078D01*
X3799692Y5398872D01*
X3797898Y5400851D01*
X3796307Y5402996D01*
X3794934Y5405287D01*
X3793792Y5407702D01*
X3792892Y5410217D01*
X3792243Y5412808D01*
X3791851Y5415450D01*
X3791720Y5418117D01*
X3791720Y5513883D01*
X3791851Y5516551D01*
X3792243Y5519193D01*
X3792892Y5521784D01*
X3793792Y5524298D01*
X3794934Y5526713D01*
X3796307Y5529004D01*
X3797898Y5531149D01*
X3799692Y5533128D01*
X3801671Y5534922D01*
X3803816Y5536513D01*
X3806107Y5537886D01*
X3808522Y5539028D01*
X3811036Y5539928D01*
X3813627Y5540577D01*
X3816269Y5540969D01*
X3818937Y5541100D01*
X3889703Y5541100D01*
X3892370Y5540969D01*
X3892370Y5540969D01*
G37*
D24*
X3854320Y5466000D03*
D18*
G36*
X4097370Y5540969D02*
G01*
X4100012Y5540577D01*
X4102603Y5539928D01*
X4105118Y5539028D01*
X4107533Y5537886D01*
X4109824Y5536513D01*
X4111969Y5534922D01*
X4113948Y5533128D01*
X4115742Y5531149D01*
X4117333Y5529004D01*
X4118706Y5526713D01*
X4119848Y5524298D01*
X4120748Y5521784D01*
X4121397Y5519193D01*
X4121789Y5516551D01*
X4121920Y5513883D01*
X4121920Y5418117D01*
X4121789Y5415450D01*
X4121397Y5412808D01*
X4120748Y5410217D01*
X4119848Y5407702D01*
X4118706Y5405287D01*
X4117333Y5402996D01*
X4115742Y5400851D01*
X4113948Y5398872D01*
X4111969Y5397078D01*
X4109824Y5395487D01*
X4107533Y5394114D01*
X4105118Y5392972D01*
X4102603Y5392072D01*
X4100012Y5391423D01*
X4097370Y5391031D01*
X4094703Y5390900D01*
X4023937Y5390900D01*
X4021269Y5391031D01*
X4018627Y5391423D01*
X4016036Y5392072D01*
X4013522Y5392972D01*
X4011107Y5394114D01*
X4008816Y5395487D01*
X4006671Y5397078D01*
X4004692Y5398872D01*
X4002898Y5400851D01*
X4001307Y5402996D01*
X3999934Y5405287D01*
X3998792Y5407702D01*
X3997892Y5410217D01*
X3997243Y5412808D01*
X3996851Y5415450D01*
X3996720Y5418117D01*
X3996720Y5513883D01*
X3996851Y5516551D01*
X3997243Y5519193D01*
X3997892Y5521784D01*
X3998792Y5524298D01*
X3999934Y5526713D01*
X4001307Y5529004D01*
X4002898Y5531149D01*
X4004692Y5533128D01*
X4006671Y5534922D01*
X4008816Y5536513D01*
X4011107Y5537886D01*
X4013522Y5539028D01*
X4016036Y5539928D01*
X4018627Y5540577D01*
X4021269Y5540969D01*
X4023937Y5541100D01*
X4094703Y5541100D01*
X4097370Y5540969D01*
X4097370Y5540969D01*
G37*
D24*
X4059320Y5466000D03*
D18*
G36*
X3892370Y5340969D02*
G01*
X3895012Y5340577D01*
X3897603Y5339928D01*
X3900118Y5339028D01*
X3902533Y5337886D01*
X3904824Y5336513D01*
X3906969Y5334922D01*
X3908948Y5333128D01*
X3910742Y5331149D01*
X3912333Y5329004D01*
X3913706Y5326713D01*
X3914848Y5324298D01*
X3915748Y5321784D01*
X3916397Y5319193D01*
X3916789Y5316551D01*
X3916920Y5313883D01*
X3916920Y5218117D01*
X3916789Y5215450D01*
X3916397Y5212808D01*
X3915748Y5210217D01*
X3914848Y5207702D01*
X3913706Y5205287D01*
X3912333Y5202996D01*
X3910742Y5200851D01*
X3908948Y5198872D01*
X3906969Y5197078D01*
X3904824Y5195487D01*
X3902533Y5194114D01*
X3900118Y5192972D01*
X3897603Y5192072D01*
X3895012Y5191423D01*
X3892370Y5191031D01*
X3889703Y5190900D01*
X3818937Y5190900D01*
X3816269Y5191031D01*
X3813627Y5191423D01*
X3811036Y5192072D01*
X3808522Y5192972D01*
X3806107Y5194114D01*
X3803816Y5195487D01*
X3801671Y5197078D01*
X3799692Y5198872D01*
X3797898Y5200851D01*
X3796307Y5202996D01*
X3794934Y5205287D01*
X3793792Y5207702D01*
X3792892Y5210217D01*
X3792243Y5212808D01*
X3791851Y5215450D01*
X3791720Y5218117D01*
X3791720Y5313883D01*
X3791851Y5316551D01*
X3792243Y5319193D01*
X3792892Y5321784D01*
X3793792Y5324298D01*
X3794934Y5326713D01*
X3796307Y5329004D01*
X3797898Y5331149D01*
X3799692Y5333128D01*
X3801671Y5334922D01*
X3803816Y5336513D01*
X3806107Y5337886D01*
X3808522Y5339028D01*
X3811036Y5339928D01*
X3813627Y5340577D01*
X3816269Y5340969D01*
X3818937Y5341100D01*
X3889703Y5341100D01*
X3892370Y5340969D01*
X3892370Y5340969D01*
G37*
D24*
X3854320Y5266000D03*
D18*
G36*
X4097370Y5340969D02*
G01*
X4100012Y5340577D01*
X4102603Y5339928D01*
X4105118Y5339028D01*
X4107533Y5337886D01*
X4109824Y5336513D01*
X4111969Y5334922D01*
X4113948Y5333128D01*
X4115742Y5331149D01*
X4117333Y5329004D01*
X4118706Y5326713D01*
X4119848Y5324298D01*
X4120748Y5321784D01*
X4121397Y5319193D01*
X4121789Y5316551D01*
X4121920Y5313883D01*
X4121920Y5218117D01*
X4121789Y5215450D01*
X4121397Y5212808D01*
X4120748Y5210217D01*
X4119848Y5207702D01*
X4118706Y5205287D01*
X4117333Y5202996D01*
X4115742Y5200851D01*
X4113948Y5198872D01*
X4111969Y5197078D01*
X4109824Y5195487D01*
X4107533Y5194114D01*
X4105118Y5192972D01*
X4102603Y5192072D01*
X4100012Y5191423D01*
X4097370Y5191031D01*
X4094703Y5190900D01*
X4023937Y5190900D01*
X4021269Y5191031D01*
X4018627Y5191423D01*
X4016036Y5192072D01*
X4013522Y5192972D01*
X4011107Y5194114D01*
X4008816Y5195487D01*
X4006671Y5197078D01*
X4004692Y5198872D01*
X4002898Y5200851D01*
X4001307Y5202996D01*
X3999934Y5205287D01*
X3998792Y5207702D01*
X3997892Y5210217D01*
X3997243Y5212808D01*
X3996851Y5215450D01*
X3996720Y5218117D01*
X3996720Y5313883D01*
X3996851Y5316551D01*
X3997243Y5319193D01*
X3997892Y5321784D01*
X3998792Y5324298D01*
X3999934Y5326713D01*
X4001307Y5329004D01*
X4002898Y5331149D01*
X4004692Y5333128D01*
X4006671Y5334922D01*
X4008816Y5336513D01*
X4011107Y5337886D01*
X4013522Y5339028D01*
X4016036Y5339928D01*
X4018627Y5340577D01*
X4021269Y5340969D01*
X4023937Y5341100D01*
X4094703Y5341100D01*
X4097370Y5340969D01*
X4097370Y5340969D01*
G37*
D24*
X4059320Y5266000D03*
D18*
G36*
X3892370Y5140969D02*
G01*
X3895012Y5140577D01*
X3897603Y5139928D01*
X3900118Y5139028D01*
X3902533Y5137886D01*
X3904824Y5136513D01*
X3906969Y5134922D01*
X3908948Y5133128D01*
X3910742Y5131149D01*
X3912333Y5129004D01*
X3913706Y5126713D01*
X3914848Y5124298D01*
X3915748Y5121784D01*
X3916397Y5119193D01*
X3916789Y5116551D01*
X3916920Y5113883D01*
X3916920Y5018117D01*
X3916789Y5015450D01*
X3916397Y5012808D01*
X3915748Y5010217D01*
X3914848Y5007702D01*
X3913706Y5005287D01*
X3912333Y5002996D01*
X3910742Y5000851D01*
X3908948Y4998872D01*
X3906969Y4997078D01*
X3904824Y4995487D01*
X3902533Y4994114D01*
X3900118Y4992972D01*
X3897603Y4992072D01*
X3895012Y4991423D01*
X3892370Y4991031D01*
X3889703Y4990900D01*
X3818937Y4990900D01*
X3816269Y4991031D01*
X3813627Y4991423D01*
X3811036Y4992072D01*
X3808522Y4992972D01*
X3806107Y4994114D01*
X3803816Y4995487D01*
X3801671Y4997078D01*
X3799692Y4998872D01*
X3797898Y5000851D01*
X3796307Y5002996D01*
X3794934Y5005287D01*
X3793792Y5007702D01*
X3792892Y5010217D01*
X3792243Y5012808D01*
X3791851Y5015450D01*
X3791720Y5018117D01*
X3791720Y5113883D01*
X3791851Y5116551D01*
X3792243Y5119193D01*
X3792892Y5121784D01*
X3793792Y5124298D01*
X3794934Y5126713D01*
X3796307Y5129004D01*
X3797898Y5131149D01*
X3799692Y5133128D01*
X3801671Y5134922D01*
X3803816Y5136513D01*
X3806107Y5137886D01*
X3808522Y5139028D01*
X3811036Y5139928D01*
X3813627Y5140577D01*
X3816269Y5140969D01*
X3818937Y5141100D01*
X3889703Y5141100D01*
X3892370Y5140969D01*
X3892370Y5140969D01*
G37*
D24*
X3854320Y5066000D03*
D18*
G36*
X4097370Y5140969D02*
G01*
X4100012Y5140577D01*
X4102603Y5139928D01*
X4105118Y5139028D01*
X4107533Y5137886D01*
X4109824Y5136513D01*
X4111969Y5134922D01*
X4113948Y5133128D01*
X4115742Y5131149D01*
X4117333Y5129004D01*
X4118706Y5126713D01*
X4119848Y5124298D01*
X4120748Y5121784D01*
X4121397Y5119193D01*
X4121789Y5116551D01*
X4121920Y5113883D01*
X4121920Y5018117D01*
X4121789Y5015450D01*
X4121397Y5012808D01*
X4120748Y5010217D01*
X4119848Y5007702D01*
X4118706Y5005287D01*
X4117333Y5002996D01*
X4115742Y5000851D01*
X4113948Y4998872D01*
X4111969Y4997078D01*
X4109824Y4995487D01*
X4107533Y4994114D01*
X4105118Y4992972D01*
X4102603Y4992072D01*
X4100012Y4991423D01*
X4097370Y4991031D01*
X4094703Y4990900D01*
X4023937Y4990900D01*
X4021269Y4991031D01*
X4018627Y4991423D01*
X4016036Y4992072D01*
X4013522Y4992972D01*
X4011107Y4994114D01*
X4008816Y4995487D01*
X4006671Y4997078D01*
X4004692Y4998872D01*
X4002898Y5000851D01*
X4001307Y5002996D01*
X3999934Y5005287D01*
X3998792Y5007702D01*
X3997892Y5010217D01*
X3997243Y5012808D01*
X3996851Y5015450D01*
X3996720Y5018117D01*
X3996720Y5113883D01*
X3996851Y5116551D01*
X3997243Y5119193D01*
X3997892Y5121784D01*
X3998792Y5124298D01*
X3999934Y5126713D01*
X4001307Y5129004D01*
X4002898Y5131149D01*
X4004692Y5133128D01*
X4006671Y5134922D01*
X4008816Y5136513D01*
X4011107Y5137886D01*
X4013522Y5139028D01*
X4016036Y5139928D01*
X4018627Y5140577D01*
X4021269Y5140969D01*
X4023937Y5141100D01*
X4094703Y5141100D01*
X4097370Y5140969D01*
X4097370Y5140969D01*
G37*
D24*
X4059320Y5066000D03*
D18*
G36*
X4721031Y8219209D02*
G01*
X4723673Y8218817D01*
X4726264Y8218168D01*
X4728778Y8217268D01*
X4731193Y8216126D01*
X4733484Y8214753D01*
X4735629Y8213162D01*
X4737608Y8211368D01*
X4739402Y8209389D01*
X4740993Y8207244D01*
X4742366Y8204953D01*
X4743508Y8202538D01*
X4744408Y8200023D01*
X4745057Y8197432D01*
X4745449Y8194790D01*
X4745580Y8192123D01*
X4745580Y8121357D01*
X4745449Y8118689D01*
X4745057Y8116047D01*
X4744408Y8113456D01*
X4743508Y8110942D01*
X4742366Y8108527D01*
X4740993Y8106236D01*
X4739402Y8104091D01*
X4737608Y8102112D01*
X4735629Y8100318D01*
X4733484Y8098727D01*
X4731193Y8097354D01*
X4728778Y8096212D01*
X4726264Y8095312D01*
X4723673Y8094663D01*
X4721031Y8094271D01*
X4718363Y8094140D01*
X4622597Y8094140D01*
X4619930Y8094271D01*
X4617288Y8094663D01*
X4614697Y8095312D01*
X4612182Y8096212D01*
X4609767Y8097354D01*
X4607476Y8098727D01*
X4605331Y8100318D01*
X4603352Y8102112D01*
X4601558Y8104091D01*
X4599967Y8106236D01*
X4598594Y8108527D01*
X4597452Y8110942D01*
X4596552Y8113456D01*
X4595903Y8116047D01*
X4595511Y8118689D01*
X4595380Y8121357D01*
X4595380Y8192123D01*
X4595511Y8194790D01*
X4595903Y8197432D01*
X4596552Y8200023D01*
X4597452Y8202538D01*
X4598594Y8204953D01*
X4599967Y8207244D01*
X4601558Y8209389D01*
X4603352Y8211368D01*
X4605331Y8213162D01*
X4607476Y8214753D01*
X4609767Y8216126D01*
X4612182Y8217268D01*
X4614697Y8218168D01*
X4617288Y8218817D01*
X4619930Y8219209D01*
X4622597Y8219340D01*
X4718363Y8219340D01*
X4721031Y8219209D01*
X4721031Y8219209D01*
G37*
D24*
X4670480Y8156740D03*
D18*
G36*
X4721031Y8014209D02*
G01*
X4723673Y8013817D01*
X4726264Y8013168D01*
X4728778Y8012268D01*
X4731193Y8011126D01*
X4733484Y8009753D01*
X4735629Y8008162D01*
X4737608Y8006368D01*
X4739402Y8004389D01*
X4740993Y8002244D01*
X4742366Y7999953D01*
X4743508Y7997538D01*
X4744408Y7995023D01*
X4745057Y7992432D01*
X4745449Y7989790D01*
X4745580Y7987123D01*
X4745580Y7916357D01*
X4745449Y7913689D01*
X4745057Y7911047D01*
X4744408Y7908456D01*
X4743508Y7905942D01*
X4742366Y7903527D01*
X4740993Y7901236D01*
X4739402Y7899091D01*
X4737608Y7897112D01*
X4735629Y7895318D01*
X4733484Y7893727D01*
X4731193Y7892354D01*
X4728778Y7891212D01*
X4726264Y7890312D01*
X4723673Y7889663D01*
X4721031Y7889271D01*
X4718363Y7889140D01*
X4622597Y7889140D01*
X4619930Y7889271D01*
X4617288Y7889663D01*
X4614697Y7890312D01*
X4612182Y7891212D01*
X4609767Y7892354D01*
X4607476Y7893727D01*
X4605331Y7895318D01*
X4603352Y7897112D01*
X4601558Y7899091D01*
X4599967Y7901236D01*
X4598594Y7903527D01*
X4597452Y7905942D01*
X4596552Y7908456D01*
X4595903Y7911047D01*
X4595511Y7913689D01*
X4595380Y7916357D01*
X4595380Y7987123D01*
X4595511Y7989790D01*
X4595903Y7992432D01*
X4596552Y7995023D01*
X4597452Y7997538D01*
X4598594Y7999953D01*
X4599967Y8002244D01*
X4601558Y8004389D01*
X4603352Y8006368D01*
X4605331Y8008162D01*
X4607476Y8009753D01*
X4609767Y8011126D01*
X4612182Y8012268D01*
X4614697Y8013168D01*
X4617288Y8013817D01*
X4619930Y8014209D01*
X4622597Y8014340D01*
X4718363Y8014340D01*
X4721031Y8014209D01*
X4721031Y8014209D01*
G37*
D24*
X4670480Y7951740D03*
D18*
G36*
X3921030Y8014209D02*
G01*
X3923672Y8013817D01*
X3926263Y8013168D01*
X3928778Y8012268D01*
X3931193Y8011126D01*
X3933484Y8009753D01*
X3935629Y8008162D01*
X3937608Y8006368D01*
X3939402Y8004389D01*
X3940993Y8002244D01*
X3942366Y7999953D01*
X3943508Y7997538D01*
X3944408Y7995023D01*
X3945057Y7992432D01*
X3945449Y7989790D01*
X3945580Y7987123D01*
X3945580Y7916357D01*
X3945449Y7913689D01*
X3945057Y7911047D01*
X3944408Y7908456D01*
X3943508Y7905942D01*
X3942366Y7903527D01*
X3940993Y7901236D01*
X3939402Y7899091D01*
X3937608Y7897112D01*
X3935629Y7895318D01*
X3933484Y7893727D01*
X3931193Y7892354D01*
X3928778Y7891212D01*
X3926263Y7890312D01*
X3923672Y7889663D01*
X3921030Y7889271D01*
X3918363Y7889140D01*
X3822597Y7889140D01*
X3819929Y7889271D01*
X3817287Y7889663D01*
X3814696Y7890312D01*
X3812182Y7891212D01*
X3809767Y7892354D01*
X3807476Y7893727D01*
X3805331Y7895318D01*
X3803352Y7897112D01*
X3801558Y7899091D01*
X3799967Y7901236D01*
X3798594Y7903527D01*
X3797452Y7905942D01*
X3796552Y7908456D01*
X3795903Y7911047D01*
X3795511Y7913689D01*
X3795380Y7916357D01*
X3795380Y7987123D01*
X3795511Y7989790D01*
X3795903Y7992432D01*
X3796552Y7995023D01*
X3797452Y7997538D01*
X3798594Y7999953D01*
X3799967Y8002244D01*
X3801558Y8004389D01*
X3803352Y8006368D01*
X3805331Y8008162D01*
X3807476Y8009753D01*
X3809767Y8011126D01*
X3812182Y8012268D01*
X3814696Y8013168D01*
X3817287Y8013817D01*
X3819929Y8014209D01*
X3822597Y8014340D01*
X3918363Y8014340D01*
X3921030Y8014209D01*
X3921030Y8014209D01*
G37*
D24*
X3870480Y7951740D03*
D18*
G36*
X3921030Y8219209D02*
G01*
X3923672Y8218817D01*
X3926263Y8218168D01*
X3928778Y8217268D01*
X3931193Y8216126D01*
X3933484Y8214753D01*
X3935629Y8213162D01*
X3937608Y8211368D01*
X3939402Y8209389D01*
X3940993Y8207244D01*
X3942366Y8204953D01*
X3943508Y8202538D01*
X3944408Y8200023D01*
X3945057Y8197432D01*
X3945449Y8194790D01*
X3945580Y8192123D01*
X3945580Y8121357D01*
X3945449Y8118689D01*
X3945057Y8116047D01*
X3944408Y8113456D01*
X3943508Y8110942D01*
X3942366Y8108527D01*
X3940993Y8106236D01*
X3939402Y8104091D01*
X3937608Y8102112D01*
X3935629Y8100318D01*
X3933484Y8098727D01*
X3931193Y8097354D01*
X3928778Y8096212D01*
X3926263Y8095312D01*
X3923672Y8094663D01*
X3921030Y8094271D01*
X3918363Y8094140D01*
X3822597Y8094140D01*
X3819929Y8094271D01*
X3817287Y8094663D01*
X3814696Y8095312D01*
X3812182Y8096212D01*
X3809767Y8097354D01*
X3807476Y8098727D01*
X3805331Y8100318D01*
X3803352Y8102112D01*
X3801558Y8104091D01*
X3799967Y8106236D01*
X3798594Y8108527D01*
X3797452Y8110942D01*
X3796552Y8113456D01*
X3795903Y8116047D01*
X3795511Y8118689D01*
X3795380Y8121357D01*
X3795380Y8192123D01*
X3795511Y8194790D01*
X3795903Y8197432D01*
X3796552Y8200023D01*
X3797452Y8202538D01*
X3798594Y8204953D01*
X3799967Y8207244D01*
X3801558Y8209389D01*
X3803352Y8211368D01*
X3805331Y8213162D01*
X3807476Y8214753D01*
X3809767Y8216126D01*
X3812182Y8217268D01*
X3814696Y8218168D01*
X3817287Y8218817D01*
X3819929Y8219209D01*
X3822597Y8219340D01*
X3918363Y8219340D01*
X3921030Y8219209D01*
X3921030Y8219209D01*
G37*
D24*
X3870480Y8156740D03*
D18*
G36*
X3121030Y8014209D02*
G01*
X3123672Y8013817D01*
X3126263Y8013168D01*
X3128778Y8012268D01*
X3131193Y8011126D01*
X3133484Y8009753D01*
X3135629Y8008162D01*
X3137608Y8006368D01*
X3139402Y8004389D01*
X3140993Y8002244D01*
X3142366Y7999953D01*
X3143508Y7997538D01*
X3144408Y7995023D01*
X3145057Y7992432D01*
X3145449Y7989790D01*
X3145580Y7987123D01*
X3145580Y7916357D01*
X3145449Y7913689D01*
X3145057Y7911047D01*
X3144408Y7908456D01*
X3143508Y7905942D01*
X3142366Y7903527D01*
X3140993Y7901236D01*
X3139402Y7899091D01*
X3137608Y7897112D01*
X3135629Y7895318D01*
X3133484Y7893727D01*
X3131193Y7892354D01*
X3128778Y7891212D01*
X3126263Y7890312D01*
X3123672Y7889663D01*
X3121030Y7889271D01*
X3118363Y7889140D01*
X3022597Y7889140D01*
X3019929Y7889271D01*
X3017287Y7889663D01*
X3014696Y7890312D01*
X3012182Y7891212D01*
X3009767Y7892354D01*
X3007476Y7893727D01*
X3005331Y7895318D01*
X3003352Y7897112D01*
X3001558Y7899091D01*
X2999967Y7901236D01*
X2998594Y7903527D01*
X2997452Y7905942D01*
X2996552Y7908456D01*
X2995903Y7911047D01*
X2995511Y7913689D01*
X2995380Y7916357D01*
X2995380Y7987123D01*
X2995511Y7989790D01*
X2995903Y7992432D01*
X2996552Y7995023D01*
X2997452Y7997538D01*
X2998594Y7999953D01*
X2999967Y8002244D01*
X3001558Y8004389D01*
X3003352Y8006368D01*
X3005331Y8008162D01*
X3007476Y8009753D01*
X3009767Y8011126D01*
X3012182Y8012268D01*
X3014696Y8013168D01*
X3017287Y8013817D01*
X3019929Y8014209D01*
X3022597Y8014340D01*
X3118363Y8014340D01*
X3121030Y8014209D01*
X3121030Y8014209D01*
G37*
D24*
X3070480Y7951740D03*
D18*
G36*
X3121030Y8219209D02*
G01*
X3123672Y8218817D01*
X3126263Y8218168D01*
X3128778Y8217268D01*
X3131193Y8216126D01*
X3133484Y8214753D01*
X3135629Y8213162D01*
X3137608Y8211368D01*
X3139402Y8209389D01*
X3140993Y8207244D01*
X3142366Y8204953D01*
X3143508Y8202538D01*
X3144408Y8200023D01*
X3145057Y8197432D01*
X3145449Y8194790D01*
X3145580Y8192123D01*
X3145580Y8121357D01*
X3145449Y8118689D01*
X3145057Y8116047D01*
X3144408Y8113456D01*
X3143508Y8110942D01*
X3142366Y8108527D01*
X3140993Y8106236D01*
X3139402Y8104091D01*
X3137608Y8102112D01*
X3135629Y8100318D01*
X3133484Y8098727D01*
X3131193Y8097354D01*
X3128778Y8096212D01*
X3126263Y8095312D01*
X3123672Y8094663D01*
X3121030Y8094271D01*
X3118363Y8094140D01*
X3022597Y8094140D01*
X3019929Y8094271D01*
X3017287Y8094663D01*
X3014696Y8095312D01*
X3012182Y8096212D01*
X3009767Y8097354D01*
X3007476Y8098727D01*
X3005331Y8100318D01*
X3003352Y8102112D01*
X3001558Y8104091D01*
X2999967Y8106236D01*
X2998594Y8108527D01*
X2997452Y8110942D01*
X2996552Y8113456D01*
X2995903Y8116047D01*
X2995511Y8118689D01*
X2995380Y8121357D01*
X2995380Y8192123D01*
X2995511Y8194790D01*
X2995903Y8197432D01*
X2996552Y8200023D01*
X2997452Y8202538D01*
X2998594Y8204953D01*
X2999967Y8207244D01*
X3001558Y8209389D01*
X3003352Y8211368D01*
X3005331Y8213162D01*
X3007476Y8214753D01*
X3009767Y8216126D01*
X3012182Y8217268D01*
X3014696Y8218168D01*
X3017287Y8218817D01*
X3019929Y8219209D01*
X3022597Y8219340D01*
X3118363Y8219340D01*
X3121030Y8219209D01*
X3121030Y8219209D01*
G37*
D24*
X3070480Y8156740D03*
D18*
G36*
X2321031Y8219209D02*
G01*
X2323673Y8218817D01*
X2326264Y8218168D01*
X2328778Y8217268D01*
X2331193Y8216126D01*
X2333484Y8214753D01*
X2335629Y8213162D01*
X2337608Y8211368D01*
X2339402Y8209389D01*
X2340993Y8207244D01*
X2342366Y8204953D01*
X2343508Y8202538D01*
X2344408Y8200023D01*
X2345057Y8197432D01*
X2345449Y8194790D01*
X2345580Y8192123D01*
X2345580Y8121357D01*
X2345449Y8118689D01*
X2345057Y8116047D01*
X2344408Y8113456D01*
X2343508Y8110942D01*
X2342366Y8108527D01*
X2340993Y8106236D01*
X2339402Y8104091D01*
X2337608Y8102112D01*
X2335629Y8100318D01*
X2333484Y8098727D01*
X2331193Y8097354D01*
X2328778Y8096212D01*
X2326264Y8095312D01*
X2323673Y8094663D01*
X2321031Y8094271D01*
X2318363Y8094140D01*
X2222597Y8094140D01*
X2219930Y8094271D01*
X2217288Y8094663D01*
X2214697Y8095312D01*
X2212182Y8096212D01*
X2209767Y8097354D01*
X2207476Y8098727D01*
X2205331Y8100318D01*
X2203352Y8102112D01*
X2201558Y8104091D01*
X2199967Y8106236D01*
X2198594Y8108527D01*
X2197452Y8110942D01*
X2196552Y8113456D01*
X2195903Y8116047D01*
X2195511Y8118689D01*
X2195380Y8121357D01*
X2195380Y8192123D01*
X2195511Y8194790D01*
X2195903Y8197432D01*
X2196552Y8200023D01*
X2197452Y8202538D01*
X2198594Y8204953D01*
X2199967Y8207244D01*
X2201558Y8209389D01*
X2203352Y8211368D01*
X2205331Y8213162D01*
X2207476Y8214753D01*
X2209767Y8216126D01*
X2212182Y8217268D01*
X2214697Y8218168D01*
X2217288Y8218817D01*
X2219930Y8219209D01*
X2222597Y8219340D01*
X2318363Y8219340D01*
X2321031Y8219209D01*
X2321031Y8219209D01*
G37*
D24*
X2270480Y8156740D03*
D18*
G36*
X2321031Y8014209D02*
G01*
X2323673Y8013817D01*
X2326264Y8013168D01*
X2328778Y8012268D01*
X2331193Y8011126D01*
X2333484Y8009753D01*
X2335629Y8008162D01*
X2337608Y8006368D01*
X2339402Y8004389D01*
X2340993Y8002244D01*
X2342366Y7999953D01*
X2343508Y7997538D01*
X2344408Y7995023D01*
X2345057Y7992432D01*
X2345449Y7989790D01*
X2345580Y7987123D01*
X2345580Y7916357D01*
X2345449Y7913689D01*
X2345057Y7911047D01*
X2344408Y7908456D01*
X2343508Y7905942D01*
X2342366Y7903527D01*
X2340993Y7901236D01*
X2339402Y7899091D01*
X2337608Y7897112D01*
X2335629Y7895318D01*
X2333484Y7893727D01*
X2331193Y7892354D01*
X2328778Y7891212D01*
X2326264Y7890312D01*
X2323673Y7889663D01*
X2321031Y7889271D01*
X2318363Y7889140D01*
X2222597Y7889140D01*
X2219930Y7889271D01*
X2217288Y7889663D01*
X2214697Y7890312D01*
X2212182Y7891212D01*
X2209767Y7892354D01*
X2207476Y7893727D01*
X2205331Y7895318D01*
X2203352Y7897112D01*
X2201558Y7899091D01*
X2199967Y7901236D01*
X2198594Y7903527D01*
X2197452Y7905942D01*
X2196552Y7908456D01*
X2195903Y7911047D01*
X2195511Y7913689D01*
X2195380Y7916357D01*
X2195380Y7987123D01*
X2195511Y7989790D01*
X2195903Y7992432D01*
X2196552Y7995023D01*
X2197452Y7997538D01*
X2198594Y7999953D01*
X2199967Y8002244D01*
X2201558Y8004389D01*
X2203352Y8006368D01*
X2205331Y8008162D01*
X2207476Y8009753D01*
X2209767Y8011126D01*
X2212182Y8012268D01*
X2214697Y8013168D01*
X2217288Y8013817D01*
X2219930Y8014209D01*
X2222597Y8014340D01*
X2318363Y8014340D01*
X2321031Y8014209D01*
X2321031Y8014209D01*
G37*
D24*
X2270480Y7951740D03*
D18*
G36*
X1521030Y8219209D02*
G01*
X1523672Y8218817D01*
X1526263Y8218168D01*
X1528778Y8217268D01*
X1531193Y8216126D01*
X1533484Y8214753D01*
X1535629Y8213162D01*
X1537608Y8211368D01*
X1539402Y8209389D01*
X1540993Y8207244D01*
X1542366Y8204953D01*
X1543508Y8202538D01*
X1544408Y8200023D01*
X1545057Y8197432D01*
X1545449Y8194790D01*
X1545580Y8192123D01*
X1545580Y8121357D01*
X1545449Y8118689D01*
X1545057Y8116047D01*
X1544408Y8113456D01*
X1543508Y8110942D01*
X1542366Y8108527D01*
X1540993Y8106236D01*
X1539402Y8104091D01*
X1537608Y8102112D01*
X1535629Y8100318D01*
X1533484Y8098727D01*
X1531193Y8097354D01*
X1528778Y8096212D01*
X1526263Y8095312D01*
X1523672Y8094663D01*
X1521030Y8094271D01*
X1518363Y8094140D01*
X1422597Y8094140D01*
X1419929Y8094271D01*
X1417287Y8094663D01*
X1414696Y8095312D01*
X1412182Y8096212D01*
X1409767Y8097354D01*
X1407476Y8098727D01*
X1405331Y8100318D01*
X1403352Y8102112D01*
X1401558Y8104091D01*
X1399967Y8106236D01*
X1398594Y8108527D01*
X1397452Y8110942D01*
X1396552Y8113456D01*
X1395903Y8116047D01*
X1395511Y8118689D01*
X1395380Y8121357D01*
X1395380Y8192123D01*
X1395511Y8194790D01*
X1395903Y8197432D01*
X1396552Y8200023D01*
X1397452Y8202538D01*
X1398594Y8204953D01*
X1399967Y8207244D01*
X1401558Y8209389D01*
X1403352Y8211368D01*
X1405331Y8213162D01*
X1407476Y8214753D01*
X1409767Y8216126D01*
X1412182Y8217268D01*
X1414696Y8218168D01*
X1417287Y8218817D01*
X1419929Y8219209D01*
X1422597Y8219340D01*
X1518363Y8219340D01*
X1521030Y8219209D01*
X1521030Y8219209D01*
G37*
D24*
X1470480Y8156740D03*
D18*
G36*
X1521030Y8014209D02*
G01*
X1523672Y8013817D01*
X1526263Y8013168D01*
X1528778Y8012268D01*
X1531193Y8011126D01*
X1533484Y8009753D01*
X1535629Y8008162D01*
X1537608Y8006368D01*
X1539402Y8004389D01*
X1540993Y8002244D01*
X1542366Y7999953D01*
X1543508Y7997538D01*
X1544408Y7995023D01*
X1545057Y7992432D01*
X1545449Y7989790D01*
X1545580Y7987123D01*
X1545580Y7916357D01*
X1545449Y7913689D01*
X1545057Y7911047D01*
X1544408Y7908456D01*
X1543508Y7905942D01*
X1542366Y7903527D01*
X1540993Y7901236D01*
X1539402Y7899091D01*
X1537608Y7897112D01*
X1535629Y7895318D01*
X1533484Y7893727D01*
X1531193Y7892354D01*
X1528778Y7891212D01*
X1526263Y7890312D01*
X1523672Y7889663D01*
X1521030Y7889271D01*
X1518363Y7889140D01*
X1422597Y7889140D01*
X1419929Y7889271D01*
X1417287Y7889663D01*
X1414696Y7890312D01*
X1412182Y7891212D01*
X1409767Y7892354D01*
X1407476Y7893727D01*
X1405331Y7895318D01*
X1403352Y7897112D01*
X1401558Y7899091D01*
X1399967Y7901236D01*
X1398594Y7903527D01*
X1397452Y7905942D01*
X1396552Y7908456D01*
X1395903Y7911047D01*
X1395511Y7913689D01*
X1395380Y7916357D01*
X1395380Y7987123D01*
X1395511Y7989790D01*
X1395903Y7992432D01*
X1396552Y7995023D01*
X1397452Y7997538D01*
X1398594Y7999953D01*
X1399967Y8002244D01*
X1401558Y8004389D01*
X1403352Y8006368D01*
X1405331Y8008162D01*
X1407476Y8009753D01*
X1409767Y8011126D01*
X1412182Y8012268D01*
X1414696Y8013168D01*
X1417287Y8013817D01*
X1419929Y8014209D01*
X1422597Y8014340D01*
X1518363Y8014340D01*
X1521030Y8014209D01*
X1521030Y8014209D01*
G37*
D24*
X1470480Y7951740D03*
D18*
G36*
X721030Y8014209D02*
G01*
X723672Y8013817D01*
X726263Y8013168D01*
X728778Y8012268D01*
X731193Y8011126D01*
X733484Y8009753D01*
X735629Y8008162D01*
X737608Y8006368D01*
X739402Y8004389D01*
X740993Y8002244D01*
X742366Y7999953D01*
X743508Y7997538D01*
X744408Y7995023D01*
X745057Y7992432D01*
X745449Y7989790D01*
X745580Y7987123D01*
X745580Y7916357D01*
X745449Y7913689D01*
X745057Y7911047D01*
X744408Y7908456D01*
X743508Y7905942D01*
X742366Y7903527D01*
X740993Y7901236D01*
X739402Y7899091D01*
X737608Y7897112D01*
X735629Y7895318D01*
X733484Y7893727D01*
X731193Y7892354D01*
X728778Y7891212D01*
X726263Y7890312D01*
X723672Y7889663D01*
X721030Y7889271D01*
X718363Y7889140D01*
X622597Y7889140D01*
X619930Y7889271D01*
X617288Y7889663D01*
X614697Y7890312D01*
X612182Y7891212D01*
X609767Y7892354D01*
X607476Y7893727D01*
X605331Y7895318D01*
X603352Y7897112D01*
X601558Y7899091D01*
X599967Y7901236D01*
X598594Y7903527D01*
X597452Y7905942D01*
X596552Y7908456D01*
X595903Y7911047D01*
X595511Y7913689D01*
X595380Y7916357D01*
X595380Y7987123D01*
X595511Y7989790D01*
X595903Y7992432D01*
X596552Y7995023D01*
X597452Y7997538D01*
X598594Y7999953D01*
X599967Y8002244D01*
X601558Y8004389D01*
X603352Y8006368D01*
X605331Y8008162D01*
X607476Y8009753D01*
X609767Y8011126D01*
X612182Y8012268D01*
X614697Y8013168D01*
X617288Y8013817D01*
X619930Y8014209D01*
X622597Y8014340D01*
X718363Y8014340D01*
X721030Y8014209D01*
X721030Y8014209D01*
G37*
D24*
X670480Y7951740D03*
D18*
G36*
X721030Y8219209D02*
G01*
X723672Y8218817D01*
X726263Y8218168D01*
X728778Y8217268D01*
X731193Y8216126D01*
X733484Y8214753D01*
X735629Y8213162D01*
X737608Y8211368D01*
X739402Y8209389D01*
X740993Y8207244D01*
X742366Y8204953D01*
X743508Y8202538D01*
X744408Y8200023D01*
X745057Y8197432D01*
X745449Y8194790D01*
X745580Y8192123D01*
X745580Y8121357D01*
X745449Y8118689D01*
X745057Y8116047D01*
X744408Y8113456D01*
X743508Y8110942D01*
X742366Y8108527D01*
X740993Y8106236D01*
X739402Y8104091D01*
X737608Y8102112D01*
X735629Y8100318D01*
X733484Y8098727D01*
X731193Y8097354D01*
X728778Y8096212D01*
X726263Y8095312D01*
X723672Y8094663D01*
X721030Y8094271D01*
X718363Y8094140D01*
X622597Y8094140D01*
X619930Y8094271D01*
X617288Y8094663D01*
X614697Y8095312D01*
X612182Y8096212D01*
X609767Y8097354D01*
X607476Y8098727D01*
X605331Y8100318D01*
X603352Y8102112D01*
X601558Y8104091D01*
X599967Y8106236D01*
X598594Y8108527D01*
X597452Y8110942D01*
X596552Y8113456D01*
X595903Y8116047D01*
X595511Y8118689D01*
X595380Y8121357D01*
X595380Y8192123D01*
X595511Y8194790D01*
X595903Y8197432D01*
X596552Y8200023D01*
X597452Y8202538D01*
X598594Y8204953D01*
X599967Y8207244D01*
X601558Y8209389D01*
X603352Y8211368D01*
X605331Y8213162D01*
X607476Y8214753D01*
X609767Y8216126D01*
X612182Y8217268D01*
X614697Y8218168D01*
X617288Y8218817D01*
X619930Y8219209D01*
X622597Y8219340D01*
X718363Y8219340D01*
X721030Y8219209D01*
X721030Y8219209D01*
G37*
D24*
X670480Y8156740D03*
D31*
X761820Y5529200D03*
X761820Y4329200D03*
X161820Y4329200D03*
X161820Y5529200D03*
D27*
X586820Y5329200D03*
X586820Y4929200D03*
X586820Y4529200D03*
D31*
X1344132Y2131532D03*
X1794132Y2131532D03*
X1344132Y1481532D03*
X1794132Y1481532D03*
D32*
X3333020Y1865500D03*
X3398020Y1865500D03*
X3463020Y1865500D03*
X3528020Y1865500D03*
X3593020Y1865500D03*
X3658020Y1865500D03*
X3723020Y1865500D03*
X3788020Y1865500D03*
X3853020Y1865500D03*
X3918020Y1865500D03*
X3983020Y1865500D03*
X4048020Y1865500D03*
X4113020Y1865500D03*
X4178020Y1865500D03*
X4178020Y2585500D03*
X4113020Y2585500D03*
X4048020Y2585500D03*
X3983020Y2585500D03*
X3918020Y2585500D03*
X3853020Y2585500D03*
X3788020Y2585500D03*
X3723020Y2585500D03*
X3658020Y2585500D03*
X3593020Y2585500D03*
X3528020Y2585500D03*
X3463020Y2585500D03*
X3398020Y2585500D03*
X3333020Y2585500D03*
D18*
G36*
X1453186Y614861D02*
G01*
X1455787Y614475D01*
X1458337Y613837D01*
X1460812Y612951D01*
X1463189Y611827D01*
X1465444Y610475D01*
X1467556Y608909D01*
X1469503Y607144D01*
X1471269Y605196D01*
X1472835Y603084D01*
X1474187Y600829D01*
X1475311Y598452D01*
X1476196Y595977D01*
X1476835Y593427D01*
X1477221Y590826D01*
X1477350Y588201D01*
X1477350Y489079D01*
X1477221Y486454D01*
X1476835Y483853D01*
X1476196Y481303D01*
X1475311Y478828D01*
X1474187Y476451D01*
X1472835Y474196D01*
X1471269Y472084D01*
X1469503Y470136D01*
X1467556Y468371D01*
X1465444Y466805D01*
X1463189Y465453D01*
X1460812Y464329D01*
X1458337Y463443D01*
X1455787Y462805D01*
X1453186Y462419D01*
X1450560Y462290D01*
X1318940Y462290D01*
X1316314Y462419D01*
X1313713Y462805D01*
X1311163Y463443D01*
X1308688Y464329D01*
X1306311Y465453D01*
X1304056Y466805D01*
X1301944Y468371D01*
X1299997Y470136D01*
X1298231Y472084D01*
X1296665Y474196D01*
X1295313Y476451D01*
X1294189Y478828D01*
X1293304Y481303D01*
X1292665Y483853D01*
X1292279Y486454D01*
X1292150Y489079D01*
X1292150Y588201D01*
X1292279Y590826D01*
X1292665Y593427D01*
X1293304Y595977D01*
X1294189Y598452D01*
X1295313Y600829D01*
X1296665Y603084D01*
X1298231Y605196D01*
X1299997Y607144D01*
X1301944Y608909D01*
X1304056Y610475D01*
X1306311Y611827D01*
X1308688Y612951D01*
X1311163Y613837D01*
X1313713Y614475D01*
X1316314Y614861D01*
X1318940Y614990D01*
X1450560Y614990D01*
X1453186Y614861D01*
X1453186Y614861D01*
G37*
D33*
X1384750Y538640D03*
D18*
G36*
X1453186Y912361D02*
G01*
X1455787Y911975D01*
X1458337Y911336D01*
X1460812Y910451D01*
X1463189Y909327D01*
X1465444Y907975D01*
X1467556Y906409D01*
X1469503Y904643D01*
X1471269Y902696D01*
X1472835Y900584D01*
X1474187Y898329D01*
X1475311Y895952D01*
X1476196Y893477D01*
X1476835Y890927D01*
X1477221Y888326D01*
X1477350Y885700D01*
X1477350Y786579D01*
X1477221Y783954D01*
X1476835Y781353D01*
X1476196Y778803D01*
X1475311Y776328D01*
X1474187Y773951D01*
X1472835Y771696D01*
X1471269Y769584D01*
X1469503Y767636D01*
X1467556Y765871D01*
X1465444Y764305D01*
X1463189Y762953D01*
X1460812Y761829D01*
X1458337Y760943D01*
X1455787Y760305D01*
X1453186Y759919D01*
X1450560Y759790D01*
X1318940Y759790D01*
X1316314Y759919D01*
X1313713Y760305D01*
X1311163Y760943D01*
X1308688Y761829D01*
X1306311Y762953D01*
X1304056Y764305D01*
X1301944Y765871D01*
X1299997Y767636D01*
X1298231Y769584D01*
X1296665Y771696D01*
X1295313Y773951D01*
X1294189Y776328D01*
X1293304Y778803D01*
X1292665Y781353D01*
X1292279Y783954D01*
X1292150Y786579D01*
X1292150Y885700D01*
X1292279Y888326D01*
X1292665Y890927D01*
X1293304Y893477D01*
X1294189Y895952D01*
X1295313Y898329D01*
X1296665Y900584D01*
X1298231Y902696D01*
X1299997Y904643D01*
X1301944Y906409D01*
X1304056Y907975D01*
X1306311Y909327D01*
X1308688Y910451D01*
X1311163Y911336D01*
X1313713Y911975D01*
X1316314Y912361D01*
X1318940Y912490D01*
X1450560Y912490D01*
X1453186Y912361D01*
X1453186Y912361D01*
G37*
D33*
X1384750Y836140D03*
D18*
G36*
X3397214Y2954531D02*
G01*
X3399856Y2954139D01*
X3402447Y2953490D01*
X3404962Y2952590D01*
X3407377Y2951448D01*
X3409668Y2950075D01*
X3411813Y2948484D01*
X3413792Y2946690D01*
X3415586Y2944711D01*
X3417177Y2942566D01*
X3418550Y2940275D01*
X3419692Y2937860D01*
X3420592Y2935345D01*
X3421241Y2932754D01*
X3421633Y2930112D01*
X3421764Y2927445D01*
X3421764Y2831679D01*
X3421633Y2829011D01*
X3421241Y2826369D01*
X3420592Y2823778D01*
X3419692Y2821264D01*
X3418550Y2818849D01*
X3417177Y2816558D01*
X3415586Y2814413D01*
X3413792Y2812434D01*
X3411813Y2810640D01*
X3409668Y2809049D01*
X3407377Y2807676D01*
X3404962Y2806534D01*
X3402447Y2805634D01*
X3399856Y2804985D01*
X3397214Y2804593D01*
X3394547Y2804462D01*
X3323781Y2804462D01*
X3321113Y2804593D01*
X3318471Y2804985D01*
X3315880Y2805634D01*
X3313366Y2806534D01*
X3310951Y2807676D01*
X3308660Y2809049D01*
X3306515Y2810640D01*
X3304536Y2812434D01*
X3302742Y2814413D01*
X3301151Y2816558D01*
X3299778Y2818849D01*
X3298636Y2821264D01*
X3297736Y2823778D01*
X3297087Y2826369D01*
X3296695Y2829011D01*
X3296564Y2831679D01*
X3296564Y2927445D01*
X3296695Y2930112D01*
X3297087Y2932754D01*
X3297736Y2935345D01*
X3298636Y2937860D01*
X3299778Y2940275D01*
X3301151Y2942566D01*
X3302742Y2944711D01*
X3304536Y2946690D01*
X3306515Y2948484D01*
X3308660Y2950075D01*
X3310951Y2951448D01*
X3313366Y2952590D01*
X3315880Y2953490D01*
X3318471Y2954139D01*
X3321113Y2954531D01*
X3323781Y2954662D01*
X3394547Y2954662D01*
X3397214Y2954531D01*
X3397214Y2954531D01*
G37*
D24*
X3359164Y2879562D03*
D18*
G36*
X3192214Y2954531D02*
G01*
X3194856Y2954139D01*
X3197447Y2953490D01*
X3199962Y2952590D01*
X3202377Y2951448D01*
X3204668Y2950075D01*
X3206813Y2948484D01*
X3208792Y2946690D01*
X3210586Y2944711D01*
X3212177Y2942566D01*
X3213550Y2940275D01*
X3214692Y2937860D01*
X3215592Y2935345D01*
X3216241Y2932754D01*
X3216633Y2930112D01*
X3216764Y2927445D01*
X3216764Y2831679D01*
X3216633Y2829011D01*
X3216241Y2826369D01*
X3215592Y2823778D01*
X3214692Y2821264D01*
X3213550Y2818849D01*
X3212177Y2816558D01*
X3210586Y2814413D01*
X3208792Y2812434D01*
X3206813Y2810640D01*
X3204668Y2809049D01*
X3202377Y2807676D01*
X3199962Y2806534D01*
X3197447Y2805634D01*
X3194856Y2804985D01*
X3192214Y2804593D01*
X3189547Y2804462D01*
X3118781Y2804462D01*
X3116113Y2804593D01*
X3113471Y2804985D01*
X3110880Y2805634D01*
X3108366Y2806534D01*
X3105951Y2807676D01*
X3103660Y2809049D01*
X3101515Y2810640D01*
X3099536Y2812434D01*
X3097742Y2814413D01*
X3096151Y2816558D01*
X3094778Y2818849D01*
X3093636Y2821264D01*
X3092736Y2823778D01*
X3092087Y2826369D01*
X3091695Y2829011D01*
X3091564Y2831679D01*
X3091564Y2927445D01*
X3091695Y2930112D01*
X3092087Y2932754D01*
X3092736Y2935345D01*
X3093636Y2937860D01*
X3094778Y2940275D01*
X3096151Y2942566D01*
X3097742Y2944711D01*
X3099536Y2946690D01*
X3101515Y2948484D01*
X3103660Y2950075D01*
X3105951Y2951448D01*
X3108366Y2952590D01*
X3110880Y2953490D01*
X3113471Y2954139D01*
X3116113Y2954531D01*
X3118781Y2954662D01*
X3189547Y2954662D01*
X3192214Y2954531D01*
X3192214Y2954531D01*
G37*
D24*
X3154164Y2879562D03*
D18*
G36*
X2174193Y3795783D02*
G01*
X2176785Y3795399D01*
X2179327Y3794762D01*
X2181794Y3793880D01*
X2184162Y3792759D01*
X2186410Y3791412D01*
X2188514Y3789851D01*
X2190456Y3788092D01*
X2192215Y3786150D01*
X2193776Y3784046D01*
X2195123Y3781798D01*
X2196244Y3779430D01*
X2197126Y3776963D01*
X2197763Y3774421D01*
X2198147Y3771829D01*
X2198276Y3769212D01*
X2198276Y3577412D01*
X2198147Y3574795D01*
X2197763Y3572203D01*
X2197126Y3569661D01*
X2196244Y3567194D01*
X2195123Y3564826D01*
X2193776Y3562578D01*
X2192215Y3560474D01*
X2190456Y3558532D01*
X2188514Y3556773D01*
X2186410Y3555212D01*
X2184162Y3553865D01*
X2181794Y3552744D01*
X2179327Y3551862D01*
X2176785Y3551225D01*
X2174193Y3550841D01*
X2171576Y3550712D01*
X2064776Y3550712D01*
X2062159Y3550841D01*
X2059567Y3551225D01*
X2057025Y3551862D01*
X2054558Y3552744D01*
X2052190Y3553865D01*
X2049942Y3555212D01*
X2047838Y3556773D01*
X2045896Y3558532D01*
X2044137Y3560474D01*
X2042576Y3562578D01*
X2041229Y3564826D01*
X2040108Y3567194D01*
X2039226Y3569661D01*
X2038589Y3572203D01*
X2038205Y3574795D01*
X2038076Y3577412D01*
X2038076Y3769212D01*
X2038205Y3771829D01*
X2038589Y3774421D01*
X2039226Y3776963D01*
X2040108Y3779430D01*
X2041229Y3781798D01*
X2042576Y3784046D01*
X2044137Y3786150D01*
X2045896Y3788092D01*
X2047838Y3789851D01*
X2049942Y3791412D01*
X2052190Y3792759D01*
X2054558Y3793880D01*
X2057025Y3794762D01*
X2059567Y3795399D01*
X2062159Y3795783D01*
X2064776Y3795912D01*
X2171576Y3795912D01*
X2174193Y3795783D01*
X2174193Y3795783D01*
G37*
D34*
X2118176Y3673312D03*
D18*
G36*
X1849193Y3795783D02*
G01*
X1851785Y3795399D01*
X1854327Y3794762D01*
X1856794Y3793880D01*
X1859162Y3792759D01*
X1861410Y3791412D01*
X1863514Y3789851D01*
X1865456Y3788092D01*
X1867215Y3786150D01*
X1868776Y3784046D01*
X1870123Y3781798D01*
X1871244Y3779430D01*
X1872126Y3776963D01*
X1872763Y3774421D01*
X1873147Y3771829D01*
X1873276Y3769212D01*
X1873276Y3577412D01*
X1873147Y3574795D01*
X1872763Y3572203D01*
X1872126Y3569661D01*
X1871244Y3567194D01*
X1870123Y3564826D01*
X1868776Y3562578D01*
X1867215Y3560474D01*
X1865456Y3558532D01*
X1863514Y3556773D01*
X1861410Y3555212D01*
X1859162Y3553865D01*
X1856794Y3552744D01*
X1854327Y3551862D01*
X1851785Y3551225D01*
X1849193Y3550841D01*
X1846576Y3550712D01*
X1739776Y3550712D01*
X1737159Y3550841D01*
X1734567Y3551225D01*
X1732025Y3551862D01*
X1729558Y3552744D01*
X1727190Y3553865D01*
X1724942Y3555212D01*
X1722838Y3556773D01*
X1720896Y3558532D01*
X1719137Y3560474D01*
X1717576Y3562578D01*
X1716229Y3564826D01*
X1715108Y3567194D01*
X1714226Y3569661D01*
X1713589Y3572203D01*
X1713205Y3574795D01*
X1713076Y3577412D01*
X1713076Y3769212D01*
X1713205Y3771829D01*
X1713589Y3774421D01*
X1714226Y3776963D01*
X1715108Y3779430D01*
X1716229Y3781798D01*
X1717576Y3784046D01*
X1719137Y3786150D01*
X1720896Y3788092D01*
X1722838Y3789851D01*
X1724942Y3791412D01*
X1727190Y3792759D01*
X1729558Y3793880D01*
X1732025Y3794762D01*
X1734567Y3795399D01*
X1737159Y3795783D01*
X1739776Y3795912D01*
X1846576Y3795912D01*
X1849193Y3795783D01*
X1849193Y3795783D01*
G37*
D34*
X1793176Y3673312D03*
D18*
G36*
X1456570Y4779329D02*
G01*
X1459212Y4778937D01*
X1461803Y4778288D01*
X1464318Y4777388D01*
X1466733Y4776246D01*
X1469024Y4774873D01*
X1471169Y4773282D01*
X1473148Y4771488D01*
X1474942Y4769509D01*
X1476533Y4767364D01*
X1477906Y4765073D01*
X1479048Y4762658D01*
X1479948Y4760144D01*
X1480597Y4757553D01*
X1480989Y4754911D01*
X1481120Y4752243D01*
X1481120Y4681477D01*
X1480989Y4678810D01*
X1480597Y4676168D01*
X1479948Y4673577D01*
X1479048Y4671062D01*
X1477906Y4668647D01*
X1476533Y4666356D01*
X1474942Y4664211D01*
X1473148Y4662232D01*
X1471169Y4660438D01*
X1469024Y4658847D01*
X1466733Y4657474D01*
X1464318Y4656332D01*
X1461803Y4655432D01*
X1459212Y4654783D01*
X1456570Y4654391D01*
X1453903Y4654260D01*
X1358137Y4654260D01*
X1355470Y4654391D01*
X1352828Y4654783D01*
X1350237Y4655432D01*
X1347722Y4656332D01*
X1345307Y4657474D01*
X1343016Y4658847D01*
X1340871Y4660438D01*
X1338892Y4662232D01*
X1337098Y4664211D01*
X1335507Y4666356D01*
X1334134Y4668647D01*
X1332992Y4671062D01*
X1332092Y4673577D01*
X1331443Y4676168D01*
X1331051Y4678810D01*
X1330920Y4681477D01*
X1330920Y4752243D01*
X1331051Y4754911D01*
X1331443Y4757553D01*
X1332092Y4760144D01*
X1332992Y4762658D01*
X1334134Y4765073D01*
X1335507Y4767364D01*
X1337098Y4769509D01*
X1338892Y4771488D01*
X1340871Y4773282D01*
X1343016Y4774873D01*
X1345307Y4776246D01*
X1347722Y4777388D01*
X1350237Y4778288D01*
X1352828Y4778937D01*
X1355470Y4779329D01*
X1358137Y4779460D01*
X1453903Y4779460D01*
X1456570Y4779329D01*
X1456570Y4779329D01*
G37*
D24*
X1406020Y4716860D03*
D18*
G36*
X1456570Y4984329D02*
G01*
X1459212Y4983937D01*
X1461803Y4983288D01*
X1464318Y4982388D01*
X1466733Y4981246D01*
X1469024Y4979873D01*
X1471169Y4978282D01*
X1473148Y4976488D01*
X1474942Y4974509D01*
X1476533Y4972364D01*
X1477906Y4970073D01*
X1479048Y4967658D01*
X1479948Y4965144D01*
X1480597Y4962553D01*
X1480989Y4959911D01*
X1481120Y4957243D01*
X1481120Y4886477D01*
X1480989Y4883810D01*
X1480597Y4881168D01*
X1479948Y4878577D01*
X1479048Y4876062D01*
X1477906Y4873647D01*
X1476533Y4871356D01*
X1474942Y4869211D01*
X1473148Y4867232D01*
X1471169Y4865438D01*
X1469024Y4863847D01*
X1466733Y4862474D01*
X1464318Y4861332D01*
X1461803Y4860432D01*
X1459212Y4859783D01*
X1456570Y4859391D01*
X1453903Y4859260D01*
X1358137Y4859260D01*
X1355470Y4859391D01*
X1352828Y4859783D01*
X1350237Y4860432D01*
X1347722Y4861332D01*
X1345307Y4862474D01*
X1343016Y4863847D01*
X1340871Y4865438D01*
X1338892Y4867232D01*
X1337098Y4869211D01*
X1335507Y4871356D01*
X1334134Y4873647D01*
X1332992Y4876062D01*
X1332092Y4878577D01*
X1331443Y4881168D01*
X1331051Y4883810D01*
X1330920Y4886477D01*
X1330920Y4957243D01*
X1331051Y4959911D01*
X1331443Y4962553D01*
X1332092Y4965144D01*
X1332992Y4967658D01*
X1334134Y4970073D01*
X1335507Y4972364D01*
X1337098Y4974509D01*
X1338892Y4976488D01*
X1340871Y4978282D01*
X1343016Y4979873D01*
X1345307Y4981246D01*
X1347722Y4982388D01*
X1350237Y4983288D01*
X1352828Y4983937D01*
X1355470Y4984329D01*
X1358137Y4984460D01*
X1453903Y4984460D01*
X1456570Y4984329D01*
X1456570Y4984329D01*
G37*
D24*
X1406020Y4921860D03*
D35*
X3724820Y996620D03*
D19*
X3447820Y996620D03*
X3170820Y996620D03*
X2893820Y996620D03*
X2616820Y996620D03*
X3586320Y712620D03*
X3309320Y712620D03*
X3032320Y712620D03*
X2755320Y712620D03*
D36*
X1920820Y966620D03*
X4420820Y966620D03*
D37*
X691620Y3894800D03*
X291620Y3894800D03*
D38*
X4540888Y1920966D03*
D39*
X304800Y6643700D03*
X4521200Y6643700D03*
X304800Y3214700D03*
X4521200Y3214700D03*
D18*
G36*
X1235337Y3990427D02*
G01*
X1237979Y3990035D01*
X1240570Y3989386D01*
X1243084Y3988486D01*
X1245499Y3987344D01*
X1247790Y3985971D01*
X1249935Y3984380D01*
X1251914Y3982586D01*
X1253708Y3980607D01*
X1255299Y3978462D01*
X1256672Y3976171D01*
X1257814Y3973756D01*
X1258714Y3971241D01*
X1259363Y3968650D01*
X1259755Y3966008D01*
X1259886Y3963341D01*
X1259886Y3892575D01*
X1259755Y3889907D01*
X1259363Y3887265D01*
X1258714Y3884674D01*
X1257814Y3882160D01*
X1256672Y3879745D01*
X1255299Y3877454D01*
X1253708Y3875309D01*
X1251914Y3873330D01*
X1249935Y3871536D01*
X1247790Y3869945D01*
X1245499Y3868572D01*
X1243084Y3867430D01*
X1240570Y3866530D01*
X1237979Y3865881D01*
X1235337Y3865489D01*
X1232669Y3865358D01*
X1136903Y3865358D01*
X1134236Y3865489D01*
X1131594Y3865881D01*
X1129003Y3866530D01*
X1126488Y3867430D01*
X1124073Y3868572D01*
X1121782Y3869945D01*
X1119637Y3871536D01*
X1117658Y3873330D01*
X1115864Y3875309D01*
X1114273Y3877454D01*
X1112900Y3879745D01*
X1111758Y3882160D01*
X1110858Y3884674D01*
X1110209Y3887265D01*
X1109817Y3889907D01*
X1109686Y3892575D01*
X1109686Y3963341D01*
X1109817Y3966008D01*
X1110209Y3968650D01*
X1110858Y3971241D01*
X1111758Y3973756D01*
X1112900Y3976171D01*
X1114273Y3978462D01*
X1115864Y3980607D01*
X1117658Y3982586D01*
X1119637Y3984380D01*
X1121782Y3985971D01*
X1124073Y3987344D01*
X1126488Y3988486D01*
X1129003Y3989386D01*
X1131594Y3990035D01*
X1134236Y3990427D01*
X1136903Y3990558D01*
X1232669Y3990558D01*
X1235337Y3990427D01*
X1235337Y3990427D01*
G37*
D24*
X1184786Y3927958D03*
D18*
G36*
X1235337Y3785427D02*
G01*
X1237979Y3785035D01*
X1240570Y3784386D01*
X1243084Y3783486D01*
X1245499Y3782344D01*
X1247790Y3780971D01*
X1249935Y3779380D01*
X1251914Y3777586D01*
X1253708Y3775607D01*
X1255299Y3773462D01*
X1256672Y3771171D01*
X1257814Y3768756D01*
X1258714Y3766241D01*
X1259363Y3763650D01*
X1259755Y3761008D01*
X1259886Y3758341D01*
X1259886Y3687575D01*
X1259755Y3684907D01*
X1259363Y3682265D01*
X1258714Y3679674D01*
X1257814Y3677160D01*
X1256672Y3674745D01*
X1255299Y3672454D01*
X1253708Y3670309D01*
X1251914Y3668330D01*
X1249935Y3666536D01*
X1247790Y3664945D01*
X1245499Y3663572D01*
X1243084Y3662430D01*
X1240570Y3661530D01*
X1237979Y3660881D01*
X1235337Y3660489D01*
X1232669Y3660358D01*
X1136903Y3660358D01*
X1134236Y3660489D01*
X1131594Y3660881D01*
X1129003Y3661530D01*
X1126488Y3662430D01*
X1124073Y3663572D01*
X1121782Y3664945D01*
X1119637Y3666536D01*
X1117658Y3668330D01*
X1115864Y3670309D01*
X1114273Y3672454D01*
X1112900Y3674745D01*
X1111758Y3677160D01*
X1110858Y3679674D01*
X1110209Y3682265D01*
X1109817Y3684907D01*
X1109686Y3687575D01*
X1109686Y3758341D01*
X1109817Y3761008D01*
X1110209Y3763650D01*
X1110858Y3766241D01*
X1111758Y3768756D01*
X1112900Y3771171D01*
X1114273Y3773462D01*
X1115864Y3775607D01*
X1117658Y3777586D01*
X1119637Y3779380D01*
X1121782Y3780971D01*
X1124073Y3782344D01*
X1126488Y3783486D01*
X1129003Y3784386D01*
X1131594Y3785035D01*
X1134236Y3785427D01*
X1136903Y3785558D01*
X1232669Y3785558D01*
X1235337Y3785427D01*
X1235337Y3785427D01*
G37*
D24*
X1184786Y3722958D03*
D18*
G36*
X1006736Y3785427D02*
G01*
X1009378Y3785035D01*
X1011969Y3784386D01*
X1014484Y3783486D01*
X1016899Y3782344D01*
X1019190Y3780971D01*
X1021335Y3779380D01*
X1023314Y3777586D01*
X1025108Y3775607D01*
X1026699Y3773462D01*
X1028072Y3771171D01*
X1029214Y3768756D01*
X1030114Y3766241D01*
X1030763Y3763650D01*
X1031155Y3761008D01*
X1031286Y3758341D01*
X1031286Y3687575D01*
X1031155Y3684907D01*
X1030763Y3682265D01*
X1030114Y3679674D01*
X1029214Y3677160D01*
X1028072Y3674745D01*
X1026699Y3672454D01*
X1025108Y3670309D01*
X1023314Y3668330D01*
X1021335Y3666536D01*
X1019190Y3664945D01*
X1016899Y3663572D01*
X1014484Y3662430D01*
X1011969Y3661530D01*
X1009378Y3660881D01*
X1006736Y3660489D01*
X1004069Y3660358D01*
X908303Y3660358D01*
X905635Y3660489D01*
X902993Y3660881D01*
X900402Y3661530D01*
X897888Y3662430D01*
X895473Y3663572D01*
X893182Y3664945D01*
X891037Y3666536D01*
X889058Y3668330D01*
X887264Y3670309D01*
X885673Y3672454D01*
X884300Y3674745D01*
X883158Y3677160D01*
X882258Y3679674D01*
X881609Y3682265D01*
X881217Y3684907D01*
X881086Y3687575D01*
X881086Y3758341D01*
X881217Y3761008D01*
X881609Y3763650D01*
X882258Y3766241D01*
X883158Y3768756D01*
X884300Y3771171D01*
X885673Y3773462D01*
X887264Y3775607D01*
X889058Y3777586D01*
X891037Y3779380D01*
X893182Y3780971D01*
X895473Y3782344D01*
X897888Y3783486D01*
X900402Y3784386D01*
X902993Y3785035D01*
X905635Y3785427D01*
X908303Y3785558D01*
X1004069Y3785558D01*
X1006736Y3785427D01*
X1006736Y3785427D01*
G37*
D24*
X956186Y3722958D03*
D18*
G36*
X1006736Y3990427D02*
G01*
X1009378Y3990035D01*
X1011969Y3989386D01*
X1014484Y3988486D01*
X1016899Y3987344D01*
X1019190Y3985971D01*
X1021335Y3984380D01*
X1023314Y3982586D01*
X1025108Y3980607D01*
X1026699Y3978462D01*
X1028072Y3976171D01*
X1029214Y3973756D01*
X1030114Y3971241D01*
X1030763Y3968650D01*
X1031155Y3966008D01*
X1031286Y3963341D01*
X1031286Y3892575D01*
X1031155Y3889907D01*
X1030763Y3887265D01*
X1030114Y3884674D01*
X1029214Y3882160D01*
X1028072Y3879745D01*
X1026699Y3877454D01*
X1025108Y3875309D01*
X1023314Y3873330D01*
X1021335Y3871536D01*
X1019190Y3869945D01*
X1016899Y3868572D01*
X1014484Y3867430D01*
X1011969Y3866530D01*
X1009378Y3865881D01*
X1006736Y3865489D01*
X1004069Y3865358D01*
X908303Y3865358D01*
X905635Y3865489D01*
X902993Y3865881D01*
X900402Y3866530D01*
X897888Y3867430D01*
X895473Y3868572D01*
X893182Y3869945D01*
X891037Y3871536D01*
X889058Y3873330D01*
X887264Y3875309D01*
X885673Y3877454D01*
X884300Y3879745D01*
X883158Y3882160D01*
X882258Y3884674D01*
X881609Y3887265D01*
X881217Y3889907D01*
X881086Y3892575D01*
X881086Y3963341D01*
X881217Y3966008D01*
X881609Y3968650D01*
X882258Y3971241D01*
X883158Y3973756D01*
X884300Y3976171D01*
X885673Y3978462D01*
X887264Y3980607D01*
X889058Y3982586D01*
X891037Y3984380D01*
X893182Y3985971D01*
X895473Y3987344D01*
X897888Y3988486D01*
X900402Y3989386D01*
X902993Y3990035D01*
X905635Y3990427D01*
X908303Y3990558D01*
X1004069Y3990558D01*
X1006736Y3990427D01*
X1006736Y3990427D01*
G37*
D24*
X956186Y3927958D03*
M02*
