G04 #@! TF.GenerationSoftware,KiCad,Pcbnew,(5.1.0)-1*
G04 #@! TF.CreationDate,2022-02-26T19:57:31-08:00*
G04 #@! TF.ProjectId,BITLINK_12F_R1,4249544c-494e-44b5-9f31-32465f52312e,rev?*
G04 #@! TF.SameCoordinates,PX7755c18PY8cd1ce0*
G04 #@! TF.FileFunction,Soldermask,Bot*
G04 #@! TF.FilePolarity,Negative*
%FSLAX45Y45*%
G04 Gerber Fmt 4.5, Leading zero omitted, Abs format (unit mm)*
G04 Created by KiCad (PCBNEW (5.1.0)-1) date 2022-02-26 19:57:31*
%MOMM*%
%LPD*%
G04 APERTURE LIST*
%ADD10C,0.100000*%
G04 APERTURE END LIST*
D10*
G36*
X659518Y689191D02*
G01*
X672883Y685137D01*
X685198Y678554D01*
X695994Y669694D01*
X704854Y658898D01*
X711437Y646583D01*
X715491Y633218D01*
X716920Y618706D01*
X716920Y452334D01*
X715491Y437822D01*
X711437Y424457D01*
X704854Y412142D01*
X695994Y401346D01*
X685198Y392486D01*
X672883Y385903D01*
X659518Y381849D01*
X645006Y380420D01*
X428634Y380420D01*
X414122Y381849D01*
X400757Y385903D01*
X388442Y392486D01*
X377646Y401346D01*
X368786Y412142D01*
X362203Y424457D01*
X358149Y437822D01*
X356720Y452334D01*
X356720Y618706D01*
X358149Y633218D01*
X362203Y646583D01*
X368786Y658898D01*
X377646Y669694D01*
X388442Y678554D01*
X400757Y685137D01*
X414122Y689191D01*
X428634Y690620D01*
X645006Y690620D01*
X659518Y689191D01*
X659518Y689191D01*
G37*
G36*
X3611143Y794450D02*
G01*
X3626630Y788035D01*
X3640568Y778721D01*
X3652421Y766868D01*
X3661735Y752930D01*
X3668150Y737443D01*
X3671420Y721002D01*
X3671420Y704238D01*
X3668150Y687797D01*
X3661735Y672310D01*
X3652421Y658372D01*
X3640568Y646519D01*
X3626630Y637205D01*
X3611143Y630790D01*
X3594702Y627520D01*
X3577938Y627520D01*
X3561497Y630790D01*
X3546010Y637205D01*
X3532072Y646519D01*
X3520218Y658372D01*
X3510905Y672310D01*
X3504490Y687797D01*
X3501220Y704238D01*
X3501220Y721002D01*
X3504490Y737443D01*
X3510905Y752930D01*
X3520218Y766868D01*
X3532072Y778721D01*
X3546010Y788035D01*
X3561497Y794450D01*
X3577938Y797720D01*
X3594702Y797720D01*
X3611143Y794450D01*
X3611143Y794450D01*
G37*
G36*
X2780143Y794450D02*
G01*
X2795630Y788035D01*
X2809568Y778721D01*
X2821421Y766868D01*
X2830735Y752930D01*
X2837150Y737443D01*
X2840420Y721002D01*
X2840420Y704238D01*
X2837150Y687797D01*
X2830735Y672310D01*
X2821421Y658372D01*
X2809568Y646519D01*
X2795630Y637205D01*
X2780143Y630790D01*
X2763702Y627520D01*
X2746938Y627520D01*
X2730497Y630790D01*
X2715010Y637205D01*
X2701072Y646519D01*
X2689219Y658372D01*
X2679905Y672310D01*
X2673490Y687797D01*
X2670220Y704238D01*
X2670220Y721002D01*
X2673490Y737443D01*
X2679905Y752930D01*
X2689219Y766868D01*
X2701072Y778721D01*
X2715010Y788035D01*
X2730497Y794450D01*
X2746938Y797720D01*
X2763702Y797720D01*
X2780143Y794450D01*
X2780143Y794450D01*
G37*
G36*
X3334143Y794450D02*
G01*
X3349630Y788035D01*
X3363568Y778721D01*
X3375421Y766868D01*
X3384735Y752930D01*
X3391150Y737443D01*
X3394420Y721002D01*
X3394420Y704238D01*
X3391150Y687797D01*
X3384735Y672310D01*
X3375421Y658372D01*
X3363568Y646519D01*
X3349630Y637205D01*
X3334143Y630790D01*
X3317702Y627520D01*
X3300938Y627520D01*
X3284497Y630790D01*
X3269010Y637205D01*
X3255072Y646519D01*
X3243218Y658372D01*
X3233905Y672310D01*
X3227490Y687797D01*
X3224220Y704238D01*
X3224220Y721002D01*
X3227490Y737443D01*
X3233905Y752930D01*
X3243218Y766868D01*
X3255072Y778721D01*
X3269010Y788035D01*
X3284497Y794450D01*
X3300938Y797720D01*
X3317702Y797720D01*
X3334143Y794450D01*
X3334143Y794450D01*
G37*
G36*
X3057143Y794450D02*
G01*
X3072630Y788035D01*
X3086568Y778721D01*
X3098421Y766868D01*
X3107735Y752930D01*
X3114150Y737443D01*
X3117420Y721002D01*
X3117420Y704238D01*
X3114150Y687797D01*
X3107735Y672310D01*
X3098421Y658372D01*
X3086568Y646519D01*
X3072630Y637205D01*
X3057143Y630790D01*
X3040702Y627520D01*
X3023938Y627520D01*
X3007497Y630790D01*
X2992010Y637205D01*
X2978072Y646519D01*
X2966218Y658372D01*
X2956905Y672310D01*
X2950490Y687797D01*
X2947220Y704238D01*
X2947220Y721002D01*
X2950490Y737443D01*
X2956905Y752930D01*
X2966218Y766868D01*
X2978072Y778721D01*
X2992010Y788035D01*
X3007497Y794450D01*
X3023938Y797720D01*
X3040702Y797720D01*
X3057143Y794450D01*
X3057143Y794450D01*
G37*
G36*
X1119457Y1013950D02*
G01*
X1135166Y1009185D01*
X1149643Y1001447D01*
X1162333Y991033D01*
X1172747Y978343D01*
X1180485Y963866D01*
X1185251Y948157D01*
X1186920Y931206D01*
X1186920Y739834D01*
X1185251Y722883D01*
X1180485Y707174D01*
X1172747Y692697D01*
X1162333Y680007D01*
X1149643Y669593D01*
X1135166Y661855D01*
X1119457Y657090D01*
X1102506Y655420D01*
X911134Y655420D01*
X894183Y657090D01*
X878474Y661855D01*
X863997Y669593D01*
X851307Y680007D01*
X840893Y692697D01*
X833155Y707174D01*
X828389Y722883D01*
X826720Y739834D01*
X826720Y931206D01*
X828389Y948157D01*
X833155Y963866D01*
X840893Y978343D01*
X851307Y991033D01*
X863997Y1001447D01*
X878474Y1009185D01*
X894183Y1013950D01*
X911134Y1015620D01*
X1102506Y1015620D01*
X1119457Y1013950D01*
X1119457Y1013950D01*
G37*
G36*
X1980645Y1163838D02*
G01*
X2017971Y1148377D01*
X2017971Y1148377D01*
X2051564Y1125932D01*
X2080132Y1097364D01*
X2097056Y1072035D01*
X2102577Y1063771D01*
X2118038Y1026445D01*
X2125920Y986821D01*
X2125920Y946419D01*
X2118038Y906795D01*
X2102577Y869469D01*
X2102577Y869469D01*
X2080132Y835876D01*
X2051564Y807308D01*
X2017971Y784863D01*
X2017971Y784863D01*
X2017971Y784863D01*
X1980645Y769402D01*
X1941021Y761520D01*
X1900619Y761520D01*
X1860995Y769402D01*
X1823669Y784863D01*
X1823669Y784863D01*
X1823669Y784863D01*
X1790076Y807308D01*
X1761508Y835876D01*
X1739063Y869469D01*
X1739063Y869469D01*
X1723602Y906795D01*
X1715720Y946419D01*
X1715720Y986821D01*
X1723602Y1026445D01*
X1739063Y1063771D01*
X1744584Y1072035D01*
X1761508Y1097364D01*
X1790076Y1125932D01*
X1823669Y1148377D01*
X1823669Y1148377D01*
X1860995Y1163838D01*
X1900619Y1171720D01*
X1941021Y1171720D01*
X1980645Y1163838D01*
X1980645Y1163838D01*
G37*
G36*
X4480645Y1163838D02*
G01*
X4517971Y1148377D01*
X4517971Y1148377D01*
X4551564Y1125932D01*
X4580132Y1097364D01*
X4597056Y1072035D01*
X4602577Y1063771D01*
X4618038Y1026445D01*
X4625920Y986821D01*
X4625920Y946419D01*
X4618038Y906795D01*
X4602577Y869469D01*
X4602577Y869469D01*
X4580132Y835876D01*
X4551564Y807308D01*
X4517971Y784863D01*
X4517971Y784863D01*
X4517971Y784863D01*
X4480645Y769402D01*
X4441021Y761520D01*
X4400619Y761520D01*
X4360995Y769402D01*
X4323669Y784863D01*
X4323669Y784863D01*
X4323669Y784863D01*
X4290076Y807308D01*
X4261508Y835876D01*
X4239063Y869469D01*
X4239063Y869469D01*
X4223602Y906795D01*
X4215720Y946419D01*
X4215720Y986821D01*
X4223602Y1026445D01*
X4239063Y1063771D01*
X4244584Y1072035D01*
X4261508Y1097364D01*
X4290076Y1125932D01*
X4323669Y1148377D01*
X4323669Y1148377D01*
X4360995Y1163838D01*
X4400619Y1171720D01*
X4441021Y1171720D01*
X4480645Y1163838D01*
X4480645Y1163838D01*
G37*
G36*
X3809920Y911520D02*
G01*
X3639720Y911520D01*
X3639720Y1081720D01*
X3809920Y1081720D01*
X3809920Y911520D01*
X3809920Y911520D01*
G37*
G36*
X3472643Y1078450D02*
G01*
X3488130Y1072035D01*
X3502068Y1062722D01*
X3513921Y1050868D01*
X3523235Y1036930D01*
X3529650Y1021443D01*
X3532920Y1005002D01*
X3532920Y988238D01*
X3529650Y971797D01*
X3523235Y956310D01*
X3513921Y942372D01*
X3502068Y930518D01*
X3488130Y921205D01*
X3472643Y914790D01*
X3456202Y911520D01*
X3439438Y911520D01*
X3422997Y914790D01*
X3407510Y921205D01*
X3393572Y930518D01*
X3381718Y942372D01*
X3372405Y956310D01*
X3365990Y971797D01*
X3362720Y988238D01*
X3362720Y1005002D01*
X3365990Y1021443D01*
X3372405Y1036930D01*
X3381718Y1050868D01*
X3393572Y1062722D01*
X3407510Y1072035D01*
X3422997Y1078450D01*
X3439438Y1081720D01*
X3456202Y1081720D01*
X3472643Y1078450D01*
X3472643Y1078450D01*
G37*
G36*
X3195643Y1078450D02*
G01*
X3211130Y1072035D01*
X3225068Y1062722D01*
X3236921Y1050868D01*
X3246235Y1036930D01*
X3252650Y1021443D01*
X3255920Y1005002D01*
X3255920Y988238D01*
X3252650Y971797D01*
X3246235Y956310D01*
X3236921Y942372D01*
X3225068Y930518D01*
X3211130Y921205D01*
X3195643Y914790D01*
X3179202Y911520D01*
X3162438Y911520D01*
X3145997Y914790D01*
X3130510Y921205D01*
X3116572Y930518D01*
X3104718Y942372D01*
X3095405Y956310D01*
X3088990Y971797D01*
X3085720Y988238D01*
X3085720Y1005002D01*
X3088990Y1021443D01*
X3095405Y1036930D01*
X3104718Y1050868D01*
X3116572Y1062722D01*
X3130510Y1072035D01*
X3145997Y1078450D01*
X3162438Y1081720D01*
X3179202Y1081720D01*
X3195643Y1078450D01*
X3195643Y1078450D01*
G37*
G36*
X2918643Y1078450D02*
G01*
X2934130Y1072035D01*
X2948068Y1062722D01*
X2959921Y1050868D01*
X2969235Y1036930D01*
X2975650Y1021443D01*
X2978920Y1005002D01*
X2978920Y988238D01*
X2975650Y971797D01*
X2969235Y956310D01*
X2959921Y942372D01*
X2948068Y930518D01*
X2934130Y921205D01*
X2918643Y914790D01*
X2902202Y911520D01*
X2885438Y911520D01*
X2868997Y914790D01*
X2853510Y921205D01*
X2839572Y930518D01*
X2827718Y942372D01*
X2818405Y956310D01*
X2811990Y971797D01*
X2808720Y988238D01*
X2808720Y1005002D01*
X2811990Y1021443D01*
X2818405Y1036930D01*
X2827718Y1050868D01*
X2839572Y1062722D01*
X2853510Y1072035D01*
X2868997Y1078450D01*
X2885438Y1081720D01*
X2902202Y1081720D01*
X2918643Y1078450D01*
X2918643Y1078450D01*
G37*
G36*
X2641643Y1078450D02*
G01*
X2657130Y1072035D01*
X2671068Y1062722D01*
X2682922Y1050868D01*
X2692235Y1036930D01*
X2698650Y1021443D01*
X2701920Y1005002D01*
X2701920Y988238D01*
X2698650Y971797D01*
X2692235Y956310D01*
X2682922Y942372D01*
X2671068Y930518D01*
X2657130Y921205D01*
X2641643Y914790D01*
X2625202Y911520D01*
X2608438Y911520D01*
X2591997Y914790D01*
X2576510Y921205D01*
X2562572Y930518D01*
X2550719Y942372D01*
X2541405Y956310D01*
X2534990Y971797D01*
X2531720Y988238D01*
X2531720Y1005002D01*
X2534990Y1021443D01*
X2541405Y1036930D01*
X2550719Y1050868D01*
X2562572Y1062722D01*
X2576510Y1072035D01*
X2591997Y1078450D01*
X2608438Y1081720D01*
X2625202Y1081720D01*
X2641643Y1078450D01*
X2641643Y1078450D01*
G37*
G36*
X716920Y955420D02*
G01*
X356720Y955420D01*
X356720Y1315620D01*
X716920Y1315620D01*
X716920Y955420D01*
X716920Y955420D01*
G37*
G36*
X1374788Y1582593D02*
G01*
X1393915Y1574670D01*
X1393916Y1574670D01*
X1411129Y1563168D01*
X1425768Y1548529D01*
X1437270Y1531315D01*
X1445193Y1512188D01*
X1449232Y1491884D01*
X1449232Y1471180D01*
X1445193Y1450876D01*
X1437270Y1431749D01*
X1437270Y1431748D01*
X1425768Y1414535D01*
X1411129Y1399895D01*
X1393916Y1388394D01*
X1393915Y1388394D01*
X1393915Y1388394D01*
X1374788Y1380471D01*
X1354484Y1376432D01*
X1333780Y1376432D01*
X1313476Y1380471D01*
X1294349Y1388394D01*
X1294349Y1388394D01*
X1294349Y1388394D01*
X1277135Y1399895D01*
X1262496Y1414535D01*
X1250994Y1431748D01*
X1250994Y1431749D01*
X1243071Y1450876D01*
X1239032Y1471180D01*
X1239032Y1491884D01*
X1243071Y1512188D01*
X1250994Y1531315D01*
X1262496Y1548529D01*
X1277135Y1563168D01*
X1294349Y1574670D01*
X1294349Y1574670D01*
X1313476Y1582593D01*
X1333780Y1586632D01*
X1354484Y1586632D01*
X1374788Y1582593D01*
X1374788Y1582593D01*
G37*
G36*
X1824788Y1582593D02*
G01*
X1843915Y1574670D01*
X1843915Y1574670D01*
X1861129Y1563168D01*
X1875768Y1548529D01*
X1887270Y1531315D01*
X1895193Y1512188D01*
X1899232Y1491884D01*
X1899232Y1471180D01*
X1895193Y1450876D01*
X1887270Y1431749D01*
X1887270Y1431748D01*
X1875768Y1414535D01*
X1861129Y1399895D01*
X1843915Y1388394D01*
X1843915Y1388394D01*
X1843915Y1388394D01*
X1824788Y1380471D01*
X1804484Y1376432D01*
X1783780Y1376432D01*
X1763476Y1380471D01*
X1744349Y1388394D01*
X1744349Y1388394D01*
X1744348Y1388394D01*
X1727135Y1399895D01*
X1712495Y1414535D01*
X1700994Y1431748D01*
X1700993Y1431749D01*
X1693071Y1450876D01*
X1689032Y1471180D01*
X1689032Y1491884D01*
X1693071Y1512188D01*
X1700993Y1531315D01*
X1712495Y1548529D01*
X1727135Y1563168D01*
X1744348Y1574670D01*
X1744349Y1574670D01*
X1763476Y1582593D01*
X1783780Y1586632D01*
X1804484Y1586632D01*
X1824788Y1582593D01*
X1824788Y1582593D01*
G37*
G36*
X555003Y1798156D02*
G01*
X571987Y1793004D01*
X587639Y1784638D01*
X591213Y1781705D01*
X601359Y1773379D01*
X609685Y1763233D01*
X612618Y1759659D01*
X620984Y1744007D01*
X626136Y1727023D01*
X627440Y1713786D01*
X627440Y1674934D01*
X626136Y1661697D01*
X620984Y1644713D01*
X612618Y1629061D01*
X609685Y1625487D01*
X601359Y1615341D01*
X587639Y1604082D01*
X571987Y1595716D01*
X571987Y1595716D01*
X555003Y1590564D01*
X537340Y1588824D01*
X519677Y1590564D01*
X502693Y1595716D01*
X487041Y1604082D01*
X482815Y1607550D01*
X473321Y1615341D01*
X462062Y1629061D01*
X453696Y1644713D01*
X453696Y1644713D01*
X448544Y1661697D01*
X447240Y1674934D01*
X447240Y1713786D01*
X448544Y1727023D01*
X453696Y1744007D01*
X462062Y1759659D01*
X473321Y1773378D01*
X487041Y1784638D01*
X502693Y1793004D01*
X519677Y1798156D01*
X537340Y1799896D01*
X555003Y1798156D01*
X555003Y1798156D01*
G37*
G36*
X863200Y1799061D02*
G01*
X866505Y1798058D01*
X869550Y1796431D01*
X872220Y1794240D01*
X874411Y1791570D01*
X876038Y1788525D01*
X877041Y1785220D01*
X877440Y1781170D01*
X877440Y1607550D01*
X877041Y1603500D01*
X876038Y1600195D01*
X874411Y1597150D01*
X872220Y1594480D01*
X869550Y1592289D01*
X866505Y1590661D01*
X863200Y1589659D01*
X859150Y1589260D01*
X715530Y1589260D01*
X711480Y1589659D01*
X708175Y1590661D01*
X705130Y1592289D01*
X702460Y1594480D01*
X700269Y1597150D01*
X698642Y1600195D01*
X697639Y1603500D01*
X697240Y1607550D01*
X697240Y1781170D01*
X697639Y1785220D01*
X698642Y1788525D01*
X700269Y1791570D01*
X702460Y1794240D01*
X705130Y1796431D01*
X708175Y1798058D01*
X711480Y1799061D01*
X715530Y1799460D01*
X859150Y1799460D01*
X863200Y1799061D01*
X863200Y1799061D01*
G37*
G36*
X1824788Y2232593D02*
G01*
X1843915Y2224671D01*
X1843915Y2224670D01*
X1861129Y2213169D01*
X1875768Y2198529D01*
X1887270Y2181315D01*
X1895193Y2162188D01*
X1899232Y2141884D01*
X1899232Y2121180D01*
X1895193Y2100876D01*
X1887270Y2081749D01*
X1887270Y2081748D01*
X1875768Y2064535D01*
X1861129Y2049895D01*
X1843915Y2038394D01*
X1843915Y2038393D01*
X1843915Y2038393D01*
X1824788Y2030471D01*
X1804484Y2026432D01*
X1783780Y2026432D01*
X1763476Y2030471D01*
X1744349Y2038393D01*
X1744349Y2038393D01*
X1744348Y2038394D01*
X1727135Y2049895D01*
X1712495Y2064535D01*
X1700994Y2081748D01*
X1700993Y2081749D01*
X1693071Y2100876D01*
X1689032Y2121180D01*
X1689032Y2141884D01*
X1693071Y2162188D01*
X1700993Y2181315D01*
X1712495Y2198529D01*
X1727135Y2213169D01*
X1744348Y2224670D01*
X1744349Y2224671D01*
X1763476Y2232593D01*
X1783780Y2236632D01*
X1804484Y2236632D01*
X1824788Y2232593D01*
X1824788Y2232593D01*
G37*
G36*
X1374788Y2232593D02*
G01*
X1393915Y2224671D01*
X1393916Y2224670D01*
X1411129Y2213169D01*
X1425768Y2198529D01*
X1437270Y2181315D01*
X1445193Y2162188D01*
X1449232Y2141884D01*
X1449232Y2121180D01*
X1445193Y2100876D01*
X1437270Y2081749D01*
X1437270Y2081748D01*
X1425768Y2064535D01*
X1411129Y2049895D01*
X1393916Y2038394D01*
X1393915Y2038393D01*
X1393915Y2038393D01*
X1374788Y2030471D01*
X1354484Y2026432D01*
X1333780Y2026432D01*
X1313476Y2030471D01*
X1294349Y2038393D01*
X1294349Y2038393D01*
X1294349Y2038394D01*
X1277135Y2049895D01*
X1262496Y2064535D01*
X1250994Y2081748D01*
X1250994Y2081749D01*
X1243071Y2100876D01*
X1239032Y2121180D01*
X1239032Y2141884D01*
X1243071Y2162188D01*
X1250994Y2181315D01*
X1262496Y2198529D01*
X1277135Y2213169D01*
X1294349Y2224670D01*
X1294349Y2224671D01*
X1313476Y2232593D01*
X1333780Y2236632D01*
X1354484Y2236632D01*
X1374788Y2232593D01*
X1374788Y2232593D01*
G37*
G36*
X4558726Y3375570D02*
G01*
X4569358Y3373455D01*
X4599404Y3361010D01*
X4626445Y3342941D01*
X4649442Y3319945D01*
X4667510Y3292904D01*
X4679955Y3262858D01*
X4686300Y3230961D01*
X4686300Y3198439D01*
X4679955Y3166542D01*
X4667510Y3136496D01*
X4649442Y3109455D01*
X4626445Y3086458D01*
X4599404Y3068390D01*
X4569358Y3055945D01*
X4558726Y3053830D01*
X4537461Y3049600D01*
X4504939Y3049600D01*
X4483674Y3053830D01*
X4473042Y3055945D01*
X4442996Y3068390D01*
X4415955Y3086458D01*
X4392959Y3109455D01*
X4374890Y3136496D01*
X4362445Y3166542D01*
X4356100Y3198439D01*
X4356100Y3230961D01*
X4362445Y3262858D01*
X4374890Y3292904D01*
X4392959Y3319945D01*
X4415955Y3342941D01*
X4442996Y3361010D01*
X4473042Y3373455D01*
X4483674Y3375570D01*
X4504939Y3379800D01*
X4537461Y3379800D01*
X4558726Y3375570D01*
X4558726Y3375570D01*
G37*
G36*
X342326Y3375570D02*
G01*
X352958Y3373455D01*
X383004Y3361010D01*
X410045Y3342941D01*
X433041Y3319945D01*
X451110Y3292904D01*
X463555Y3262858D01*
X469900Y3230961D01*
X469900Y3198439D01*
X463555Y3166542D01*
X451110Y3136496D01*
X433041Y3109455D01*
X410045Y3086458D01*
X383004Y3068390D01*
X352958Y3055945D01*
X342326Y3053830D01*
X321061Y3049600D01*
X288539Y3049600D01*
X267274Y3053830D01*
X256642Y3055945D01*
X226596Y3068390D01*
X199555Y3086458D01*
X176558Y3109455D01*
X158490Y3136496D01*
X146045Y3166542D01*
X139700Y3198439D01*
X139700Y3230961D01*
X146045Y3262858D01*
X158490Y3292904D01*
X176558Y3319945D01*
X199555Y3342941D01*
X226596Y3361010D01*
X256642Y3373455D01*
X267274Y3375570D01*
X288539Y3379800D01*
X321061Y3379800D01*
X342326Y3375570D01*
X342326Y3375570D01*
G37*
G36*
X792476Y4430261D02*
G01*
X811603Y4422339D01*
X811603Y4422338D01*
X828817Y4410837D01*
X843456Y4396197D01*
X854958Y4378983D01*
X862881Y4359856D01*
X866920Y4339552D01*
X866920Y4318848D01*
X862881Y4298544D01*
X854958Y4279417D01*
X854958Y4279417D01*
X843456Y4262203D01*
X828817Y4247564D01*
X811603Y4236062D01*
X811603Y4236062D01*
X811603Y4236062D01*
X792476Y4228139D01*
X772172Y4224100D01*
X751468Y4224100D01*
X731164Y4228139D01*
X712037Y4236062D01*
X712037Y4236062D01*
X712036Y4236062D01*
X694823Y4247564D01*
X680184Y4262203D01*
X668682Y4279417D01*
X668682Y4279417D01*
X660759Y4298544D01*
X656720Y4318848D01*
X656720Y4339552D01*
X660759Y4359856D01*
X668682Y4378983D01*
X680184Y4396197D01*
X694823Y4410837D01*
X712036Y4422338D01*
X712037Y4422339D01*
X731164Y4430261D01*
X751468Y4434300D01*
X772172Y4434300D01*
X792476Y4430261D01*
X792476Y4430261D01*
G37*
G36*
X192476Y4430261D02*
G01*
X211603Y4422339D01*
X211603Y4422338D01*
X228817Y4410837D01*
X243456Y4396197D01*
X254958Y4378983D01*
X262881Y4359856D01*
X266920Y4339552D01*
X266920Y4318848D01*
X262881Y4298544D01*
X254958Y4279417D01*
X254958Y4279417D01*
X243456Y4262203D01*
X228817Y4247564D01*
X211603Y4236062D01*
X211603Y4236062D01*
X211603Y4236062D01*
X192476Y4228139D01*
X172172Y4224100D01*
X151468Y4224100D01*
X131164Y4228139D01*
X112037Y4236062D01*
X112037Y4236062D01*
X112036Y4236062D01*
X94823Y4247564D01*
X80184Y4262203D01*
X68682Y4279417D01*
X68682Y4279417D01*
X60759Y4298544D01*
X56720Y4318848D01*
X56720Y4339552D01*
X60759Y4359856D01*
X68682Y4378983D01*
X80184Y4396197D01*
X94823Y4410837D01*
X112036Y4422338D01*
X112037Y4422339D01*
X131164Y4430261D01*
X151468Y4434300D01*
X172172Y4434300D01*
X192476Y4430261D01*
X192476Y4430261D01*
G37*
G36*
X598171Y4618807D02*
G01*
X613101Y4615838D01*
X629498Y4609046D01*
X644255Y4599185D01*
X656805Y4586635D01*
X666666Y4571878D01*
X673458Y4555481D01*
X676920Y4538074D01*
X676920Y4520326D01*
X673458Y4502919D01*
X666666Y4486522D01*
X656805Y4471765D01*
X644255Y4459215D01*
X629498Y4449354D01*
X613101Y4442562D01*
X598171Y4439593D01*
X595694Y4439100D01*
X577946Y4439100D01*
X575469Y4439593D01*
X560539Y4442562D01*
X544142Y4449354D01*
X529385Y4459215D01*
X516835Y4471765D01*
X506974Y4486522D01*
X500182Y4502919D01*
X496720Y4520326D01*
X496720Y4538074D01*
X500182Y4555481D01*
X506974Y4571878D01*
X516835Y4586635D01*
X529385Y4599185D01*
X544142Y4609046D01*
X560539Y4615838D01*
X575469Y4618807D01*
X577946Y4619300D01*
X595694Y4619300D01*
X598171Y4618807D01*
X598171Y4618807D01*
G37*
G36*
X4611300Y4475900D02*
G01*
X4431100Y4475900D01*
X4431100Y4656100D01*
X4611300Y4656100D01*
X4611300Y4475900D01*
X4611300Y4475900D01*
G37*
G36*
X4532244Y4909448D02*
G01*
X4538863Y4908796D01*
X4555847Y4903644D01*
X4571499Y4895278D01*
X4575073Y4892345D01*
X4585219Y4884019D01*
X4593545Y4873873D01*
X4596478Y4870299D01*
X4604844Y4854647D01*
X4609996Y4837663D01*
X4611736Y4820000D01*
X4609996Y4802337D01*
X4604844Y4785353D01*
X4596478Y4769701D01*
X4593545Y4766127D01*
X4585219Y4755981D01*
X4575073Y4747655D01*
X4571499Y4744722D01*
X4555847Y4736356D01*
X4538863Y4731204D01*
X4532244Y4730552D01*
X4525626Y4729900D01*
X4516774Y4729900D01*
X4510156Y4730552D01*
X4503537Y4731204D01*
X4486553Y4736356D01*
X4470901Y4744722D01*
X4467327Y4747655D01*
X4457181Y4755981D01*
X4448855Y4766127D01*
X4445922Y4769701D01*
X4437556Y4785353D01*
X4432404Y4802337D01*
X4430664Y4820000D01*
X4432404Y4837663D01*
X4437556Y4854647D01*
X4445922Y4870299D01*
X4448855Y4873873D01*
X4457181Y4884019D01*
X4467327Y4892345D01*
X4470901Y4895278D01*
X4486553Y4903644D01*
X4503537Y4908796D01*
X4510156Y4909448D01*
X4516774Y4910100D01*
X4525626Y4910100D01*
X4532244Y4909448D01*
X4532244Y4909448D01*
G37*
G36*
X598171Y5018807D02*
G01*
X613101Y5015838D01*
X629498Y5009046D01*
X644255Y4999185D01*
X656805Y4986635D01*
X666666Y4971878D01*
X673458Y4955481D01*
X676920Y4938074D01*
X676920Y4920326D01*
X673458Y4902919D01*
X666666Y4886522D01*
X656805Y4871765D01*
X644255Y4859215D01*
X629498Y4849354D01*
X613101Y4842562D01*
X598171Y4839593D01*
X595694Y4839100D01*
X577946Y4839100D01*
X575469Y4839593D01*
X560539Y4842562D01*
X544142Y4849354D01*
X529385Y4859215D01*
X516835Y4871765D01*
X506974Y4886522D01*
X500182Y4902919D01*
X496720Y4920326D01*
X496720Y4938074D01*
X500182Y4955481D01*
X506974Y4971878D01*
X516835Y4986635D01*
X529385Y4999185D01*
X544142Y5009046D01*
X560539Y5015838D01*
X575469Y5018807D01*
X577946Y5019300D01*
X595694Y5019300D01*
X598171Y5018807D01*
X598171Y5018807D01*
G37*
G36*
X598171Y5418807D02*
G01*
X613101Y5415838D01*
X629498Y5409046D01*
X644255Y5399185D01*
X656805Y5386635D01*
X666666Y5371878D01*
X673458Y5355481D01*
X676920Y5338074D01*
X676920Y5320326D01*
X673458Y5302919D01*
X666666Y5286522D01*
X656805Y5271765D01*
X644255Y5259215D01*
X629498Y5249354D01*
X613101Y5242562D01*
X598171Y5239593D01*
X595694Y5239100D01*
X577946Y5239100D01*
X575469Y5239593D01*
X560539Y5242562D01*
X544142Y5249354D01*
X529385Y5259215D01*
X516835Y5271765D01*
X506974Y5286522D01*
X500182Y5302919D01*
X496720Y5320326D01*
X496720Y5338074D01*
X500182Y5355481D01*
X506974Y5371878D01*
X516835Y5386635D01*
X529385Y5399185D01*
X544142Y5409046D01*
X560539Y5415838D01*
X575469Y5418807D01*
X577946Y5419300D01*
X595694Y5419300D01*
X598171Y5418807D01*
X598171Y5418807D01*
G37*
G36*
X4611300Y5277900D02*
G01*
X4431100Y5277900D01*
X4431100Y5458100D01*
X4611300Y5458100D01*
X4611300Y5277900D01*
X4611300Y5277900D01*
G37*
G36*
X792476Y5630261D02*
G01*
X811603Y5622338D01*
X811603Y5622338D01*
X828817Y5610836D01*
X843456Y5596197D01*
X854958Y5578983D01*
X862881Y5559856D01*
X866920Y5539552D01*
X866920Y5518848D01*
X862881Y5498544D01*
X854958Y5479417D01*
X854958Y5479417D01*
X843456Y5462203D01*
X828817Y5447564D01*
X811603Y5436062D01*
X811603Y5436062D01*
X811603Y5436062D01*
X792476Y5428139D01*
X772172Y5424100D01*
X751468Y5424100D01*
X731164Y5428139D01*
X712037Y5436062D01*
X712037Y5436062D01*
X712036Y5436062D01*
X694823Y5447564D01*
X680184Y5462203D01*
X668682Y5479417D01*
X668682Y5479417D01*
X660759Y5498544D01*
X656720Y5518848D01*
X656720Y5539552D01*
X660759Y5559856D01*
X668682Y5578983D01*
X680184Y5596197D01*
X694823Y5610836D01*
X712036Y5622338D01*
X712037Y5622338D01*
X731164Y5630261D01*
X751468Y5634300D01*
X772172Y5634300D01*
X792476Y5630261D01*
X792476Y5630261D01*
G37*
G36*
X192476Y5630261D02*
G01*
X211603Y5622338D01*
X211603Y5622338D01*
X228817Y5610836D01*
X243456Y5596197D01*
X254958Y5578983D01*
X262881Y5559856D01*
X266920Y5539552D01*
X266920Y5518848D01*
X262881Y5498544D01*
X254958Y5479417D01*
X254958Y5479417D01*
X243456Y5462203D01*
X228817Y5447564D01*
X211603Y5436062D01*
X211603Y5436062D01*
X211603Y5436062D01*
X192476Y5428139D01*
X172172Y5424100D01*
X151468Y5424100D01*
X131164Y5428139D01*
X112037Y5436062D01*
X112037Y5436062D01*
X112036Y5436062D01*
X94823Y5447564D01*
X80184Y5462203D01*
X68682Y5479417D01*
X68682Y5479417D01*
X60759Y5498544D01*
X56720Y5518848D01*
X56720Y5539552D01*
X60759Y5559856D01*
X68682Y5578983D01*
X80184Y5596197D01*
X94823Y5610836D01*
X112036Y5622338D01*
X112037Y5622338D01*
X131164Y5630261D01*
X151468Y5634300D01*
X172172Y5634300D01*
X192476Y5630261D01*
X192476Y5630261D01*
G37*
G36*
X4532244Y5711448D02*
G01*
X4538863Y5710796D01*
X4555847Y5705644D01*
X4571499Y5697278D01*
X4575073Y5694345D01*
X4585219Y5686019D01*
X4593545Y5675873D01*
X4596478Y5672299D01*
X4604844Y5656647D01*
X4609996Y5639663D01*
X4611736Y5622000D01*
X4609996Y5604337D01*
X4604844Y5587353D01*
X4596478Y5571701D01*
X4593545Y5568127D01*
X4585219Y5557981D01*
X4575073Y5549655D01*
X4571499Y5546722D01*
X4555847Y5538356D01*
X4538863Y5533204D01*
X4532244Y5532552D01*
X4525626Y5531900D01*
X4516774Y5531900D01*
X4510156Y5532552D01*
X4503537Y5533204D01*
X4486553Y5538356D01*
X4470901Y5546722D01*
X4467327Y5549655D01*
X4457181Y5557981D01*
X4448855Y5568127D01*
X4445922Y5571701D01*
X4437556Y5587353D01*
X4432404Y5604337D01*
X4430664Y5622000D01*
X4432404Y5639663D01*
X4437556Y5656647D01*
X4445922Y5672299D01*
X4448855Y5675873D01*
X4457181Y5686019D01*
X4467327Y5694345D01*
X4470901Y5697278D01*
X4486553Y5705644D01*
X4503537Y5710796D01*
X4510156Y5711448D01*
X4516774Y5712100D01*
X4525626Y5712100D01*
X4532244Y5711448D01*
X4532244Y5711448D01*
G37*
G36*
X4532244Y5965448D02*
G01*
X4538863Y5964796D01*
X4555847Y5959644D01*
X4571499Y5951278D01*
X4575073Y5948345D01*
X4585219Y5940019D01*
X4593545Y5929873D01*
X4596478Y5926299D01*
X4604844Y5910647D01*
X4609996Y5893663D01*
X4611736Y5876000D01*
X4609996Y5858337D01*
X4604844Y5841353D01*
X4596478Y5825701D01*
X4593545Y5822127D01*
X4585219Y5811981D01*
X4575073Y5803655D01*
X4571499Y5800722D01*
X4555847Y5792356D01*
X4538863Y5787204D01*
X4532244Y5786552D01*
X4525626Y5785900D01*
X4516774Y5785900D01*
X4510156Y5786552D01*
X4503537Y5787204D01*
X4486553Y5792356D01*
X4470901Y5800722D01*
X4467327Y5803655D01*
X4457181Y5811981D01*
X4448855Y5822127D01*
X4445922Y5825701D01*
X4437556Y5841353D01*
X4432404Y5858337D01*
X4430664Y5876000D01*
X4432404Y5893663D01*
X4437556Y5910647D01*
X4445922Y5926299D01*
X4448855Y5929873D01*
X4457181Y5940019D01*
X4467327Y5948345D01*
X4470901Y5951278D01*
X4486553Y5959644D01*
X4503537Y5964796D01*
X4510156Y5965448D01*
X4516774Y5966100D01*
X4525626Y5966100D01*
X4532244Y5965448D01*
X4532244Y5965448D01*
G37*
G36*
X4558726Y6804570D02*
G01*
X4569358Y6802455D01*
X4599404Y6790010D01*
X4626445Y6771941D01*
X4649442Y6748945D01*
X4667510Y6721904D01*
X4679955Y6691858D01*
X4686300Y6659961D01*
X4686300Y6627439D01*
X4679955Y6595542D01*
X4667510Y6565496D01*
X4649442Y6538455D01*
X4626445Y6515458D01*
X4599404Y6497390D01*
X4569358Y6484945D01*
X4558726Y6482830D01*
X4537461Y6478600D01*
X4504939Y6478600D01*
X4483674Y6482830D01*
X4473042Y6484945D01*
X4442996Y6497390D01*
X4415955Y6515458D01*
X4392959Y6538455D01*
X4374890Y6565496D01*
X4362445Y6595542D01*
X4356100Y6627439D01*
X4356100Y6659961D01*
X4362445Y6691858D01*
X4374890Y6721904D01*
X4392959Y6748945D01*
X4415955Y6771941D01*
X4442996Y6790010D01*
X4473042Y6802455D01*
X4483674Y6804570D01*
X4504939Y6808800D01*
X4537461Y6808800D01*
X4558726Y6804570D01*
X4558726Y6804570D01*
G37*
G36*
X342326Y6804570D02*
G01*
X352958Y6802455D01*
X383004Y6790010D01*
X410045Y6771941D01*
X433041Y6748945D01*
X451110Y6721904D01*
X463555Y6691858D01*
X469900Y6659961D01*
X469900Y6627439D01*
X463555Y6595542D01*
X451110Y6565496D01*
X433041Y6538455D01*
X410045Y6515458D01*
X383004Y6497390D01*
X352958Y6484945D01*
X342326Y6482830D01*
X321061Y6478600D01*
X288539Y6478600D01*
X267274Y6482830D01*
X256642Y6484945D01*
X226596Y6497390D01*
X199555Y6515458D01*
X176558Y6538455D01*
X158490Y6565496D01*
X146045Y6595542D01*
X139700Y6627439D01*
X139700Y6659961D01*
X146045Y6691858D01*
X158490Y6721904D01*
X176558Y6748945D01*
X199555Y6771941D01*
X226596Y6790010D01*
X256642Y6802455D01*
X267274Y6804570D01*
X288539Y6808800D01*
X321061Y6808800D01*
X342326Y6804570D01*
X342326Y6804570D01*
G37*
G36*
X381100Y8713300D02*
G01*
X190900Y8713300D01*
X190900Y8903500D01*
X381100Y8903500D01*
X381100Y8713300D01*
X381100Y8713300D01*
G37*
G36*
X567740Y8899845D02*
G01*
X585047Y8892677D01*
X585047Y8892677D01*
X600623Y8882269D01*
X613869Y8869023D01*
X613869Y8869023D01*
X624277Y8853447D01*
X631445Y8836140D01*
X635100Y8817767D01*
X635100Y8799033D01*
X631445Y8780661D01*
X624277Y8763353D01*
X624277Y8763353D01*
X613869Y8747777D01*
X600623Y8734531D01*
X592782Y8729292D01*
X585047Y8724123D01*
X567740Y8716955D01*
X549367Y8713300D01*
X530633Y8713300D01*
X512260Y8716955D01*
X494953Y8724123D01*
X487218Y8729292D01*
X479377Y8734531D01*
X466131Y8747777D01*
X455723Y8763353D01*
X455723Y8763353D01*
X448555Y8780661D01*
X444900Y8799033D01*
X444900Y8817767D01*
X448555Y8836140D01*
X455723Y8853447D01*
X466131Y8869023D01*
X466131Y8869023D01*
X479377Y8882269D01*
X494953Y8892677D01*
X494953Y8892677D01*
X512260Y8899845D01*
X530633Y8903500D01*
X549367Y8903500D01*
X567740Y8899845D01*
X567740Y8899845D01*
G37*
G36*
X1367740Y8899845D02*
G01*
X1385047Y8892677D01*
X1385047Y8892677D01*
X1400623Y8882269D01*
X1413869Y8869023D01*
X1413869Y8869023D01*
X1424277Y8853447D01*
X1431445Y8836140D01*
X1435100Y8817767D01*
X1435100Y8799033D01*
X1431445Y8780661D01*
X1424277Y8763353D01*
X1424276Y8763353D01*
X1413869Y8747777D01*
X1400623Y8734531D01*
X1392782Y8729292D01*
X1385047Y8724123D01*
X1367740Y8716955D01*
X1349367Y8713300D01*
X1330633Y8713300D01*
X1312261Y8716955D01*
X1294953Y8724123D01*
X1287218Y8729292D01*
X1279377Y8734531D01*
X1266131Y8747777D01*
X1255724Y8763353D01*
X1255723Y8763353D01*
X1248555Y8780661D01*
X1244900Y8799033D01*
X1244900Y8817767D01*
X1248555Y8836140D01*
X1255723Y8853447D01*
X1266131Y8869023D01*
X1266131Y8869023D01*
X1279377Y8882269D01*
X1294953Y8892677D01*
X1294953Y8892677D01*
X1312261Y8899845D01*
X1330633Y8903500D01*
X1349367Y8903500D01*
X1367740Y8899845D01*
X1367740Y8899845D01*
G37*
G36*
X1981100Y8713300D02*
G01*
X1790900Y8713300D01*
X1790900Y8903500D01*
X1981100Y8903500D01*
X1981100Y8713300D01*
X1981100Y8713300D01*
G37*
G36*
X2167740Y8899845D02*
G01*
X2185047Y8892677D01*
X2185047Y8892677D01*
X2200623Y8882269D01*
X2213869Y8869023D01*
X2213869Y8869023D01*
X2224277Y8853447D01*
X2231445Y8836140D01*
X2235100Y8817767D01*
X2235100Y8799033D01*
X2231445Y8780661D01*
X2224277Y8763353D01*
X2224277Y8763353D01*
X2213869Y8747777D01*
X2200623Y8734531D01*
X2192782Y8729292D01*
X2185047Y8724123D01*
X2167740Y8716955D01*
X2149367Y8713300D01*
X2130633Y8713300D01*
X2112261Y8716955D01*
X2094953Y8724123D01*
X2087218Y8729292D01*
X2079377Y8734531D01*
X2066131Y8747777D01*
X2055723Y8763353D01*
X2055723Y8763353D01*
X2048555Y8780661D01*
X2044900Y8799033D01*
X2044900Y8817767D01*
X2048555Y8836140D01*
X2055723Y8853447D01*
X2066131Y8869023D01*
X2066131Y8869023D01*
X2079377Y8882269D01*
X2094953Y8892677D01*
X2094953Y8892677D01*
X2112261Y8899845D01*
X2130633Y8903500D01*
X2149367Y8903500D01*
X2167740Y8899845D01*
X2167740Y8899845D01*
G37*
G36*
X2781100Y8713300D02*
G01*
X2590900Y8713300D01*
X2590900Y8903500D01*
X2781100Y8903500D01*
X2781100Y8713300D01*
X2781100Y8713300D01*
G37*
G36*
X2967739Y8899845D02*
G01*
X2985047Y8892677D01*
X2985047Y8892677D01*
X3000623Y8882269D01*
X3013869Y8869023D01*
X3013869Y8869023D01*
X3024277Y8853447D01*
X3031445Y8836140D01*
X3035100Y8817767D01*
X3035100Y8799033D01*
X3031445Y8780661D01*
X3024277Y8763353D01*
X3024276Y8763353D01*
X3013869Y8747777D01*
X3000623Y8734531D01*
X2992782Y8729292D01*
X2985047Y8724123D01*
X2967739Y8716955D01*
X2949367Y8713300D01*
X2930633Y8713300D01*
X2912260Y8716955D01*
X2894953Y8724123D01*
X2887218Y8729292D01*
X2879377Y8734531D01*
X2866131Y8747777D01*
X2855723Y8763353D01*
X2855723Y8763353D01*
X2848555Y8780661D01*
X2844900Y8799033D01*
X2844900Y8817767D01*
X2848555Y8836140D01*
X2855723Y8853447D01*
X2866131Y8869023D01*
X2866131Y8869023D01*
X2879377Y8882269D01*
X2894953Y8892677D01*
X2894953Y8892677D01*
X2912260Y8899845D01*
X2930633Y8903500D01*
X2949367Y8903500D01*
X2967739Y8899845D01*
X2967739Y8899845D01*
G37*
G36*
X3581100Y8713300D02*
G01*
X3390900Y8713300D01*
X3390900Y8903500D01*
X3581100Y8903500D01*
X3581100Y8713300D01*
X3581100Y8713300D01*
G37*
G36*
X3767739Y8899845D02*
G01*
X3785047Y8892677D01*
X3785047Y8892677D01*
X3800623Y8882269D01*
X3813869Y8869023D01*
X3813869Y8869023D01*
X3824277Y8853447D01*
X3831445Y8836140D01*
X3835100Y8817767D01*
X3835100Y8799033D01*
X3831445Y8780661D01*
X3824277Y8763353D01*
X3824276Y8763353D01*
X3813869Y8747777D01*
X3800623Y8734531D01*
X3792782Y8729292D01*
X3785047Y8724123D01*
X3767739Y8716955D01*
X3749367Y8713300D01*
X3730633Y8713300D01*
X3712260Y8716955D01*
X3694953Y8724123D01*
X3687218Y8729292D01*
X3679377Y8734531D01*
X3666131Y8747777D01*
X3655723Y8763353D01*
X3655723Y8763353D01*
X3648555Y8780661D01*
X3644900Y8799033D01*
X3644900Y8817767D01*
X3648555Y8836140D01*
X3655723Y8853447D01*
X3666131Y8869023D01*
X3666131Y8869023D01*
X3679377Y8882269D01*
X3694953Y8892677D01*
X3694953Y8892677D01*
X3712260Y8899845D01*
X3730633Y8903500D01*
X3749367Y8903500D01*
X3767739Y8899845D01*
X3767739Y8899845D01*
G37*
G36*
X4381100Y8713300D02*
G01*
X4190900Y8713300D01*
X4190900Y8903500D01*
X4381100Y8903500D01*
X4381100Y8713300D01*
X4381100Y8713300D01*
G37*
G36*
X4567740Y8899845D02*
G01*
X4585047Y8892677D01*
X4585047Y8892677D01*
X4600623Y8882269D01*
X4613869Y8869023D01*
X4613869Y8869023D01*
X4624277Y8853447D01*
X4631445Y8836140D01*
X4635100Y8817767D01*
X4635100Y8799033D01*
X4631445Y8780661D01*
X4624277Y8763353D01*
X4624277Y8763353D01*
X4613869Y8747777D01*
X4600623Y8734531D01*
X4592782Y8729292D01*
X4585047Y8724123D01*
X4567740Y8716955D01*
X4549367Y8713300D01*
X4530633Y8713300D01*
X4512261Y8716955D01*
X4494953Y8724123D01*
X4487218Y8729292D01*
X4479377Y8734531D01*
X4466131Y8747777D01*
X4455724Y8763353D01*
X4455723Y8763353D01*
X4448555Y8780661D01*
X4444900Y8799033D01*
X4444900Y8817767D01*
X4448555Y8836140D01*
X4455723Y8853447D01*
X4466131Y8869023D01*
X4466131Y8869023D01*
X4479377Y8882269D01*
X4494953Y8892677D01*
X4494953Y8892677D01*
X4512261Y8899845D01*
X4530633Y8903500D01*
X4549367Y8903500D01*
X4567740Y8899845D01*
X4567740Y8899845D01*
G37*
G36*
X1181100Y8713300D02*
G01*
X990900Y8713300D01*
X990900Y8903500D01*
X1181100Y8903500D01*
X1181100Y8713300D01*
X1181100Y8713300D01*
G37*
M02*
