M48
; DRILL file {KiCad (5.1.0)-1} date 2/26/2022 7:57:46 PM
; FORMAT={-:-/ absolute / metric / decimal}
; #@! TF.CreationDate,2022-02-26T19:57:46-08:00
; #@! TF.GenerationSoftware,Kicad,Pcbnew,(5.1.0)-1
; #@! TF.FileFunction,Plated,1,2,PTH
FMAT,2
METRIC
T1C0.400
T2C0.600
T3C0.900
T4C1.000
T5C1.100
T6C1.200
T7C3.200
%
G90
G05
T1
X1.0Y60.66
X1.0Y50.41
X1.0Y40.66
X1.0Y25.91
X1.0Y16.16
X1.0Y6.66
X1.0Y1.0
X1.86Y79.402
X2.325Y21.854
X3.621Y36.281
X5.083Y77.66
X5.551Y58.316
X7.964Y14.056
X8.434Y78.826
X8.807Y80.66
X9.425Y61.427
X9.488Y52.832
X9.488Y46.67
X9.641Y35.59
X9.641Y25.715
X11.431Y3.871
X11.855Y40.436
X12.059Y35.59
X12.059Y29.32
X12.059Y17.79
X13.068Y77.66
X13.247Y33.169
X13.268Y58.902
X13.868Y11.16
X13.964Y39.268
X14.197Y59.903
X14.416Y44.358
X14.441Y24.406
X15.411Y36.733
X16.26Y1.0
X16.384Y78.826
X16.808Y80.66
X17.098Y41.831
X17.368Y53.16
X17.368Y51.16
X17.368Y49.16
X20.474Y41.831
X21.149Y77.66
X21.261Y5.052
X22.264Y21.562
X22.447Y39.324
X23.382Y14.437
X24.373Y78.826
X24.678Y35.92
X24.678Y30.63
X24.809Y80.66
X25.49Y25.346
X25.49Y19.212
X27.573Y32.369
X28.348Y29.042
X28.411Y38.491
X29.084Y16.596
X29.173Y77.66
X30.57Y33.995
X31.26Y1.0
X31.535Y30.56
X31.579Y40.845
X32.399Y78.826
X32.81Y80.66
X32.971Y14.665
X32.983Y16.596
X33.179Y42.11
X33.408Y24.08
X34.38Y55.166
X34.478Y14.665
X34.863Y31.36
X35.396Y57.172
X35.625Y38.277
X35.625Y30.56
X36.416Y54.198
X36.416Y52.16
X36.416Y46.047
X36.501Y31.36
X36.638Y20.59
X36.73Y15.288
X36.73Y13.815
X36.971Y41.361
X37.339Y30.56
X37.458Y47.627
X37.492Y77.66
X38.128Y23.68
X38.136Y39.158
X38.136Y31.36
X38.755Y43.047
X38.939Y30.56
X39.562Y13.815
X39.578Y20.59
X39.765Y56.22
X39.83Y31.36
X40.337Y78.826
X40.413Y5.052
X40.578Y58.76
X40.794Y30.56
X40.811Y80.66
X41.178Y21.24
X41.441Y46.047
X41.619Y39.989
X41.708Y23.68
X42.127Y35.392
X42.393Y38.686
X42.485Y77.66
X43.829Y15.135
X44.032Y61.306
X44.553Y23.81
X44.959Y77.66
X47.26Y60.66
X47.26Y51.14
X47.26Y40.66
X47.26Y25.91
X47.26Y16.16
X47.26Y6.66
X47.26Y1.0
T2
X12.798Y54.536
X12.798Y47.16
X12.798Y46.06
X16.779Y33.83
X16.779Y24.83
X17.788Y31.128
X17.788Y29.928
X17.788Y28.728
X17.788Y27.528
X17.879Y33.83
X17.879Y24.83
X18.979Y33.83
X18.979Y24.83
X18.988Y31.128
X18.988Y29.928
X18.988Y28.728
X18.988Y27.528
X20.079Y33.83
X20.079Y24.83
X20.188Y31.128
X20.188Y29.928
X20.188Y28.728
X20.188Y27.528
X21.179Y33.83
X21.179Y24.83
X21.388Y31.128
X21.388Y29.928
X21.388Y28.728
X21.388Y27.528
X22.279Y33.83
X22.279Y24.83
X32.361Y37.03
X33.592Y32.06
X42.572Y54.66
X43.524Y37.729
T3
X26.86Y88.084
X29.4Y88.084
X10.86Y88.084
X13.4Y88.084
X5.868Y53.292
X5.868Y49.292
X5.868Y45.292
X34.86Y88.084
X37.4Y88.084
X42.86Y88.084
X45.4Y88.084
X18.86Y88.084
X21.4Y88.084
X2.86Y88.084
X5.4Y88.084
T4
X45.212Y58.76
X45.212Y56.22
X45.212Y53.68
X26.168Y9.966
X27.553Y7.126
X28.938Y9.966
X30.323Y7.126
X31.708Y9.966
X33.093Y7.126
X34.478Y9.966
X35.863Y7.126
X37.248Y9.966
X5.373Y16.944
X7.873Y16.944
X45.212Y48.2
X45.212Y45.66
T5
X13.441Y21.315
X13.441Y14.815
X17.941Y21.315
X17.941Y14.815
T6
X1.618Y55.292
X1.618Y43.292
X7.618Y55.292
X7.618Y43.292
T7
X19.208Y9.666
X44.208Y9.666
T4
X4.368Y11.355G85X6.368Y11.355
G05
X4.368Y5.355G85X6.368Y5.355
G05
X10.068Y7.355G85X10.068Y9.355
G05
T0
M30
