G04 #@! TF.GenerationSoftware,KiCad,Pcbnew,(5.1.0)-1*
G04 #@! TF.CreationDate,2022-02-26T19:57:31-08:00*
G04 #@! TF.ProjectId,BITLINK_12F_R1,4249544c-494e-44b5-9f31-32465f52312e,rev?*
G04 #@! TF.SameCoordinates,PX7755c18PY8cd1ce0*
G04 #@! TF.FileFunction,Soldermask,Top*
G04 #@! TF.FilePolarity,Negative*
%FSLAX45Y45*%
G04 Gerber Fmt 4.5, Leading zero omitted, Abs format (unit mm)*
G04 Created by KiCad (PCBNEW (5.1.0)-1) date 2022-02-26 19:57:31*
%MOMM*%
%LPD*%
G04 APERTURE LIST*
%ADD10C,0.100000*%
G04 APERTURE END LIST*
D10*
G36*
X659518Y689191D02*
G01*
X672883Y685137D01*
X685198Y678554D01*
X695994Y669694D01*
X704854Y658898D01*
X711437Y646583D01*
X715491Y633218D01*
X716920Y618706D01*
X716920Y452334D01*
X715491Y437822D01*
X711437Y424457D01*
X704854Y412142D01*
X695994Y401346D01*
X685198Y392486D01*
X672883Y385903D01*
X659518Y381849D01*
X645006Y380420D01*
X428634Y380420D01*
X414122Y381849D01*
X400757Y385903D01*
X388442Y392486D01*
X377646Y401346D01*
X368786Y412142D01*
X362203Y424457D01*
X358149Y437822D01*
X356720Y452334D01*
X356720Y618706D01*
X358149Y633218D01*
X362203Y646583D01*
X368786Y658898D01*
X377646Y669694D01*
X388442Y678554D01*
X400757Y685137D01*
X414122Y689191D01*
X428634Y690620D01*
X645006Y690620D01*
X659518Y689191D01*
X659518Y689191D01*
G37*
G36*
X1462306Y614572D02*
G01*
X1465798Y613513D01*
X1469016Y611792D01*
X1471837Y609477D01*
X1474152Y606656D01*
X1475873Y603438D01*
X1476932Y599946D01*
X1477350Y595701D01*
X1477350Y481579D01*
X1476932Y477334D01*
X1475873Y473842D01*
X1474152Y470624D01*
X1471837Y467803D01*
X1469016Y465488D01*
X1465798Y463767D01*
X1462306Y462708D01*
X1458060Y462290D01*
X1311440Y462290D01*
X1307194Y462708D01*
X1303702Y463767D01*
X1300484Y465488D01*
X1297663Y467803D01*
X1295348Y470624D01*
X1293627Y473842D01*
X1292568Y477334D01*
X1292150Y481579D01*
X1292150Y595701D01*
X1292568Y599946D01*
X1293627Y603438D01*
X1295348Y606656D01*
X1297663Y609477D01*
X1300484Y611792D01*
X1303702Y613513D01*
X1307194Y614572D01*
X1311440Y614990D01*
X1458060Y614990D01*
X1462306Y614572D01*
X1462306Y614572D01*
G37*
G36*
X3334143Y794450D02*
G01*
X3349630Y788035D01*
X3363568Y778721D01*
X3375421Y766868D01*
X3384735Y752930D01*
X3391150Y737443D01*
X3394420Y721002D01*
X3394420Y704238D01*
X3391150Y687797D01*
X3384735Y672310D01*
X3375421Y658372D01*
X3363568Y646519D01*
X3349630Y637205D01*
X3334143Y630790D01*
X3317702Y627520D01*
X3300938Y627520D01*
X3284497Y630790D01*
X3269010Y637205D01*
X3255072Y646519D01*
X3243218Y658372D01*
X3233905Y672310D01*
X3227490Y687797D01*
X3224220Y704238D01*
X3224220Y721002D01*
X3227490Y737443D01*
X3233905Y752930D01*
X3243218Y766868D01*
X3255072Y778721D01*
X3269010Y788035D01*
X3284497Y794450D01*
X3300938Y797720D01*
X3317702Y797720D01*
X3334143Y794450D01*
X3334143Y794450D01*
G37*
G36*
X3611143Y794450D02*
G01*
X3626630Y788035D01*
X3640568Y778721D01*
X3652421Y766868D01*
X3661735Y752930D01*
X3668150Y737443D01*
X3671420Y721002D01*
X3671420Y704238D01*
X3668150Y687797D01*
X3661735Y672310D01*
X3652421Y658372D01*
X3640568Y646519D01*
X3626630Y637205D01*
X3611143Y630790D01*
X3594702Y627520D01*
X3577938Y627520D01*
X3561497Y630790D01*
X3546010Y637205D01*
X3532072Y646519D01*
X3520218Y658372D01*
X3510905Y672310D01*
X3504490Y687797D01*
X3501220Y704238D01*
X3501220Y721002D01*
X3504490Y737443D01*
X3510905Y752930D01*
X3520218Y766868D01*
X3532072Y778721D01*
X3546010Y788035D01*
X3561497Y794450D01*
X3577938Y797720D01*
X3594702Y797720D01*
X3611143Y794450D01*
X3611143Y794450D01*
G37*
G36*
X2780143Y794450D02*
G01*
X2795630Y788035D01*
X2809568Y778721D01*
X2821421Y766868D01*
X2830735Y752930D01*
X2837150Y737443D01*
X2840420Y721002D01*
X2840420Y704238D01*
X2837150Y687797D01*
X2830735Y672310D01*
X2821421Y658372D01*
X2809568Y646519D01*
X2795630Y637205D01*
X2780143Y630790D01*
X2763702Y627520D01*
X2746938Y627520D01*
X2730497Y630790D01*
X2715010Y637205D01*
X2701072Y646519D01*
X2689219Y658372D01*
X2679905Y672310D01*
X2673490Y687797D01*
X2670220Y704238D01*
X2670220Y721002D01*
X2673490Y737443D01*
X2679905Y752930D01*
X2689219Y766868D01*
X2701072Y778721D01*
X2715010Y788035D01*
X2730497Y794450D01*
X2746938Y797720D01*
X2763702Y797720D01*
X2780143Y794450D01*
X2780143Y794450D01*
G37*
G36*
X3057143Y794450D02*
G01*
X3072630Y788035D01*
X3086568Y778721D01*
X3098421Y766868D01*
X3107735Y752930D01*
X3114150Y737443D01*
X3117420Y721002D01*
X3117420Y704238D01*
X3114150Y687797D01*
X3107735Y672310D01*
X3098421Y658372D01*
X3086568Y646519D01*
X3072630Y637205D01*
X3057143Y630790D01*
X3040702Y627520D01*
X3023938Y627520D01*
X3007497Y630790D01*
X2992010Y637205D01*
X2978072Y646519D01*
X2966218Y658372D01*
X2956905Y672310D01*
X2950490Y687797D01*
X2947220Y704238D01*
X2947220Y721002D01*
X2950490Y737443D01*
X2956905Y752930D01*
X2966218Y766868D01*
X2978072Y778721D01*
X2992010Y788035D01*
X3007497Y794450D01*
X3023938Y797720D01*
X3040702Y797720D01*
X3057143Y794450D01*
X3057143Y794450D01*
G37*
G36*
X1119457Y1013950D02*
G01*
X1135166Y1009185D01*
X1149643Y1001447D01*
X1162333Y991033D01*
X1172747Y978343D01*
X1180485Y963866D01*
X1185251Y948157D01*
X1186920Y931206D01*
X1186920Y739834D01*
X1185251Y722883D01*
X1180485Y707174D01*
X1172747Y692697D01*
X1162333Y680007D01*
X1149643Y669593D01*
X1135166Y661855D01*
X1119457Y657090D01*
X1102506Y655420D01*
X911134Y655420D01*
X894183Y657090D01*
X878474Y661855D01*
X863997Y669593D01*
X851307Y680007D01*
X840893Y692697D01*
X833155Y707174D01*
X828389Y722883D01*
X826720Y739834D01*
X826720Y931206D01*
X828389Y948157D01*
X833155Y963866D01*
X840893Y978343D01*
X851307Y991033D01*
X863997Y1001447D01*
X878474Y1009185D01*
X894183Y1013950D01*
X911134Y1015620D01*
X1102506Y1015620D01*
X1119457Y1013950D01*
X1119457Y1013950D01*
G37*
G36*
X1462306Y912072D02*
G01*
X1465798Y911013D01*
X1469016Y909292D01*
X1471837Y906977D01*
X1474152Y904156D01*
X1475873Y900938D01*
X1476932Y897446D01*
X1477350Y893200D01*
X1477350Y779079D01*
X1476932Y774834D01*
X1475873Y771342D01*
X1474152Y768124D01*
X1471837Y765303D01*
X1469016Y762988D01*
X1465798Y761267D01*
X1462306Y760208D01*
X1458060Y759790D01*
X1311440Y759790D01*
X1307194Y760208D01*
X1303702Y761267D01*
X1300484Y762988D01*
X1297663Y765303D01*
X1295348Y768124D01*
X1293627Y771342D01*
X1292568Y774834D01*
X1292150Y779079D01*
X1292150Y893200D01*
X1292568Y897446D01*
X1293627Y900938D01*
X1295348Y904156D01*
X1297663Y906977D01*
X1300484Y909292D01*
X1303702Y911013D01*
X1307194Y912072D01*
X1311440Y912490D01*
X1458060Y912490D01*
X1462306Y912072D01*
X1462306Y912072D01*
G37*
G36*
X1980645Y1163838D02*
G01*
X2017971Y1148377D01*
X2017971Y1148377D01*
X2051564Y1125932D01*
X2080132Y1097364D01*
X2097056Y1072035D01*
X2102577Y1063771D01*
X2118038Y1026445D01*
X2125920Y986821D01*
X2125920Y946419D01*
X2118038Y906795D01*
X2109301Y885700D01*
X2102577Y869469D01*
X2080132Y835876D01*
X2051564Y807308D01*
X2017971Y784863D01*
X2017971Y784863D01*
X2017971Y784863D01*
X1980645Y769402D01*
X1941021Y761520D01*
X1900619Y761520D01*
X1860995Y769402D01*
X1823669Y784863D01*
X1823669Y784863D01*
X1823669Y784863D01*
X1790076Y807308D01*
X1761508Y835876D01*
X1739063Y869469D01*
X1732339Y885700D01*
X1723602Y906795D01*
X1715720Y946419D01*
X1715720Y986821D01*
X1723602Y1026445D01*
X1739063Y1063771D01*
X1744584Y1072035D01*
X1761508Y1097364D01*
X1790076Y1125932D01*
X1823669Y1148377D01*
X1823669Y1148377D01*
X1860995Y1163838D01*
X1900619Y1171720D01*
X1941021Y1171720D01*
X1980645Y1163838D01*
X1980645Y1163838D01*
G37*
G36*
X4480645Y1163838D02*
G01*
X4517971Y1148377D01*
X4517971Y1148377D01*
X4551564Y1125932D01*
X4580132Y1097364D01*
X4597056Y1072035D01*
X4602577Y1063771D01*
X4618038Y1026445D01*
X4625920Y986821D01*
X4625920Y946419D01*
X4618038Y906795D01*
X4609301Y885700D01*
X4602577Y869469D01*
X4580132Y835876D01*
X4551564Y807308D01*
X4517971Y784863D01*
X4517971Y784863D01*
X4517971Y784863D01*
X4480645Y769402D01*
X4441021Y761520D01*
X4400619Y761520D01*
X4360995Y769402D01*
X4323669Y784863D01*
X4323669Y784863D01*
X4323669Y784863D01*
X4290076Y807308D01*
X4261508Y835876D01*
X4239063Y869469D01*
X4232339Y885700D01*
X4223602Y906795D01*
X4215720Y946419D01*
X4215720Y986821D01*
X4223602Y1026445D01*
X4239063Y1063771D01*
X4244584Y1072035D01*
X4261508Y1097364D01*
X4290076Y1125932D01*
X4323669Y1148377D01*
X4323669Y1148377D01*
X4360995Y1163838D01*
X4400619Y1171720D01*
X4441021Y1171720D01*
X4480645Y1163838D01*
X4480645Y1163838D01*
G37*
G36*
X2641643Y1078450D02*
G01*
X2657130Y1072035D01*
X2671068Y1062722D01*
X2682922Y1050868D01*
X2692235Y1036930D01*
X2698650Y1021443D01*
X2701920Y1005002D01*
X2701920Y988238D01*
X2698650Y971797D01*
X2692235Y956310D01*
X2682922Y942372D01*
X2671068Y930518D01*
X2657130Y921205D01*
X2641643Y914790D01*
X2625202Y911520D01*
X2608438Y911520D01*
X2591997Y914790D01*
X2576510Y921205D01*
X2562572Y930518D01*
X2550719Y942372D01*
X2541405Y956310D01*
X2534990Y971797D01*
X2531720Y988238D01*
X2531720Y1005002D01*
X2534990Y1021443D01*
X2541405Y1036930D01*
X2550719Y1050868D01*
X2562572Y1062722D01*
X2576510Y1072035D01*
X2591997Y1078450D01*
X2608438Y1081720D01*
X2625202Y1081720D01*
X2641643Y1078450D01*
X2641643Y1078450D01*
G37*
G36*
X2918643Y1078450D02*
G01*
X2934130Y1072035D01*
X2948068Y1062722D01*
X2959921Y1050868D01*
X2969235Y1036930D01*
X2975650Y1021443D01*
X2978920Y1005002D01*
X2978920Y988238D01*
X2975650Y971797D01*
X2969235Y956310D01*
X2959921Y942372D01*
X2948068Y930518D01*
X2934130Y921205D01*
X2918643Y914790D01*
X2902202Y911520D01*
X2885438Y911520D01*
X2868997Y914790D01*
X2853510Y921205D01*
X2839572Y930518D01*
X2827718Y942372D01*
X2818405Y956310D01*
X2811990Y971797D01*
X2808720Y988238D01*
X2808720Y1005002D01*
X2811990Y1021443D01*
X2818405Y1036930D01*
X2827718Y1050868D01*
X2839572Y1062722D01*
X2853510Y1072035D01*
X2868997Y1078450D01*
X2885438Y1081720D01*
X2902202Y1081720D01*
X2918643Y1078450D01*
X2918643Y1078450D01*
G37*
G36*
X3195643Y1078450D02*
G01*
X3211130Y1072035D01*
X3225068Y1062722D01*
X3236921Y1050868D01*
X3246235Y1036930D01*
X3252650Y1021443D01*
X3255920Y1005002D01*
X3255920Y988238D01*
X3252650Y971797D01*
X3246235Y956310D01*
X3236921Y942372D01*
X3225068Y930518D01*
X3211130Y921205D01*
X3195643Y914790D01*
X3179202Y911520D01*
X3162438Y911520D01*
X3145997Y914790D01*
X3130510Y921205D01*
X3116572Y930518D01*
X3104718Y942372D01*
X3095405Y956310D01*
X3088990Y971797D01*
X3085720Y988238D01*
X3085720Y1005002D01*
X3088990Y1021443D01*
X3095405Y1036930D01*
X3104718Y1050868D01*
X3116572Y1062722D01*
X3130510Y1072035D01*
X3145997Y1078450D01*
X3162438Y1081720D01*
X3179202Y1081720D01*
X3195643Y1078450D01*
X3195643Y1078450D01*
G37*
G36*
X3809920Y911520D02*
G01*
X3639720Y911520D01*
X3639720Y1081720D01*
X3809920Y1081720D01*
X3809920Y911520D01*
X3809920Y911520D01*
G37*
G36*
X3472643Y1078450D02*
G01*
X3488130Y1072035D01*
X3502068Y1062722D01*
X3513921Y1050868D01*
X3523235Y1036930D01*
X3529650Y1021443D01*
X3532920Y1005002D01*
X3532920Y988238D01*
X3529650Y971797D01*
X3523235Y956310D01*
X3513921Y942372D01*
X3502068Y930518D01*
X3488130Y921205D01*
X3472643Y914790D01*
X3456202Y911520D01*
X3439438Y911520D01*
X3422997Y914790D01*
X3407510Y921205D01*
X3393572Y930518D01*
X3381718Y942372D01*
X3372405Y956310D01*
X3365990Y971797D01*
X3362720Y988238D01*
X3362720Y1005002D01*
X3365990Y1021443D01*
X3372405Y1036930D01*
X3381718Y1050868D01*
X3393572Y1062722D01*
X3407510Y1072035D01*
X3422997Y1078450D01*
X3439438Y1081720D01*
X3456202Y1081720D01*
X3472643Y1078450D01*
X3472643Y1078450D01*
G37*
G36*
X716920Y955420D02*
G01*
X356720Y955420D01*
X356720Y1315620D01*
X716920Y1315620D01*
X716920Y955420D01*
X716920Y955420D01*
G37*
G36*
X1824788Y1582593D02*
G01*
X1843915Y1574670D01*
X1843915Y1574670D01*
X1861129Y1563168D01*
X1875768Y1548529D01*
X1887270Y1531315D01*
X1895193Y1512188D01*
X1899232Y1491884D01*
X1899232Y1471180D01*
X1895193Y1450876D01*
X1887270Y1431749D01*
X1887270Y1431748D01*
X1875768Y1414535D01*
X1861129Y1399895D01*
X1843915Y1388394D01*
X1843915Y1388394D01*
X1843915Y1388394D01*
X1824788Y1380471D01*
X1804484Y1376432D01*
X1783780Y1376432D01*
X1763476Y1380471D01*
X1744349Y1388394D01*
X1744349Y1388394D01*
X1744348Y1388394D01*
X1727135Y1399895D01*
X1712495Y1414535D01*
X1700994Y1431748D01*
X1700993Y1431749D01*
X1693071Y1450876D01*
X1689032Y1471180D01*
X1689032Y1491884D01*
X1693071Y1512188D01*
X1700993Y1531315D01*
X1712495Y1548529D01*
X1727135Y1563168D01*
X1744348Y1574670D01*
X1744349Y1574670D01*
X1763476Y1582593D01*
X1783780Y1586632D01*
X1804484Y1586632D01*
X1824788Y1582593D01*
X1824788Y1582593D01*
G37*
G36*
X1374788Y1582593D02*
G01*
X1393915Y1574670D01*
X1393916Y1574670D01*
X1411129Y1563168D01*
X1425768Y1548529D01*
X1437270Y1531315D01*
X1445193Y1512188D01*
X1449232Y1491884D01*
X1449232Y1471180D01*
X1445193Y1450876D01*
X1437270Y1431749D01*
X1437270Y1431748D01*
X1425768Y1414535D01*
X1411129Y1399895D01*
X1393916Y1388394D01*
X1393915Y1388394D01*
X1393915Y1388394D01*
X1374788Y1380471D01*
X1354484Y1376432D01*
X1333780Y1376432D01*
X1313476Y1380471D01*
X1294349Y1388394D01*
X1294349Y1388394D01*
X1294349Y1388394D01*
X1277135Y1399895D01*
X1262496Y1414535D01*
X1250994Y1431748D01*
X1250994Y1431749D01*
X1243071Y1450876D01*
X1239032Y1471180D01*
X1239032Y1491884D01*
X1243071Y1512188D01*
X1250994Y1531315D01*
X1262496Y1548529D01*
X1277135Y1563168D01*
X1294349Y1574670D01*
X1294349Y1574670D01*
X1313476Y1582593D01*
X1333780Y1586632D01*
X1354484Y1586632D01*
X1374788Y1582593D01*
X1374788Y1582593D01*
G37*
G36*
X555003Y1798156D02*
G01*
X571987Y1793004D01*
X587639Y1784638D01*
X591213Y1781705D01*
X601359Y1773379D01*
X609685Y1763233D01*
X612618Y1759659D01*
X620984Y1744007D01*
X626136Y1727023D01*
X627440Y1713786D01*
X627440Y1674934D01*
X626136Y1661697D01*
X620984Y1644713D01*
X612618Y1629061D01*
X609685Y1625487D01*
X601359Y1615341D01*
X587639Y1604082D01*
X571987Y1595716D01*
X571987Y1595716D01*
X555003Y1590564D01*
X537340Y1588824D01*
X519677Y1590564D01*
X502693Y1595716D01*
X487041Y1604082D01*
X482815Y1607550D01*
X473321Y1615341D01*
X462062Y1629061D01*
X453696Y1644713D01*
X453696Y1644713D01*
X448544Y1661697D01*
X447240Y1674934D01*
X447240Y1713786D01*
X448544Y1727023D01*
X453696Y1744007D01*
X462062Y1759659D01*
X473321Y1773378D01*
X487041Y1784638D01*
X502693Y1793004D01*
X519677Y1798156D01*
X537340Y1799896D01*
X555003Y1798156D01*
X555003Y1798156D01*
G37*
G36*
X863200Y1799061D02*
G01*
X866505Y1798058D01*
X869550Y1796431D01*
X872220Y1794240D01*
X874411Y1791570D01*
X876038Y1788525D01*
X877041Y1785220D01*
X877440Y1781170D01*
X877440Y1607550D01*
X877041Y1603500D01*
X876038Y1600195D01*
X874411Y1597150D01*
X872220Y1594480D01*
X869550Y1592289D01*
X866505Y1590661D01*
X863200Y1589659D01*
X859150Y1589260D01*
X715530Y1589260D01*
X711480Y1589659D01*
X708175Y1590661D01*
X705130Y1592289D01*
X702460Y1594480D01*
X700269Y1597150D01*
X698642Y1600195D01*
X697639Y1603500D01*
X697240Y1607550D01*
X697240Y1781170D01*
X697639Y1785220D01*
X698642Y1788525D01*
X700269Y1791570D01*
X702460Y1794240D01*
X705130Y1796431D01*
X708175Y1798058D01*
X711480Y1799061D01*
X715530Y1799460D01*
X859150Y1799460D01*
X863200Y1799061D01*
X863200Y1799061D01*
G37*
G36*
X4205620Y1772900D02*
G01*
X3305420Y1772900D01*
X3305420Y1958100D01*
X4205620Y1958100D01*
X4205620Y1772900D01*
X4205620Y1772900D01*
G37*
G36*
X4645988Y1815866D02*
G01*
X4435788Y1815866D01*
X4435788Y2026066D01*
X4645988Y2026066D01*
X4645988Y1815866D01*
X4645988Y1815866D01*
G37*
G36*
X2899287Y2058103D02*
G01*
X2903057Y2056960D01*
X2906530Y2055103D01*
X2909575Y2052605D01*
X2912073Y2049560D01*
X2913930Y2046087D01*
X2915073Y2042317D01*
X2915520Y2037784D01*
X2915520Y1929116D01*
X2915073Y1924583D01*
X2913930Y1920813D01*
X2912073Y1917340D01*
X2909575Y1914295D01*
X2906530Y1911797D01*
X2903057Y1909940D01*
X2899287Y1908796D01*
X2894754Y1908350D01*
X2811086Y1908350D01*
X2806553Y1908796D01*
X2802783Y1909940D01*
X2799310Y1911797D01*
X2796265Y1914295D01*
X2793767Y1917340D01*
X2791910Y1920813D01*
X2790767Y1924583D01*
X2790320Y1929116D01*
X2790320Y2037784D01*
X2790767Y2042317D01*
X2791910Y2046087D01*
X2793767Y2049560D01*
X2796265Y2052605D01*
X2799310Y2055103D01*
X2802783Y2056960D01*
X2806553Y2058103D01*
X2811086Y2058550D01*
X2894754Y2058550D01*
X2899287Y2058103D01*
X2899287Y2058103D01*
G37*
G36*
X3104287Y2058103D02*
G01*
X3108057Y2056960D01*
X3111530Y2055103D01*
X3114575Y2052605D01*
X3117073Y2049560D01*
X3118930Y2046087D01*
X3120073Y2042317D01*
X3120520Y2037784D01*
X3120520Y1929116D01*
X3120073Y1924583D01*
X3118930Y1920813D01*
X3117073Y1917340D01*
X3114575Y1914295D01*
X3111530Y1911797D01*
X3108057Y1909940D01*
X3104287Y1908796D01*
X3099754Y1908350D01*
X3016086Y1908350D01*
X3011553Y1908796D01*
X3007783Y1909940D01*
X3004310Y1911797D01*
X3001265Y1914295D01*
X2998767Y1917340D01*
X2996910Y1920813D01*
X2995766Y1924583D01*
X2995320Y1929116D01*
X2995320Y2037784D01*
X2995766Y2042317D01*
X2996910Y2046087D01*
X2998767Y2049560D01*
X3001265Y2052605D01*
X3004310Y2055103D01*
X3007783Y2056960D01*
X3011553Y2058103D01*
X3016086Y2058550D01*
X3099754Y2058550D01*
X3104287Y2058103D01*
X3104287Y2058103D01*
G37*
G36*
X1824788Y2232593D02*
G01*
X1843915Y2224671D01*
X1843915Y2224670D01*
X1861129Y2213169D01*
X1875768Y2198529D01*
X1887270Y2181315D01*
X1895193Y2162188D01*
X1899232Y2141884D01*
X1899232Y2121180D01*
X1895193Y2100876D01*
X1887270Y2081749D01*
X1887270Y2081748D01*
X1875768Y2064535D01*
X1861129Y2049895D01*
X1843915Y2038394D01*
X1843915Y2038393D01*
X1843915Y2038393D01*
X1824788Y2030471D01*
X1804484Y2026432D01*
X1783780Y2026432D01*
X1763476Y2030471D01*
X1744349Y2038393D01*
X1744349Y2038393D01*
X1744348Y2038394D01*
X1727135Y2049895D01*
X1712495Y2064535D01*
X1700994Y2081748D01*
X1700993Y2081749D01*
X1693071Y2100876D01*
X1689032Y2121180D01*
X1689032Y2141884D01*
X1693071Y2162188D01*
X1700993Y2181315D01*
X1712495Y2198529D01*
X1727135Y2213169D01*
X1744348Y2224670D01*
X1744349Y2224671D01*
X1763476Y2232593D01*
X1783780Y2236632D01*
X1804484Y2236632D01*
X1824788Y2232593D01*
X1824788Y2232593D01*
G37*
G36*
X1374788Y2232593D02*
G01*
X1393915Y2224671D01*
X1393916Y2224670D01*
X1411129Y2213169D01*
X1425768Y2198529D01*
X1437270Y2181315D01*
X1445193Y2162188D01*
X1449232Y2141884D01*
X1449232Y2121180D01*
X1445193Y2100876D01*
X1437270Y2081749D01*
X1437270Y2081748D01*
X1425768Y2064535D01*
X1411129Y2049895D01*
X1393916Y2038394D01*
X1393915Y2038393D01*
X1393915Y2038393D01*
X1374788Y2030471D01*
X1354484Y2026432D01*
X1333780Y2026432D01*
X1313476Y2030471D01*
X1294349Y2038393D01*
X1294349Y2038393D01*
X1294349Y2038394D01*
X1277135Y2049895D01*
X1262496Y2064535D01*
X1250994Y2081748D01*
X1250994Y2081749D01*
X1243071Y2100876D01*
X1239032Y2121180D01*
X1239032Y2141884D01*
X1243071Y2162188D01*
X1250994Y2181315D01*
X1262496Y2198529D01*
X1277135Y2213169D01*
X1294349Y2224670D01*
X1294349Y2224671D01*
X1313476Y2232593D01*
X1333780Y2236632D01*
X1354484Y2236632D01*
X1374788Y2232593D01*
X1374788Y2232593D01*
G37*
G36*
X2899287Y2261304D02*
G01*
X2903057Y2260160D01*
X2906530Y2258303D01*
X2909575Y2255805D01*
X2912073Y2252760D01*
X2913930Y2249287D01*
X2915073Y2245517D01*
X2915520Y2240984D01*
X2915520Y2132316D01*
X2915073Y2127783D01*
X2913930Y2124013D01*
X2912073Y2120540D01*
X2909575Y2117495D01*
X2906530Y2114997D01*
X2903057Y2113140D01*
X2899287Y2111997D01*
X2894754Y2111550D01*
X2811086Y2111550D01*
X2806553Y2111997D01*
X2802783Y2113140D01*
X2799310Y2114997D01*
X2796265Y2117495D01*
X2793767Y2120540D01*
X2791910Y2124013D01*
X2790767Y2127783D01*
X2790320Y2132316D01*
X2790320Y2240984D01*
X2790767Y2245517D01*
X2791910Y2249287D01*
X2793767Y2252760D01*
X2796265Y2255805D01*
X2799310Y2258303D01*
X2802783Y2260160D01*
X2806553Y2261304D01*
X2811086Y2261750D01*
X2894754Y2261750D01*
X2899287Y2261304D01*
X2899287Y2261304D01*
G37*
G36*
X3104287Y2261304D02*
G01*
X3108057Y2260160D01*
X3111530Y2258303D01*
X3114575Y2255805D01*
X3117073Y2252760D01*
X3118930Y2249287D01*
X3120073Y2245517D01*
X3120520Y2240984D01*
X3120520Y2132316D01*
X3120073Y2127783D01*
X3118930Y2124013D01*
X3117073Y2120540D01*
X3114575Y2117495D01*
X3111530Y2114997D01*
X3108057Y2113140D01*
X3104287Y2111997D01*
X3099754Y2111550D01*
X3016086Y2111550D01*
X3011553Y2111997D01*
X3007783Y2113140D01*
X3004310Y2114997D01*
X3001265Y2117495D01*
X2998767Y2120540D01*
X2996910Y2124013D01*
X2995766Y2127783D01*
X2995320Y2132316D01*
X2995320Y2240984D01*
X2995766Y2245517D01*
X2996910Y2249287D01*
X2998767Y2252760D01*
X3001265Y2255805D01*
X3004310Y2258303D01*
X3007783Y2260160D01*
X3011553Y2261304D01*
X3016086Y2261750D01*
X3099754Y2261750D01*
X3104287Y2261304D01*
X3104287Y2261304D01*
G37*
G36*
X892420Y2473695D02*
G01*
X895785Y2472674D01*
X898886Y2471016D01*
X901605Y2468785D01*
X903836Y2466067D01*
X905494Y2462965D01*
X906515Y2459600D01*
X906920Y2455486D01*
X906920Y2132514D01*
X906515Y2128400D01*
X905494Y2125035D01*
X903836Y2121934D01*
X901605Y2119215D01*
X898886Y2116984D01*
X895785Y2115326D01*
X892420Y2114305D01*
X888306Y2113900D01*
X755334Y2113900D01*
X751220Y2114305D01*
X747855Y2115326D01*
X744753Y2116984D01*
X742035Y2119215D01*
X739804Y2121934D01*
X738146Y2125035D01*
X737125Y2128400D01*
X736720Y2132514D01*
X736720Y2455486D01*
X737125Y2459600D01*
X738146Y2462965D01*
X739804Y2466067D01*
X742035Y2468785D01*
X744753Y2471016D01*
X747855Y2472674D01*
X751220Y2473695D01*
X755334Y2474100D01*
X888306Y2474100D01*
X892420Y2473695D01*
X892420Y2473695D01*
G37*
G36*
X2899287Y2464504D02*
G01*
X2903057Y2463360D01*
X2906530Y2461503D01*
X2909575Y2459005D01*
X2912073Y2455960D01*
X2913930Y2452487D01*
X2915073Y2448717D01*
X2915520Y2444184D01*
X2915520Y2335516D01*
X2915073Y2330983D01*
X2913930Y2327213D01*
X2912073Y2323740D01*
X2909575Y2320695D01*
X2906530Y2318197D01*
X2903057Y2316340D01*
X2899287Y2315197D01*
X2894754Y2314750D01*
X2811086Y2314750D01*
X2806553Y2315197D01*
X2802783Y2316340D01*
X2799310Y2318197D01*
X2796265Y2320695D01*
X2793767Y2323740D01*
X2791910Y2327213D01*
X2790767Y2330983D01*
X2790320Y2335516D01*
X2790320Y2444184D01*
X2790767Y2448717D01*
X2791910Y2452487D01*
X2793767Y2455960D01*
X2796265Y2459005D01*
X2799310Y2461503D01*
X2802783Y2463360D01*
X2806553Y2464504D01*
X2811086Y2464950D01*
X2894754Y2464950D01*
X2899287Y2464504D01*
X2899287Y2464504D01*
G37*
G36*
X3104287Y2464504D02*
G01*
X3108057Y2463360D01*
X3111530Y2461503D01*
X3114575Y2459005D01*
X3117073Y2455960D01*
X3118930Y2452487D01*
X3120073Y2448717D01*
X3120520Y2444184D01*
X3120520Y2335516D01*
X3120073Y2330983D01*
X3118930Y2327213D01*
X3117073Y2323740D01*
X3114575Y2320695D01*
X3111530Y2318197D01*
X3108057Y2316340D01*
X3104287Y2315197D01*
X3099754Y2314750D01*
X3016086Y2314750D01*
X3011553Y2315197D01*
X3007783Y2316340D01*
X3004310Y2318197D01*
X3001265Y2320695D01*
X2998767Y2323740D01*
X2996910Y2327213D01*
X2995766Y2330983D01*
X2995320Y2335516D01*
X2995320Y2444184D01*
X2995766Y2448717D01*
X2996910Y2452487D01*
X2998767Y2455960D01*
X3001265Y2459005D01*
X3004310Y2461503D01*
X3007783Y2463360D01*
X3011553Y2464504D01*
X3016086Y2464950D01*
X3099754Y2464950D01*
X3104287Y2464504D01*
X3104287Y2464504D01*
G37*
G36*
X2316580Y2418920D02*
G01*
X1592380Y2418920D01*
X1592380Y3445120D01*
X2316580Y3445120D01*
X2316580Y2418920D01*
X2316580Y2418920D01*
G37*
G36*
X4205620Y2492900D02*
G01*
X3305420Y2492900D01*
X3305420Y2678100D01*
X4205620Y2678100D01*
X4205620Y2492900D01*
X4205620Y2492900D01*
G37*
G36*
X2899287Y2685804D02*
G01*
X2903057Y2684660D01*
X2906530Y2682803D01*
X2909575Y2680305D01*
X2912073Y2677260D01*
X2913930Y2673787D01*
X2915073Y2670017D01*
X2915520Y2665484D01*
X2915520Y2556816D01*
X2915073Y2552283D01*
X2913930Y2548513D01*
X2912073Y2545040D01*
X2909575Y2541995D01*
X2906530Y2539497D01*
X2903057Y2537640D01*
X2899287Y2536497D01*
X2894754Y2536050D01*
X2811086Y2536050D01*
X2806553Y2536497D01*
X2802783Y2537640D01*
X2799310Y2539497D01*
X2796265Y2541995D01*
X2793767Y2545040D01*
X2791910Y2548513D01*
X2790767Y2552283D01*
X2790320Y2556816D01*
X2790320Y2665484D01*
X2790767Y2670017D01*
X2791910Y2673787D01*
X2793767Y2677260D01*
X2796265Y2680305D01*
X2799310Y2682803D01*
X2802783Y2684660D01*
X2806553Y2685804D01*
X2811086Y2686250D01*
X2894754Y2686250D01*
X2899287Y2685804D01*
X2899287Y2685804D01*
G37*
G36*
X3104287Y2685804D02*
G01*
X3108057Y2684660D01*
X3111530Y2682803D01*
X3114575Y2680305D01*
X3117073Y2677260D01*
X3118930Y2673787D01*
X3120073Y2670017D01*
X3120520Y2665484D01*
X3120520Y2556816D01*
X3120073Y2552283D01*
X3118930Y2548513D01*
X3117073Y2545040D01*
X3114575Y2541995D01*
X3111530Y2539497D01*
X3108057Y2537640D01*
X3104287Y2536497D01*
X3099754Y2536050D01*
X3016086Y2536050D01*
X3011553Y2536497D01*
X3007783Y2537640D01*
X3004310Y2539497D01*
X3001265Y2541995D01*
X2998767Y2545040D01*
X2996910Y2548513D01*
X2995766Y2552283D01*
X2995320Y2556816D01*
X2995320Y2665484D01*
X2995766Y2670017D01*
X2996910Y2673787D01*
X2998767Y2677260D01*
X3001265Y2680305D01*
X3004310Y2682803D01*
X3007783Y2684660D01*
X3011553Y2685804D01*
X3016086Y2686250D01*
X3099754Y2686250D01*
X3104287Y2685804D01*
X3104287Y2685804D01*
G37*
G36*
X1439580Y2638920D02*
G01*
X1209380Y2638920D01*
X1209380Y2769120D01*
X1439580Y2769120D01*
X1439580Y2638920D01*
X1439580Y2638920D01*
G37*
G36*
X892420Y3033695D02*
G01*
X895785Y3032674D01*
X898886Y3031016D01*
X901605Y3028785D01*
X903836Y3026066D01*
X905494Y3022965D01*
X906515Y3019600D01*
X906920Y3015486D01*
X906920Y2692514D01*
X906515Y2688400D01*
X905494Y2685035D01*
X903836Y2681934D01*
X901605Y2679215D01*
X898886Y2676984D01*
X895785Y2675326D01*
X892420Y2674305D01*
X888306Y2673900D01*
X755334Y2673900D01*
X751220Y2674305D01*
X747855Y2675326D01*
X744753Y2676984D01*
X742035Y2679215D01*
X739804Y2681934D01*
X738146Y2685035D01*
X737125Y2688400D01*
X736720Y2692514D01*
X736720Y3015486D01*
X737125Y3019600D01*
X738146Y3022965D01*
X739804Y3026066D01*
X742035Y3028785D01*
X744753Y3031016D01*
X747855Y3032674D01*
X751220Y3033695D01*
X755334Y3034100D01*
X888306Y3034100D01*
X892420Y3033695D01*
X892420Y3033695D01*
G37*
G36*
X3405531Y2954215D02*
G01*
X3409301Y2953072D01*
X3412774Y2951215D01*
X3415819Y2948717D01*
X3418317Y2945672D01*
X3420174Y2942199D01*
X3421317Y2938429D01*
X3421764Y2933896D01*
X3421764Y2825228D01*
X3421317Y2820695D01*
X3420174Y2816925D01*
X3418317Y2813452D01*
X3415819Y2810407D01*
X3412774Y2807909D01*
X3409301Y2806052D01*
X3405531Y2804908D01*
X3400998Y2804462D01*
X3317330Y2804462D01*
X3312797Y2804908D01*
X3309027Y2806052D01*
X3305554Y2807909D01*
X3302509Y2810407D01*
X3300011Y2813452D01*
X3298154Y2816925D01*
X3297010Y2820695D01*
X3296564Y2825228D01*
X3296564Y2933896D01*
X3297010Y2938429D01*
X3298154Y2942199D01*
X3300011Y2945672D01*
X3302509Y2948717D01*
X3305554Y2951215D01*
X3309027Y2953072D01*
X3312797Y2954215D01*
X3317330Y2954662D01*
X3400998Y2954662D01*
X3405531Y2954215D01*
X3405531Y2954215D01*
G37*
G36*
X3200531Y2954215D02*
G01*
X3204301Y2953072D01*
X3207774Y2951215D01*
X3210819Y2948717D01*
X3213317Y2945672D01*
X3215174Y2942199D01*
X3216317Y2938429D01*
X3216764Y2933896D01*
X3216764Y2825228D01*
X3216317Y2820695D01*
X3215174Y2816925D01*
X3213317Y2813452D01*
X3210819Y2810407D01*
X3207774Y2807909D01*
X3204301Y2806052D01*
X3200531Y2804908D01*
X3195998Y2804462D01*
X3112330Y2804462D01*
X3107797Y2804908D01*
X3104027Y2806052D01*
X3100554Y2807909D01*
X3097509Y2810407D01*
X3095011Y2813452D01*
X3093154Y2816925D01*
X3092010Y2820695D01*
X3091564Y2825228D01*
X3091564Y2933896D01*
X3092010Y2938429D01*
X3093154Y2942199D01*
X3095011Y2945672D01*
X3097509Y2948717D01*
X3100554Y2951215D01*
X3104027Y2953072D01*
X3107797Y2954215D01*
X3112330Y2954662D01*
X3195998Y2954662D01*
X3200531Y2954215D01*
X3200531Y2954215D01*
G37*
G36*
X342326Y3375570D02*
G01*
X352958Y3373455D01*
X383004Y3361010D01*
X410045Y3342941D01*
X433041Y3319945D01*
X433042Y3319945D01*
X451110Y3292904D01*
X463555Y3262858D01*
X469692Y3232007D01*
X469900Y3230961D01*
X469900Y3198439D01*
X463555Y3166542D01*
X451110Y3136496D01*
X433041Y3109455D01*
X410045Y3086458D01*
X383004Y3068390D01*
X352958Y3055945D01*
X342326Y3053830D01*
X321061Y3049600D01*
X288539Y3049600D01*
X267274Y3053830D01*
X256642Y3055945D01*
X226596Y3068390D01*
X199555Y3086458D01*
X176558Y3109455D01*
X158490Y3136496D01*
X146045Y3166542D01*
X139700Y3198439D01*
X139700Y3230961D01*
X139908Y3232007D01*
X146045Y3262858D01*
X158490Y3292904D01*
X176558Y3319945D01*
X176558Y3319945D01*
X199555Y3342941D01*
X226596Y3361010D01*
X256642Y3373455D01*
X267274Y3375570D01*
X288539Y3379800D01*
X321061Y3379800D01*
X342326Y3375570D01*
X342326Y3375570D01*
G37*
G36*
X4558726Y3375570D02*
G01*
X4569358Y3373455D01*
X4599404Y3361010D01*
X4626445Y3342941D01*
X4649442Y3319945D01*
X4649442Y3319945D01*
X4667510Y3292904D01*
X4679955Y3262858D01*
X4686092Y3232007D01*
X4686300Y3230961D01*
X4686300Y3198439D01*
X4679955Y3166542D01*
X4667510Y3136496D01*
X4649442Y3109455D01*
X4626445Y3086458D01*
X4599404Y3068390D01*
X4569358Y3055945D01*
X4558726Y3053830D01*
X4537461Y3049600D01*
X4504939Y3049600D01*
X4483674Y3053830D01*
X4473042Y3055945D01*
X4442996Y3068390D01*
X4415955Y3086458D01*
X4392959Y3109455D01*
X4374890Y3136496D01*
X4362445Y3166542D01*
X4356100Y3198439D01*
X4356100Y3230961D01*
X4356308Y3232007D01*
X4362445Y3262858D01*
X4374890Y3292904D01*
X4392958Y3319945D01*
X4392959Y3319945D01*
X4415955Y3342941D01*
X4442996Y3361010D01*
X4473042Y3373455D01*
X4483674Y3375570D01*
X4504939Y3379800D01*
X4537461Y3379800D01*
X4558726Y3375570D01*
X4558726Y3375570D01*
G37*
G36*
X1439580Y3094920D02*
G01*
X1209380Y3094920D01*
X1209380Y3225120D01*
X1439580Y3225120D01*
X1439580Y3094920D01*
X1439580Y3094920D01*
G37*
G36*
X1072287Y3359853D02*
G01*
X1076057Y3358710D01*
X1079530Y3356853D01*
X1082575Y3354355D01*
X1085073Y3351310D01*
X1086930Y3347837D01*
X1088074Y3344067D01*
X1088520Y3339534D01*
X1088520Y3230866D01*
X1088074Y3226333D01*
X1086930Y3222563D01*
X1085073Y3219090D01*
X1082575Y3216045D01*
X1079530Y3213547D01*
X1076057Y3211690D01*
X1072287Y3210546D01*
X1067754Y3210100D01*
X984086Y3210100D01*
X979553Y3210546D01*
X975783Y3211690D01*
X972310Y3213547D01*
X969265Y3216045D01*
X966767Y3219090D01*
X964910Y3222563D01*
X963766Y3226333D01*
X963320Y3230866D01*
X963320Y3339534D01*
X963766Y3344067D01*
X964910Y3347837D01*
X966767Y3351310D01*
X969265Y3354355D01*
X972310Y3356853D01*
X975783Y3358710D01*
X979553Y3359853D01*
X984086Y3360300D01*
X1067754Y3360300D01*
X1072287Y3359853D01*
X1072287Y3359853D01*
G37*
G36*
X867287Y3359853D02*
G01*
X871057Y3358710D01*
X874530Y3356853D01*
X877575Y3354355D01*
X880073Y3351310D01*
X881930Y3347837D01*
X883073Y3344067D01*
X883520Y3339534D01*
X883520Y3230866D01*
X883073Y3226333D01*
X881930Y3222563D01*
X880073Y3219090D01*
X877575Y3216045D01*
X874530Y3213547D01*
X871057Y3211690D01*
X867287Y3210546D01*
X862754Y3210100D01*
X779086Y3210100D01*
X774553Y3210546D01*
X770783Y3211690D01*
X767310Y3213547D01*
X764265Y3216045D01*
X761767Y3219090D01*
X759910Y3222563D01*
X758766Y3226333D01*
X758320Y3230866D01*
X758320Y3339534D01*
X758766Y3344067D01*
X759910Y3347837D01*
X761767Y3351310D01*
X764265Y3354355D01*
X767310Y3356853D01*
X770783Y3358710D01*
X774553Y3359853D01*
X779086Y3360300D01*
X862754Y3360300D01*
X867287Y3359853D01*
X867287Y3359853D01*
G37*
G36*
X2183481Y3795500D02*
G01*
X2186915Y3794458D01*
X2190080Y3792766D01*
X2192854Y3790490D01*
X2195130Y3787716D01*
X2196822Y3784551D01*
X2197864Y3781117D01*
X2198276Y3776931D01*
X2198276Y3569693D01*
X2197864Y3565507D01*
X2196822Y3562073D01*
X2195130Y3558908D01*
X2192854Y3556134D01*
X2190080Y3553858D01*
X2186915Y3552166D01*
X2183481Y3551124D01*
X2179295Y3550712D01*
X2057057Y3550712D01*
X2052871Y3551124D01*
X2049437Y3552166D01*
X2046272Y3553858D01*
X2043498Y3556134D01*
X2041222Y3558908D01*
X2039530Y3562073D01*
X2038488Y3565507D01*
X2038076Y3569693D01*
X2038076Y3776931D01*
X2038488Y3781117D01*
X2039530Y3784551D01*
X2041222Y3787716D01*
X2043498Y3790490D01*
X2046272Y3792766D01*
X2049437Y3794458D01*
X2052871Y3795500D01*
X2057057Y3795912D01*
X2179295Y3795912D01*
X2183481Y3795500D01*
X2183481Y3795500D01*
G37*
G36*
X1858481Y3795500D02*
G01*
X1861915Y3794458D01*
X1865080Y3792766D01*
X1867854Y3790490D01*
X1870130Y3787716D01*
X1871822Y3784551D01*
X1872864Y3781117D01*
X1873276Y3776931D01*
X1873276Y3569693D01*
X1872864Y3565507D01*
X1871822Y3562073D01*
X1870130Y3558908D01*
X1867854Y3556134D01*
X1865080Y3553858D01*
X1861915Y3552166D01*
X1858481Y3551124D01*
X1854295Y3550712D01*
X1732057Y3550712D01*
X1727871Y3551124D01*
X1724437Y3552166D01*
X1721272Y3553858D01*
X1718498Y3556134D01*
X1716222Y3558908D01*
X1714530Y3562073D01*
X1713488Y3565507D01*
X1713076Y3569693D01*
X1713076Y3776931D01*
X1713488Y3781117D01*
X1714530Y3784551D01*
X1716222Y3787716D01*
X1718498Y3790490D01*
X1721272Y3792766D01*
X1724437Y3794458D01*
X1727871Y3795500D01*
X1732057Y3795912D01*
X1854295Y3795912D01*
X1858481Y3795500D01*
X1858481Y3795500D01*
G37*
G36*
X1243653Y3785111D02*
G01*
X1247423Y3783968D01*
X1250896Y3782111D01*
X1253941Y3779613D01*
X1256439Y3776568D01*
X1258296Y3773095D01*
X1259440Y3769325D01*
X1259886Y3764792D01*
X1259886Y3681124D01*
X1259440Y3676591D01*
X1258296Y3672821D01*
X1256439Y3669348D01*
X1253941Y3666303D01*
X1250896Y3663805D01*
X1247423Y3661948D01*
X1243653Y3660804D01*
X1239120Y3660358D01*
X1130452Y3660358D01*
X1125919Y3660804D01*
X1122149Y3661948D01*
X1118676Y3663805D01*
X1115631Y3666303D01*
X1113133Y3669348D01*
X1111276Y3672821D01*
X1110133Y3676591D01*
X1109686Y3681124D01*
X1109686Y3764792D01*
X1110133Y3769325D01*
X1111276Y3773095D01*
X1113133Y3776568D01*
X1115631Y3779613D01*
X1118676Y3782111D01*
X1122149Y3783968D01*
X1125919Y3785111D01*
X1130452Y3785558D01*
X1239120Y3785558D01*
X1243653Y3785111D01*
X1243653Y3785111D01*
G37*
G36*
X1015053Y3785111D02*
G01*
X1018823Y3783968D01*
X1022296Y3782111D01*
X1025341Y3779613D01*
X1027839Y3776568D01*
X1029696Y3773095D01*
X1030839Y3769325D01*
X1031286Y3764792D01*
X1031286Y3681124D01*
X1030839Y3676591D01*
X1029696Y3672821D01*
X1027839Y3669348D01*
X1025341Y3666303D01*
X1022296Y3663805D01*
X1018823Y3661948D01*
X1015053Y3660804D01*
X1010520Y3660358D01*
X901852Y3660358D01*
X897319Y3660804D01*
X893549Y3661948D01*
X890076Y3663805D01*
X887031Y3666303D01*
X884533Y3669348D01*
X882676Y3672821D01*
X881532Y3676591D01*
X881086Y3681124D01*
X881086Y3764792D01*
X881532Y3769325D01*
X882676Y3773095D01*
X884533Y3776568D01*
X887031Y3779613D01*
X890076Y3782111D01*
X893549Y3783968D01*
X897319Y3785111D01*
X901852Y3785558D01*
X1010520Y3785558D01*
X1015053Y3785111D01*
X1015053Y3785111D01*
G37*
G36*
X821720Y3799700D02*
G01*
X561520Y3799700D01*
X561520Y3989900D01*
X821720Y3989900D01*
X821720Y3799700D01*
X821720Y3799700D01*
G37*
G36*
X421720Y3799700D02*
G01*
X161520Y3799700D01*
X161520Y3989900D01*
X421720Y3989900D01*
X421720Y3799700D01*
X421720Y3799700D01*
G37*
G36*
X1243653Y3990111D02*
G01*
X1247423Y3988968D01*
X1250896Y3987111D01*
X1253941Y3984613D01*
X1256439Y3981568D01*
X1258296Y3978095D01*
X1259440Y3974325D01*
X1259886Y3969792D01*
X1259886Y3886124D01*
X1259440Y3881591D01*
X1258296Y3877821D01*
X1256439Y3874348D01*
X1253941Y3871303D01*
X1250896Y3868805D01*
X1247423Y3866948D01*
X1243653Y3865804D01*
X1239120Y3865358D01*
X1130452Y3865358D01*
X1125919Y3865804D01*
X1122149Y3866948D01*
X1118676Y3868805D01*
X1115631Y3871303D01*
X1113133Y3874348D01*
X1111276Y3877821D01*
X1110133Y3881591D01*
X1109686Y3886124D01*
X1109686Y3969792D01*
X1110133Y3974325D01*
X1111276Y3978095D01*
X1113133Y3981568D01*
X1115631Y3984613D01*
X1118676Y3987111D01*
X1122149Y3988968D01*
X1125919Y3990111D01*
X1130452Y3990558D01*
X1239120Y3990558D01*
X1243653Y3990111D01*
X1243653Y3990111D01*
G37*
G36*
X1015053Y3990111D02*
G01*
X1018823Y3988968D01*
X1022296Y3987111D01*
X1025341Y3984613D01*
X1027839Y3981568D01*
X1029696Y3978095D01*
X1030839Y3974325D01*
X1031286Y3969792D01*
X1031286Y3886124D01*
X1030839Y3881591D01*
X1029696Y3877821D01*
X1027839Y3874348D01*
X1025341Y3871303D01*
X1022296Y3868805D01*
X1018823Y3866948D01*
X1015053Y3865804D01*
X1010520Y3865358D01*
X901852Y3865358D01*
X897319Y3865804D01*
X893549Y3866948D01*
X890076Y3868805D01*
X887031Y3871303D01*
X884533Y3874348D01*
X882676Y3877821D01*
X881532Y3881591D01*
X881086Y3886124D01*
X881086Y3969792D01*
X881532Y3974325D01*
X882676Y3978095D01*
X884533Y3981568D01*
X887031Y3984613D01*
X890076Y3987111D01*
X893549Y3988968D01*
X897319Y3990111D01*
X901852Y3990558D01*
X1010520Y3990558D01*
X1015053Y3990111D01*
X1015053Y3990111D01*
G37*
G36*
X792476Y4430261D02*
G01*
X811603Y4422339D01*
X811603Y4422338D01*
X828817Y4410837D01*
X843456Y4396197D01*
X854958Y4378983D01*
X862881Y4359856D01*
X866920Y4339552D01*
X866920Y4318848D01*
X862881Y4298544D01*
X854958Y4279417D01*
X854958Y4279417D01*
X843456Y4262203D01*
X828817Y4247564D01*
X811603Y4236062D01*
X811603Y4236062D01*
X811603Y4236062D01*
X792476Y4228139D01*
X772172Y4224100D01*
X751468Y4224100D01*
X731164Y4228139D01*
X712037Y4236062D01*
X712037Y4236062D01*
X712036Y4236062D01*
X694823Y4247564D01*
X680184Y4262203D01*
X668682Y4279417D01*
X668682Y4279417D01*
X660759Y4298544D01*
X656720Y4318848D01*
X656720Y4339552D01*
X660759Y4359856D01*
X668682Y4378983D01*
X680184Y4396197D01*
X694823Y4410837D01*
X712036Y4422338D01*
X712037Y4422339D01*
X731164Y4430261D01*
X751468Y4434300D01*
X772172Y4434300D01*
X792476Y4430261D01*
X792476Y4430261D01*
G37*
G36*
X192476Y4430261D02*
G01*
X211603Y4422339D01*
X211603Y4422338D01*
X228817Y4410837D01*
X243456Y4396197D01*
X254958Y4378983D01*
X262881Y4359856D01*
X266920Y4339552D01*
X266920Y4318848D01*
X262881Y4298544D01*
X254958Y4279417D01*
X254958Y4279417D01*
X243456Y4262203D01*
X228817Y4247564D01*
X211603Y4236062D01*
X211603Y4236062D01*
X211603Y4236062D01*
X192476Y4228139D01*
X172172Y4224100D01*
X151468Y4224100D01*
X131164Y4228139D01*
X112037Y4236062D01*
X112037Y4236062D01*
X112036Y4236062D01*
X94823Y4247564D01*
X80184Y4262203D01*
X68682Y4279417D01*
X68682Y4279417D01*
X60759Y4298544D01*
X56720Y4318848D01*
X56720Y4339552D01*
X60759Y4359856D01*
X68682Y4378983D01*
X80184Y4396197D01*
X94823Y4410837D01*
X112036Y4422338D01*
X112037Y4422339D01*
X131164Y4430261D01*
X151468Y4434300D01*
X172172Y4434300D01*
X192476Y4430261D01*
X192476Y4430261D01*
G37*
G36*
X598171Y4618807D02*
G01*
X613101Y4615838D01*
X629498Y4609046D01*
X644255Y4599185D01*
X656805Y4586635D01*
X666666Y4571878D01*
X673458Y4555481D01*
X676920Y4538074D01*
X676920Y4520326D01*
X673458Y4502919D01*
X666666Y4486522D01*
X656805Y4471765D01*
X644255Y4459215D01*
X629498Y4449354D01*
X613101Y4442562D01*
X598171Y4439593D01*
X595694Y4439100D01*
X577946Y4439100D01*
X575469Y4439593D01*
X560539Y4442562D01*
X544142Y4449354D01*
X529385Y4459215D01*
X516835Y4471765D01*
X506974Y4486522D01*
X500182Y4502919D01*
X496720Y4520326D01*
X496720Y4538074D01*
X500182Y4555481D01*
X506974Y4571878D01*
X516835Y4586635D01*
X529385Y4599185D01*
X544142Y4609046D01*
X560539Y4615838D01*
X575469Y4618807D01*
X577946Y4619300D01*
X595694Y4619300D01*
X598171Y4618807D01*
X598171Y4618807D01*
G37*
G36*
X4611300Y4475900D02*
G01*
X4431100Y4475900D01*
X4431100Y4656100D01*
X4611300Y4656100D01*
X4611300Y4475900D01*
X4611300Y4475900D01*
G37*
G36*
X1464887Y4779014D02*
G01*
X1468657Y4777870D01*
X1472130Y4776013D01*
X1475175Y4773515D01*
X1477673Y4770470D01*
X1479530Y4766997D01*
X1480673Y4763227D01*
X1481120Y4758694D01*
X1481120Y4675026D01*
X1480673Y4670493D01*
X1479530Y4666723D01*
X1477673Y4663250D01*
X1475175Y4660205D01*
X1472130Y4657707D01*
X1468657Y4655850D01*
X1464887Y4654707D01*
X1460354Y4654260D01*
X1351686Y4654260D01*
X1347153Y4654707D01*
X1343383Y4655850D01*
X1339910Y4657707D01*
X1336865Y4660205D01*
X1334367Y4663250D01*
X1332510Y4666723D01*
X1331367Y4670493D01*
X1330920Y4675026D01*
X1330920Y4758694D01*
X1331367Y4763227D01*
X1332510Y4766997D01*
X1334367Y4770470D01*
X1336865Y4773515D01*
X1339910Y4776013D01*
X1343383Y4777870D01*
X1347153Y4779014D01*
X1351686Y4779460D01*
X1460354Y4779460D01*
X1464887Y4779014D01*
X1464887Y4779014D01*
G37*
G36*
X3303100Y4660900D02*
G01*
X3042900Y4660900D01*
X3042900Y4771100D01*
X3303100Y4771100D01*
X3303100Y4660900D01*
X3303100Y4660900D01*
G37*
G36*
X1783100Y4660900D02*
G01*
X1522900Y4660900D01*
X1522900Y4771100D01*
X1783100Y4771100D01*
X1783100Y4660900D01*
X1783100Y4660900D01*
G37*
G36*
X4532244Y4909448D02*
G01*
X4538863Y4908796D01*
X4555847Y4903644D01*
X4571499Y4895278D01*
X4575073Y4892345D01*
X4585219Y4884019D01*
X4592216Y4875493D01*
X4596478Y4870299D01*
X4604844Y4854647D01*
X4609996Y4837663D01*
X4611736Y4820000D01*
X4609996Y4802337D01*
X4604844Y4785353D01*
X4596478Y4769701D01*
X4594560Y4767364D01*
X4585219Y4755981D01*
X4575073Y4747655D01*
X4571499Y4744722D01*
X4555847Y4736356D01*
X4538863Y4731204D01*
X4532244Y4730552D01*
X4525626Y4729900D01*
X4516774Y4729900D01*
X4510156Y4730552D01*
X4503537Y4731204D01*
X4486553Y4736356D01*
X4470901Y4744722D01*
X4467327Y4747655D01*
X4457181Y4755981D01*
X4447840Y4767364D01*
X4445922Y4769701D01*
X4437556Y4785353D01*
X4432404Y4802337D01*
X4430664Y4820000D01*
X4432404Y4837663D01*
X4437556Y4854647D01*
X4445922Y4870299D01*
X4450184Y4875493D01*
X4457181Y4884019D01*
X4467327Y4892345D01*
X4470901Y4895278D01*
X4486553Y4903644D01*
X4503537Y4908796D01*
X4510156Y4909448D01*
X4516774Y4910100D01*
X4525626Y4910100D01*
X4532244Y4909448D01*
X4532244Y4909448D01*
G37*
G36*
X598171Y5018807D02*
G01*
X613101Y5015838D01*
X629498Y5009046D01*
X644255Y4999185D01*
X656805Y4986635D01*
X666666Y4971878D01*
X673458Y4955481D01*
X676920Y4938074D01*
X676920Y4920326D01*
X673458Y4902919D01*
X666666Y4886522D01*
X656805Y4871765D01*
X644255Y4859215D01*
X629498Y4849354D01*
X613101Y4842562D01*
X598171Y4839593D01*
X595694Y4839100D01*
X577946Y4839100D01*
X575469Y4839593D01*
X560539Y4842562D01*
X544142Y4849354D01*
X529385Y4859215D01*
X516835Y4871765D01*
X506974Y4886522D01*
X500182Y4902919D01*
X496720Y4920326D01*
X496720Y4938074D01*
X500182Y4955481D01*
X506974Y4971878D01*
X516835Y4986635D01*
X529385Y4999185D01*
X544142Y5009046D01*
X560539Y5015838D01*
X575469Y5018807D01*
X577946Y5019300D01*
X595694Y5019300D01*
X598171Y5018807D01*
X598171Y5018807D01*
G37*
G36*
X1464887Y4984014D02*
G01*
X1468657Y4982870D01*
X1472130Y4981013D01*
X1475175Y4978515D01*
X1477673Y4975470D01*
X1479530Y4971997D01*
X1480673Y4968227D01*
X1481120Y4963694D01*
X1481120Y4880026D01*
X1480673Y4875493D01*
X1479530Y4871723D01*
X1477673Y4868250D01*
X1475175Y4865205D01*
X1472130Y4862707D01*
X1468657Y4860850D01*
X1464887Y4859707D01*
X1460354Y4859260D01*
X1351686Y4859260D01*
X1347153Y4859707D01*
X1343383Y4860850D01*
X1339910Y4862707D01*
X1336865Y4865205D01*
X1334367Y4868250D01*
X1332510Y4871723D01*
X1331367Y4875493D01*
X1330920Y4880026D01*
X1330920Y4963694D01*
X1331367Y4968227D01*
X1332510Y4971997D01*
X1334367Y4975470D01*
X1336865Y4978515D01*
X1339910Y4981013D01*
X1343383Y4982870D01*
X1347153Y4984014D01*
X1351686Y4984460D01*
X1460354Y4984460D01*
X1464887Y4984014D01*
X1464887Y4984014D01*
G37*
G36*
X1783100Y4860900D02*
G01*
X1522900Y4860900D01*
X1522900Y4971100D01*
X1783100Y4971100D01*
X1783100Y4860900D01*
X1783100Y4860900D01*
G37*
G36*
X3303100Y4860900D02*
G01*
X3042900Y4860900D01*
X3042900Y4971100D01*
X3303100Y4971100D01*
X3303100Y4860900D01*
X3303100Y4860900D01*
G37*
G36*
X3900687Y5140654D02*
G01*
X3904457Y5139510D01*
X3907930Y5137653D01*
X3910975Y5135155D01*
X3913473Y5132110D01*
X3915330Y5128637D01*
X3916473Y5124867D01*
X3916920Y5120334D01*
X3916920Y5011666D01*
X3916473Y5007133D01*
X3915330Y5003363D01*
X3913473Y4999890D01*
X3910975Y4996845D01*
X3907930Y4994347D01*
X3904457Y4992490D01*
X3900687Y4991347D01*
X3896154Y4990900D01*
X3812486Y4990900D01*
X3807953Y4991347D01*
X3804183Y4992490D01*
X3800710Y4994347D01*
X3797665Y4996845D01*
X3795167Y4999890D01*
X3793310Y5003363D01*
X3792166Y5007133D01*
X3791720Y5011666D01*
X3791720Y5120334D01*
X3792166Y5124867D01*
X3793310Y5128637D01*
X3795167Y5132110D01*
X3797665Y5135155D01*
X3800710Y5137653D01*
X3804183Y5139510D01*
X3807953Y5140654D01*
X3812486Y5141100D01*
X3896154Y5141100D01*
X3900687Y5140654D01*
X3900687Y5140654D01*
G37*
G36*
X4105687Y5140654D02*
G01*
X4109457Y5139510D01*
X4112930Y5137653D01*
X4115975Y5135155D01*
X4118473Y5132110D01*
X4120330Y5128637D01*
X4121473Y5124867D01*
X4121920Y5120334D01*
X4121920Y5011666D01*
X4121473Y5007133D01*
X4120330Y5003363D01*
X4118473Y4999890D01*
X4115975Y4996845D01*
X4112930Y4994347D01*
X4109457Y4992490D01*
X4105687Y4991347D01*
X4101154Y4990900D01*
X4017486Y4990900D01*
X4012953Y4991347D01*
X4009183Y4992490D01*
X4005710Y4994347D01*
X4002665Y4996845D01*
X4000167Y4999890D01*
X3998310Y5003363D01*
X3997166Y5007133D01*
X3996720Y5011666D01*
X3996720Y5120334D01*
X3997166Y5124867D01*
X3998310Y5128637D01*
X4000167Y5132110D01*
X4002665Y5135155D01*
X4005710Y5137653D01*
X4009183Y5139510D01*
X4012953Y5140654D01*
X4017486Y5141100D01*
X4101154Y5141100D01*
X4105687Y5140654D01*
X4105687Y5140654D01*
G37*
G36*
X3303100Y5060900D02*
G01*
X3042900Y5060900D01*
X3042900Y5171100D01*
X3303100Y5171100D01*
X3303100Y5060900D01*
X3303100Y5060900D01*
G37*
G36*
X1783100Y5060900D02*
G01*
X1522900Y5060900D01*
X1522900Y5171100D01*
X1783100Y5171100D01*
X1783100Y5060900D01*
X1783100Y5060900D01*
G37*
G36*
X3900687Y5340654D02*
G01*
X3904457Y5339510D01*
X3907930Y5337653D01*
X3910975Y5335155D01*
X3913473Y5332110D01*
X3915330Y5328637D01*
X3916473Y5324867D01*
X3916920Y5320334D01*
X3916920Y5211666D01*
X3916473Y5207133D01*
X3915330Y5203363D01*
X3913473Y5199890D01*
X3910975Y5196845D01*
X3907930Y5194347D01*
X3904457Y5192490D01*
X3900687Y5191347D01*
X3896154Y5190900D01*
X3812486Y5190900D01*
X3807953Y5191347D01*
X3804183Y5192490D01*
X3800710Y5194347D01*
X3797665Y5196845D01*
X3795167Y5199890D01*
X3793310Y5203363D01*
X3792166Y5207133D01*
X3791720Y5211666D01*
X3791720Y5320334D01*
X3792166Y5324867D01*
X3793310Y5328637D01*
X3795167Y5332110D01*
X3797665Y5335155D01*
X3800710Y5337653D01*
X3804183Y5339510D01*
X3807953Y5340654D01*
X3812486Y5341100D01*
X3896154Y5341100D01*
X3900687Y5340654D01*
X3900687Y5340654D01*
G37*
G36*
X4105687Y5340654D02*
G01*
X4109457Y5339510D01*
X4112930Y5337653D01*
X4115975Y5335155D01*
X4118473Y5332110D01*
X4120330Y5328637D01*
X4121473Y5324867D01*
X4121920Y5320334D01*
X4121920Y5211666D01*
X4121473Y5207133D01*
X4120330Y5203363D01*
X4118473Y5199890D01*
X4115975Y5196845D01*
X4112930Y5194347D01*
X4109457Y5192490D01*
X4105687Y5191347D01*
X4101154Y5190900D01*
X4017486Y5190900D01*
X4012953Y5191347D01*
X4009183Y5192490D01*
X4005710Y5194347D01*
X4002665Y5196845D01*
X4000167Y5199890D01*
X3998310Y5203363D01*
X3997166Y5207133D01*
X3996720Y5211666D01*
X3996720Y5320334D01*
X3997166Y5324867D01*
X3998310Y5328637D01*
X4000167Y5332110D01*
X4002665Y5335155D01*
X4005710Y5337653D01*
X4009183Y5339510D01*
X4012953Y5340654D01*
X4017486Y5341100D01*
X4101154Y5341100D01*
X4105687Y5340654D01*
X4105687Y5340654D01*
G37*
G36*
X598171Y5418807D02*
G01*
X613101Y5415838D01*
X629498Y5409046D01*
X644255Y5399185D01*
X656805Y5386635D01*
X666666Y5371878D01*
X673458Y5355481D01*
X676920Y5338074D01*
X676920Y5320326D01*
X673458Y5302919D01*
X666666Y5286522D01*
X656805Y5271765D01*
X644255Y5259215D01*
X629498Y5249354D01*
X613101Y5242562D01*
X598171Y5239593D01*
X595694Y5239100D01*
X577946Y5239100D01*
X575469Y5239593D01*
X560539Y5242562D01*
X544142Y5249354D01*
X529385Y5259215D01*
X516835Y5271765D01*
X506974Y5286522D01*
X500182Y5302919D01*
X496720Y5320326D01*
X496720Y5338074D01*
X500182Y5355481D01*
X506974Y5371878D01*
X516835Y5386635D01*
X529385Y5399185D01*
X544142Y5409046D01*
X560539Y5415838D01*
X575469Y5418807D01*
X577946Y5419300D01*
X595694Y5419300D01*
X598171Y5418807D01*
X598171Y5418807D01*
G37*
G36*
X3303100Y5260900D02*
G01*
X3042900Y5260900D01*
X3042900Y5371100D01*
X3303100Y5371100D01*
X3303100Y5260900D01*
X3303100Y5260900D01*
G37*
G36*
X1783100Y5260900D02*
G01*
X1522900Y5260900D01*
X1522900Y5371100D01*
X1783100Y5371100D01*
X1783100Y5260900D01*
X1783100Y5260900D01*
G37*
G36*
X4611300Y5277900D02*
G01*
X4431100Y5277900D01*
X4431100Y5458100D01*
X4611300Y5458100D01*
X4611300Y5277900D01*
X4611300Y5277900D01*
G37*
G36*
X3900687Y5540654D02*
G01*
X3904457Y5539510D01*
X3907930Y5537653D01*
X3910975Y5535155D01*
X3913473Y5532110D01*
X3915330Y5528637D01*
X3916473Y5524867D01*
X3916920Y5520334D01*
X3916920Y5411666D01*
X3916473Y5407133D01*
X3915330Y5403363D01*
X3913473Y5399890D01*
X3910975Y5396845D01*
X3907930Y5394347D01*
X3904457Y5392490D01*
X3900687Y5391347D01*
X3896154Y5390900D01*
X3812486Y5390900D01*
X3807953Y5391347D01*
X3804183Y5392490D01*
X3800710Y5394347D01*
X3797665Y5396845D01*
X3795167Y5399890D01*
X3793310Y5403363D01*
X3792166Y5407133D01*
X3791720Y5411666D01*
X3791720Y5520334D01*
X3792166Y5524867D01*
X3793310Y5528637D01*
X3795167Y5532110D01*
X3797665Y5535155D01*
X3800710Y5537653D01*
X3804183Y5539510D01*
X3807953Y5540654D01*
X3812486Y5541100D01*
X3896154Y5541100D01*
X3900687Y5540654D01*
X3900687Y5540654D01*
G37*
G36*
X4105687Y5540654D02*
G01*
X4109457Y5539510D01*
X4112930Y5537653D01*
X4115975Y5535155D01*
X4118473Y5532110D01*
X4120330Y5528637D01*
X4121473Y5524867D01*
X4121920Y5520334D01*
X4121920Y5411666D01*
X4121473Y5407133D01*
X4120330Y5403363D01*
X4118473Y5399890D01*
X4115975Y5396845D01*
X4112930Y5394347D01*
X4109457Y5392490D01*
X4105687Y5391347D01*
X4101154Y5390900D01*
X4017486Y5390900D01*
X4012953Y5391347D01*
X4009183Y5392490D01*
X4005710Y5394347D01*
X4002665Y5396845D01*
X4000167Y5399890D01*
X3998310Y5403363D01*
X3997166Y5407133D01*
X3996720Y5411666D01*
X3996720Y5520334D01*
X3997166Y5524867D01*
X3998310Y5528637D01*
X4000167Y5532110D01*
X4002665Y5535155D01*
X4005710Y5537653D01*
X4009183Y5539510D01*
X4012953Y5540654D01*
X4017486Y5541100D01*
X4101154Y5541100D01*
X4105687Y5540654D01*
X4105687Y5540654D01*
G37*
G36*
X192476Y5630261D02*
G01*
X211603Y5622338D01*
X211603Y5622338D01*
X228817Y5610836D01*
X243456Y5596197D01*
X254958Y5578983D01*
X262881Y5559856D01*
X266920Y5539552D01*
X266920Y5518848D01*
X262881Y5498544D01*
X254958Y5479417D01*
X254958Y5479417D01*
X243456Y5462203D01*
X228817Y5447564D01*
X211603Y5436062D01*
X211603Y5436062D01*
X211603Y5436062D01*
X192476Y5428139D01*
X172172Y5424100D01*
X151468Y5424100D01*
X131164Y5428139D01*
X112037Y5436062D01*
X112037Y5436062D01*
X112036Y5436062D01*
X94823Y5447564D01*
X80184Y5462203D01*
X68682Y5479417D01*
X68682Y5479417D01*
X60759Y5498544D01*
X56720Y5518848D01*
X56720Y5539552D01*
X60759Y5559856D01*
X68682Y5578983D01*
X80184Y5596197D01*
X94823Y5610836D01*
X112036Y5622338D01*
X112037Y5622338D01*
X131164Y5630261D01*
X151468Y5634300D01*
X172172Y5634300D01*
X192476Y5630261D01*
X192476Y5630261D01*
G37*
G36*
X792476Y5630261D02*
G01*
X811603Y5622338D01*
X811603Y5622338D01*
X828817Y5610836D01*
X843456Y5596197D01*
X854958Y5578983D01*
X862881Y5559856D01*
X866920Y5539552D01*
X866920Y5518848D01*
X862881Y5498544D01*
X854958Y5479417D01*
X854958Y5479417D01*
X843456Y5462203D01*
X828817Y5447564D01*
X811603Y5436062D01*
X811603Y5436062D01*
X811603Y5436062D01*
X792476Y5428139D01*
X772172Y5424100D01*
X751468Y5424100D01*
X731164Y5428139D01*
X712037Y5436062D01*
X712037Y5436062D01*
X712036Y5436062D01*
X694823Y5447564D01*
X680184Y5462203D01*
X668682Y5479417D01*
X668682Y5479417D01*
X660759Y5498544D01*
X656720Y5518848D01*
X656720Y5539552D01*
X660759Y5559856D01*
X668682Y5578983D01*
X680184Y5596197D01*
X694823Y5610836D01*
X712036Y5622338D01*
X712037Y5622338D01*
X731164Y5630261D01*
X751468Y5634300D01*
X772172Y5634300D01*
X792476Y5630261D01*
X792476Y5630261D01*
G37*
G36*
X3303100Y5460900D02*
G01*
X3042900Y5460900D01*
X3042900Y5571100D01*
X3303100Y5571100D01*
X3303100Y5460900D01*
X3303100Y5460900D01*
G37*
G36*
X1783100Y5460900D02*
G01*
X1522900Y5460900D01*
X1522900Y5571100D01*
X1783100Y5571100D01*
X1783100Y5460900D01*
X1783100Y5460900D01*
G37*
G36*
X4532244Y5711448D02*
G01*
X4538863Y5710796D01*
X4555847Y5705644D01*
X4571499Y5697278D01*
X4575073Y5694345D01*
X4585219Y5686019D01*
X4593545Y5675873D01*
X4596478Y5672299D01*
X4604844Y5656647D01*
X4609996Y5639663D01*
X4611736Y5622000D01*
X4609996Y5604337D01*
X4604844Y5587353D01*
X4596478Y5571701D01*
X4593545Y5568127D01*
X4585219Y5557981D01*
X4575073Y5549655D01*
X4571499Y5546722D01*
X4571499Y5546722D01*
X4557105Y5539028D01*
X4555847Y5538356D01*
X4538863Y5533204D01*
X4532244Y5532552D01*
X4525626Y5531900D01*
X4516774Y5531900D01*
X4510156Y5532552D01*
X4503537Y5533204D01*
X4486553Y5538356D01*
X4485295Y5539028D01*
X4470901Y5546722D01*
X4470901Y5546722D01*
X4467327Y5549655D01*
X4457181Y5557981D01*
X4448855Y5568127D01*
X4445922Y5571701D01*
X4437556Y5587353D01*
X4432404Y5604337D01*
X4430664Y5622000D01*
X4432404Y5639663D01*
X4437556Y5656647D01*
X4445922Y5672299D01*
X4448855Y5675873D01*
X4457181Y5686019D01*
X4467327Y5694345D01*
X4470901Y5697278D01*
X4486553Y5705644D01*
X4503537Y5710796D01*
X4510156Y5711448D01*
X4516774Y5712100D01*
X4525626Y5712100D01*
X4532244Y5711448D01*
X4532244Y5711448D01*
G37*
G36*
X1465987Y5791903D02*
G01*
X1469757Y5790760D01*
X1473230Y5788903D01*
X1476275Y5786405D01*
X1478773Y5783360D01*
X1480630Y5779887D01*
X1481773Y5776117D01*
X1482220Y5771584D01*
X1482220Y5662916D01*
X1481773Y5658383D01*
X1480630Y5654613D01*
X1478773Y5651140D01*
X1476275Y5648095D01*
X1473230Y5645597D01*
X1469757Y5643740D01*
X1465987Y5642596D01*
X1461454Y5642150D01*
X1377786Y5642150D01*
X1373253Y5642596D01*
X1369483Y5643740D01*
X1366010Y5645597D01*
X1362965Y5648095D01*
X1360467Y5651140D01*
X1358610Y5654613D01*
X1357467Y5658383D01*
X1357020Y5662916D01*
X1357020Y5771584D01*
X1357467Y5776117D01*
X1358610Y5779887D01*
X1360467Y5783360D01*
X1362965Y5786405D01*
X1366010Y5788903D01*
X1369483Y5790760D01*
X1373253Y5791903D01*
X1377786Y5792350D01*
X1461454Y5792350D01*
X1465987Y5791903D01*
X1465987Y5791903D01*
G37*
G36*
X1260987Y5791903D02*
G01*
X1264757Y5790760D01*
X1268230Y5788903D01*
X1271275Y5786405D01*
X1273773Y5783360D01*
X1275630Y5779887D01*
X1276774Y5776117D01*
X1277220Y5771584D01*
X1277220Y5662916D01*
X1276774Y5658383D01*
X1275630Y5654613D01*
X1273773Y5651140D01*
X1271275Y5648095D01*
X1268230Y5645597D01*
X1264757Y5643740D01*
X1260987Y5642596D01*
X1256454Y5642150D01*
X1172786Y5642150D01*
X1168253Y5642596D01*
X1164483Y5643740D01*
X1161010Y5645597D01*
X1157965Y5648095D01*
X1155467Y5651140D01*
X1153610Y5654613D01*
X1152467Y5658383D01*
X1152020Y5662916D01*
X1152020Y5771584D01*
X1152467Y5776117D01*
X1153610Y5779887D01*
X1155467Y5783360D01*
X1157965Y5786405D01*
X1161010Y5788903D01*
X1164483Y5790760D01*
X1168253Y5791903D01*
X1172786Y5792350D01*
X1256454Y5792350D01*
X1260987Y5791903D01*
X1260987Y5791903D01*
G37*
G36*
X3303100Y5660900D02*
G01*
X3042900Y5660900D01*
X3042900Y5771100D01*
X3303100Y5771100D01*
X3303100Y5660900D01*
X3303100Y5660900D01*
G37*
G36*
X1783100Y5660900D02*
G01*
X1522900Y5660900D01*
X1522900Y5771100D01*
X1783100Y5771100D01*
X1783100Y5660900D01*
X1783100Y5660900D01*
G37*
G36*
X4532244Y5965448D02*
G01*
X4538863Y5964796D01*
X4555847Y5959644D01*
X4571499Y5951278D01*
X4575073Y5948345D01*
X4585219Y5940019D01*
X4593545Y5929873D01*
X4596478Y5926299D01*
X4604844Y5910647D01*
X4609996Y5893663D01*
X4611736Y5876000D01*
X4609996Y5858337D01*
X4604844Y5841353D01*
X4596478Y5825701D01*
X4593545Y5822127D01*
X4585219Y5811981D01*
X4575073Y5803655D01*
X4571499Y5800722D01*
X4555847Y5792356D01*
X4538863Y5787204D01*
X4532244Y5786552D01*
X4525626Y5785900D01*
X4516774Y5785900D01*
X4510156Y5786552D01*
X4503537Y5787204D01*
X4486553Y5792356D01*
X4470901Y5800722D01*
X4467327Y5803655D01*
X4457181Y5811981D01*
X4448855Y5822127D01*
X4445922Y5825701D01*
X4437556Y5841353D01*
X4432404Y5858337D01*
X4430664Y5876000D01*
X4432404Y5893663D01*
X4437556Y5910647D01*
X4445922Y5926299D01*
X4448855Y5929873D01*
X4457181Y5940019D01*
X4467327Y5948345D01*
X4470901Y5951278D01*
X4486553Y5959644D01*
X4503537Y5964796D01*
X4510156Y5965448D01*
X4516774Y5966100D01*
X4525626Y5966100D01*
X4532244Y5965448D01*
X4532244Y5965448D01*
G37*
G36*
X1783100Y5860900D02*
G01*
X1522900Y5860900D01*
X1522900Y5971100D01*
X1783100Y5971100D01*
X1783100Y5860900D01*
X1783100Y5860900D01*
G37*
G36*
X3303100Y5860900D02*
G01*
X3042900Y5860900D01*
X3042900Y5971100D01*
X3303100Y5971100D01*
X3303100Y5860900D01*
X3303100Y5860900D01*
G37*
G36*
X1465987Y6190683D02*
G01*
X1469757Y6189540D01*
X1473230Y6187683D01*
X1476275Y6185185D01*
X1478773Y6182140D01*
X1480630Y6178667D01*
X1481773Y6174897D01*
X1482220Y6170364D01*
X1482220Y6061696D01*
X1481773Y6057163D01*
X1480630Y6053393D01*
X1478773Y6049920D01*
X1476275Y6046875D01*
X1473230Y6044377D01*
X1469757Y6042520D01*
X1465987Y6041376D01*
X1461454Y6040930D01*
X1377786Y6040930D01*
X1373253Y6041376D01*
X1369483Y6042520D01*
X1366010Y6044377D01*
X1362965Y6046875D01*
X1360467Y6049920D01*
X1358610Y6053393D01*
X1357467Y6057163D01*
X1357020Y6061696D01*
X1357020Y6170364D01*
X1357467Y6174897D01*
X1358610Y6178667D01*
X1360467Y6182140D01*
X1362965Y6185185D01*
X1366010Y6187683D01*
X1369483Y6189540D01*
X1373253Y6190683D01*
X1377786Y6191130D01*
X1461454Y6191130D01*
X1465987Y6190683D01*
X1465987Y6190683D01*
G37*
G36*
X1260987Y6190683D02*
G01*
X1264757Y6189540D01*
X1268230Y6187683D01*
X1271275Y6185185D01*
X1273773Y6182140D01*
X1275630Y6178667D01*
X1276774Y6174897D01*
X1277220Y6170364D01*
X1277220Y6061696D01*
X1276774Y6057163D01*
X1275630Y6053393D01*
X1273773Y6049920D01*
X1271275Y6046875D01*
X1268230Y6044377D01*
X1264757Y6042520D01*
X1260987Y6041376D01*
X1256454Y6040930D01*
X1172786Y6040930D01*
X1168253Y6041376D01*
X1164483Y6042520D01*
X1161010Y6044377D01*
X1157965Y6046875D01*
X1155467Y6049920D01*
X1153610Y6053393D01*
X1152467Y6057163D01*
X1152020Y6061696D01*
X1152020Y6170364D01*
X1152467Y6174897D01*
X1153610Y6178667D01*
X1155467Y6182140D01*
X1157965Y6185185D01*
X1161010Y6187683D01*
X1164483Y6189540D01*
X1168253Y6190683D01*
X1172786Y6191130D01*
X1256454Y6191130D01*
X1260987Y6190683D01*
X1260987Y6190683D01*
G37*
G36*
X1783100Y6060900D02*
G01*
X1522900Y6060900D01*
X1522900Y6171100D01*
X1783100Y6171100D01*
X1783100Y6060900D01*
X1783100Y6060900D01*
G37*
G36*
X3303100Y6060900D02*
G01*
X3042900Y6060900D01*
X3042900Y6171100D01*
X3303100Y6171100D01*
X3303100Y6060900D01*
X3303100Y6060900D01*
G37*
G36*
X4558726Y6804570D02*
G01*
X4569358Y6802455D01*
X4599404Y6790010D01*
X4626445Y6771941D01*
X4649442Y6748945D01*
X4667510Y6721904D01*
X4679955Y6691858D01*
X4686300Y6659961D01*
X4686300Y6627439D01*
X4679955Y6595542D01*
X4667510Y6565496D01*
X4649442Y6538455D01*
X4626445Y6515458D01*
X4599404Y6497390D01*
X4569358Y6484945D01*
X4558726Y6482830D01*
X4537461Y6478600D01*
X4504939Y6478600D01*
X4483674Y6482830D01*
X4473042Y6484945D01*
X4442996Y6497390D01*
X4415955Y6515458D01*
X4392959Y6538455D01*
X4374890Y6565496D01*
X4362445Y6595542D01*
X4356100Y6627439D01*
X4356100Y6659961D01*
X4362445Y6691858D01*
X4374890Y6721904D01*
X4392959Y6748945D01*
X4415955Y6771941D01*
X4442996Y6790010D01*
X4473042Y6802455D01*
X4483674Y6804570D01*
X4504939Y6808800D01*
X4537461Y6808800D01*
X4558726Y6804570D01*
X4558726Y6804570D01*
G37*
G36*
X342326Y6804570D02*
G01*
X352958Y6802455D01*
X383004Y6790010D01*
X410045Y6771941D01*
X433041Y6748945D01*
X451110Y6721904D01*
X463555Y6691858D01*
X469900Y6659961D01*
X469900Y6627439D01*
X463555Y6595542D01*
X451110Y6565496D01*
X433041Y6538455D01*
X410045Y6515458D01*
X383004Y6497390D01*
X352958Y6484945D01*
X342326Y6482830D01*
X321061Y6478600D01*
X288539Y6478600D01*
X267274Y6482830D01*
X256642Y6484945D01*
X226596Y6497390D01*
X199555Y6515458D01*
X176558Y6538455D01*
X158490Y6565496D01*
X146045Y6595542D01*
X139700Y6627439D01*
X139700Y6659961D01*
X146045Y6691858D01*
X158490Y6721904D01*
X176558Y6748945D01*
X199555Y6771941D01*
X226596Y6790010D01*
X256642Y6802455D01*
X267274Y6804570D01*
X288539Y6808800D01*
X321061Y6808800D01*
X342326Y6804570D01*
X342326Y6804570D01*
G37*
G36*
X3129347Y8013893D02*
G01*
X3133117Y8012750D01*
X3136590Y8010893D01*
X3139635Y8008395D01*
X3142133Y8005350D01*
X3143990Y8001877D01*
X3145133Y7998107D01*
X3145580Y7993574D01*
X3145580Y7909906D01*
X3145133Y7905373D01*
X3143990Y7901603D01*
X3142133Y7898130D01*
X3139635Y7895085D01*
X3136590Y7892587D01*
X3133117Y7890730D01*
X3129347Y7889586D01*
X3124814Y7889140D01*
X3016146Y7889140D01*
X3011613Y7889586D01*
X3007843Y7890730D01*
X3004370Y7892587D01*
X3001325Y7895085D01*
X2998827Y7898130D01*
X2996970Y7901603D01*
X2995826Y7905373D01*
X2995380Y7909906D01*
X2995380Y7993574D01*
X2995826Y7998107D01*
X2996970Y8001877D01*
X2998827Y8005350D01*
X3001325Y8008395D01*
X3004370Y8010893D01*
X3007843Y8012750D01*
X3011613Y8013893D01*
X3016146Y8014340D01*
X3124814Y8014340D01*
X3129347Y8013893D01*
X3129347Y8013893D01*
G37*
G36*
X729347Y8013893D02*
G01*
X733117Y8012750D01*
X736590Y8010893D01*
X739635Y8008395D01*
X742133Y8005350D01*
X743990Y8001877D01*
X745133Y7998107D01*
X745580Y7993574D01*
X745580Y7909906D01*
X745133Y7905373D01*
X743990Y7901603D01*
X742133Y7898130D01*
X739635Y7895085D01*
X736590Y7892587D01*
X733117Y7890730D01*
X729347Y7889586D01*
X724814Y7889140D01*
X616146Y7889140D01*
X611613Y7889586D01*
X607843Y7890730D01*
X604370Y7892587D01*
X601325Y7895085D01*
X598827Y7898130D01*
X596970Y7901603D01*
X595827Y7905373D01*
X595380Y7909906D01*
X595380Y7993574D01*
X595827Y7998107D01*
X596970Y8001877D01*
X598827Y8005350D01*
X601325Y8008395D01*
X604370Y8010893D01*
X607843Y8012750D01*
X611613Y8013893D01*
X616146Y8014340D01*
X724814Y8014340D01*
X729347Y8013893D01*
X729347Y8013893D01*
G37*
G36*
X1529347Y8013893D02*
G01*
X1533117Y8012750D01*
X1536590Y8010893D01*
X1539635Y8008395D01*
X1542133Y8005350D01*
X1543990Y8001877D01*
X1545133Y7998107D01*
X1545580Y7993574D01*
X1545580Y7909906D01*
X1545133Y7905373D01*
X1543990Y7901603D01*
X1542133Y7898130D01*
X1539635Y7895085D01*
X1536590Y7892587D01*
X1533117Y7890730D01*
X1529347Y7889586D01*
X1524814Y7889140D01*
X1416146Y7889140D01*
X1411613Y7889586D01*
X1407843Y7890730D01*
X1404370Y7892587D01*
X1401325Y7895085D01*
X1398827Y7898130D01*
X1396970Y7901603D01*
X1395827Y7905373D01*
X1395380Y7909906D01*
X1395380Y7993574D01*
X1395827Y7998107D01*
X1396970Y8001877D01*
X1398827Y8005350D01*
X1401325Y8008395D01*
X1404370Y8010893D01*
X1407843Y8012750D01*
X1411613Y8013893D01*
X1416146Y8014340D01*
X1524814Y8014340D01*
X1529347Y8013893D01*
X1529347Y8013893D01*
G37*
G36*
X2329347Y8013893D02*
G01*
X2333117Y8012750D01*
X2336590Y8010893D01*
X2339635Y8008395D01*
X2342133Y8005350D01*
X2343990Y8001877D01*
X2345134Y7998107D01*
X2345580Y7993574D01*
X2345580Y7909906D01*
X2345134Y7905373D01*
X2343990Y7901603D01*
X2342133Y7898130D01*
X2339635Y7895085D01*
X2336590Y7892587D01*
X2333117Y7890730D01*
X2329347Y7889586D01*
X2324814Y7889140D01*
X2216146Y7889140D01*
X2211613Y7889586D01*
X2207843Y7890730D01*
X2204370Y7892587D01*
X2201325Y7895085D01*
X2198827Y7898130D01*
X2196970Y7901603D01*
X2195827Y7905373D01*
X2195380Y7909906D01*
X2195380Y7993574D01*
X2195827Y7998107D01*
X2196970Y8001877D01*
X2198827Y8005350D01*
X2201325Y8008395D01*
X2204370Y8010893D01*
X2207843Y8012750D01*
X2211613Y8013893D01*
X2216146Y8014340D01*
X2324814Y8014340D01*
X2329347Y8013893D01*
X2329347Y8013893D01*
G37*
G36*
X3929347Y8013893D02*
G01*
X3933117Y8012750D01*
X3936590Y8010893D01*
X3939635Y8008395D01*
X3942133Y8005350D01*
X3943990Y8001877D01*
X3945133Y7998107D01*
X3945580Y7993574D01*
X3945580Y7909906D01*
X3945133Y7905373D01*
X3943990Y7901603D01*
X3942133Y7898130D01*
X3939635Y7895085D01*
X3936590Y7892587D01*
X3933117Y7890730D01*
X3929347Y7889586D01*
X3924814Y7889140D01*
X3816146Y7889140D01*
X3811613Y7889586D01*
X3807843Y7890730D01*
X3804370Y7892587D01*
X3801325Y7895085D01*
X3798827Y7898130D01*
X3796970Y7901603D01*
X3795826Y7905373D01*
X3795380Y7909906D01*
X3795380Y7993574D01*
X3795826Y7998107D01*
X3796970Y8001877D01*
X3798827Y8005350D01*
X3801325Y8008395D01*
X3804370Y8010893D01*
X3807843Y8012750D01*
X3811613Y8013893D01*
X3816146Y8014340D01*
X3924814Y8014340D01*
X3929347Y8013893D01*
X3929347Y8013893D01*
G37*
G36*
X4729347Y8013893D02*
G01*
X4733117Y8012750D01*
X4736590Y8010893D01*
X4739635Y8008395D01*
X4742133Y8005350D01*
X4743990Y8001877D01*
X4745134Y7998107D01*
X4745580Y7993574D01*
X4745580Y7909906D01*
X4745134Y7905373D01*
X4743990Y7901603D01*
X4742133Y7898130D01*
X4739635Y7895085D01*
X4736590Y7892587D01*
X4733117Y7890730D01*
X4729347Y7889586D01*
X4724814Y7889140D01*
X4616146Y7889140D01*
X4611613Y7889586D01*
X4607843Y7890730D01*
X4604370Y7892587D01*
X4601325Y7895085D01*
X4598827Y7898130D01*
X4596970Y7901603D01*
X4595827Y7905373D01*
X4595380Y7909906D01*
X4595380Y7993574D01*
X4595827Y7998107D01*
X4596970Y8001877D01*
X4598827Y8005350D01*
X4601325Y8008395D01*
X4604370Y8010893D01*
X4607843Y8012750D01*
X4611613Y8013893D01*
X4616146Y8014340D01*
X4724814Y8014340D01*
X4729347Y8013893D01*
X4729347Y8013893D01*
G37*
G36*
X4436100Y7925900D02*
G01*
X4335900Y7925900D01*
X4335900Y8016100D01*
X4436100Y8016100D01*
X4436100Y7925900D01*
X4436100Y7925900D01*
G37*
G36*
X1236100Y7925900D02*
G01*
X1135900Y7925900D01*
X1135900Y8016100D01*
X1236100Y8016100D01*
X1236100Y7925900D01*
X1236100Y7925900D01*
G37*
G36*
X2036100Y7925900D02*
G01*
X1935900Y7925900D01*
X1935900Y8016100D01*
X2036100Y8016100D01*
X2036100Y7925900D01*
X2036100Y7925900D01*
G37*
G36*
X436100Y7925900D02*
G01*
X335900Y7925900D01*
X335900Y8016100D01*
X436100Y8016100D01*
X436100Y7925900D01*
X436100Y7925900D01*
G37*
G36*
X2836100Y7925900D02*
G01*
X2735900Y7925900D01*
X2735900Y8016100D01*
X2836100Y8016100D01*
X2836100Y7925900D01*
X2836100Y7925900D01*
G37*
G36*
X3636100Y7925900D02*
G01*
X3535900Y7925900D01*
X3535900Y8016100D01*
X3636100Y8016100D01*
X3636100Y7925900D01*
X3636100Y7925900D01*
G37*
G36*
X1836100Y8020900D02*
G01*
X1735900Y8020900D01*
X1735900Y8111100D01*
X1836100Y8111100D01*
X1836100Y8020900D01*
X1836100Y8020900D01*
G37*
G36*
X4236100Y8020900D02*
G01*
X4135900Y8020900D01*
X4135900Y8111100D01*
X4236100Y8111100D01*
X4236100Y8020900D01*
X4236100Y8020900D01*
G37*
G36*
X3436100Y8020900D02*
G01*
X3335900Y8020900D01*
X3335900Y8111100D01*
X3436100Y8111100D01*
X3436100Y8020900D01*
X3436100Y8020900D01*
G37*
G36*
X236100Y8020900D02*
G01*
X135900Y8020900D01*
X135900Y8111100D01*
X236100Y8111100D01*
X236100Y8020900D01*
X236100Y8020900D01*
G37*
G36*
X1036100Y8020900D02*
G01*
X935900Y8020900D01*
X935900Y8111100D01*
X1036100Y8111100D01*
X1036100Y8020900D01*
X1036100Y8020900D01*
G37*
G36*
X2636100Y8020900D02*
G01*
X2535900Y8020900D01*
X2535900Y8111100D01*
X2636100Y8111100D01*
X2636100Y8020900D01*
X2636100Y8020900D01*
G37*
G36*
X2329347Y8218893D02*
G01*
X2333117Y8217750D01*
X2336590Y8215893D01*
X2339635Y8213395D01*
X2342133Y8210350D01*
X2343990Y8206877D01*
X2345134Y8203107D01*
X2345580Y8198574D01*
X2345580Y8114906D01*
X2345134Y8110373D01*
X2343990Y8106603D01*
X2342133Y8103130D01*
X2339635Y8100085D01*
X2336590Y8097587D01*
X2333117Y8095730D01*
X2329347Y8094586D01*
X2324814Y8094140D01*
X2216146Y8094140D01*
X2211613Y8094586D01*
X2207843Y8095730D01*
X2204370Y8097587D01*
X2201325Y8100085D01*
X2198827Y8103130D01*
X2196970Y8106603D01*
X2195827Y8110373D01*
X2195380Y8114906D01*
X2195380Y8198574D01*
X2195827Y8203107D01*
X2196970Y8206877D01*
X2198827Y8210350D01*
X2201325Y8213395D01*
X2204370Y8215893D01*
X2207843Y8217750D01*
X2211613Y8218893D01*
X2216146Y8219340D01*
X2324814Y8219340D01*
X2329347Y8218893D01*
X2329347Y8218893D01*
G37*
G36*
X4729347Y8218893D02*
G01*
X4733117Y8217750D01*
X4736590Y8215893D01*
X4739635Y8213395D01*
X4742133Y8210350D01*
X4743990Y8206877D01*
X4745134Y8203107D01*
X4745580Y8198574D01*
X4745580Y8114906D01*
X4745134Y8110373D01*
X4743990Y8106603D01*
X4742133Y8103130D01*
X4739635Y8100085D01*
X4736590Y8097587D01*
X4733117Y8095730D01*
X4729347Y8094586D01*
X4724814Y8094140D01*
X4616146Y8094140D01*
X4611613Y8094586D01*
X4607843Y8095730D01*
X4604370Y8097587D01*
X4601325Y8100085D01*
X4598827Y8103130D01*
X4596970Y8106603D01*
X4595827Y8110373D01*
X4595380Y8114906D01*
X4595380Y8198574D01*
X4595827Y8203107D01*
X4596970Y8206877D01*
X4598827Y8210350D01*
X4601325Y8213395D01*
X4604370Y8215893D01*
X4607843Y8217750D01*
X4611613Y8218893D01*
X4616146Y8219340D01*
X4724814Y8219340D01*
X4729347Y8218893D01*
X4729347Y8218893D01*
G37*
G36*
X3929347Y8218893D02*
G01*
X3933117Y8217750D01*
X3936590Y8215893D01*
X3939635Y8213395D01*
X3942133Y8210350D01*
X3943990Y8206877D01*
X3945133Y8203107D01*
X3945580Y8198574D01*
X3945580Y8114906D01*
X3945133Y8110373D01*
X3943990Y8106603D01*
X3942133Y8103130D01*
X3939635Y8100085D01*
X3936590Y8097587D01*
X3933117Y8095730D01*
X3929347Y8094586D01*
X3924814Y8094140D01*
X3816146Y8094140D01*
X3811613Y8094586D01*
X3807843Y8095730D01*
X3804370Y8097587D01*
X3801325Y8100085D01*
X3798827Y8103130D01*
X3796970Y8106603D01*
X3795826Y8110373D01*
X3795380Y8114906D01*
X3795380Y8198574D01*
X3795826Y8203107D01*
X3796970Y8206877D01*
X3798827Y8210350D01*
X3801325Y8213395D01*
X3804370Y8215893D01*
X3807843Y8217750D01*
X3811613Y8218893D01*
X3816146Y8219340D01*
X3924814Y8219340D01*
X3929347Y8218893D01*
X3929347Y8218893D01*
G37*
G36*
X729347Y8218893D02*
G01*
X733117Y8217750D01*
X736590Y8215893D01*
X739635Y8213395D01*
X742133Y8210350D01*
X743990Y8206877D01*
X745133Y8203107D01*
X745580Y8198574D01*
X745580Y8114906D01*
X745133Y8110373D01*
X743990Y8106603D01*
X742133Y8103130D01*
X739635Y8100085D01*
X736590Y8097587D01*
X733117Y8095730D01*
X729347Y8094586D01*
X724814Y8094140D01*
X616146Y8094140D01*
X611613Y8094586D01*
X607843Y8095730D01*
X604370Y8097587D01*
X601325Y8100085D01*
X598827Y8103130D01*
X596970Y8106603D01*
X595827Y8110373D01*
X595380Y8114906D01*
X595380Y8198574D01*
X595827Y8203107D01*
X596970Y8206877D01*
X598827Y8210350D01*
X601325Y8213395D01*
X604370Y8215893D01*
X607843Y8217750D01*
X611613Y8218893D01*
X616146Y8219340D01*
X724814Y8219340D01*
X729347Y8218893D01*
X729347Y8218893D01*
G37*
G36*
X3129347Y8218893D02*
G01*
X3133117Y8217750D01*
X3136590Y8215893D01*
X3139635Y8213395D01*
X3142133Y8210350D01*
X3143990Y8206877D01*
X3145133Y8203107D01*
X3145580Y8198574D01*
X3145580Y8114906D01*
X3145133Y8110373D01*
X3143990Y8106603D01*
X3142133Y8103130D01*
X3139635Y8100085D01*
X3136590Y8097587D01*
X3133117Y8095730D01*
X3129347Y8094586D01*
X3124814Y8094140D01*
X3016146Y8094140D01*
X3011613Y8094586D01*
X3007843Y8095730D01*
X3004370Y8097587D01*
X3001325Y8100085D01*
X2998827Y8103130D01*
X2996970Y8106603D01*
X2995826Y8110373D01*
X2995380Y8114906D01*
X2995380Y8198574D01*
X2995826Y8203107D01*
X2996970Y8206877D01*
X2998827Y8210350D01*
X3001325Y8213395D01*
X3004370Y8215893D01*
X3007843Y8217750D01*
X3011613Y8218893D01*
X3016146Y8219340D01*
X3124814Y8219340D01*
X3129347Y8218893D01*
X3129347Y8218893D01*
G37*
G36*
X1529347Y8218893D02*
G01*
X1533117Y8217750D01*
X1536590Y8215893D01*
X1539635Y8213395D01*
X1542133Y8210350D01*
X1543990Y8206877D01*
X1545133Y8203107D01*
X1545580Y8198574D01*
X1545580Y8114906D01*
X1545133Y8110373D01*
X1543990Y8106603D01*
X1542133Y8103130D01*
X1539635Y8100085D01*
X1536590Y8097587D01*
X1533117Y8095730D01*
X1529347Y8094586D01*
X1524814Y8094140D01*
X1416146Y8094140D01*
X1411613Y8094586D01*
X1407843Y8095730D01*
X1404370Y8097587D01*
X1401325Y8100085D01*
X1398827Y8103130D01*
X1396970Y8106603D01*
X1395827Y8110373D01*
X1395380Y8114906D01*
X1395380Y8198574D01*
X1395827Y8203107D01*
X1396970Y8206877D01*
X1398827Y8210350D01*
X1401325Y8213395D01*
X1404370Y8215893D01*
X1407843Y8217750D01*
X1411613Y8218893D01*
X1416146Y8219340D01*
X1524814Y8219340D01*
X1529347Y8218893D01*
X1529347Y8218893D01*
G37*
G36*
X1236100Y8115900D02*
G01*
X1135900Y8115900D01*
X1135900Y8206100D01*
X1236100Y8206100D01*
X1236100Y8115900D01*
X1236100Y8115900D01*
G37*
G36*
X436100Y8115900D02*
G01*
X335900Y8115900D01*
X335900Y8206100D01*
X436100Y8206100D01*
X436100Y8115900D01*
X436100Y8115900D01*
G37*
G36*
X2836100Y8115900D02*
G01*
X2735900Y8115900D01*
X2735900Y8206100D01*
X2836100Y8206100D01*
X2836100Y8115900D01*
X2836100Y8115900D01*
G37*
G36*
X3636100Y8115900D02*
G01*
X3535900Y8115900D01*
X3535900Y8206100D01*
X3636100Y8206100D01*
X3636100Y8115900D01*
X3636100Y8115900D01*
G37*
G36*
X4436100Y8115900D02*
G01*
X4335900Y8115900D01*
X4335900Y8206100D01*
X4436100Y8206100D01*
X4436100Y8115900D01*
X4436100Y8115900D01*
G37*
G36*
X2036100Y8115900D02*
G01*
X1935900Y8115900D01*
X1935900Y8206100D01*
X2036100Y8206100D01*
X2036100Y8115900D01*
X2036100Y8115900D01*
G37*
G36*
X2167740Y8899845D02*
G01*
X2185047Y8892677D01*
X2185047Y8892677D01*
X2200623Y8882269D01*
X2213869Y8869023D01*
X2213869Y8869023D01*
X2224277Y8853447D01*
X2231445Y8836140D01*
X2235100Y8817767D01*
X2235100Y8799033D01*
X2231445Y8780661D01*
X2224277Y8763353D01*
X2224277Y8763353D01*
X2213869Y8747777D01*
X2200623Y8734531D01*
X2192782Y8729292D01*
X2185047Y8724123D01*
X2167740Y8716955D01*
X2149367Y8713300D01*
X2130633Y8713300D01*
X2112261Y8716955D01*
X2094953Y8724123D01*
X2087218Y8729292D01*
X2079377Y8734531D01*
X2066131Y8747777D01*
X2055723Y8763353D01*
X2055723Y8763353D01*
X2048555Y8780661D01*
X2044900Y8799033D01*
X2044900Y8817767D01*
X2048555Y8836140D01*
X2055723Y8853447D01*
X2066131Y8869023D01*
X2066131Y8869023D01*
X2079377Y8882269D01*
X2094953Y8892677D01*
X2094953Y8892677D01*
X2112261Y8899845D01*
X2130633Y8903500D01*
X2149367Y8903500D01*
X2167740Y8899845D01*
X2167740Y8899845D01*
G37*
G36*
X1981100Y8713300D02*
G01*
X1790900Y8713300D01*
X1790900Y8903500D01*
X1981100Y8903500D01*
X1981100Y8713300D01*
X1981100Y8713300D01*
G37*
G36*
X1367740Y8899845D02*
G01*
X1385047Y8892677D01*
X1385047Y8892677D01*
X1400623Y8882269D01*
X1413869Y8869023D01*
X1413869Y8869023D01*
X1424277Y8853447D01*
X1431445Y8836140D01*
X1435100Y8817767D01*
X1435100Y8799033D01*
X1431445Y8780661D01*
X1424277Y8763353D01*
X1424276Y8763353D01*
X1413869Y8747777D01*
X1400623Y8734531D01*
X1392782Y8729292D01*
X1385047Y8724123D01*
X1367740Y8716955D01*
X1349367Y8713300D01*
X1330633Y8713300D01*
X1312261Y8716955D01*
X1294953Y8724123D01*
X1287218Y8729292D01*
X1279377Y8734531D01*
X1266131Y8747777D01*
X1255724Y8763353D01*
X1255723Y8763353D01*
X1248555Y8780661D01*
X1244900Y8799033D01*
X1244900Y8817767D01*
X1248555Y8836140D01*
X1255723Y8853447D01*
X1266131Y8869023D01*
X1266131Y8869023D01*
X1279377Y8882269D01*
X1294953Y8892677D01*
X1294953Y8892677D01*
X1312261Y8899845D01*
X1330633Y8903500D01*
X1349367Y8903500D01*
X1367740Y8899845D01*
X1367740Y8899845D01*
G37*
G36*
X1181100Y8713300D02*
G01*
X990900Y8713300D01*
X990900Y8903500D01*
X1181100Y8903500D01*
X1181100Y8713300D01*
X1181100Y8713300D01*
G37*
G36*
X567740Y8899845D02*
G01*
X585047Y8892677D01*
X585047Y8892677D01*
X600623Y8882269D01*
X613869Y8869023D01*
X613869Y8869023D01*
X624277Y8853447D01*
X631445Y8836140D01*
X635100Y8817767D01*
X635100Y8799033D01*
X631445Y8780661D01*
X624277Y8763353D01*
X624277Y8763353D01*
X613869Y8747777D01*
X600623Y8734531D01*
X592782Y8729292D01*
X585047Y8724123D01*
X567740Y8716955D01*
X549367Y8713300D01*
X530633Y8713300D01*
X512260Y8716955D01*
X494953Y8724123D01*
X487218Y8729292D01*
X479377Y8734531D01*
X466131Y8747777D01*
X455723Y8763353D01*
X455723Y8763353D01*
X448555Y8780661D01*
X444900Y8799033D01*
X444900Y8817767D01*
X448555Y8836140D01*
X455723Y8853447D01*
X466131Y8869023D01*
X466131Y8869023D01*
X479377Y8882269D01*
X494953Y8892677D01*
X494953Y8892677D01*
X512260Y8899845D01*
X530633Y8903500D01*
X549367Y8903500D01*
X567740Y8899845D01*
X567740Y8899845D01*
G37*
G36*
X381100Y8713300D02*
G01*
X190900Y8713300D01*
X190900Y8903500D01*
X381100Y8903500D01*
X381100Y8713300D01*
X381100Y8713300D01*
G37*
G36*
X3581100Y8713300D02*
G01*
X3390900Y8713300D01*
X3390900Y8903500D01*
X3581100Y8903500D01*
X3581100Y8713300D01*
X3581100Y8713300D01*
G37*
G36*
X3767739Y8899845D02*
G01*
X3785047Y8892677D01*
X3785047Y8892677D01*
X3800623Y8882269D01*
X3813869Y8869023D01*
X3813869Y8869023D01*
X3824277Y8853447D01*
X3831445Y8836140D01*
X3835100Y8817767D01*
X3835100Y8799033D01*
X3831445Y8780661D01*
X3824277Y8763353D01*
X3824276Y8763353D01*
X3813869Y8747777D01*
X3800623Y8734531D01*
X3792782Y8729292D01*
X3785047Y8724123D01*
X3767739Y8716955D01*
X3749367Y8713300D01*
X3730633Y8713300D01*
X3712260Y8716955D01*
X3694953Y8724123D01*
X3687218Y8729292D01*
X3679377Y8734531D01*
X3666131Y8747777D01*
X3655723Y8763353D01*
X3655723Y8763353D01*
X3648555Y8780661D01*
X3644900Y8799033D01*
X3644900Y8817767D01*
X3648555Y8836140D01*
X3655723Y8853447D01*
X3666131Y8869023D01*
X3666131Y8869023D01*
X3679377Y8882269D01*
X3694953Y8892677D01*
X3694953Y8892677D01*
X3712260Y8899845D01*
X3730633Y8903500D01*
X3749367Y8903500D01*
X3767739Y8899845D01*
X3767739Y8899845D01*
G37*
G36*
X4381100Y8713300D02*
G01*
X4190900Y8713300D01*
X4190900Y8903500D01*
X4381100Y8903500D01*
X4381100Y8713300D01*
X4381100Y8713300D01*
G37*
G36*
X2781100Y8713300D02*
G01*
X2590900Y8713300D01*
X2590900Y8903500D01*
X2781100Y8903500D01*
X2781100Y8713300D01*
X2781100Y8713300D01*
G37*
G36*
X4567740Y8899845D02*
G01*
X4585047Y8892677D01*
X4585047Y8892677D01*
X4600623Y8882269D01*
X4613869Y8869023D01*
X4613869Y8869023D01*
X4624277Y8853447D01*
X4631445Y8836140D01*
X4635100Y8817767D01*
X4635100Y8799033D01*
X4631445Y8780661D01*
X4624277Y8763353D01*
X4624277Y8763353D01*
X4613869Y8747777D01*
X4600623Y8734531D01*
X4592782Y8729292D01*
X4585047Y8724123D01*
X4567740Y8716955D01*
X4549367Y8713300D01*
X4530633Y8713300D01*
X4512261Y8716955D01*
X4494953Y8724123D01*
X4487218Y8729292D01*
X4479377Y8734531D01*
X4466131Y8747777D01*
X4455724Y8763353D01*
X4455723Y8763353D01*
X4448555Y8780661D01*
X4444900Y8799033D01*
X4444900Y8817767D01*
X4448555Y8836140D01*
X4455723Y8853447D01*
X4466131Y8869023D01*
X4466131Y8869023D01*
X4479377Y8882269D01*
X4494953Y8892677D01*
X4494953Y8892677D01*
X4512261Y8899845D01*
X4530633Y8903500D01*
X4549367Y8903500D01*
X4567740Y8899845D01*
X4567740Y8899845D01*
G37*
G36*
X2967739Y8899845D02*
G01*
X2985047Y8892677D01*
X2985047Y8892677D01*
X3000623Y8882269D01*
X3013869Y8869023D01*
X3013869Y8869023D01*
X3024277Y8853447D01*
X3031445Y8836140D01*
X3035100Y8817767D01*
X3035100Y8799033D01*
X3031445Y8780661D01*
X3024277Y8763353D01*
X3024276Y8763353D01*
X3013869Y8747777D01*
X3000623Y8734531D01*
X2992782Y8729292D01*
X2985047Y8724123D01*
X2967739Y8716955D01*
X2949367Y8713300D01*
X2930633Y8713300D01*
X2912260Y8716955D01*
X2894953Y8724123D01*
X2887218Y8729292D01*
X2879377Y8734531D01*
X2866131Y8747777D01*
X2855723Y8763353D01*
X2855723Y8763353D01*
X2848555Y8780661D01*
X2844900Y8799033D01*
X2844900Y8817767D01*
X2848555Y8836140D01*
X2855723Y8853447D01*
X2866131Y8869023D01*
X2866131Y8869023D01*
X2879377Y8882269D01*
X2894953Y8892677D01*
X2894953Y8892677D01*
X2912260Y8899845D01*
X2930633Y8903500D01*
X2949367Y8903500D01*
X2967739Y8899845D01*
X2967739Y8899845D01*
G37*
M02*
